<?xml version="1.0" encoding="iso-8859-1"?>
<!-- Generator: Adobe Illustrator 16.0.0, SVG Export Plug-In . SVG Version: 6.00 Build 0)  -->
<!DOCTYPE svg PUBLIC "-//W3C//DTD SVG 1.1//EN" "http://www.w3.org/Graphics/SVG/1.1/DTD/svg11.dtd">
<svg xmlns="http://www.w3.org/2000/svg"  version="1.1" id="Capa_1" x="0px" y="0px" width="512px" height="512px" viewBox="0 0 42.578 42.578" style="enable-background:new 0 0 42.578 42.578;" xml:space="preserve">
<g>
	<path d="M1.017,3.866v3.239h0.509V2.948H1.198C1.109,3.127,0.959,3.311,0.746,3.501C0.534,3.691,0.284,3.853,0,3.988v0.49   C0.159,4.42,0.338,4.333,0.537,4.215C0.735,4.1,0.895,3.982,1.017,3.866z M4.178,7.176c0.303,0,0.553-0.082,0.751-0.245   c0.2-0.163,0.349-0.393,0.449-0.691c0.1-0.299,0.15-0.691,0.15-1.177c0-0.41-0.031-0.736-0.093-0.978   C5.372,3.842,5.286,3.638,5.178,3.468C5.068,3.3,4.929,3.171,4.762,3.082C4.594,2.993,4.4,2.948,4.178,2.948   c-0.3,0-0.552,0.081-0.75,0.243c-0.2,0.162-0.348,0.391-0.45,0.69c-0.1,0.298-0.151,0.693-0.151,1.182   c0,0.778,0.138,1.339,0.41,1.684C3.465,7.033,3.779,7.176,4.178,7.176z M3.612,3.665c0.139-0.198,0.326-0.297,0.56-0.297   c0.237,0,0.435,0.112,0.595,0.335c0.16,0.225,0.239,0.677,0.239,1.359c0,0.678-0.079,1.13-0.239,1.355   c-0.16,0.227-0.356,0.34-0.589,0.34s-0.43-0.113-0.589-0.338c-0.16-0.224-0.237-0.677-0.237-1.357S3.437,3.917,3.612,3.665z    M7.452,3.866v3.239H7.96V2.948H7.632C7.544,3.127,7.393,3.311,7.18,3.502C6.968,3.691,6.72,3.853,6.434,3.988v0.49   C6.593,4.42,6.772,4.333,6.97,4.215C7.169,4.1,7.33,3.982,7.452,3.866z M10.613,7.176c0.301,0,0.553-0.082,0.751-0.245   c0.199-0.163,0.347-0.393,0.447-0.691c0.1-0.299,0.151-0.691,0.151-1.177c0-0.41-0.032-0.736-0.095-0.978   c-0.059-0.243-0.145-0.447-0.255-0.617c-0.11-0.168-0.247-0.297-0.416-0.386c-0.168-0.089-0.362-0.134-0.583-0.134   c-0.302,0-0.553,0.081-0.751,0.243c-0.199,0.162-0.348,0.392-0.449,0.69c-0.1,0.298-0.15,0.693-0.15,1.182   c0,0.778,0.136,1.339,0.409,1.684C9.899,7.033,10.213,7.176,10.613,7.176z M10.046,3.665c0.14-0.198,0.327-0.297,0.56-0.297   c0.238,0,0.435,0.112,0.595,0.335c0.16,0.225,0.239,0.677,0.239,1.359c0,0.678-0.079,1.13-0.239,1.355   c-0.16,0.227-0.355,0.34-0.587,0.34c-0.235,0-0.431-0.113-0.59-0.338c-0.16-0.224-0.238-0.677-0.238-1.357   S9.872,3.917,10.046,3.665z M13.829,7.176c0.303,0,0.553-0.082,0.751-0.245c0.199-0.163,0.349-0.393,0.449-0.691   c0.1-0.299,0.15-0.691,0.15-1.177c0-0.41-0.031-0.736-0.093-0.978c-0.063-0.243-0.148-0.447-0.257-0.617   c-0.11-0.168-0.249-0.297-0.416-0.386c-0.168-0.089-0.362-0.134-0.584-0.134c-0.302,0-0.552,0.081-0.75,0.243   c-0.199,0.162-0.347,0.392-0.449,0.69c-0.1,0.298-0.151,0.693-0.151,1.182c0,0.778,0.138,1.339,0.41,1.684   C13.116,7.033,13.429,7.176,13.829,7.176z M13.264,3.665c0.139-0.198,0.326-0.297,0.56-0.297c0.237,0,0.435,0.112,0.595,0.335   c0.16,0.225,0.239,0.677,0.239,1.359c0,0.678-0.079,1.13-0.239,1.355c-0.16,0.227-0.356,0.34-0.589,0.34s-0.43-0.113-0.589-0.338   c-0.16-0.224-0.237-0.677-0.237-1.357S13.088,3.917,13.264,3.665z M17.046,7.176c0.303,0,0.553-0.082,0.751-0.245   c0.199-0.163,0.349-0.393,0.449-0.691c0.1-0.299,0.15-0.691,0.15-1.177c0-0.41-0.032-0.736-0.093-0.978   c-0.063-0.243-0.149-0.447-0.257-0.617c-0.111-0.168-0.249-0.297-0.415-0.386c-0.168-0.089-0.364-0.134-0.585-0.134   c-0.301,0-0.551,0.081-0.75,0.243c-0.199,0.162-0.349,0.392-0.45,0.69c-0.1,0.298-0.15,0.693-0.15,1.182   c0,0.778,0.136,1.339,0.408,1.684C16.332,7.033,16.646,7.176,17.046,7.176z M16.48,3.665c0.139-0.198,0.327-0.297,0.559-0.297   c0.239,0,0.436,0.112,0.596,0.335c0.159,0.225,0.239,0.677,0.239,1.359c0,0.678-0.081,1.13-0.239,1.355   c-0.16,0.227-0.355,0.34-0.589,0.34c-0.235,0-0.431-0.113-0.59-0.338c-0.158-0.224-0.237-0.677-0.237-1.357   S16.306,3.917,16.48,3.665z M20.32,3.866v3.239h0.508V2.948H20.5c-0.089,0.179-0.239,0.363-0.451,0.554   c-0.212,0.189-0.463,0.352-0.746,0.486v0.49c0.158-0.058,0.336-0.145,0.536-0.263C20.037,4.1,20.198,3.982,20.32,3.866z    M23.105,3.866v3.239h0.512V2.948h-0.328c-0.09,0.179-0.24,0.363-0.453,0.554c-0.213,0.189-0.461,0.352-0.746,0.486v0.49   c0.158-0.058,0.337-0.145,0.535-0.263C22.826,4.1,22.986,3.982,23.105,3.866z M26.267,7.176c0.305,0,0.555-0.082,0.75-0.245   c0.199-0.163,0.352-0.393,0.449-0.691c0.1-0.299,0.15-0.691,0.15-1.177c0-0.41-0.031-0.736-0.094-0.978   c-0.061-0.243-0.146-0.447-0.256-0.617c-0.109-0.168-0.25-0.297-0.416-0.386c-0.168-0.089-0.361-0.134-0.584-0.134   c-0.301,0-0.551,0.081-0.75,0.243c-0.199,0.162-0.35,0.392-0.451,0.69c-0.098,0.298-0.148,0.693-0.148,1.182   c0,0.778,0.137,1.339,0.408,1.684C25.554,7.033,25.869,7.176,26.267,7.176z M25.703,3.665c0.141-0.198,0.328-0.297,0.561-0.297   c0.236,0,0.436,0.112,0.594,0.335c0.16,0.225,0.24,0.677,0.24,1.359c0,0.678-0.082,1.13-0.24,1.355   c-0.158,0.227-0.354,0.34-0.588,0.34s-0.432-0.113-0.59-0.338c-0.16-0.224-0.238-0.677-0.238-1.357S25.529,3.917,25.703,3.665z    M29.541,3.866v3.239h0.508V2.948h-0.326c-0.09,0.179-0.24,0.363-0.451,0.554c-0.213,0.189-0.463,0.351-0.748,0.486v0.49   c0.158-0.058,0.338-0.145,0.535-0.263C29.259,4.1,29.417,3.982,29.541,3.866z M32.703,7.176c0.303,0,0.553-0.082,0.752-0.245   c0.197-0.163,0.35-0.393,0.447-0.691c0.1-0.299,0.148-0.691,0.148-1.177c0-0.41-0.031-0.736-0.092-0.978   c-0.064-0.243-0.148-0.447-0.258-0.617c-0.109-0.168-0.248-0.297-0.416-0.386s-0.359-0.134-0.582-0.134   c-0.301,0-0.553,0.081-0.75,0.243c-0.199,0.162-0.35,0.392-0.449,0.69c-0.1,0.298-0.15,0.693-0.15,1.182   c0,0.778,0.139,1.339,0.41,1.684C31.99,7.033,32.302,7.176,32.703,7.176z M32.138,3.665c0.139-0.198,0.324-0.297,0.561-0.297   s0.434,0.112,0.594,0.335c0.16,0.225,0.24,0.677,0.24,1.359c0,0.678-0.08,1.13-0.24,1.355c-0.16,0.227-0.355,0.34-0.588,0.34   c-0.234,0-0.43-0.113-0.59-0.338c-0.16-0.224-0.236-0.677-0.236-1.357S31.962,3.917,32.138,3.665z M35.976,3.866v3.239h0.508V2.948   h-0.328c-0.088,0.179-0.238,0.363-0.451,0.554c-0.213,0.189-0.463,0.352-0.746,0.486v0.49c0.156-0.058,0.336-0.145,0.535-0.263   C35.691,4.1,35.853,3.982,35.976,3.866z M38.763,3.866v3.239h0.51V2.948h-0.328c-0.088,0.179-0.238,0.363-0.451,0.554   c-0.213,0.189-0.461,0.352-0.746,0.486v0.49c0.158-0.058,0.336-0.145,0.535-0.263C38.48,4.1,38.642,3.982,38.763,3.866z    M1.017,10.807v3.24h0.509V9.889H1.198c-0.089,0.179-0.239,0.363-0.451,0.554c-0.213,0.188-0.463,0.352-0.746,0.486v0.491   c0.158-0.058,0.337-0.146,0.536-0.262C0.735,11.04,0.895,10.923,1.017,10.807z M4.178,14.118c0.303,0,0.553-0.082,0.751-0.245   c0.2-0.163,0.349-0.393,0.449-0.691c0.1-0.298,0.15-0.691,0.15-1.177c0-0.41-0.031-0.736-0.093-0.978   c-0.063-0.243-0.148-0.448-0.257-0.616c-0.11-0.169-0.249-0.297-0.416-0.387C4.594,9.935,4.4,9.89,4.178,9.89   c-0.3,0-0.552,0.081-0.75,0.243c-0.199,0.162-0.347,0.393-0.449,0.69c-0.1,0.299-0.151,0.692-0.151,1.181   c0,0.779,0.138,1.339,0.41,1.684C3.465,13.974,3.779,14.118,4.178,14.118z M3.612,10.607c0.139-0.198,0.326-0.297,0.56-0.297   c0.237,0,0.435,0.112,0.595,0.335c0.16,0.224,0.239,0.677,0.239,1.358c0,0.679-0.079,1.13-0.239,1.356s-0.356,0.339-0.589,0.339   s-0.43-0.113-0.589-0.338c-0.16-0.225-0.237-0.677-0.237-1.357C3.351,11.325,3.437,10.859,3.612,10.607z M7.452,10.807v3.24H7.96   V9.889H7.632c-0.088,0.179-0.239,0.363-0.452,0.554c-0.212,0.188-0.461,0.352-0.746,0.486v0.491   c0.159-0.058,0.338-0.146,0.536-0.262C7.169,11.04,7.33,10.923,7.452,10.807z M10.613,14.118c0.301,0,0.553-0.082,0.751-0.245   c0.199-0.163,0.347-0.393,0.447-0.691s0.151-0.691,0.151-1.177c0-0.41-0.032-0.736-0.095-0.978   c-0.061-0.243-0.147-0.448-0.257-0.616c-0.11-0.169-0.247-0.297-0.416-0.387c-0.168-0.089-0.362-0.134-0.583-0.134   c-0.302,0-0.553,0.081-0.751,0.243c-0.199,0.162-0.348,0.393-0.449,0.69c-0.1,0.299-0.15,0.692-0.15,1.181   c0,0.779,0.136,1.339,0.409,1.684C9.899,13.974,10.213,14.118,10.613,14.118z M10.046,10.607c0.14-0.198,0.327-0.297,0.56-0.297   c0.238,0,0.435,0.112,0.595,0.335c0.16,0.224,0.239,0.677,0.239,1.358c0,0.679-0.079,1.13-0.239,1.356s-0.355,0.339-0.587,0.339   c-0.235,0-0.431-0.113-0.59-0.338c-0.16-0.225-0.238-0.677-0.238-1.357C9.785,11.325,9.872,10.859,10.046,10.607z M14.394,14.047   V9.889h-0.328c-0.089,0.179-0.239,0.363-0.453,0.554c-0.212,0.188-0.461,0.352-0.744,0.486v0.491   c0.158-0.058,0.336-0.146,0.535-0.262c0.199-0.117,0.36-0.234,0.48-0.351v3.24H14.394z M16.672,10.807v3.24h0.508V9.889h-0.328   c-0.087,0.179-0.239,0.363-0.452,0.554c-0.212,0.188-0.461,0.352-0.745,0.486v0.491c0.159-0.058,0.336-0.146,0.535-0.262   C16.39,11.04,16.551,10.923,16.672,10.807z M19.835,14.118c0.301,0,0.553-0.082,0.751-0.245c0.198-0.163,0.347-0.393,0.447-0.691   s0.151-0.691,0.151-1.177c0-0.41-0.032-0.736-0.095-0.978c-0.061-0.243-0.147-0.448-0.257-0.616   c-0.11-0.169-0.247-0.297-0.414-0.387c-0.169-0.089-0.364-0.134-0.584-0.134c-0.302,0-0.552,0.081-0.75,0.243   c-0.198,0.162-0.349,0.393-0.45,0.69c-0.1,0.299-0.15,0.692-0.15,1.181c0,0.779,0.136,1.339,0.409,1.684   C19.121,13.974,19.435,14.118,19.835,14.118z M19.27,10.607c0.139-0.198,0.326-0.297,0.558-0.297c0.238,0,0.437,0.112,0.595,0.335   c0.16,0.224,0.239,0.677,0.239,1.358c0,0.679-0.079,1.13-0.239,1.356c-0.158,0.226-0.355,0.339-0.587,0.339   c-0.235,0-0.431-0.113-0.59-0.338c-0.16-0.225-0.238-0.677-0.238-1.357C19.007,11.325,19.095,10.859,19.27,10.607z M32.703,14.118   c0.303,0,0.553-0.082,0.752-0.245c0.197-0.163,0.35-0.393,0.447-0.691c0.1-0.298,0.148-0.691,0.148-1.177   c0-0.41-0.031-0.736-0.092-0.978c-0.064-0.243-0.148-0.448-0.258-0.616c-0.109-0.169-0.248-0.297-0.416-0.387   c-0.168-0.09-0.361-0.134-0.584-0.134c-0.301,0-0.553,0.081-0.75,0.243c-0.199,0.162-0.348,0.393-0.449,0.69   c-0.102,0.299-0.152,0.692-0.152,1.181c0,0.779,0.141,1.339,0.41,1.684C31.99,13.974,32.302,14.118,32.703,14.118z M32.138,10.607   c0.139-0.198,0.324-0.297,0.561-0.297s0.434,0.112,0.594,0.335c0.16,0.224,0.24,0.677,0.24,1.358c0,0.679-0.08,1.13-0.24,1.356   s-0.355,0.339-0.588,0.339c-0.234,0-0.43-0.113-0.59-0.338c-0.16-0.225-0.236-0.677-0.236-1.357   C31.876,11.325,31.962,10.859,32.138,10.607z M35.919,14.118c0.303,0,0.553-0.082,0.75-0.245c0.199-0.163,0.35-0.393,0.449-0.691   s0.148-0.691,0.148-1.177c0-0.41-0.029-0.736-0.092-0.978c-0.062-0.243-0.148-0.448-0.258-0.616   c-0.111-0.169-0.248-0.297-0.414-0.387C36.335,9.935,36.14,9.89,35.917,9.89c-0.301,0-0.551,0.081-0.75,0.243   c-0.199,0.162-0.35,0.393-0.449,0.69c-0.1,0.299-0.15,0.692-0.15,1.181c0,0.779,0.137,1.339,0.408,1.684   C35.205,13.974,35.517,14.118,35.919,14.118z M35.353,10.607c0.141-0.198,0.326-0.297,0.561-0.297c0.236,0,0.436,0.112,0.596,0.335   c0.158,0.224,0.238,0.677,0.238,1.358c0,0.679-0.082,1.13-0.238,1.356c-0.16,0.226-0.355,0.339-0.59,0.339   c-0.236,0-0.432-0.113-0.59-0.338c-0.16-0.225-0.238-0.677-0.238-1.357C35.093,11.325,35.179,10.859,35.353,10.607z M38.388,10.132   c-0.201,0.162-0.35,0.393-0.451,0.69c-0.1,0.299-0.148,0.692-0.148,1.181c0,0.779,0.135,1.339,0.408,1.684   c0.227,0.286,0.541,0.43,0.941,0.43c0.301,0,0.553-0.082,0.75-0.245c0.199-0.163,0.348-0.393,0.447-0.691   c0.098-0.298,0.15-0.691,0.15-1.177c0-0.41-0.031-0.736-0.096-0.978c-0.061-0.243-0.145-0.448-0.256-0.616   c-0.111-0.169-0.248-0.297-0.414-0.387c-0.17-0.089-0.365-0.134-0.586-0.134C38.835,9.889,38.585,9.97,38.388,10.132z    M39.724,10.645c0.16,0.224,0.24,0.677,0.24,1.358c0,0.679-0.08,1.13-0.24,1.356c-0.158,0.226-0.354,0.339-0.586,0.339   c-0.234,0-0.432-0.113-0.592-0.338c-0.158-0.225-0.236-0.677-0.236-1.357c0-0.679,0.088-1.145,0.262-1.397   c0.139-0.198,0.326-0.297,0.559-0.297C39.367,10.31,39.564,10.422,39.724,10.645z M1.017,17.748v3.24h0.509v-4.157H1.198   c-0.089,0.179-0.239,0.363-0.451,0.554c-0.213,0.19-0.463,0.352-0.746,0.486v0.491c0.158-0.059,0.337-0.146,0.536-0.263   C0.736,17.982,0.895,17.865,1.017,17.748z M4.178,21.059c0.303,0,0.553-0.082,0.751-0.245c0.2-0.163,0.349-0.394,0.449-0.692   c0.1-0.299,0.15-0.691,0.15-1.177c0-0.41-0.031-0.737-0.093-0.979c-0.063-0.242-0.148-0.447-0.257-0.616   c-0.11-0.168-0.249-0.297-0.416-0.387c-0.168-0.089-0.362-0.134-0.584-0.134c-0.3,0-0.552,0.081-0.75,0.243   c-0.199,0.162-0.347,0.392-0.449,0.69c-0.1,0.298-0.151,0.692-0.151,1.182c0,0.778,0.138,1.339,0.41,1.684   C3.465,20.915,3.779,21.059,4.178,21.059z M3.612,17.548c0.139-0.198,0.326-0.296,0.56-0.296c0.237,0,0.435,0.112,0.595,0.336   c0.16,0.224,0.239,0.677,0.239,1.358c0,0.678-0.079,1.13-0.239,1.356s-0.356,0.339-0.589,0.339s-0.43-0.112-0.589-0.337   c-0.159-0.225-0.237-0.677-0.237-1.357C3.351,18.266,3.437,17.801,3.612,17.548z M7.452,17.748v3.24H7.96v-4.157H7.632   c-0.088,0.179-0.239,0.363-0.452,0.554c-0.212,0.19-0.461,0.352-0.746,0.486v0.491c0.159-0.059,0.338-0.146,0.536-0.263   C7.169,17.982,7.33,17.865,7.452,17.748z M10.613,21.059c0.301,0,0.553-0.082,0.751-0.245c0.199-0.163,0.347-0.394,0.447-0.692   c0.1-0.299,0.151-0.691,0.151-1.177c0-0.41-0.032-0.737-0.095-0.979c-0.061-0.242-0.147-0.447-0.257-0.616   c-0.11-0.169-0.247-0.297-0.416-0.387c-0.168-0.089-0.362-0.134-0.583-0.134c-0.302,0-0.553,0.081-0.751,0.243   c-0.199,0.162-0.348,0.392-0.449,0.69c-0.1,0.298-0.15,0.692-0.15,1.182c0,0.778,0.136,1.339,0.409,1.684   C9.899,20.915,10.213,21.059,10.613,21.059z M10.046,17.548c0.14-0.198,0.327-0.296,0.56-0.296c0.238,0,0.435,0.112,0.595,0.336   c0.16,0.224,0.239,0.677,0.239,1.358c0,0.678-0.079,1.13-0.239,1.356s-0.355,0.339-0.587,0.339c-0.235,0-0.431-0.112-0.59-0.337   c-0.16-0.225-0.238-0.677-0.238-1.357C9.785,18.266,9.872,17.801,10.046,17.548z M13.829,21.059c0.303,0,0.553-0.082,0.751-0.245   c0.199-0.163,0.349-0.394,0.449-0.692c0.1-0.299,0.15-0.691,0.15-1.177c0-0.41-0.031-0.737-0.093-0.979   c-0.063-0.242-0.148-0.447-0.257-0.616c-0.11-0.168-0.249-0.297-0.416-0.387c-0.168-0.089-0.362-0.134-0.584-0.134   c-0.302,0-0.552,0.081-0.75,0.243c-0.199,0.162-0.347,0.392-0.449,0.69c-0.1,0.298-0.151,0.692-0.151,1.182   c0,0.778,0.138,1.339,0.41,1.684C13.116,20.915,13.429,21.059,13.829,21.059z M13.264,17.548c0.139-0.198,0.326-0.296,0.56-0.296   c0.237,0,0.435,0.112,0.595,0.336c0.16,0.224,0.239,0.677,0.239,1.358c0,0.678-0.079,1.13-0.239,1.356   c-0.16,0.226-0.356,0.339-0.589,0.339s-0.43-0.112-0.589-0.337c-0.159-0.225-0.237-0.677-0.237-1.357   C13.002,18.266,13.088,17.801,13.264,17.548z M38.763,17.748v3.24h0.51v-4.157h-0.328c-0.088,0.179-0.238,0.363-0.451,0.554   c-0.213,0.19-0.461,0.352-0.744,0.486v0.491c0.156-0.059,0.336-0.146,0.535-0.263C38.48,17.982,38.642,17.865,38.763,17.748z    M0.946,23.535c-0.213,0.19-0.463,0.353-0.746,0.485v0.492c0.158-0.061,0.337-0.146,0.536-0.265   c0.199-0.117,0.358-0.231,0.48-0.351v3.238h0.509v-4.156H1.397C1.308,23.16,1.158,23.345,0.946,23.535z M5.377,23.502   c-0.11-0.168-0.249-0.297-0.416-0.387c-0.168-0.089-0.362-0.134-0.584-0.134c-0.3,0-0.552,0.08-0.75,0.242   c-0.199,0.162-0.347,0.393-0.449,0.689c-0.1,0.298-0.151,0.691-0.151,1.184c0,0.776,0.138,1.338,0.41,1.684   c0.228,0.285,0.542,0.43,0.94,0.43c0.303,0,0.553-0.082,0.751-0.245c0.2-0.163,0.349-0.394,0.449-0.692   c0.1-0.297,0.15-0.689,0.15-1.176c0-0.41-0.031-0.738-0.093-0.979C5.571,23.875,5.485,23.67,5.377,23.502z M4.966,26.452   c-0.16,0.227-0.356,0.339-0.589,0.339s-0.43-0.112-0.589-0.337s-0.237-0.677-0.237-1.357c0-0.68,0.086-1.145,0.261-1.396   c0.139-0.198,0.326-0.296,0.56-0.296c0.237,0,0.435,0.11,0.595,0.336c0.16,0.224,0.239,0.677,0.239,1.356   C5.205,25.774,5.125,26.226,4.966,26.452z M7.38,23.535c-0.212,0.19-0.461,0.353-0.746,0.485v0.492   c0.159-0.061,0.338-0.146,0.536-0.265c0.199-0.117,0.36-0.231,0.481-0.351v3.238h0.508v-4.156H7.831   C7.744,23.16,7.592,23.345,7.38,23.535z M11.811,23.502c-0.11-0.168-0.247-0.297-0.416-0.387c-0.168-0.089-0.362-0.134-0.583-0.134   c-0.302,0-0.553,0.08-0.751,0.242c-0.199,0.162-0.348,0.393-0.449,0.689c-0.1,0.298-0.15,0.691-0.15,1.184   c0,0.776,0.136,1.338,0.409,1.684c0.228,0.285,0.542,0.43,0.942,0.43c0.301,0,0.553-0.082,0.751-0.245   c0.199-0.163,0.347-0.394,0.447-0.692c0.1-0.297,0.151-0.689,0.151-1.176c0-0.41-0.032-0.738-0.095-0.979   C12.007,23.875,11.921,23.67,11.811,23.502z M11.4,26.452c-0.16,0.227-0.355,0.339-0.587,0.339c-0.235,0-0.431-0.112-0.59-0.337   c-0.16-0.225-0.238-0.677-0.238-1.357c0-0.68,0.087-1.145,0.261-1.396c0.14-0.198,0.327-0.296,0.56-0.296   c0.238,0,0.435,0.11,0.595,0.336c0.16,0.224,0.239,0.677,0.239,1.356C11.639,25.774,11.559,26.226,11.4,26.452z M15.028,23.502   c-0.11-0.168-0.249-0.297-0.416-0.387c-0.168-0.089-0.362-0.134-0.584-0.134c-0.302,0-0.552,0.08-0.75,0.242   c-0.199,0.162-0.347,0.393-0.449,0.689c-0.1,0.298-0.151,0.691-0.151,1.184c0,0.776,0.138,1.338,0.41,1.684   c0.228,0.285,0.54,0.43,0.94,0.43c0.303,0,0.553-0.082,0.751-0.245c0.199-0.163,0.349-0.394,0.449-0.692   c0.1-0.297,0.15-0.689,0.15-1.176c0-0.41-0.031-0.738-0.093-0.979C15.223,23.875,15.137,23.67,15.028,23.502z M14.617,26.452   c-0.16,0.227-0.356,0.339-0.589,0.339c-0.233,0-0.43-0.112-0.589-0.337c-0.159-0.225-0.237-0.677-0.237-1.357   c0-0.68,0.086-1.145,0.261-1.396c0.139-0.198,0.326-0.296,0.56-0.296c0.237,0,0.435,0.11,0.595,0.336   c0.16,0.224,0.239,0.677,0.239,1.356C14.856,25.774,14.777,26.226,14.617,26.452z M39.472,27.138v-4.156h-0.328   c-0.088,0.18-0.238,0.363-0.451,0.555c-0.213,0.189-0.461,0.354-0.744,0.484v0.492c0.156-0.06,0.336-0.146,0.533-0.264   c0.199-0.117,0.361-0.232,0.48-0.35v3.238H39.472L39.472,27.138z M32.847,32.076l2.176-2.175l7.555,7.553l-2.176,2.176   L32.847,32.076z M35.976,24.062c0.074-0.056,0.143-0.108,0.197-0.164v3.24h0.508v-4.158h-0.328   c-0.066,0.138-0.184,0.278-0.322,0.423c0.01-0.183,0.025-0.364,0.025-0.55c0-1.621-0.398-3.146-1.096-4.495   c0.156-0.059,0.334-0.146,0.533-0.262c0.197-0.117,0.357-0.233,0.479-0.35v3.242h0.508v-4.157h-0.326   c-0.088,0.179-0.24,0.363-0.453,0.554c-0.211,0.19-0.461,0.352-0.744,0.486v0.485c-1.053-2.035-2.789-3.662-4.91-4.56V9.89h-0.328   c-0.09,0.179-0.24,0.363-0.451,0.554c-0.213,0.189-0.463,0.352-0.746,0.486v0.491c0.158-0.058,0.336-0.146,0.535-0.262   c0.199-0.117,0.359-0.234,0.482-0.351v2.802c-0.658-0.236-1.346-0.406-2.059-0.498c0.086-0.29,0.135-0.654,0.135-1.107   c0-0.41-0.031-0.736-0.094-0.978c-0.062-0.243-0.148-0.448-0.256-0.616c-0.111-0.169-0.25-0.297-0.416-0.387   c-0.168-0.089-0.361-0.134-0.584-0.134c-0.303,0-0.553,0.081-0.75,0.243c-0.199,0.162-0.35,0.393-0.451,0.69   c-0.098,0.299-0.148,0.692-0.148,1.181c0,0.436,0.047,0.796,0.131,1.095c-0.49,0.059-0.967,0.157-1.434,0.286V9.889h-0.324   c-0.09,0.179-0.24,0.363-0.453,0.554c-0.213,0.188-0.461,0.352-0.746,0.486v0.491c0.158-0.058,0.337-0.146,0.535-0.262   c0.199-0.117,0.36-0.234,0.479-0.351v2.731c-2.074,0.698-3.845,2.063-5.043,3.849c-0.006-0.01-0.009-0.026-0.015-0.036   c-0.111-0.168-0.249-0.297-0.415-0.387c-0.168-0.089-0.364-0.134-0.585-0.134c-0.301,0-0.551,0.081-0.75,0.243   c-0.199,0.162-0.349,0.392-0.45,0.69c-0.1,0.298-0.15,0.692-0.15,1.182c0,0.778,0.136,1.339,0.408,1.684   c0.129,0.162,0.293,0.266,0.478,0.336c-0.12,0.612-0.186,1.242-0.186,1.888c0,0.154,0.016,0.306,0.023,0.457   c-0.158,0.154-0.287,0.351-0.374,0.604c-0.1,0.298-0.15,0.692-0.15,1.183c0,0.777,0.136,1.338,0.408,1.685   c0.228,0.284,0.542,0.43,0.942,0.43c0.062,0,0.112-0.018,0.169-0.024c1.605,3.252,4.947,5.5,8.811,5.5   C31.238,32.685,35.378,28.913,35.976,24.062z M25.439,12.004c0-0.679,0.088-1.145,0.264-1.397c0.139-0.198,0.326-0.297,0.561-0.297   c0.236,0,0.436,0.112,0.594,0.335c0.158,0.224,0.238,0.677,0.238,1.358c0,0.458-0.039,0.805-0.113,1.056   c-0.25-0.019-0.5-0.038-0.756-0.038c-0.229,0-0.451,0.019-0.676,0.034C25.478,12.805,25.439,12.46,25.439,12.004z M16.455,20.303   c-0.158-0.225-0.237-0.677-0.237-1.357c0-0.68,0.087-1.145,0.262-1.398c0.139-0.198,0.327-0.296,0.559-0.296   c0.239,0,0.436,0.112,0.596,0.336c0.051,0.072,0.091,0.176,0.125,0.294c-0.479,0.813-0.843,1.7-1.073,2.641   C16.604,20.467,16.525,20.401,16.455,20.303z M16.655,26.454c-0.158-0.225-0.237-0.677-0.237-1.357c0-0.369,0.028-0.668,0.08-0.912   c0.124,0.912,0.368,1.785,0.725,2.603C16.998,26.777,16.809,26.671,16.655,26.454z M32.742,26.198   c-0.102,0.197-0.209,0.389-0.324,0.574c0.018-0.015,0.041-0.027,0.059-0.041c-0.268,0.429-0.586,0.82-0.934,1.184   c-0.062,0.064-0.115,0.133-0.178,0.193c-0.061,0.058-0.119,0.109-0.18,0.162c-0.168,0.156-0.342,0.307-0.523,0.444   c-0.027,0.022-0.059,0.046-0.086,0.064c-1.229,0.923-2.752,1.476-4.408,1.476c-4.066,0-7.362-3.296-7.362-7.361   c0-2.689,1.447-5.037,3.601-6.319c0.051-0.032,0.102-0.064,0.153-0.095c0.151-0.086,0.312-0.163,0.47-0.237   c0.969-0.473,2.049-0.751,3.197-0.751c4.062,0,7.363,3.303,7.363,7.363c0,0.072-0.008,0.142-0.012,0.213   c-0.002,0.007-0.006,0.012-0.008,0.019c-0.053,0.155-0.078,0.358-0.078,0.612c0,0.08,0.006,0.154,0.012,0.227   c-0.119,0.809-0.365,1.572-0.725,2.273H32.742L32.742,26.198z" fill="#c4563d"/>
</g>
<g>
</g>
<g>
</g>
<g>
</g>
<g>
</g>
<g>
</g>
<g>
</g>
<g>
</g>
<g>
</g>
<g>
</g>
<g>
</g>
<g>
</g>
<g>
</g>
<g>
</g>
<g>
</g>
<g>
</g>
</svg>
