<?xml version="1.0" encoding="iso-8859-1"?>
<!-- Generator: Adobe Illustrator 17.1.0, SVG Export Plug-In . SVG Version: 6.00 Build 0)  -->
<!DOCTYPE svg PUBLIC "-//W3C//DTD SVG 1.1//EN" "http://www.w3.org/Graphics/SVG/1.1/DTD/svg11.dtd">
<svg version="1.1" id="Capa_1" xmlns="http://www.w3.org/2000/svg"  x="0px" y="0px"
	 viewBox="0 0 481.481 481.481" style="enable-background:new 0 0 481.481 481.481;" xml:space="preserve">
<path d="M408.445,125.275c-1.242-1.573-3.307-2.252-5.236-1.725c-0.476,0.128-48.089,12.61-99.126-15.162
	c-38.354-20.869-47.119-34.973-48.59-37.844V45.985c0-0.109-0.025-0.211-0.032-0.318c-0.007-0.108,0.005-0.213-0.009-0.322
	c-0.066-0.516-1.735-12.777-10.823-24.45c-8.379-10.761-24.815-23.065-55.54-20.569c-53.033,4.306-76.305,12.43-86.174,17.696
	c-0.802-0.549-1.771-0.872-2.817-0.872H76.959c-2.762,0-5,2.239-5,5v454.33c0,2.761,2.238,5,5,5h23.138c2.762,0,5-2.239,5-5V208.427
	c11.875-5.113,58.429-23.851,102.729-23.851c1.219,0,2.392,0.025,3.533,0.067v54.672c0,0.023,0.003,0.045,0.004,0.068
	c0.001,0.041,0.005,0.082,0.007,0.122c0.012,0.31,0.047,0.617,0.114,0.915c0.001,0.003,0,0.007,0.001,0.01
	c0.003,0.013,0.009,0.024,0.012,0.037c0.057,0.239,0.134,0.471,0.225,0.698c0.021,0.053,0.041,0.106,0.063,0.158
	c0.097,0.221,0.208,0.434,0.336,0.639c0.032,0.051,0.067,0.098,0.1,0.147c0.113,0.167,0.235,0.326,0.367,0.479
	c0.036,0.042,0.07,0.085,0.107,0.125c0.138,0.149,0.284,0.292,0.442,0.425c0.019,0.016,0.042,0.027,0.061,0.043
	c0.14,0.115,0.292,0.212,0.443,0.311c0.088,0.057,0.171,0.122,0.262,0.174c0.171,0.097,0.353,0.173,0.534,0.249
	c0.079,0.033,0.154,0.076,0.235,0.105c0.246,0.089,0.501,0.155,0.76,0.204c0.02,0.004,0.039,0.012,0.059,0.015
	c0.282,0.05,0.57,0.077,0.862,0.077c0.25,0,0.502-0.026,0.755-0.065c0.032-0.005,0.065-0.003,0.097-0.008
	c0.138-0.024,1.184-0.212,2.857-0.685c9.483-2.38,43.855-11.596,83.665-29.356c77.979-34.787,104.107-81.463,105.182-83.434
	C409.87,129.008,409.687,126.847,408.445,125.275z M81.959,471.481v-261.31h13.138v261.31H81.959z M245.492,205.223
	c0.002,0.186,0.038,0.362,0.06,0.543c0.017,0.144,0.019,0.292,0.048,0.432c0.038,0.184,0.106,0.354,0.164,0.53l-0.021,0.007
	c0,0-0.036-0.081-0.07-0.243c0.015,0.071,1.346,7.206-12.094,18.682c-4.342,3.708-8.813,6.002-12.22,7.374v-46.879
	C244.683,189.806,245.469,204.403,245.492,205.223z M299.655,205.068c-19.376,8.644-37.407,15.214-51.798,19.93
	c8.436-10.115,8.146-17.63,7.635-20.372v-81.845c0-2.761-2.238-5-5-5s-5,2.239-5,5v62.808c-8.326-7.309-20.961-11.014-37.666-11.014
	c-42.704,0-86.02,16.047-102.729,22.974V73.829c0-2.761-2.238-5-5-5s-5,2.239-5,5v126.342H81.959V27.151h13.138V43.81
	c0,2.761,2.238,5,5,5s5-2.239,5-5V28.319c4.618-3.12,23.743-13.068,84.8-18.026c47.938-3.898,54.988,32.232,55.596,36.057v42.307
	c0,2.761,2.238,5,5,5s5-2.239,5-5v-2.08c7.535,7.594,20.743,18.042,43.811,30.594c39.156,21.306,75.928,20.572,94.325,18.253
	C382.004,150.559,353.674,180.97,299.655,205.068z"/>
<g>
</g>
<g>
</g>
<g>
</g>
<g>
</g>
<g>
</g>
<g>
</g>
<g>
</g>
<g>
</g>
<g>
</g>
<g>
</g>
<g>
</g>
<g>
</g>
<g>
</g>
<g>
</g>
<g>
</g>
</svg>
