<?xml version="1.0" encoding="UTF-8" standalone="no"?>
<!-- Created with Inkscape (http://www.inkscape.org/) -->

<svg
   xmlns:dc="http://purl.org/dc/elements/1.1/"
   xmlns:cc="http://creativecommons.org/ns#"
   xmlns:rdf="http://www.w3.org/1999/02/22-rdf-syntax-ns#"
   xmlns="http://www.w3.org/2000/svg"
   xmlns:sodipodi="http://sodipodi.sourceforge.net/DTD/sodipodi-0.dtd"
   xmlns:inkscape="http://www.inkscape.org/namespaces/inkscape"
   id="svg2"
   version="1.1"
   inkscape:version="0.48.4 r9939"
   width="450"
   height="450"
   xml:space="preserve"
   sodipodi:docname="Vertical-spot_1.pdf"><metadata
     id="metadata8"><rdf:RDF><cc:Work
         rdf:about=""><dc:format>image/svg+xml</dc:format><dc:type
           rdf:resource="http://purl.org/dc/dcmitype/StillImage" /><dc:title></dc:title></cc:Work></rdf:RDF></metadata><defs
     id="defs6">
  <clipPath
       clipPathUnits="userSpaceOnUse"
       id="clipPath16">
    <path
         d="M 0,360 360,360 360,0 0,0 0,360 z"
         id="path18" />
</clipPath></defs><sodipodi:namedview
     pagecolor="#ffffff"
     bordercolor="#666666"
     borderopacity="1"
     objecttolerance="10"
     gridtolerance="10"
     guidetolerance="10"/><g
     id="g10"
     inkscape:groupmode="layer"
     inkscape:label="Vertical-spot_1"
     transform="matrix(1.25,0,0,-1.25,0,450)"><g
       id="g12"><g
         id="g14"
         clip-path="url(#clipPath16)"><g
           id="g20"
           transform="translate(119.3008,154.9609)"><path
             d="m 0,0 c 0,-26.172 -22.745,-47.271 -50.648,-47.271 -27.907,0 -50.65,21.099 -50.65,47.271 l -0.003,147.766 c 0,26.172 22.743,47.273 50.65,47.273 27.904,0 50.649,-21.101 50.649,-47.273 L 0,0 m -64.028,-0.986 c 0,-6.948 5.939,-13.198 13.38,-13.198 7.439,0 13.377,6.25 13.377,13.198 l -10e-4,149.753 c 0,6.948 -5.939,13.198 -13.379,13.198 -7.439,0 -13.38,-6.25 -13.38,-13.198 L -64.028,-0.986 z M 60.55,-14.375 c 7.434,0 13.38,6.221 13.38,13.141 0,1.588 -0.043,8.607 -0.043,17.464 0,8.207 -2.399,15.519 -5.399,19.241 L 22.415,91.506 c -9.389,11.842 -12.47,27.196 -12.47,39.572 0,8.858 -0.042,14.914 -0.042,16.469 0,26.036 22.74,47.033 50.648,47.033 27.91,0 50.648,-20.997 50.648,-47.033 l 0.002,-27.325 -37.269,0 0,28.319 c 0,6.919 -5.946,13.14 -13.381,13.14 -7.435,0 -13.379,-6.221 -13.379,-13.14 0,-1.587 0.043,-8.605 0.043,-17.463 0,-8.207 2.398,-15.519 5.397,-19.242 L 98.463,56.083 c 9.557,-11.876 12.693,-27.384 12.693,-39.853 0,-8.857 0.041,-14.914 0.041,-16.472 0,-26.033 -22.738,-47.029 -50.647,-47.029 -27.909,0 -50.649,20.994 -50.649,47.029 l 0,29.844 37.27,0 0,-30.836 c 0,-6.92 5.943,-13.141 13.379,-13.141 m 111.202,-32.896 c -27.904,0 -50.647,21.099 -50.647,47.271 l -0.001,188.53 37.267,0 0.002,-189.516 c 0,-6.948 5.941,-13.198 13.379,-13.198 7.439,0 13.379,6.25 13.379,13.198 l -0.002,189.516 37.269,0 L 222.402,0 c 0,-26.172 -22.744,-47.271 -50.65,-47.271"
             style="fill:#f36118;fill-opacity:1;fill-rule:evenodd;stroke:none"
             id="path22" /></g><g
           id="g24"
           transform="translate(28.7031,75.8047)"><path
             d="m 0,0 0,-17.472 c -0.057,-2.684 0.301,-4.855 1.073,-6.5 0.774,-1.652 2.302,-2.495 4.589,-2.542 1.854,0.047 3.181,0.57 3.986,1.565 0.803,1 1.293,2.191 1.467,3.58 0.175,1.387 0.244,2.687 0.209,3.897 L 11.324,0 C 11.359,1.195 11.293,2.383 11.121,3.561 10.95,4.738 10.472,5.723 9.686,6.512 8.9,7.3 7.603,7.712 5.794,7.74 3.897,7.684 2.539,7.162 1.716,6.176 0.894,5.191 0.393,4.095 0.214,2.889 0.035,1.685 -0.037,0.721 0,0 m -10.673,-15.211 0,13.498 c -0.035,2.587 0.245,5.068 0.838,7.442 0.591,2.375 1.7,4.531 3.325,6.465 1.53,1.73 3.338,2.967 5.427,3.71 2.09,0.743 4.272,1.106 6.551,1.088 2.458,0.024 4.766,-0.332 6.915,-1.071 2.151,-0.737 4.033,-2.003 5.646,-3.794 1.343,-1.461 2.368,-3.421 3.083,-5.875 0.717,-2.455 1.077,-5.681 1.084,-9.679 l 0,-12.194 c 0.014,-3.499 -0.296,-6.453 -0.928,-8.865 -0.633,-2.41 -1.693,-4.459 -3.174,-6.139 -1.349,-1.488 -2.814,-2.59 -4.391,-3.308 -1.579,-0.717 -3.105,-1.188 -4.58,-1.403 -1.478,-0.216 -2.737,-0.314 -3.784,-0.294 -1.614,-0.027 -3.408,0.234 -5.381,0.779 -1.971,0.548 -3.818,1.568 -5.537,3.061 -1.719,1.491 -3.004,3.638 -3.86,6.438 -0.506,1.846 -0.843,3.707 -1.008,5.584 -0.167,1.879 -0.242,3.399 -0.226,4.557 M 201.531,2.856 c -0.779,1.473 -1.861,2.727 -3.238,3.757 -1.481,1.111 -3.199,1.686 -5.126,1.735 -1.813,-0.053 -3.192,-0.435 -4.06,-1.209 -0.824,-0.732 -1.356,-1.518 -1.564,-2.358 -0.185,-0.755 -0.283,-1.299 -0.24,-1.591 0.068,-1.811 0.74,-3.207 2.033,-4.167 1.239,-0.924 2.637,-1.64 4.194,-2.162 l 6.049,-2.328 c 1.45,-0.545 2.911,-1.31 4.382,-2.299 1.457,-0.984 2.672,-2.159 3.638,-3.505 0.338,-0.399 0.846,-1.354 1.518,-2.897 0.652,-1.495 1.019,-3.424 1.094,-5.787 0.042,-0.786 -0.043,-1.938 -0.249,-3.445 -0.203,-1.492 -0.775,-3.104 -1.724,-4.844 -0.934,-1.713 -2.482,-3.301 -4.67,-4.766 -1.435,-0.871 -2.98,-1.5 -4.654,-1.9 -1.685,-0.402 -3.148,-0.597 -4.382,-0.593 -4.107,-0.078 -7.517,0.608 -10.229,2.044 -2.652,1.399 -5.008,3.994 -7.059,7.811 l 7.67,5.359 c 0.891,-2.034 2.09,-3.641 3.595,-4.82 1.592,-1.239 3.447,-1.868 5.564,-1.889 0.836,-0.014 1.754,0.143 2.756,0.467 1.028,0.336 1.925,0.938 2.682,1.796 0.783,0.89 1.178,2.133 1.215,3.688 0.022,1.264 -0.246,2.319 -0.821,3.137 -0.57,0.808 -1.546,1.544 -2.895,2.221 -1.336,0.669 -3.193,1.483 -5.565,2.436 -2.425,0.938 -4.649,2.036 -6.661,3.29 -1.991,1.242 -3.592,2.861 -4.795,4.865 -1.192,1.987 -1.813,4.592 -1.849,7.832 0.036,4.159 1.372,7.495 4.011,10.039 2.63,2.541 6.378,3.866 11.277,3.942 3.455,0 6.439,-0.744 8.978,-2.223 2.474,-1.447 4.655,-3.601 6.535,-6.478 l -7.41,-5.158 z m 96.74,-69.616 0,7.486 -5.455,11.257 4.188,0 3.238,-6.999 3.245,6.999 4.162,0 -5.433,-11.257 0,-7.486 -3.945,0 z m -20.745,0 0,15.128 -4.505,0 0,3.615 12.958,0 0,-3.615 -4.507,0 0,-15.128 -3.946,0 z m -19.197,0 0,1.77 0,15.334 0,1.639 3.946,0 0,-1.639 0,-15.334 0,-1.77 -3.946,0 z m -22.033,3.309 3.071,2.283 c 0.5,-0.883 1.023,-1.536 1.571,-1.959 0.55,-0.425 1.18,-0.635 1.886,-0.632 0.69,0.013 1.234,0.2 1.635,0.566 0.393,0.361 0.598,0.834 0.605,1.41 0.013,1.012 -0.644,1.806 -1.97,2.383 l -2.442,1.056 c -0.747,0.337 -1.404,0.727 -1.967,1.174 -1.248,1.042 -1.873,2.444 -1.878,4.207 0.019,1.672 0.537,2.991 1.55,3.957 1.02,0.966 2.428,1.459 4.225,1.478 2.597,-0.012 4.537,-1.115 5.82,-3.307 l -2.824,-2.128 c -0.938,1.406 -2.01,2.106 -3.215,2.104 -0.616,-0.01 -1.099,-0.172 -1.445,-0.488 -0.346,-0.31 -0.522,-0.723 -0.528,-1.232 -0.002,-0.47 0.176,-0.891 0.535,-1.261 0.351,-0.369 0.889,-0.719 1.608,-1.046 l 2.501,-1.102 c 0.761,-0.335 1.413,-0.722 1.955,-1.156 1.222,-1.033 1.848,-2.478 1.877,-4.334 -0.025,-1.731 -0.586,-3.119 -1.68,-4.163 -1.096,-1.043 -2.585,-1.576 -4.459,-1.606 -2.8,0.01 -4.943,1.276 -6.431,3.796 m -41.85,-3.309 0,18.743 12.009,0 0,-3.615 -8.065,0 0,-3.357 5.509,0 0,-3.616 -5.509,0 0,-4.538 8.577,0 0,-3.617 -12.521,0 z m -13.96,0 -4.167,0 -5.453,18.743 3.946,0 3.605,-13.1 3.581,13.1 3.944,0 -5.456,-18.743 z m 34.885,18.761 4.485,0 c 1.188,0.014 2.238,-0.031 3.149,-0.127 0.906,-0.097 1.685,-0.32 2.33,-0.665 0.806,-0.454 1.421,-1.086 1.845,-1.891 0.421,-0.806 0.632,-1.76 0.639,-2.852 -0.007,-1.265 -0.281,-2.329 -0.838,-3.196 -0.554,-0.864 -1.363,-1.492 -2.427,-1.885 l 3.897,-8.128 -4.359,0 -3.459,7.642 -1.316,0 0,-7.642 -3.946,0 0,18.744 z m 3.946,-3.179 0,-4.923 1.099,0 c 1.188,-0.029 2.063,0.119 2.622,0.442 0.562,0.324 0.838,0.998 0.835,2.02 0.003,1.023 -0.273,1.697 -0.835,2.018 -0.559,0.325 -1.434,0.474 -2.622,0.443 l -1.099,0 z m -61.437,-15.582 0,1.77 0,15.334 0,1.639 3.944,0 0,-1.639 0,-15.334 0,-1.77 -3.944,0 z m -23.671,0 0,18.743 3.802,0 5.698,-11.383 -0.072,11.383 3.434,0 0,-18.743 -3.24,0 -6.26,12.669 0.072,-12.669 -3.434,0 z m -19.243,18.743 0,-11.714 c -0.024,-1.352 0.126,-2.338 0.451,-2.957 0.327,-0.617 0.988,-0.927 1.986,-0.916 1.008,-0.009 1.671,0.301 1.994,0.925 0.322,0.626 0.47,1.607 0.44,2.948 l 0,11.714 3.948,0 0,-12.666 c 0.005,-2.2 -0.515,-3.841 -1.565,-4.921 -1.047,-1.083 -2.654,-1.621 -4.817,-1.613 -4.285,-0.015 -6.41,2.162 -6.384,6.534 l 0,12.666 3.947,0 z m 137.435,31.557 c -2.804,-0.403 -4.948,-1.269 -6.44,-2.598 -1.492,-1.329 -2.244,-2.897 -2.261,-4.713 0.029,-1.327 0.394,-2.376 1.099,-3.161 0.703,-0.783 1.601,-1.18 2.69,-1.2 1.512,0.005 2.704,0.635 3.576,1.896 0.872,1.261 1.32,3.135 1.336,5.621 l 0,4.155 z m 1.328,-14.085 c -1.606,-1.605 -3.208,-2.804 -4.798,-3.586 -1.59,-0.787 -3.289,-1.18 -5.097,-1.176 -2.753,0.042 -4.931,0.947 -6.526,2.717 -1.592,1.768 -2.404,4.149 -2.435,7.143 0,7.992 5.843,12.799 17.528,14.424 l 0,2.814 c -0.009,1.061 -0.422,1.926 -1.225,2.592 -0.812,0.668 -1.951,1.01 -3.424,1.031 -2.592,-0.035 -5.312,-1.242 -8.166,-3.623 l -4.32,5.566 c 3.68,3.121 8.017,4.664 13.02,4.63 8.83,-0.033 13.28,-4.125 13.346,-12.276 l 0,-15.359 c 0.024,-1.176 0.577,-1.913 1.661,-2.213 l 0,-6.976 c -0.545,-0.058 -1.051,-0.078 -1.529,-0.067 -3.739,-0.022 -6.418,1.431 -8.035,4.359 m 41.983,17.24 8.63,0 0,3.084 c -0.01,3.971 -1.45,5.958 -4.314,5.972 -1.313,-0.007 -2.356,-0.499 -3.133,-1.478 -0.771,-0.978 -1.167,-2.406 -1.183,-4.292 l 0,-3.286 z m 16.6,-19.654 c -3.963,-1.687 -7.724,-2.537 -11.291,-2.548 -4.53,0.018 -7.982,1.273 -10.358,3.764 -2.372,2.491 -3.569,6.108 -3.585,10.86 l 0,8.451 c 0.017,4.709 1.112,8.286 3.277,10.733 2.169,2.444 5.304,3.672 9.406,3.685 3.857,-0.035 6.869,-1.185 9.04,-3.444 2.17,-2.261 3.272,-5.404 3.311,-9.432 l 0,-7.715 -16.4,0 0,-3.084 c 0.012,-2.06 0.621,-3.661 1.817,-4.789 1.2,-1.129 2.916,-1.704 5.155,-1.715 2.368,0 5.202,0.804 8.499,2.411 l 1.129,-7.177 z m -33.938,12.906 c -0.06,-2.716 0.289,-4.646 1.029,-5.783 0.743,-1.141 2.215,-1.693 4.414,-1.661 l 1.265,0.068 0,-7.916 c -1.42,-0.111 -2.703,-0.158 -3.852,-0.134 -4.487,-0.046 -7.638,0.865 -9.457,2.735 -1.815,1.865 -2.696,4.957 -2.632,9.273 l 0,17.639 -5.176,0 0,6.775 5.176,0 0,12.813 9.233,0 0,-12.813 6.439,0 0,-6.775 -6.439,0 0,-14.221 z m -251.035,-14.748 0,35.664 7.949,0 0.611,-4.527 c 1.285,3.576 4.062,5.404 8.328,5.487 l 0.61,0 0,-8.694 -0.88,0 c -2.709,0.017 -4.638,-0.675 -5.78,-2.074 -1.148,-1.401 -1.7,-3.606 -1.67,-6.618 l 0,-19.238 -9.168,0 z m 87.39,14.883 c 0,-1.726 0.069,-3.031 0.197,-4.203 0.054,-0.485 0.143,-0.931 0.262,-1.345 l 0.236,-0.692 c 0.431,-1.094 1.022,-1.776 1.775,-2.05 l 0.891,-0.28 c 0.413,-0.106 0.747,-0.148 0.996,-0.123 0.682,0.004 1.049,0.047 1.379,0.129 0.774,0.163 1.365,0.503 1.775,1.021 0.237,0.3 0.439,0.674 0.606,1.121 0.323,0.747 0.525,1.61 0.605,2.598 0.113,1.394 0.16,2.838 0.113,4.326 l 0,3.219 c 0.01,0.797 0.017,1.562 0,2.297 0.026,1.757 -0.037,3.327 -0.188,4.707 -0.151,1.38 -0.555,2.471 -1.215,3.271 -0.658,0.8 -1.736,1.211 -3.231,1.228 -1.408,-0.035 -2.411,-0.506 -3.013,-1.417 -0.596,-0.91 -0.952,-2.061 -1.065,-3.459 -0.065,-0.78 -0.11,-1.573 -0.123,-2.379 -0.015,-0.405 -0.011,-0.797 0,-1.18 l 0,-6.789 z m -8.678,3.935 c -0.033,1.723 0.032,3.602 0.197,5.644 0.165,2.042 0.627,3.996 1.391,5.86 0.763,1.868 2.02,3.402 3.775,4.6 1.756,1.201 4.205,1.82 7.352,1.862 1.252,0.029 2.567,-0.064 3.944,-0.278 1.381,-0.21 2.72,-0.705 4.014,-1.486 1.3,-0.781 2.444,-2.009 3.444,-3.688 0.799,-1.422 1.348,-3.204 1.645,-5.35 0.298,-2.142 0.44,-4.802 0.423,-7.973 0.064,-3.614 -0.098,-6.599 -0.495,-8.958 -0.395,-2.36 -1.418,-4.422 -3.077,-6.185 -0.502,-0.637 -1.419,-1.342 -2.754,-2.109 -1.334,-0.767 -3.445,-1.186 -6.33,-1.256 -1.061,-0.016 -2.318,0.056 -3.775,0.228 -1.452,0.174 -2.743,0.568 -3.866,1.19 -1.826,1.114 -3.165,2.518 -4.006,4.204 -0.84,1.686 -1.374,3.666 -1.595,5.943 -0.225,2.274 -0.32,4.858 -0.287,7.752 m 30.275,-18.818 0,35.664 8.479,0 0,-6.593 c 1.207,1.984 2.542,3.686 4.198,5.105 1.659,1.42 3.63,2.165 5.914,2.23 2.862,-0.078 4.911,-0.769 6.15,-2.07 1.244,-1.305 1.998,-2.758 2.266,-4.359 0.271,-1.604 0.379,-2.893 0.326,-3.866 l 0,-26.111 -9.199,0 0,23.283 c 0.019,0.504 -0.013,1.134 -0.097,1.885 -0.082,0.752 -0.337,1.424 -0.764,2.021 -0.421,0.591 -1.135,0.906 -2.138,0.94 -1.279,-0.033 -2.375,-0.404 -3.289,-1.117 -0.912,-0.713 -1.795,-1.576 -2.651,-2.584 l 0,-24.428 -9.195,0 z m -43.599,11.447 0,13.318 c -0.122,1.25 -0.34,2.261 -0.652,3.05 -0.558,1.408 -1.678,2.111 -3.361,2.099 -1.819,0.016 -2.939,-0.918 -3.353,-2.799 -0.414,-1.88 -0.583,-4.791 -0.507,-8.732 l 0,-0.804 c -0.056,-3.724 0.161,-6.534 0.653,-8.423 0.491,-1.888 1.605,-2.837 3.343,-2.841 2.203,-0.007 3.498,1.659 3.877,5.132 M 75.4,-42.892 l 5.753,3.548 c 0.442,-0.676 1.097,-1.385 1.969,-2.133 0.867,-0.742 2.086,-1.146 3.651,-1.208 0.823,-0.022 1.786,0.192 2.883,0.639 1.099,0.448 1.945,1.259 2.539,2.431 0.407,1.045 0.585,2.432 0.529,4.162 l 0.003,3.565 c -2.291,-2.675 -4.904,-3.762 -7.804,-3.753 -3.565,-0.002 -6.052,1.501 -7.459,4.516 -1.406,3.015 -2.081,7.566 -2.022,13.654 -0.035,3.344 0.066,6.242 0.296,8.703 0.229,2.46 0.786,4.522 1.666,6.19 0.763,1.4 1.829,2.484 3.199,3.25 1.375,0.768 2.948,1.158 4.725,1.169 1.741,-0.011 3.689,-0.702 4.62,-1.177 0.685,-0.348 2.049,-1.188 2.779,-2.456 l 0,2.776 8.994,0 0,-31.827 c 0.042,-1.772 -0.043,-3.679 -0.245,-5.722 -0.204,-2.041 -0.402,-3.983 -1.284,-5.828 -0.881,-1.842 -2.324,-3.352 -4.34,-4.528 -2.014,-1.176 -4.818,-1.782 -8.418,-1.822 -2.629,0.031 -4.782,0.372 -6.455,1.023 -1.673,0.657 -2.953,1.434 -3.84,2.331 -0.886,0.9 -1.465,1.731 -1.739,2.497 m 149.886,22.839 c -0.057,-2.716 0.289,-4.646 1.03,-5.783 0.741,-1.141 2.213,-1.693 4.413,-1.661 l 1.264,0.068 0,-7.916 c -1.418,-0.111 -2.701,-0.158 -3.852,-0.134 -4.485,-0.046 -7.635,0.865 -9.454,2.735 -1.819,1.865 -2.697,4.957 -2.632,9.273 l 0,17.639 -5.179,0 0,6.775 5.179,0 0,12.813 9.231,0 0,-12.813 6.442,0 0,-6.775 -6.442,0 0,-14.221 z m -169.979,6.748 8.63,0 0,3.084 c -0.008,3.971 -1.448,5.958 -4.312,5.972 -1.315,-0.007 -2.358,-0.499 -3.132,-1.478 -0.774,-0.978 -1.168,-2.406 -1.186,-4.292 l 0,-3.286 z m 16.602,-19.654 c -3.963,-1.687 -7.724,-2.537 -11.289,-2.548 -4.534,0.018 -7.986,1.273 -10.361,3.764 -2.372,2.492 -3.569,6.108 -3.586,10.86 l 0,8.451 c 0.017,4.709 1.112,8.286 3.28,10.733 2.167,2.444 5.302,3.672 9.404,3.686 3.855,-0.036 6.869,-1.186 9.039,-3.445 2.17,-2.261 3.274,-5.404 3.311,-9.432 l 0,-7.715 -16.4,0 0,-3.084 c 0.01,-2.06 0.617,-3.661 1.817,-4.789 1.2,-1.129 2.918,-1.704 5.155,-1.715 2.368,0 5.202,0.804 8.499,2.411 l 1.131,-7.177 z"
             style="fill:#231f20;fill-opacity:1;fill-rule:evenodd;stroke:none"
             id="path26" /></g></g></g></g></svg>
