<svg xmlns="http://www.w3.org/2000/svg" viewBox="0 0 474.93 190.52"><title>title</title><path d="M139.94,84.28c1.2,0,4.5-3,4.62-3.17a36.65,36.65,0,0,0,4.6-7.19l4-8.09c-.8-.36-6.75.34-9.37,2.89a18.13,18.13,0,0,0-5.25,7.75,14.74,14.74,0,0,0-.84,5C137.9,82.72,138,84.28,139.94,84.28Z" fill="#fff"/><path d="M0,.82V191.34H474.93V.82ZM286.43,54a4,4,0,0,1,2.5-2,4.29,4.29,0,0,1,3.15.25A3.93,3.93,0,0,1,294,54.52a3.49,3.49,0,0,1-.34,2.85,4.32,4.32,0,0,1-2.5,2.18,4,4,0,0,1-3.15-.16A3.87,3.87,0,0,1,286,57,3.76,3.76,0,0,1,286.43,54Zm-20.3,25.93a36.82,36.82,0,0,0-1.43-3.54,28.89,28.89,0,0,1-1.43-3.75,7.06,7.06,0,0,1,.07-4.17,7.19,7.19,0,0,1,3.43-4.4A11.85,11.85,0,0,1,273,62.77a5.3,5.3,0,0,1,2.19.43,4.27,4.27,0,0,1,1.44,1,2.1,2.1,0,0,1,.57,1.2,1.25,1.25,0,0,1-.36,1,1.44,1.44,0,0,1-1.05.39,2.53,2.53,0,0,1-1.17-.39,4.78,4.78,0,0,1-1.11-.93,4,4,0,0,1-.75-1.17,4.54,4.54,0,0,0-2.86,1.1,4,4,0,0,0-1.36,3,6.69,6.69,0,0,0,.62,3.6q.81,1.68,1.7,3.42a19.34,19.34,0,0,1,1.43,3.66,7.45,7.45,0,0,1-.19,4.26A8.17,8.17,0,0,1,269.83,87a9.34,9.34,0,0,1-3.46,2,8.76,8.76,0,0,1-3.87.32,8.08,8.08,0,0,1-3.6-1.42A6.66,6.66,0,0,1,257.13,86a4.16,4.16,0,0,1-.63-1.8,2.4,2.4,0,0,1,.33-1.47,1.76,1.76,0,0,1,1.05-.81,1.52,1.52,0,0,1,1.26.18A2.33,2.33,0,0,1,260,83.2a4.83,4.83,0,0,1,.33,1.71,10.69,10.69,0,0,1-.16,2.07,4,4,0,0,0,3.6-.41,5.65,5.65,0,0,0,2.35-3.05A5.55,5.55,0,0,0,266.13,79.92Zm-46.36-26.1a4,4,0,0,1,2.5-2,4.29,4.29,0,0,1,3.15.25,3.93,3.93,0,0,1,1.95,2.31A3.49,3.49,0,0,1,227,57.2a4.32,4.32,0,0,1-2.5,2.18,4,4,0,0,1-3.15-.16,3.87,3.87,0,0,1-2.07-2.34A3.76,3.76,0,0,1,219.77,53.82ZM177.15,80a8.1,8.1,0,0,1,.88-3.21,5.37,5.37,0,0,1,1.78-2.22,4.84,4.84,0,0,1,2.31-.89,4,4,0,0,1,4,2.17,5.63,5.63,0,0,0-2,2,10.9,10.9,0,0,0-1.18,2.31,8.9,8.9,0,0,0-.55,2.31,4.4,4.4,0,0,0,.24,2,2.08,2.08,0,0,0,1.17,1.23,2.8,2.8,0,0,0,2.79-.17A6.64,6.64,0,0,0,189,82.42l6.28-12.82-13.69.69-2.51-3.43,17.54,0,3.26-6.71a19.73,19.73,0,0,1,1.75-3.09,5.1,5.1,0,0,1,1.81-1.65l2-.3v-.36q-2.7-.13-5.4-.4a42.24,42.24,0,0,0-5.19-.22,21,21,0,0,0-4.72.62,9.22,9.22,0,0,0-3.91,2.06,3.71,3.71,0,0,1-.93-1.8,4.81,4.81,0,0,1,.85-3.87,4.91,4.91,0,0,1,1.59-1.41,8.53,8.53,0,0,1,3.88-1,37.28,37.28,0,0,1,5.13.07q2.76.22,5.7.61T208,50a9.27,9.27,0,0,1,6.37-1.12A3.38,3.38,0,0,1,216.33,50a2,2,0,0,1,.48,1.65,2.92,2.92,0,0,1-1,1.65,5.51,5.51,0,0,1-2.55,1.13,17.87,17.87,0,0,1-2.31.32l-2.31.14-5.8,12,9.31,0v1.8l-10.45.57L196,81.06a14.36,14.36,0,0,1-2.77,4.13,10.25,10.25,0,0,1-3.31,2.27,9.27,9.27,0,0,1-3.57.71,12.59,12.59,0,0,1-3.63-.55,8.24,8.24,0,0,1-3.21-1.81,7.18,7.18,0,0,1-1.86-2.67A7.4,7.4,0,0,1,177.15,80Zm-44-28.4a13.77,13.77,0,0,0,3.39-.2A18.25,18.25,0,0,0,140,50.5l-13.7,27.69a16,16,0,0,0-1.51,4q-.24,1.47.78,1.65,1.2.3,3.49-1.67a25.1,25.1,0,0,0,4.57-5.86,21.35,21.35,0,0,1,2.36-4.5,25.4,25.4,0,0,1,4.31-4.94,17.18,17.18,0,0,1,4.54-2.9,10.38,10.38,0,0,1,4.48-.86,9.51,9.51,0,0,1,4.11,1.12,6.39,6.39,0,0,0,3.39.79,10,10,0,0,0,3.7-.83l-7.18,14q-2.84,5.69-.74,5.7c.92,0,4.34-2.66,4.88-1.86.38.56-1.34,2.23-3.31,3.37-1.59.92-4.73,2.49-7.43.67a3.31,3.31,0,0,1-1.1-2.91l.91-2h-.18l-.66,1a14.09,14.09,0,0,1-3.49,3.62A7.25,7.25,0,0,1,138,87.1a4.93,4.93,0,0,1-3.45-1.24,5.49,5.49,0,0,1-1.67-3.33,9.58,9.58,0,0,1-.07-2.13l-.2.27a26.06,26.06,0,0,1-3,3.35,13.54,13.54,0,0,1-3.22,2.27,8.08,8.08,0,0,1-3.67.83,4.72,4.72,0,0,1-1.74-.33,3.69,3.69,0,0,1-1.41-1,3.64,3.64,0,0,1-.81-1.56,5.64,5.64,0,0,1-.05-2.19,15.48,15.48,0,0,1,1.51-4.35l2.6-5.24ZM68.92,85.7a4.92,4.92,0,0,1-.57-.62c-.91,1.49-5.35,3.07-8.87,2.28a4.75,4.75,0,0,1-3-1.6,5.74,5.74,0,0,1-1-3.6,23.24,23.24,0,0,1,1.28-6.36q2.54-8.21-4.84-8.47L42.64,86.86a14.21,14.21,0,0,0-3.3.17,32.29,32.29,0,0,0-3.55.71L51.13,55.92c.56-1.16,2.07-4.38,2.07-4.38A18.77,18.77,0,0,0,60,50.71L52.67,65.64a11.93,11.93,0,0,0,3.72-.08,8,8,0,0,0,2.95-1.22,9.83,9.83,0,0,0,2.44-2.45A25.4,25.4,0,0,0,64,58.05q.48-1,1-2.22t1.15-2.37a16.27,16.27,0,0,1,1.45-2.22,7,7,0,0,1,1.9-1.71,7.7,7.7,0,0,1,4-1.25,9.32,9.32,0,0,1,3.78.61c-.68.08-3.53,2.32-4.6,4a79.28,79.28,0,0,0-3.36,7.78,11,11,0,0,1-3.53,4.82,12.33,12.33,0,0,1-4.84,2.06l-2.88.05.36.3a5.36,5.36,0,0,1,4.32,2.65,6.66,6.66,0,0,1,.8,3.51A21.43,21.43,0,0,1,62.78,79a28.67,28.67,0,0,0-.7,3.45,3.63,3.63,0,0,0,0,2c.87,1.41,4.4.33,5.74-.14a6.3,6.3,0,0,1-.6-1.92,12,12,0,0,1,.4-4.86,19.53,19.53,0,0,1,2.78-5.81,25.39,25.39,0,0,1,4.31-4.94,17.18,17.18,0,0,1,4.54-2.9A10.38,10.38,0,0,1,83.75,63a9.5,9.5,0,0,1,4.11,1.12,6.39,6.39,0,0,0,3.39.79,10,10,0,0,0,3.7-.83l-7.18,14q-2.84,5.69-.74,5.7,1.38,0,3.61-1.85a22.29,22.29,0,0,0,4.3-5.42l.1-.21,6-12.16a14,14,0,0,0,3.33-.17A17,17,0,0,0,108,63l-6.7,13.48A11.38,11.38,0,0,0,100,80.58a1.22,1.22,0,0,0,1.2,1.38,3.14,3.14,0,0,0,1.53-.36,10.28,10.28,0,0,0,2.08-1.32,18.68,18.68,0,0,0,2.35-2.24A26.52,26.52,0,0,0,109.45,75l.06-.06,5.79-11.45a18.92,18.92,0,0,0,3.18,0q1.8-.14,3.36-.38L109.79,87a27.81,27.81,0,0,1-1.48,2.58,23.47,23.47,0,0,1-1.72,2.34,51.19,51.19,0,0,1,7,1.76,59.85,59.85,0,0,0,7.71,2,20.31,20.31,0,0,0,5.79.28,10.72,10.72,0,0,0,4.27-1.4A12.86,12.86,0,0,0,135.5,91a.42.42,0,0,1,.77.2,21.87,21.87,0,0,1-.21,6,4.48,4.48,0,0,1-2.71,2.6,7.69,7.69,0,0,1-3.33.86,17.46,17.46,0,0,1-4.41-.46,55,55,0,0,1-5.76-1.63q-3.24-1.09-7.44-2.72l-4-1.36a28.57,28.57,0,0,0-3.48-.94,16.3,16.3,0,0,1-2.47,1.73,9.8,9.8,0,0,1-3.82,1,4.22,4.22,0,0,1-2.34-.55,1.56,1.56,0,0,1-.78-1.41,2.14,2.14,0,0,1,.93-1.59,5.36,5.36,0,0,1,2.1-1,14.85,14.85,0,0,1,2.88-.35,5,5,0,0,0,.75-1.08q.27-.54.45-.84l3.62-7.37,1.69-2.28h-.24a19.2,19.2,0,0,1-5.09,4.1,9.23,9.23,0,0,1-4.48,1.28,4.59,4.59,0,0,1-2.49-.67,3.83,3.83,0,0,1-1.53-1.83,5.13,5.13,0,0,1-.34-2A23.46,23.46,0,0,1,91,83.86a14.61,14.61,0,0,1-3.37,2.3,8.4,8.4,0,0,1-3.76.86A3.75,3.75,0,0,1,81.17,86a3.81,3.81,0,0,1-1.1-2.91L81,81h-.18l-.66,1a14.36,14.36,0,0,1-3.19,3.41,7.66,7.66,0,0,1-4.16,1.54A5.08,5.08,0,0,1,68.92,85.7ZM100,125.61a2.69,2.69,0,0,1-1.15-1.47,6.41,6.41,0,0,0,2.9-3,5.45,5.45,0,0,0,.57-2.87,2.41,2.41,0,0,0-1.39-2.09,3.72,3.72,0,0,0-1.67-.42,5.11,5.11,0,0,0-1.84.29,5,5,0,0,0-1.69,1,5.27,5.27,0,0,0-1.28,1.83,7.4,7.4,0,0,0-.33,4.29,12.59,12.59,0,0,0,2.66,5.13,11.64,11.64,0,0,1,2.1,3.88,10.11,10.11,0,0,1,.41,3.85,9.48,9.48,0,0,1-1.09,3.6,12.43,12.43,0,0,1-2.39,3.13A9.67,9.67,0,0,1,92.73,145a12.85,12.85,0,0,1-3.71,1,13.48,13.48,0,0,1-3.8-.11,10.07,10.07,0,0,1-3.41-1.21,12,12,0,0,1-3-2.41,9.67,9.67,0,0,1-1.73-2.82,9.06,9.06,0,0,1-.63-3.06,11.37,11.37,0,0,1,.35-3.13A10.38,10.38,0,0,1,78.92,129a6.22,6.22,0,0,1,3-2.12,4.86,4.86,0,0,1,2.43-.07,3.16,3.16,0,0,1,2,1.21,9.39,9.39,0,0,0-2.75,2.34,13.45,13.45,0,0,0-2,3.67,11.14,11.14,0,0,0-.64,2.69,8.38,8.38,0,0,0,.12,2.65,6.76,6.76,0,0,0,1,2.35,5.9,5.9,0,0,0,1.93,1.82,6.08,6.08,0,0,0,2.47.94,7.34,7.34,0,0,0,2.67-.09,7.94,7.94,0,0,0,2.5-1,7,7,0,0,0,2-1.91,6.72,6.72,0,0,0,1.13-2.57,6.82,6.82,0,0,0,0-2.57,9,9,0,0,0-.93-2.55,22.22,22.22,0,0,0-1.61-2.55,13.47,13.47,0,0,1-2.85-6.57,10.25,10.25,0,0,1,1.12-5.88,7.86,7.86,0,0,1,2.07-2.54,9.34,9.34,0,0,1,6.06-2.07,10.51,10.51,0,0,1,3.36.62,7.48,7.48,0,0,1,2.74,1.72,5.5,5.5,0,0,1,1.53,4.68,6.74,6.74,0,0,1-.77,2.33,4.8,4.8,0,0,1-1.7,1.88,4.17,4.17,0,0,1-2,.66A3,3,0,0,1,100,125.61Zm131,5.4a6.4,6.4,0,0,1-.69,2.33,11.2,11.2,0,0,1-2.26,3.11,13.34,13.34,0,0,1-3.22,2.32,16.16,16.16,0,0,1-8.07,1.74,3.92,3.92,0,0,0,.68,3,3.22,3.22,0,0,0,2.65,1.08,11.7,11.7,0,0,0,2.94-.43,14.85,14.85,0,0,0,3.36-1.36c1.13-.62,2.35.14,1.1.88a18.12,18.12,0,0,1-4,1.78,14.19,14.19,0,0,1-4.27.65,8.64,8.64,0,0,1-4.29-1,5.61,5.61,0,0,1-2.42-2.55,6.25,6.25,0,0,1-.53-2.5l-.39.53a19.91,19.91,0,0,1-3,3.2,8.85,8.85,0,0,1-1.57,1.15,9.17,9.17,0,0,1-1.79.8,6.52,6.52,0,0,1-1.84.31,4,4,0,0,1-3.38-1.89,4.15,4.15,0,0,1-.39-2.23,9.51,9.51,0,0,1,.67-2.69,17.51,17.51,0,0,1,1.45-2.86q.69-1.17,1.35-2.23t1.18-2a10.68,10.68,0,0,0,.79-1.66,2.58,2.58,0,0,0,.17-1.3,1.22,1.22,0,0,0-1.1-1.06,5.62,5.62,0,0,0-2.13.07q-.3.88-.91,2.28t-1.36,2.86q-.74,1.47-1.48,2.81A22.74,22.74,0,0,1,197,138.4l0,0c-.58.81-1.15,1.61-1.73,2.37a19.36,19.36,0,0,1-2.48,2.74,12,12,0,0,1-2.75,1.88,6.86,6.86,0,0,1-3.07.7,3.06,3.06,0,0,1-2.18-.86,3.11,3.11,0,0,1-.9-2.38l.74-1.66h-.15l-.54.78a11.51,11.51,0,0,1-2.85,3A5.92,5.92,0,0,1,177.6,146a4,4,0,0,1-2.82-1,4.49,4.49,0,0,1-1.37-2.72,8.12,8.12,0,0,1,0-2.07,9.25,9.25,0,0,1-2.63,1.84,9.44,9.44,0,0,1-5.52.79,15.11,15.11,0,0,1-3.54,2.34,8.75,8.75,0,0,1-3.78.87,4.73,4.73,0,0,1-3.41-1.16,4.32,4.32,0,0,1-1.24-3.16,12.44,12.44,0,0,1-3.1,3.2,5.7,5.7,0,0,1-3.19,1,4,4,0,0,1-2.11-.54,3.36,3.36,0,0,1-1.32-1.5,4.42,4.42,0,0,1-.32-2.2,19.39,19.39,0,0,1-1.35,1.41,12.65,12.65,0,0,1-2.9,2.05,7.29,7.29,0,0,1-3.39.8,3.07,3.07,0,0,1-2.35-1,3.57,3.57,0,0,1-.58-3.11,12.25,12.25,0,0,1,1.26-3.55l.61-1.2h-5.29l-7.84,16.1a12,12,0,0,0-2.65.12,21.33,21.33,0,0,0-3,.61l6.32-12.72a8.57,8.57,0,0,1-.84.53,9.88,9.88,0,0,1-5,1.16,11.28,11.28,0,0,1-7.86,3,7.1,7.1,0,0,1-3.63-.87,5.5,5.5,0,0,1-2.2-2.33,7.17,7.17,0,0,1-.68-3.43,12.47,12.47,0,0,1,.94-4.21,14.51,14.51,0,0,1,2-3.62,14.1,14.1,0,0,1,2.83-2.76,13.19,13.19,0,0,1,3.34-1.78,10.62,10.62,0,0,1,3.63-.63,7.19,7.19,0,0,1,3.55.82,5.41,5.41,0,0,1,2.18,2.19,6.73,6.73,0,0,1,.73,3.22,11.65,11.65,0,0,1-.75,3.91,20.74,20.74,0,0,1-1.21,2.7,14.64,14.64,0,0,1-1.5,2.26,6.56,6.56,0,0,0,3.66-1.22,9.28,9.28,0,0,0,2.73-2.92l6.26-12.6a46.72,46.72,0,0,1,2.81-5,7.86,7.86,0,0,1,3.44-2.93,6,6,0,0,1,1.5-.44,10.27,10.27,0,0,1,1.74-.14,7.85,7.85,0,0,1,1.74.2,6.43,6.43,0,0,1,1.59.59,3.07,3.07,0,0,1,1.69,1.89,2.48,2.48,0,0,1,0,.4c.43,0,.87-.08,1.35-.15a12.7,12.7,0,0,0,2.8-.75L146,124.41h3.92l-1,1.91H145L139,138.65a14.07,14.07,0,0,0-1.31,3.5q-.18,1.15.71,1.15a5.4,5.4,0,0,0,2.95-1.54,16.93,16.93,0,0,0,3.32-4.08l5.21-10.43a12.62,12.62,0,0,0,2.67-.19,14.28,14.28,0,0,0,2.67-.73L149,138.77a6.2,6.2,0,0,0-1,3.28q.14,1.13,1.13,1.08a3.54,3.54,0,0,0,2.55-1.66,35.65,35.65,0,0,0,2.9-4.4l4.88-9.79a10.44,10.44,0,0,0,2.6-.14,13.05,13.05,0,0,0,2.8-.78l-6.26,12.53a10.85,10.85,0,0,0-1.41,4q0,1.15.85,1.35a2.08,2.08,0,0,0,1.79-.51,11.11,11.11,0,0,0,2.31-2.27,31.07,31.07,0,0,0,2.46-3.67,34.14,34.14,0,0,0,2.24-4.65,24.62,24.62,0,0,0,1.11-3.3,26.92,26.92,0,0,0,.67-3.31,4.33,4.33,0,0,1,2.45-.14,2.06,2.06,0,0,1,1.32,1.23,4.72,4.72,0,0,1,.21,2.38,15.53,15.53,0,0,1-.82,3.26,25,25,0,0,1-2.07,4.21,22.89,22.89,0,0,1-3,3.86,6,6,0,0,0,4.12-.87,9.1,9.1,0,0,0,3.2-3.29,17.48,17.48,0,0,1,1.92-3.65,20.7,20.7,0,0,1,3.52-4,14,14,0,0,1,3.71-2.37,8.48,8.48,0,0,1,3.66-.7,7.77,7.77,0,0,1,3.36.92A5.21,5.21,0,0,0,193,128a8.16,8.16,0,0,0,3-.68l-5.87,11.45q-2.32,4.65-.6,4.65a5.23,5.23,0,0,0,2.95-1.51,19.33,19.33,0,0,0,3.81-4.92l1-1.85q.64-1.15,1.18-2.2t1-2.15q.49-1.1,1-2.47a1.19,1.19,0,0,1-.69-.66,2.69,2.69,0,0,1-.19-1.05h2.45q7.26-1.4,8,2.76a4.66,4.66,0,0,1,0,1.71,8.86,8.86,0,0,1-.59,1.84q-.42,1-1,2T207.4,137a48.92,48.92,0,0,0-2.22,4.45q-.69,1.66.09,2a1.23,1.23,0,0,0,.86.1,3.29,3.29,0,0,0,1.08-.44,9.67,9.67,0,0,0,1.15-.83,8.39,8.39,0,0,0,1.08-1.08,25.27,25.27,0,0,0,1.62-2l1.36-1.87a14,14,0,0,1,1.2-2.9,16.27,16.27,0,0,1,3-3.91,15.41,15.41,0,0,1,3.54-2.56,13.25,13.25,0,0,1,3.68-1.29,11.42,11.42,0,0,1,3.46-.14,4.34,4.34,0,0,1,2.23.81,3.92,3.92,0,0,1,1.25,1.6A4.34,4.34,0,0,1,231.05,131Zm10.54-42.59a7.51,7.51,0,0,0-2-.34,17.85,17.85,0,0,0-3.46.22,13.54,13.54,0,0,0-2.52.65,8.64,8.64,0,0,0-1.65.78l-.18.12L231,88.41l25.28-21.3-.24-.36q-.9.66-2,1.35a6.62,6.62,0,0,1-2.28.92,4.64,4.64,0,0,1-2-.06q-1.05-.24-2.07-.55a19.65,19.65,0,0,0-2-.48,3.77,3.77,0,0,0-1.89.12,3.47,3.47,0,0,0-1.56,1.26,20.26,20.26,0,0,0-1.48,2.31q-.75,1.35-1.66,3c-.39.73-.84,1.46-1.3,2.2l0,0q-1.21,1.8-2.56,3.65a24.22,24.22,0,0,1-3,3.38,15.46,15.46,0,0,1-3.55,2.51,8.92,8.92,0,0,1-4.15,1,3.76,3.76,0,0,1-2.88-1.24,4.32,4.32,0,0,1-.72-3.73c-.5.58-1,1.14-1.56,1.65a13.67,13.67,0,0,1-3.37,2.39,8.89,8.89,0,0,1-4,.89,4,4,0,0,1-2.88-1.24,4.24,4.24,0,0,1-.89-3.81,13.63,13.63,0,0,1,1.48-4.35q1.24-2.43,2.63-5.24l4.16-8.27a16.3,16.3,0,0,0,6.91-1.12L216,78.41q-2.72,5.69-.49,5.7,1.38,0,3.49-1.85a25.15,25.15,0,0,0,4.43-5.84c.59-1.17,1.2-2.38,1.84-3.68l4.65-9.41h-2.82L228.4,61H231l3.14-6.35a14.38,14.38,0,0,0,3.48-.2,15.57,15.57,0,0,0,3.43-.92L237.35,61h4.8l-1.27,2.34H236.2l-7.42,15.1a17.21,17.21,0,0,0-1.6,4.29q-.21,1.41.87,1.41,1.32,0,3.61-1.88a20.85,20.85,0,0,0,4.1-5.06h0l.11-.18q.3-.49.61-1l0,0c.5-.84,1-1.76,1.48-2.77q1.09-2.28,2.35-4.37a18.87,18.87,0,0,1,2.83-3.65,6.34,6.34,0,0,1,3.67-1.85,10,10,0,0,1,3.51.13l3,.73a12.74,12.74,0,0,0,3.21.34,11.23,11.23,0,0,0,4.24-1.16l.66,1.68-26.6,22.25a13,13,0,0,1,4.57-1,15.79,15.79,0,0,1,4.41.52,19.43,19.43,0,0,1,4.35,1.75q2.16,1.18,4.38,2.68a71.14,71.14,0,0,0,6.72,4.25,21.44,21.44,0,0,0,5.31,2.14,10.1,10.1,0,0,0,4.35.13A10,10,0,0,0,272.81,96s1.44,7-3.49,7.76a11.92,11.92,0,0,1-6.44-1,28.67,28.67,0,0,1-8-5.33q-1.44-1.14-2.88-2.44t-3-2.5a30,30,0,0,0-3.27-2.2A20.07,20.07,0,0,0,241.59,88.42Zm81.21,66.64a4.38,4.38,0,0,1-2.21,2.13,6.28,6.28,0,0,1-2.72.7,14.27,14.27,0,0,1-3.6-.38,44.89,44.89,0,0,1-4.7-1.33q-2.65-.89-6.08-2.22l-2.62-.94q-1.25-.44-2.38-.74l-.49.29a3.53,3.53,0,0,1-.49.24l-1.06.39a7.56,7.56,0,0,1-1.1.29,8.68,8.68,0,0,1-2.67.31,4.65,4.65,0,0,1-1.81-.42,1.2,1.2,0,0,1-.73-.86,1.22,1.22,0,0,1,.57-1.05,4.89,4.89,0,0,1,2.21-1,12.7,12.7,0,0,1,3.14-.16,7.3,7.3,0,0,0,.86-1.05,15.73,15.73,0,0,0,.86-1.44l3.74-6.61h-.2l-.69.64a9.09,9.09,0,0,1-2.26,1.64,5.22,5.22,0,0,1-2.8.56,4.24,4.24,0,0,1-4.18-3.39,6,6,0,0,1-.13-.77c-.31.41-.62.82-.93,1.21a21.46,21.46,0,0,1-2.51,2.71,11.28,11.28,0,0,1-2.58,1.78,6.21,6.21,0,0,1-2.77.63,3.39,3.39,0,0,1-2.45-1,3.34,3.34,0,0,1-.92-2.72,6.73,6.73,0,0,1,.82-2.77q.76-1.49,1.9-3.35,1.33-2.2,2.07-3.67a10.12,10.12,0,0,0,.91-2.33,1.36,1.36,0,0,0-.12-1.18,1.24,1.24,0,0,0-1-.27,3.85,3.85,0,0,0-1.55.63,12.59,12.59,0,0,0-2.19,1.81,31.26,31.26,0,0,0-2.71,3.15,39,39,0,0,0-3,4.67l-3.4,7h-5.2l2.09-4.34c-1.12.79-2.12,1.48-2.42,1.67a16.73,16.73,0,0,1-2.48,1.27,21.05,21.05,0,0,1-2.87.95,13.91,13.91,0,0,1-3,.43,13.15,13.15,0,0,1-5.47-.6,8.92,8.92,0,0,1-3.7-2.36A7,7,0,0,1,246,139.7a7.87,7.87,0,0,1,.43-4.16,10.63,10.63,0,0,1,2.29-3.67,13.26,13.26,0,0,1,3.39-2.56,15.68,15.68,0,0,1,4-1.46c1.41-.31,4.51-.53,4.51-.53a11.88,11.88,0,0,1-2.42-2,6.08,6.08,0,0,1-.93-1.77,6.78,6.78,0,0,1-.34-2,5.08,5.08,0,0,1,.37-2,6.7,6.7,0,0,1,1.85-2.79,8.48,8.48,0,0,1,3-1.71,12.53,12.53,0,0,1,3.78-.63,17.76,17.76,0,0,1,4.27.45,6.47,6.47,0,0,1,2.65,1.26,5.68,5.68,0,0,1,1.54,2,5.78,5.78,0,0,1,.53,2.35,5.31,5.31,0,0,1-.47,2.33,5.7,5.7,0,0,1-1.82,2.37,4.43,4.43,0,0,1-2.14.85,3.63,3.63,0,0,1-2-.35,2.51,2.51,0,0,1-1.25-1.18,7.59,7.59,0,0,0,2.75-3.08,5.73,5.73,0,0,0,.57-3.06,2.42,2.42,0,0,0-1.39-2,4.6,4.6,0,0,0-3.83,0,5.84,5.84,0,0,0-1.84,1.34,6.33,6.33,0,0,0-1.35,2.32,5.93,5.93,0,0,0-.3,2.15,5.5,5.5,0,0,0,.53,2.16,5.85,5.85,0,0,0,1.47,1.89,7.05,7.05,0,0,0,2.45,1.35l1,1.08a29.69,29.69,0,0,0-5.2.33,18.66,18.66,0,0,0-4.49,1.26,11.5,11.5,0,0,0-3.54,2.34,9.66,9.66,0,0,0-2.29,3.57,5.71,5.71,0,0,0-.45,2.82,5.3,5.3,0,0,0,.9,2.5,5.74,5.74,0,0,0,2.1,1.82,7.21,7.21,0,0,0,3.21.77,10.68,10.68,0,0,0,2.65-.24,18.54,18.54,0,0,0,2.67-.78,14.83,14.83,0,0,0,2.41-1.15c.47-.28,2.27-1.54,3.67-2.55l5.71-11.86a7.59,7.59,0,0,0,2.62-.07q1.55-.26,3-.65L279,129.25l-2.07,2.49.15.25a15.63,15.63,0,0,1,5.21-4.32,8.87,8.87,0,0,1,4.56-1,3,3,0,0,1,2.84,2.36,4.85,4.85,0,0,1-.38,3.23q-.77,1.71-2.09,4.11-.94,1.61-1.67,3a18.77,18.77,0,0,0-1.11,2.32,3.78,3.78,0,0,0-.32,1.54q0,.56.69.57a2.86,2.86,0,0,0,1.57-.61,13.64,13.64,0,0,0,1.84-1.56,20.67,20.67,0,0,0,1.87-2.15c.48-.63.92-1.26,1.32-1.88,0-.11,0-.21.05-.32a12.17,12.17,0,0,1,1.9-4.18,16.71,16.71,0,0,1,3.32-3.69,12.14,12.14,0,0,1,3.64-2.07,9,9,0,0,1,3.61-.51,8.77,8.77,0,0,1,3.33.92,5.37,5.37,0,0,0,2.84.67,9.33,9.33,0,0,0,3-.7l-8.92,17.27q-1.13,2.2-2.07,3.65a13.24,13.24,0,0,1-2,2.42q2,.45,4.31,1.19a45.81,45.81,0,0,0,6.3,1.58,17.86,17.86,0,0,0,4.73.23,8.27,8.27,0,0,0,3.48-1.12,24,24,0,0,0,4.41-3.71S323.68,153.09,322.8,155.06Zm74.83-23.51a8.89,8.89,0,0,1-.59,1.84q-.42,1-1,2t-1.16,2.08a48.92,48.92,0,0,0-2.22,4.45q-.69,1.66.09,2a1.23,1.23,0,0,0,.86.1,3.29,3.29,0,0,0,1.08-.44c.38-.23.73-.54,1.16-.83.84-.57,2.07-.16.92.85a18.45,18.45,0,0,1-2.15,1.87,9.17,9.17,0,0,1-1.79.8,6.51,6.51,0,0,1-1.84.31,4,4,0,0,1-3.38-1.89,4.15,4.15,0,0,1-.39-2.23,9.51,9.51,0,0,1,.67-2.69,17.5,17.5,0,0,1,1.45-2.86q.69-1.17,1.35-2.23t1.18-2a10.68,10.68,0,0,0,.79-1.66,2.58,2.58,0,0,0,.17-1.3,1.22,1.22,0,0,0-1.1-1.06,5.62,5.62,0,0,0-2.13.07q-.3.88-.91,2.28t-1.36,2.86q-.74,1.47-1.48,2.81a22.74,22.74,0,0,1-1.33,2.18l0,0a16.79,16.79,0,0,1-2.08,2.51,18,18,0,0,1-7.42,4.46,14.19,14.19,0,0,1-4.27.65,8.64,8.64,0,0,1-4.29-1A5.61,5.61,0,0,1,364,143a6.27,6.27,0,0,1-.54-2.54c-.27.3-.54.6-.83.89a18,18,0,0,1-7.42,4.46,14.19,14.19,0,0,1-4.27.65,8.64,8.64,0,0,1-4.29-1,5.61,5.61,0,0,1-2.42-2.55,6.27,6.27,0,0,1-.54-2.54l-.69.89a21.46,21.46,0,0,1-2.51,2.71,11.28,11.28,0,0,1-2.58,1.78,6.21,6.21,0,0,1-2.77.63,3.39,3.39,0,0,1-2.45-1,3.34,3.34,0,0,1-.92-2.72,6.73,6.73,0,0,1,.82-2.77q.76-1.49,1.9-3.35,1.33-2.2,2.07-3.67a10.12,10.12,0,0,0,.91-2.33,1.36,1.36,0,0,0-.12-1.18,1.25,1.25,0,0,0-1-.27,3.84,3.84,0,0,0-1.55.63,12.58,12.58,0,0,0-2.19,1.81,31.26,31.26,0,0,0-2.71,3.15,39,39,0,0,0-3,4.67l-3.4,7h-5.2l1.46-3c-.13.13-.25.27-.38.4a11.15,11.15,0,0,1-2.75,2,7.25,7.25,0,0,1-3.29.73,3.28,3.28,0,0,1-2.35-1,3.46,3.46,0,0,1-.73-3.11,11.12,11.12,0,0,1,1.21-3.55q1-2,2.14-4.28l3.4-6.75a13.31,13.31,0,0,0,5.64-.92l-6.16,12.33q-2.22,4.65-.4,4.65a4.85,4.85,0,0,0,2.85-1.51,20.75,20.75,0,0,0,3.67-4.85l4.75-9.88a7.59,7.59,0,0,0,2.62-.07q1.55-.26,3-.65l-1.28,2.59-2.07,2.49.15.25a15.63,15.63,0,0,1,5.21-4.32,8.87,8.87,0,0,1,4.56-1,3,3,0,0,1,2.84,2.36,4.85,4.85,0,0,1-.38,3.23q-.77,1.71-2.09,4.11-.94,1.61-1.67,3a18.76,18.76,0,0,0-1.11,2.32,3.78,3.78,0,0,0-.32,1.54q0,.56.69.57a2.86,2.86,0,0,0,1.57-.61,13.63,13.63,0,0,0,1.84-1.56,20.67,20.67,0,0,0,1.87-2.15c.49-.65.94-1.29,1.35-1.92a14.08,14.08,0,0,1,1.18-2.85,16.28,16.28,0,0,1,3-3.91,15.41,15.41,0,0,1,3.54-2.56,13.25,13.25,0,0,1,3.68-1.29,11.42,11.42,0,0,1,3.46-.14,4.34,4.34,0,0,1,2.23.81,3.92,3.92,0,0,1,1.25,1.6,4.34,4.34,0,0,1,.29,2.08,6.4,6.4,0,0,1-.69,2.33,11.21,11.21,0,0,1-2.26,3.11,13.34,13.34,0,0,1-3.22,2.32,16.16,16.16,0,0,1-8.07,1.74,3.92,3.92,0,0,0,.68,3,3.22,3.22,0,0,0,2.65,1.08,11.69,11.69,0,0,0,2.94-.43,14.84,14.84,0,0,0,3.36-1.36,16.22,16.22,0,0,0,3.27-2.39,14.82,14.82,0,0,0,2.54-3.17,14.19,14.19,0,0,1,1.16-2.75,16.27,16.27,0,0,1,3-3.91,15.41,15.41,0,0,1,3.54-2.56,13.25,13.25,0,0,1,3.68-1.29,11.42,11.42,0,0,1,3.46-.14,4.34,4.34,0,0,1,2.23.81,3.92,3.92,0,0,1,1.25,1.6,4.34,4.34,0,0,1,.29,2.08,6.4,6.4,0,0,1-.69,2.33,11.21,11.21,0,0,1-2.26,3.11,13.34,13.34,0,0,1-3.22,2.32,16.16,16.16,0,0,1-8.07,1.74,3.92,3.92,0,0,0,.68,3,3.22,3.22,0,0,0,2.65,1.08,11.7,11.7,0,0,0,2.94-.43,14.84,14.84,0,0,0,3.36-1.36,16.22,16.22,0,0,0,3.27-2.39,15,15,0,0,0,2.76-3.52l0,0,.91-1.66q.64-1.15,1.18-2.2t1-2.15q.49-1.1,1-2.47a1.19,1.19,0,0,1-.68-.66,2.69,2.69,0,0,1-.19-1.05h2.45q7.26-1.4,8,2.76A4.65,4.65,0,0,1,397.63,131.55Zm-78-12.54a3.28,3.28,0,0,1,2-1.66,3.5,3.5,0,0,1,2.57.2,3.21,3.21,0,0,1,1.59,1.89,2.85,2.85,0,0,1-.28,2.33,3.53,3.53,0,0,1-2,1.78,3.27,3.27,0,0,1-2.57-.13,3.16,3.16,0,0,1-1.69-1.91A3.07,3.07,0,0,1,319.61,119ZM441.22,66.85a1.44,1.44,0,0,1-1.05.39,2.53,2.53,0,0,1-1.17-.39,4.78,4.78,0,0,1-1.11-.93,3.94,3.94,0,0,1-.75-1.17,4.51,4.51,0,0,0-2.89,1.16,4.3,4.3,0,0,0-1.45,2.91,6.66,6.66,0,0,0,.65,3.66q.84,1.68,1.73,3.39a20.08,20.08,0,0,1,1.46,3.63,7.47,7.47,0,0,1-.16,4.32,9.15,9.15,0,0,1-2.38,3.53,9.31,9.31,0,0,1-3.4,2,8.91,8.91,0,0,1-3.84.35,7.81,7.81,0,0,1-3.6-1.39,6,6,0,0,1-1.77-1.8,4.17,4.17,0,0,1-.63-1.83,2.47,2.47,0,0,1,.33-1.5,1.75,1.75,0,0,1,1.05-.81,1.52,1.52,0,0,1,1.26.18,2.34,2.34,0,0,1,.84,1.08,4.86,4.86,0,0,1,.33,1.71,10.65,10.65,0,0,1-.16,2.07,3.87,3.87,0,0,0,1.92.24,4.34,4.34,0,0,0,1.86-.66,5,5,0,0,0,1.47-1.5,5.36,5.36,0,0,0,.82-2.22,5.86,5.86,0,0,0-.29-3,27.26,27.26,0,0,0-1.25-2.85q-.72-1.41-1.34-2.73a5.62,5.62,0,0,1-.56-2.7L428,69.7l-.18-.06q-.48.9-1.15,2.07t-1.39,2.4q-.72,1.23-1.42,2.37c-.18.3-.35.56-.52.83h0l-.13.18c-.23.35-.45.67-.65,1l0,0c-.79,1.08-1.57,2.12-2.31,3.07a26.28,26.28,0,0,1-3.07,3.32A13.81,13.81,0,0,1,414,87a7.61,7.61,0,0,1-3.39.77,4.15,4.15,0,0,1-3-1.24,4.08,4.08,0,0,1-1.13-3.33,8.24,8.24,0,0,1,1-3.39q.93-1.83,2.32-4.1,1.63-2.7,2.54-4.49a12.38,12.38,0,0,0,1.12-2.85,1.66,1.66,0,0,0-.15-1.44A1.53,1.53,0,0,0,412,66.6a4.72,4.72,0,0,0-1.89.78,15.45,15.45,0,0,0-2.68,2.21,38.27,38.27,0,0,0-3.31,3.86,47.47,47.47,0,0,0-3.68,5.72l-4.17,8.57-6.37,0L392.71,82a10.35,10.35,0,0,1-1.07.65,12.1,12.1,0,0,1-6.13,1.42,13.8,13.8,0,0,1-9.62,3.7,8.69,8.69,0,0,1-4.44-1.06,6.74,6.74,0,0,1-2.7-2.86,8.53,8.53,0,0,1-.82-3.68c-.32.41-.64.83-.95,1.22a29.52,29.52,0,0,1-3.07,3.32,13,13,0,0,1-3.16,2.18,7.67,7.67,0,0,1-3.36.77,4.1,4.1,0,0,1-3-1.21,4,4,0,0,1-1.1-3.3,9.38,9.38,0,0,1,1-3.51q.87-1.77,2.26-4,1.63-2.7,2.47-4.49a15.39,15.39,0,0,0,1.09-2.85q.24-1-.12-1.44a1.53,1.53,0,0,0-1.26-.33q-1.2.12-3.43,2.09a31.33,31.33,0,0,0-5.18,6.77l-.06.06v.06l-6,12.17-6.37,0,5.74-12L345,72.64a24.65,24.65,0,0,0,1.39-3.06,6.57,6.57,0,0,0,.49-2.34q0-.93-1.17-.81a4.48,4.48,0,0,0-1.83.75,14.78,14.78,0,0,0-2.59,2.18,34,34,0,0,0-3.19,3.86A54.41,54.41,0,0,0,334.53,79l-4.16,8.57-6.37,0,2-4.24c-.43.45-.85.88-1.28,1.27a13,13,0,0,1-3.16,2.18,7.67,7.67,0,0,1-3.36.77,4.1,4.1,0,0,1-3-1.21,4,4,0,0,1-1.1-3.3,9.38,9.38,0,0,1,1-3.51q.87-1.77,2.26-4,1.63-2.7,2.47-4.49A15.39,15.39,0,0,0,321,68.14q.24-1-.12-1.44a1.53,1.53,0,0,0-1.26-.33q-1.2.12-3.43,2.09A31.33,31.33,0,0,0,311,75.23l-.06.06v.06l-6,12.17-6.37,0,5.74-12,1.54-2.91a24.65,24.65,0,0,0,1.39-3.06,6.57,6.57,0,0,0,.49-2.34q0-.93-1.17-.81a4.48,4.48,0,0,0-1.83.75,14.78,14.78,0,0,0-2.59,2.18A34,34,0,0,0,299,73.13a54.42,54.42,0,0,0-3.59,5.78l-4.16,8.57-6.37,0,1.79-3.73c-.16.16-.3.34-.46.49a13.67,13.67,0,0,1-3.37,2.39,8.89,8.89,0,0,1-4,.89,4,4,0,0,1-2.88-1.24,4.24,4.24,0,0,1-.89-3.81,13.63,13.63,0,0,1,1.48-4.35q1.24-2.43,2.63-5.24l4.16-8.27a16.3,16.3,0,0,0,6.91-1.12l-7.54,15.1q-2.72,5.69-.49,5.7,1.38,0,3.49-1.85a25.41,25.41,0,0,0,4.49-5.94L296,64.39a9.3,9.3,0,0,0,3.21-.08q1.89-.32,3.64-.8l-1.57,3.18-2.53,3,.18.3A18.85,18.85,0,0,1,305,64.71a10.3,10.3,0,0,1,5.44-1.25,3.51,3.51,0,0,1,2.43,1.09,4,4,0,0,1,1,2.4l-1.45,2.34.12.18a18,18,0,0,1,5.78-4.79,10.84,10.84,0,0,1,5.17-1.25A3.34,3.34,0,0,1,327,66.39a6.78,6.78,0,0,1-.46,4.11A47.81,47.81,0,0,1,324,75.38q-1.09,1.86-2,3.51a22,22,0,0,0-1.36,2.88,4.87,4.87,0,0,0-.39,1.95.73.73,0,0,0,.84.72,3.59,3.59,0,0,0,1.89-.75,14.57,14.57,0,0,0,2.26-1.91,31,31,0,0,0,2.29-2.63c.62-.79,1.17-1.58,1.69-2.36l5.92-12.29a9.3,9.3,0,0,0,3.21-.08q1.89-.32,3.64-.8l-1.57,3.18-2.53,3,.18.3a18.85,18.85,0,0,1,6.17-5.26,10.3,10.3,0,0,1,5.44-1.25,3.51,3.51,0,0,1,2.43,1.09,4,4,0,0,1,1,2.4l-1.45,2.34.12.18a18,18,0,0,1,5.78-4.79,10.84,10.84,0,0,1,5.17-1.25,3.34,3.34,0,0,1,3.48,2.95,6.78,6.78,0,0,1-.46,4.11,47.79,47.79,0,0,1-2.56,4.88q-1.09,1.86-2,3.51a22,22,0,0,0-1.36,2.88,4.87,4.87,0,0,0-.39,1.95.73.73,0,0,0,.84.72,3.59,3.59,0,0,0,1.89-.75,14.57,14.57,0,0,0,2.26-1.91,31,31,0,0,0,2.29-2.63c.6-.76,1.13-1.52,1.63-2.28a18.09,18.09,0,0,1,.78-2.49,17.77,17.77,0,0,1,2.5-4.43A17.28,17.28,0,0,1,375,66.66a16.15,16.15,0,0,1,4.09-2.18,13,13,0,0,1,4.45-.77,8.8,8.8,0,0,1,4.35,1,6.62,6.62,0,0,1,2.67,2.69,8.25,8.25,0,0,1,.89,3.95,14.28,14.28,0,0,1-.91,4.78,25.43,25.43,0,0,1-1.48,3.31,17.89,17.89,0,0,1-1.84,2.76,8,8,0,0,0,4.48-1.49,11.22,11.22,0,0,0,3.17-3.29L401,64.65a9.3,9.3,0,0,0,3.21-.08q1.89-.32,3.63-.8l-1.57,3.18L403.8,70l.18.3A19.12,19.12,0,0,1,410.36,65a10.87,10.87,0,0,1,5.59-1.28,3.65,3.65,0,0,1,3.48,2.89,5.94,5.94,0,0,1-.46,4q-.94,2.1-2.56,5-1.15,2-2.05,3.63A23.29,23.29,0,0,0,413,82.08a4.64,4.64,0,0,0-.4,1.89c0,.46.32.69.84.69a3.5,3.5,0,0,0,1.92-.75A16.6,16.6,0,0,0,417.61,82a25,25,0,0,0,2.29-2.63q1.11-1.47,2-2.9h0c.54-.88,1.07-1.76,1.64-2.64q1.23-1.92,2.32-3.83a18.58,18.58,0,0,1,2-2.91,10.79,10.79,0,0,1,2.44-2.15,10.6,10.6,0,0,1,3.07-1.31,15.8,15.8,0,0,1,4-.44,5.3,5.3,0,0,1,2.19.43,4.27,4.27,0,0,1,1.44,1,2.11,2.11,0,0,1,.57,1.2A1.25,1.25,0,0,1,441.22,66.85Z" fill="#fff"/><path d="M78.63,81.34a35.14,35.14,0,0,0,4.94-7.58l4-8.09a4.43,4.43,0,0,0-2.67-.28,8.6,8.6,0,0,0-3,1.25,16.59,16.59,0,0,0-3.13,2.63,24.18,24.18,0,0,0-3,3.86,26.15,26.15,0,0,0-2.32,4.52,12.36,12.36,0,0,0-.85,3.45A4,4,0,0,0,73,83.34a1.46,1.46,0,0,0,1.35.78Q76.16,84.06,78.63,81.34Z" fill="#fff"/><path d="M137.58,126.3l1.08-1.91h2.16l2-4.12a1.62,1.62,0,0,1-.16-.09,1.75,1.75,0,0,1-.59-.86,2.68,2.68,0,0,1,0-1.45,2.19,2.19,0,0,0-2,0,5.33,5.33,0,0,0-1.72,1.49,15.72,15.72,0,0,0-1.58,2.5q-.76,1.47-1.5,3l-5.13,10.28h5.3l.58-1.17,3.8-7.68Z" fill="#fff"/><path d="M226.35,127.94q-1.08-.34-3.19,1.41a21.79,21.79,0,0,0-4.48,5.92,15.3,15.3,0,0,0-1.68,4.16,9.49,9.49,0,0,0,4.84-2,15.82,15.82,0,0,0,4.11-4.84,6.49,6.49,0,0,0,1.14-3.26Q227,128.09,226.35,127.94Z" fill="#fff"/><path d="M115.36,127.56a3.31,3.31,0,0,0-1.82.61,9.74,9.74,0,0,0-1.89,1.69,18.41,18.41,0,0,0-1.87,2.54,28.94,28.94,0,0,0-1.7,3.18,25.3,25.3,0,0,0-1.33,3.35,11.26,11.26,0,0,0-.55,2.84,4,4,0,0,0,.31,2,1.29,1.29,0,0,0,1.25.71,3.87,3.87,0,0,0,2.41-1,13.49,13.49,0,0,0,2.51-2.86,3,3,0,0,1-.58-1.77,2.76,2.76,0,0,1,.79-2,2.58,2.58,0,0,1,2-.83.69.69,0,0,1,.29.05s0,0,0,0,0,0,0,0a23.53,23.53,0,0,0,1.21-3.28,11.24,11.24,0,0,0,.45-2.67,3.46,3.46,0,0,0-.34-1.79A1.24,1.24,0,0,0,115.36,127.56Z" fill="#fff"/><path d="M187.87,128.41a7,7,0,0,0-2.48,1,13.54,13.54,0,0,0-2.56,2.15,19.81,19.81,0,0,0-2.41,3.15,21.43,21.43,0,0,0-1.9,3.7,10.09,10.09,0,0,0-.69,2.82,4.05,4.05,0,0,0,.11,1.39,2,2,0,0,0,.18.42,1.2,1.2,0,0,0,1.1.64c3.16-.49,10-11.72,10.83-15.06A3.62,3.62,0,0,0,187.87,128.41Z" fill="#fff"/><path d="M373.19,82.17a6.38,6.38,0,0,0,0,.78c0-.08,0-.14,0-.22a13.8,13.8,0,0,1,.67-3.48A10.29,10.29,0,0,0,373.19,82.17Z" fill="#fff"/><path d="M384.41,65.33a4,4,0,0,0-2.22.74,11.92,11.92,0,0,0-2.32,2.06,22.49,22.49,0,0,0-2.29,3.11c-.74,1.2-1.39,2.52-2.08,3.89a23.12,23.12,0,0,0-2.3,8.29,2.77,2.77,0,0,0,.38,1.69,1.58,1.58,0,0,0,1.53.87,4.74,4.74,0,0,0,2.95-1.28,16.51,16.51,0,0,0,3.07-3.5,3.68,3.68,0,0,1-.71-2.16,3.39,3.39,0,0,1,1-2.4,3.16,3.16,0,0,1,2.4-1,.85.85,0,0,1,.36.06s0-.06,0-.06,0,0,0-.06a28.69,28.69,0,0,0,1.48-4q.15-.54.26-1a12,12,0,0,0,.29-2.23,4.24,4.24,0,0,0-.41-2.19A1.52,1.52,0,0,0,384.41,65.33Z" fill="#fff"/><path d="M307.08,129a4.7,4.7,0,0,0-4.59.14,13,13,0,0,0-4.7,5.08,16.4,16.4,0,0,0-1.6,3.28,7.3,7.3,0,0,0-.45,2.38,2.13,2.13,0,0,0,.51,1.47,1.62,1.62,0,0,0,1.22.52,4.62,4.62,0,0,0,3.12-1.63A20.22,20.22,0,0,0,304,135Z" fill="#fff"/><path d="M377.4,133a6.49,6.49,0,0,0,1.14-3.26q0-1.25-.73-1.4-1.08-.34-3.19,1.41a21.79,21.79,0,0,0-4.48,5.92,15.29,15.29,0,0,0-1.68,4.16,9.49,9.49,0,0,0,4.84-2A15.82,15.82,0,0,0,377.4,133Z" fill="#fff"/><path d="M357.63,132.92a6.49,6.49,0,0,0,1.14-3.26q0-1.25-.73-1.4-1.08-.34-3.19,1.41a21.79,21.79,0,0,0-4.48,5.92,15.29,15.29,0,0,0-1.68,4.16,9.49,9.49,0,0,0,4.84-2A15.82,15.82,0,0,0,357.63,132.92Z" fill="#fff"/></svg>