<svg xmlns="http://www.w3.org/2000/svg" xmlns:xlink="http://www.w3.org/1999/xlink" viewBox="0 0 652.74 530.56"><defs><clipPath id="a"><polyline points="652.57 529.96 0 530.56 0 0 652.74 0" fill="none"/></clipPath></defs><title>menpup</title><g clip-path="url(#a)"><path d="M152,536.21c-.06-1.13,0-2.26,0-3.39.1-2.93,0-3-3.69-4l3.67,7.44Z"/><path d="M634.07,426.39c-4.58-3.94-8.82-8.19-13.23-12.29-.77-.72-1.62-1.36-2.6-2.18-1.57.89-3,1.67-4.39,2.48-2.42,1.41-2.87,1.49-4.94-.42-4.36-4-8.59-8.12-12.87-12.19-1.4-1.33-2.81-2.66-4.15-4-1-1-1.8-2.05-2.88-3.3,2.55-2.87,6-3.77,9.44-4.5a16.12,16.12,0,0,1,10.93,1.22c-2.59,1.29-4.92.53-7,1.09a25.6,25.6,0,0,0-5.61,2.48c1.22,2.57,11.64,12.81,14.91,14.69l7.12-4.08c2.86,2.72,5.66,5.22,8.25,7.89,5.51,5.68,10.91,11.45,16.36,17.18,2,2.09,4,4.18,6,6.25.81.84,1.69,1.63,2.54,2.45q0-14.51,0-29l-7.62-4.55a3.53,3.53,0,0,1-.82-.54c-4.54-5-11-6.73-17.38-8.58-.75-.22-1.51-.41-2.25-.65-.19-.06-.33-.26-.79-.64a7.79,7.79,0,0,1,1.81-.48,20.82,20.82,0,0,1,10.2,2.69c5.45,3.05,11.21,5.64,16.84,8.43v-1.24c-.11,0-.24,0-.33,0-5-2.42-10-4.88-13.61-9.08a6.33,6.33,0,0,1-.62-1.39c4.84-1.69,9.53-3.48,14.57-4.35V301.39c-2.59-.86-3.24-1.4-5.3-4.47,1.07-2,3.13-2.28,5.3-2.32V258.78a20.94,20.94,0,0,1-3.33-2.39,10.33,10.33,0,0,1-1.91-3.23c-.68-1.67-2.59-3.34-1.33-5.14,1.59-2.26,3.12-4.85,6.57-5.31,0-5.87.57-16.58.66-23.22a.52.52,0,0,0-1-.3c-1.3,2.29-2.87,6.55-3.77,7.51q-7.9,8.43-15.6,17a95.62,95.62,0,0,1-25.9,20.46c-2.8,1.51-5.34,3.42-8.11,5a9.14,9.14,0,0,1-4,1.27c-2.67.06-5.36-.31-8-.45a9.57,9.57,0,0,0-3.31.1,12.51,12.51,0,0,1-6.25.39,9.9,9.9,0,0,0-5.26.34c-2.64,1.15-4.77.54-7-.59a30.06,30.06,0,0,0-3.87-1.86c-2.59-.87-5.1-2-8.1-1.38a11.39,11.39,0,0,1-4.34-.32,7,7,0,0,0-5.1.5,4.9,4.9,0,0,1-5.25-.4,4.78,4.78,0,0,1-2.07-5.14,32,32,0,0,0,.92-12.53,4,4,0,0,1,2-4c2.63-1.71,4.65-4.13,7.79-5.31,1.35-.51,2.25-2,3.41-2.92a31.16,31.16,0,0,1,3.56-2.76,5.39,5.39,0,0,0,1.25-8.35c-1-1-2.26-1.51-3.59-.71-2.38,1.44-5,1.53-7.74,1.8a14.53,14.53,0,0,0-8.66,4.38,9.73,9.73,0,0,1-4.85,2.6c-1.13.25-2.23.46-3-.62s-1.09-3.5-.1-4c1.86-.93,1.7-2.46,1.8-4.08,2.12.19,2.34,3.64,5.41,2-.17-.73-.32-1.59-.57-2.41-.77-2.49.18-4.57,2.82-5a7.67,7.67,0,0,0,5.46-3.62,49.63,49.63,0,0,1,4.89-5,30.54,30.54,0,0,1,2.36-2.6,46.56,46.56,0,0,1,4.48-3.12c.63-.4,1.49-.48,2.14-.86.84-.49,1.95-1.13,1.28-2.15a2.93,2.93,0,0,0-2.31-.56,19,19,0,0,0-9.15,3.57,6.06,6.06,0,0,1-2.31,1.06,34.7,34.7,0,0,1-4.92.86c-5.34.47-9,3.49-12.41,6.79a5.28,5.28,0,0,1-1.53,1.17c-4.4,1.79-8.82,3.52-13.26,5.25-.25.1-.62-.06-1.19-.14.62-2.54,1.16-5,1.86-7.46a9.61,9.61,0,0,0,.18-6.07,4.16,4.16,0,0,1,.1-2.41c.53-1.82,1.64-2.26,3.56-1.6,1.08.37,2.27,1.71,3.25.46.56-.72.34-2.15.06-3.17-1-3.62-3.38-5.34-7.45-5.48a29.46,29.46,0,0,0-4.38.06c-2.63.3-5.11.38-7.38-1.26a3.23,3.23,0,0,0-2.55-.32c-3.88,1.53-8,.81-11.94,1.14a9.15,9.15,0,0,1-5.06-1.22c-3.3-1.63-4.66-4.22-4.4-7.39.51-6.27-.76-12.3-2.42-18.29-.74-2.66-2-5.19-3-7.8a23.52,23.52,0,0,1-1.59-10c.32-5.21,5.21-8.86,10.87-7.77a63.39,63.39,0,0,1,10,2.79c5.52,2,10.93,4.34,16.35,6.61a21.51,21.51,0,0,0,11.14,1.69,49.57,49.57,0,0,1,7.74-.27c2.45.09,3.11,1.06,2.65,3.26-.76,3.71-.74,3.68,2.74,5.64a15.27,15.27,0,0,1,5.58,5.67c.36.6.77,1.17,1.21,1.85.42-.33.83-.5.87-.71.44-2.51,2-4.17,4.27-5.62a10.86,10.86,0,0,0,3.09-3.58c1.3-2.14,2.26-4.46,3.53-6.62a14.45,14.45,0,0,1,2.31-2.63c2.17-2.2,2.17-2.67-.11-4.79a9.46,9.46,0,0,1-.8-1.06c.68-.69,1.36-1.45,2.12-2.12,5-4.4,10.17-8.72,15.15-13.18a77.51,77.51,0,0,0,13.5-15.35,35.16,35.16,0,0,0,5.83-19.09c0-3.55-1.75-6.55-2.78-9.78-.94-3-1.89-5.91-2.87-8.85a17.69,17.69,0,0,0-1.09-2.58q-4.72-9-9.51-18.07a18,18,0,0,0-1.62-2.22v0l1.6-5.95c-4.3-1.52-5.32-5.31-7.69-8.06-.34-.39-.42-1-.72-1.39-2.79-3.92-4.49-3.77-7.62-1.76-10.85,7-21.77,13.86-32.63,20.83-1.47.94-2.67,2.22-4.14,3.16-1.81,1.17-3.77,2.16-5.67,3.21-.57.32-1.21.55-1.75.91-3.63,2.42-7.24,4.87-10.86,7.3a1.14,1.14,0,0,1-.27.18c-4,1.2-5.74,4.4-7.81,7.31a4.81,4.81,0,0,0-1.1,1.88c-.31,2.89-2.37,4.8-4.28,6.83a141.3,141.3,0,0,0-16.76,22,54.63,54.63,0,0,1-9.21,11c-2.13,2-2.78,2.29-5.25.73-4.55-2.88-9.2-3.33-14.41-1.93a10.89,10.89,0,0,1-8.7-1.51c-3.62-2.3-7.34-2.27-11.25-1-1.8.58-3.56,1.26-5.34,1.88a16,16,0,0,1-3.48,1.12c-4.44.45-8.3,2.39-12.39,3.76-4.58,1.54-6.32,4.63-6.79,8.7-.15,1.29,0,2.74-1.76,3.24-.31-.11-.67-.13-.71-.25-1-2.9-2.4-5.78-1.13-8.89.85-2.08,0-3.51-1.9-5a48.75,48.75,0,0,0-3.9,4.65,3.3,3.3,0,0,0,0,2.65,49,49,0,0,0,3.35,7.72,63.75,63.75,0,0,1,6.86,15.7,14.37,14.37,0,0,0,2.88,5.13c3.17,3.83,3,3.41.42,7.7,1.06-.73,1.62-1.14,2.21-1.52,1.83-1.16,2.62-1.16,4,.49,3.52,4.28,8.39,7,13,10.18,2.14,1.47,3.63,3.85,5.09,6a45.61,45.61,0,0,1,3,5.84c.55,1.13,1.13,2.24,1.57,3.4,1.32,3.48,8.13,19.54,7.92,2.9.79-.39,1.51-.89,2.26-1.35a4.75,4.75,0,0,1,4.43-.66,4.7,4.7,0,0,0,2.61,0,9,9,0,0,1,6.92.56c2.37-1.47,4.66-2.94,7-4.34s3.2-4.16,6.32-5.57c.11,1.08.49,1.9.19,2.3-2.47,3.3-.79,6.69-.48,10.07a7.33,7.33,0,0,1-.36,2.58c-.19.68-.89,1.3-.88,1.95,0,2.2-1.28,3.64-2.93,5a6.36,6.36,0,0,0-1.37,1.34c-1.75,2.68-4.36,3.32-7.55,2.84a10.24,10.24,0,0,0-3.34,0c-.62.12-1.46.8-1.52,1.3s.72,1.18,1.31,1.45a20.12,20.12,0,0,0,3.38.84,14.74,14.74,0,0,1-1.86,2c-1.59,1.14-3.28,2.17-4.91,3.27a12.63,12.63,0,0,0-4.14,4,8.91,8.91,0,0,0,6,.12c2.16-.85,4.24-1.87,6.35-2.83l2.85-1.31c1.15,1.81.49,3.21,0,4.52a3.73,3.73,0,0,0,1,4.38l.12.16a7.49,7.49,0,0,0,7,4.27,2.48,2.48,0,0,0,.47-.86c.24-1.79,1.52-2.37,3.27-2.51a10,10,0,0,0,5.59-1.54l-2.9-.8c-1.86-.52-2.17-.91-2-2.64a20.61,20.61,0,0,1,.4-3.05,5.67,5.67,0,0,1,1.21-2.8c3.32-2.95,7-5.52,11.62-6.47,1.83-.37,3.19.53,4,2.52.74,1.72,1.43,3.46,2.11,5.2a5.42,5.42,0,0,0,2.84,2.87c3.12,1.62,6.16,3.38,9.11,5.24a8.41,8.41,0,0,1,3.78,5.44c-1.35,2-2.37,3.64-3.58,5.19a7.05,7.05,0,0,1-2.39,2,54.9,54.9,0,0,1-5.58,2.17c-3.42,1.2-4.17,2.88-2.25,5.63,1.51,2.16,2.75,4.84,4.93,6.17,3.43,2.09,5.12,5.34,7.89,7.79a60.94,60.94,0,0,0,7.72,5.94,17.14,17.14,0,0,1,4.8,4.25,26.33,26.33,0,0,0,14.25,9.83,4,4,0,0,1,.87.45c.08,0,.11.17.34.55a8.36,8.36,0,0,1-1.84,0c-2.27-.58-4.5-1.28-6.77-1.84-2.63-.65-3.65.14-3.28,2.64A40,40,0,0,0,517,285a12.3,12.3,0,0,1,.71,2.05c.19,2.32.66,4.41,2.95,5.92.68.45.9,1.62,1.12,2.5a23.84,23.84,0,0,0,3.71,7.88,98.24,98.24,0,0,1,5.29,8.94c.85,1.53.45,2.82-1.08,2.9-3.5.19-4,2.84-5.35,4.82a5.46,5.46,0,0,0-.61,1.44c-.52,2.09-1.31,3.89-4.3,3.1-.47,1.46-.85,2.63-1.23,3.8s-.57,2.45-2.2,2.84a1.13,1.13,0,0,0-.68.65c-.74,2.32-2.74,3.73-4.58,5.21-2.31,1.86-3.32,4.35-4.32,6.86s-.44,3.07,2.44,3.79c.19,0,.33.25.52.4.4,1.38-.73,1.79-1.76,2.19-5.58,2.14-9.42,6.27-13.44,10.09-2.33,2.22-2.64,5.36-2.07,8.81,4,.18,7.92.37,11.89.54s7.87.17,11.79.46a85.39,85.39,0,0,1,11.89,1.69c-3.88,0-7.76.06-11.64,0-6.62-.13-13.23-.25-19.81.74a37.29,37.29,0,0,1-4.37.15c-5.92.18-11.43,1.88-17,3.49a41.49,41.49,0,0,0-15.58,8.86c-1.55,1.32-2.81,2.93-4.23,4.39-.49.51-1.07.94-1.92,1.67-.74-2.21.26-3.65,1.22-5.09,2.53-3.77,6.22-6.43,10.06-9a30.15,30.15,0,0,1,10.31-4.38c4.25-.94,8.56-1.64,12.85-2.46.65-.12,1.27-.32,2-.52a8,8,0,0,0,.37-2.11,14.5,14.5,0,0,1,2.24-9.2c1.41-2.26,3.61-4.12,5.58-6.06a14,14,0,0,1,2.76-1.77c1.93-1.14,3-2.52,2.73-4.85a14.34,14.34,0,0,1,1.83-8.37c1-1.91,1.77-3.92,2.86-6.39a19.25,19.25,0,0,0-3,.49c-2.83,1-5.57,2.21-8.43,3.14a38.22,38.22,0,0,1-7.41,1.86c-3.56.4-7.18.35-10.78.48a2.84,2.84,0,0,1-1.33-.14c-2.94-1.55-6.31-1.35-9.46-2a5.05,5.05,0,0,0-2-.29c-3.23.73-5.85-.94-8.75-1.61a106.81,106.81,0,0,0-12.88-2.3c-19.77-2.07-39.57-4-59.36-6a11,11,0,0,0-1.68-.11c-1.59.09-2.16.64-2.17,2.16a8.27,8.27,0,0,1-.29,3.06l-1.46-3.18-.39.06.48,10.26-.68.08a11.13,11.13,0,0,1-.54-1.86,36.58,36.58,0,0,0-4.16-12.95,52.8,52.8,0,0,1-4.7-12.51,137.82,137.82,0,0,0-7.2-21,49.79,49.79,0,0,1-3.81-15.48,53.6,53.6,0,0,0-1.49-7.15,2.88,2.88,0,0,0-.5-.8c-3,1.2-1.14,4.86-4.55,5.9,0-1.57,0-3,0-4.38a52.72,52.72,0,0,0-4.3-21.11c-.53-1.24-.84-2.91-3.31-2.6v4.58l-2.28-3.58c-1.42.84-1.42.84-1.44,2.69a10.4,10.4,0,0,0-3,1.44c-1.24,1.22-2.7,2.5-2,4.54.46,1.26.48,2.7,1.1,3.87,2.79,5.31,1.43,10.85,1.24,16.33a6.65,6.65,0,0,1-.45,1.8,18.6,18.6,0,0,1-.87,1.75,21.87,21.87,0,0,1-.83-5.46c-.3-3.89-.66-7.78-1-11.67a9.94,9.94,0,0,0-.24-1.37c-.23-.88-.52-1.88-1.67-1.82-.67,0-1.43.8-1.92,1.39-1.88,2.29-2.39,5-2.9,7.76-.67,3.62-1.72,7.19-2.68,10.77-.24.91-.81,2-2,1.56-.59-.19-1.07-1.22-1.2-1.92-.41-2.22-.61-4.47-.93-6.7a12.9,12.9,0,0,0-.67-1.81l-3.44,6.53-1.78-.77-1.23,1.24-.46-.17a21.72,21.72,0,0,0,1.06-4.31,19.78,19.78,0,0,0-.72-4.27c-1.79-.13-3.32-1.11-4.94.22-.3.24-1.34-.27-2.23-.48l-.79,2.39-2.88-.77c-1.65,1-.53,2.67-1.07,4.2-2.28-1.16-1.38-4.86-4.84-4.93-2.09,2.79,1,6.33-1.71,9.44-.85-1.66-1.5-3.13-2.33-4.49a9.94,9.94,0,0,0-2.2-2.62,3.33,3.33,0,0,0-2.16-.24,9.51,9.51,0,0,0-1.81.75c-2.28.82-2.65,1.2-2.67,3.33,0,3,.1,6,0,8.95s-.52,6.22-.8,9.33l-.77.05a9.16,9.16,0,0,1-.43-1.76c-.09-1.85-.08-3.7-.12-5.55,0-1.57-.89-2.61-2.87-3.53,1.13,4.36-.3,8.65,3,12.4l-2.38.81.26,1.45-3.51,1,1.24,7.06c-3.38-1.54-5-4.2-7.46-6.25-1.16,1.77-.53,3.09.18,4.36.56,1,1.35,1.91,1.88,2.92,1.55,3,3.18,5.92,2.72,9.4-.21,1.58.79,2.73,2,3.74a4.31,4.31,0,0,1,1.94,3.43l-3.15-2.27c.11,1.85,1.21,2.57,2,3.49a56.82,56.82,0,0,1,4.17,5.18,3.94,3.94,0,0,1,.32,4.37c-2.26-.58-2.26-.58-3.84,1.53l-3.27-1.37c1.27,6,5.42,10.56,7.09,16.14-.5-.44-1-.86-1.51-1.32-.65-.62-.94-1.66-2.38-1.2-.32.1-1.19-.76-1.53-1.32a22.91,22.91,0,0,0-2-3.22c0,.59.28,1.42,0,1.74-1.84,1.85-.89,3.54,0,5.36q2.72,5.46,5.22,11c.93,2.08,1.55,4.28,2.45,6.37.78,1.8,1.77,3.52,2.95,5.83-3.61-2.55-5.91-5.56-8.71-8.14,1.56,6.46,3.29,12.88,4.54,19.39.29,1.51-1.07,3.29-1.89,5.56L275.9,382c-.38,2.57-.08,4.47,1,6.08,1.62,2.32,1.16,5,1.74,7.43.13.56-.65,1.48-1.27,1.94a8.15,8.15,0,0,1-2.26.85l-4.16-1c.08,4.17-1.22,7.93,1.74,11.68l-5.42-.79c.07,3.26,2.88,5.44,3.29,8.58-1.7-.58-2-2.68-4.22-2.71.75,2.74,1,5.31-2.19,7l1.4,4c-1.94,1-1,2.81-1,4.27a25.94,25.94,0,0,0,1.16,4.67l-2.36-.3-.69,2h-1.27c-.07.24-.2.45-.16.62.35,1.4.43,3,1.18,4.16,1.29,2.06.17,3.69-.7,5.35-.29.54-1.33.76-2.13,1.17l1.52,5.27-5.41-1.73-3.64-4.55-.74.3a14.28,14.28,0,0,1-1.29,6.19l-1.76-.83,1.63,6.87-.5.25-3.13-4.9-.54.18v3.68l-3.14-3.85-.48.2,1.44,3.89c-2.65,2-1,4.82-1.78,7.15-.18,0-.51,0-.54,0-1-2.33-1.66-4.73-3.7-6.64-.79-.75-.67-2.3-1-3.57-2,2.56-2,2.56-1.15,5.46l-2.17,1.86-.87-3.17c-1-.48-1.86-.13-2.06.77a24.7,24.7,0,0,0-.54,4.82,15.21,15.21,0,0,0,.76,3.23c-.88-.52-1.24-.91-1.62-.93-3.25-.14-3.69-2.08-3.61-4.47a5.87,5.87,0,0,0-.63-2.61c-1.48,3.63-.73,7.3-.34,10.89-4.24,2.24-3.93,2.09-1.64,6.18,2.13,3.79,3.49,7.94,5.21,11.92a34.41,34.41,0,0,0,1.54,3.34c.73,1.3,1.46,2.55.76,4.62-3-5.55-5.79-10.69-9.74-15.31l.2,2.68-7.1-4.49c-.59,3.19,1.29,5.15,2,7.56l-3.32-3.47-.44.24a23.71,23.71,0,0,1,2.41,4,29.32,29.32,0,0,1,1,5l-1.47-.32c1.77,2.7,3.48,5.45,5.35,8.1a47.76,47.76,0,0,0,3.86,4.67,14.3,14.3,0,0,1,3.51,7c-2.29.07-3.55-.77-4.18-2.36a44.44,44.44,0,0,0-8.15-13.41,22,22,0,0,1-1.45-2.42,3.92,3.92,0,0,0-1.87-1.53c.79,2.64,1.75,5.24,2.31,7.92s3.09,4.81,1.9,8a8.46,8.46,0,0,1-1.27-1.83c-1.37-3.9-2.64-7.84-4-11.75-.33-.95-.8-1.86-1.3-3-2.35,1.74-.23,4.82-3,6.21a3.81,3.81,0,0,1-1.6-3.07c-.14-1.12-.37-2.23-.54-3.35-.68-4.34-4.45-5.72-8.41-7.75l1.77,6.82-2.9-.79.46,3.3-.49.25-2.77-3.34-.86.5a13.26,13.26,0,0,0,2.64,5.43c1,1.23,2.09,2.43,3,3.71a23.18,23.18,0,0,1,1.45,2.57l-.69.41c-2-2.28-3.63-4.84-5.94-6.75s-5.31-3.23-8.43-5.06c-.15,2.55,2.72,3.87,1.68,6.35l-2.78-1.73a39.44,39.44,0,0,0,.08,6.49c.34,2,1.33,3.83,2.21,6.22a7.82,7.82,0,0,1-4-5.47,4.76,4.76,0,0,0-3.05-3.73l-2.73,1.5c.79,2.34,2.26,4.58,2.08,6.71-.21,2.44,2.87,4.08,1.27,6.75-2.65-2.22-2.58-5.74-5.14-8.13l-.9,1.75c-1.41-.45-1.79-1.59-2.36-2.67a6.53,6.53,0,0,0-1.8-2.1c-.36-.27-1.17,0-1.94,0,.17,3.35,3.8,4.76,4.4,7.69-1.25.58-2.67.9-3.51,1.72s-.85,2-1.3,3.23l-3.75-.59a13.08,13.08,0,0,0-2.35,9c0,.7.83,1.41,1.41,2a19.53,19.53,0,0,0,1.91,1.6c-.17,1.13-.64,2.06-.33,2.66.55,1.08,101,.07,207.69-.06l-.48-1.69c-.67-2.37-.62-2.39-1.22-4.77a4.81,4.81,0,0,1,0-1.16L368,522c3.44,2.7,5.41,4.43,7.47,8.17,113.19-.17,269.85.45,277.06-.26,0-56.8-.66-32.19-.66-89C645.95,436.12,639.88,431.38,634.07,426.39Zm9.79-128.17c-.91,1.44-1.64,1.35-2.46.8l0-.8ZM568.44,52.78c.89,1.36,1.81,2.72.92,4.44C567.25,55.79,567.18,55.46,568.44,52.78ZM472.3,113.86a23.32,23.32,0,0,1,5.91-10.63q5.37-5.73,10.9-11.34A18,18,0,0,1,491.87,90l.63.37c-.05.63.1,1.37-.21,1.87a21,21,0,0,1-2.05,2.43,12,12,0,0,0-2.43,12,4.72,4.72,0,0,0,3,3.15,23,23,0,0,1,2.19.8c2.21,1.1,4.27,1.23,6-.8.55.19,1.16.22,1.33.48,1.94,2.91,4.87,2.4,7.79,2a23.25,23.25,0,0,1,3-.5c.53,0,1.06.48,1.72.81-1.25,2-4.47,1.75-4.85,4.27A3.2,3.2,0,0,0,511,118.2c6.12,0,12.14-.72,17.55-3.56a116,116,0,0,0,12.47-7.23c2.34-1.63,4-4.13,5.83-6.3.27-.31.09-.94.14-1.77a11.76,11.76,0,0,0-2.36.46,18.41,18.41,0,0,0-3.18,1.74c-2.32,1.64-5,1.52-7.91,1.51a7.71,7.71,0,0,1,4-4.55,8.16,8.16,0,0,0,3.51-3.67l-2.23-3.26c2.6-1.11,2.39-3.32,2.81-5.28.51-2.38-2.51-3-2.81-5.06h-3.14l2-2.67-.92-2.78a7.54,7.54,0,0,1,9-.11c1.71-1.42,3.87-2.24,4.81-4.59a23,23,0,0,0-2.51-.85c-2.18-.47-4.38-.86-6.58-1.28-.22,0-.49-.16-.66-.08-2.91,1.28-6.43.62-9.18,2.52a19.8,19.8,0,0,1-5.44,2.94c-1.94.57-4.14.37-6.53.53-1.6,2.89-3.16,6.46-8.39,6.37-.42,1.54-1.77,2.22-3.41,2.88-1.42.58-2.5,1.85-3.81,2.88-2.47-.86-3.42-2.47-2.14-4.55a20.59,20.59,0,0,1,3.77-4.29c1.66-1.5,3.67-2.67,5.36-4.14a15.11,15.11,0,0,1,6.48-3.74,3.35,3.35,0,0,0,1.24-.45c5.31-4.1,11.78-5.33,18.37-6.3a16.05,16.05,0,0,0,2.61-1c-3.61-1.82-7.22-.42-10.63-2,.68-.67,1-1.19,1.43-1.37,3.82-1.47,7.6-3.1,11.54-4.24A12.56,12.56,0,0,1,551,56a52.77,52.77,0,0,1,18.43,14.66,64.47,64.47,0,0,1,10.3,16.24c3.63,8.66,2.65,17-2.19,25-5,8.24-11.92,14.93-19.85,20.8a115.31,115.31,0,0,1-11.36,7.71c-3.21,1.83-6.88,3-10.35,4.42-.41.17-.87.23-1.26.43-8.89,4.53-18.11,3.4-27.22,1a79.09,79.09,0,0,1-29.42-15.24C472.37,126.31,470.75,120.49,472.3,113.86Zm41.8-3.54c0-1.08.51-1.75,2.06-1.54.38,1.29,0,2.05-1.21,2.25A1.15,1.15,0,0,1,514.1,110.32Zm4.56-4.42c1.39-3.56,3-4.39,6-3.44C523.31,104.32,521.1,104.65,518.67,105.9Zm-90.51,72.61a24.64,24.64,0,0,1-5.24-2c-2.28-1.08-4.49-2.29-6.65-3.56-2.49-1.46-3.41-2.92-1.55-6.17a24.9,24.9,0,0,1,4.1,1.22c3.14,1.56,6.23,3.2,9.21,5a7,7,0,0,1,2.52,2.75C431.45,177.62,430.27,179,428.15,178.51ZM216.38,517.68c-1,.69-1.75.57-2.22-.34-.66-1.29-.37-4.53.56-6.57A8.59,8.59,0,0,1,216.38,517.68ZM389.84,412.28a.45.45,0,0,1-.22-.22,1.9,1.9,0,0,1-.18-.59c-1.66-24.11-3.62-48.19-6.85-72.17,4.29,24.18,7.57,48.45,8,73A3.45,3.45,0,0,1,389.84,412.28Zm43.7,102.11a6.05,6.05,0,0,1-4.5-2.3c-3.79-3.81-8.65-6.17-13.42-8.66-.95-.49-2.39-.67-2-2s1.76-1.08,2.85-1.1c4.27-.07,8.54-.14,12.81-.14,3.33,0,4,.57,4.15,3.55q.27,4.15.41,8.31A14.56,14.56,0,0,1,433.54,514.39ZM448,452a26.91,26.91,0,0,1-4.32,3.8,11.49,11.49,0,0,0-3.43,3.27c-1.53,2.26-3.24,4.4-4.87,6.6-.5.67-1,1.36-1.43,2l-1-.63a2.82,2.82,0,0,1,.57-3.09c1.26-1.56,2.39-3.24,3.8-4.67,3.27-3.31,6.28-6.86,10.06-9.74a6.08,6.08,0,0,1,1.25-.53A2.33,2.33,0,0,1,448,452Zm1.26-36.24L446.61,413C449.44,413,449.5,413,449.26,415.76ZM545.79,283c-1.88-.62-4.23-.45-5.54-3.2l5.79,2.55Zm32.6,34.15c-1.92-.58-3-2-3.93-3.81l6.15,3.4C579.51,317,578.87,317.3,578.4,317.16Zm9.9-8.76c1.55,2.74,1.53,2.79-.79,3.56C586.71,310.71,587.2,309.7,588.3,308.4Z"/><path d="M118.1,361.12c1.87,1.22,3.9.5,6.1,0-1.54-2.85-3.35-4.9-6.91-5.42C116.23,357.84,116.46,360.05,118.1,361.12Z" fill="none"/><path d="M136,431.39c-1,1.84-2.44,3.21-5.29,2l1.74,2.76c-2.62,1.3-2.77,3.3-2.26,5.56A7.87,7.87,0,0,1,130,444c-9-3.4-9-3.4-10.4-6.17l2.54-.83c-2.68-3.19-4.07-3.27-6.31-1-1.09,1.1-2.33,2.07-3.78,3.34l2.25,8.82-2.54.34c-.67,4.35,1.35,8.88-1.83,12.92l-2.32-1.75c.19,2.82-2.82,4.86-1,7.21L111,470a7.32,7.32,0,0,0,1.57,1.12c2,.74,4.09,1.38,6.32,2.12.94-1.29,2.89-1.9,3.82-3.77a15,15,0,0,1,2.48-3.24c.78-.82,1.89-1.16,2.21-2.58.25-1.15,2.28-1.64,2.11-3.26,0-.22.32-.53.57-.7,3.22-2.23,5.17-5,4.77-8.94,2.55-.07,3.35-1.64,3.66-3.46a3.39,3.39,0,0,1,2.78-3.11,16,16,0,0,1-.15-2.36c.06-.71.39-1.4.49-2.11C142.33,434.4,141.66,434,136,431.39Z" fill="none"/><path d="M145.6,419.53c-1.43,3-2.31,12.76-1.49,15.76,4.88-.56,6.38-4.16,7.51-7.61.45-1.39-.82-3.29-1.44-4.91C149.43,420.78,147.12,420.67,145.6,419.53Z" fill="none"/><path d="M122.69,356.07c-.59-2.35-1.15-4.63-1.74-6.92a1.34,1.34,0,0,0-.42-.81,10.45,10.45,0,0,0-1.66-.64,24.76,24.76,0,0,1,0,3.31C118.36,354.32,118.87,355.05,122.69,356.07Z" fill="none"/><path d="M148.84,392a24.36,24.36,0,0,0,3.06,11.7C150.54,399.84,151.29,395.55,148.84,392Z" fill="none"/><path d="M161.65,399.48c-.68-1.12-.85-1.74-1.29-2.06-1.64-1.2-2-2.73-2.2-4.59a11.48,11.48,0,0,0-1.85-5.15c-1.8-2.66-2.33-5.56-2.86-8.54a15,15,0,0,1,1.61,2.64c.81,1.46,1.38,3.16,2.57,4.3,2.12,2,3.06,4.19,2.5,7a2.68,2.68,0,0,0,2,3.3c.24-1.43.06-2.72.66-3.53,1.66-2.24,1.4-4.44.51-6.76-.18-.48-.49-1.08-.32-1.47,1.12-2.54-.71-4-2.21-5.67-3.91-4.44-9.43-7.57-12.23-13a14.28,14.28,0,0,0-.27,11.27,105.66,105.66,0,0,1,3.15,11.65c1,4,1.75,8.06,2.7,12.08a24,24,0,0,0,1.31,3.31l.7-.06,1.64-6.28Z" fill="none"/><path d="M173.65,396a11.92,11.92,0,0,0-4.76-6.86l1.34,13.3c-1.13.27-2.68.2-3.39.88-1.93,1.84-3.54,1.18-5.33,0a13.41,13.41,0,0,0-1.83-.73l2.74,2.91c-1.84,2-3.38,3.58-4.87,5.22-1.32,1.46-1.52,3-.16,3.78,4.14,2.43,8.41,4.68,12.64,7,.16.08.43,0,.65,0,1.8-2.34,1.62-3.08-1-4.11-1-.39-2.3-.31-2.56-1.38,1.63-1.46,3.26-2.45,4.17-3.85a33.11,33.11,0,0,0,4.09-8.64,5.74,5.74,0,0,0-.57-5A7.79,7.79,0,0,1,173.65,396Z" fill="none"/><path d="M130.38,355,135,367.43C135.81,362.32,133.93,357.41,130.38,355Z" fill="none"/><path d="M150.34,408.29c-1.05,1.88-.85,4.28.76,7.31C152.91,411.61,152.66,409.63,150.34,408.29Z" fill="none"/><path d="M218.31,45.16c2.28,4.56,4.31,7,7,8.11C225.65,50,222.27,46.22,218.31,45.16Z" fill="none"/><path d="M192,478.73a11.61,11.61,0,0,0,5.06,5.13C196,481.05,195.05,479.05,192,478.73Z" fill="none"/><path d="M213.6,34.38a5.74,5.74,0,0,1,3.34.93A38.59,38.59,0,0,1,220.19,38a13.46,13.46,0,0,0,2.35,1,10.33,10.33,0,0,0-.17-2.46c-.85-2.33-1.69-4.67-2.74-6.93a12.23,12.23,0,0,0-5.55-5.81l-.54.41,2.33,3.94a10.6,10.6,0,0,1-2.21-.86c-2-1.68-4.25-1.73-6.59-1a5.48,5.48,0,0,1-4.2-.3,4.59,4.59,0,0,0-1.88-.58,14.86,14.86,0,0,1-6.73-1.69c-.93-.42-2-1.09-3.05-.09.47,2.83,1.36,3.59,4.74,4.15a15.78,15.78,0,0,1,3.89.77c3.41,1.55,6.74,3.25,10,5A5.54,5.54,0,0,0,213.6,34.38Z" fill="none"/><path d="M213.58,42.63a10.75,10.75,0,0,0-1.32-1.56l-.44.19.59,3.56h-2.65c2.26,3.15,4.34,6.07,6.45,9,.16.22.54.29,1,.53a5.85,5.85,0,0,0-.33-5.62C215.68,46.72,214.71,44.63,213.58,42.63Z" fill="none"/><path d="M224.82,34c1.33-4.33-3-10.66-9.29-13.69C219.63,24.26,220,30.34,224.82,34Z" fill="none"/><path d="M201.67,151.69c-1.56-1.27-3.25-1.36-5.44-.63C198.39,154,199.75,154.07,201.67,151.69Z" fill="none"/><path d="M173.06,124c1.22.75,2.27.53,3-1.14-1.17-.73-2.21-1.36-3.25-.16A1.25,1.25,0,0,0,173.06,124Z" fill="none"/><path d="M85.74,474.05c.89,2.95,1.47,3.46,3.91,3.68C89.75,475.14,89.11,474.5,85.74,474.05Z" fill="none"/><path d="M140.65,425.9l-.51,4.42C141.72,428.73,141.76,428.54,140.65,425.9Z" fill="none"/><path d="M200.32,143.41c-.08-1.24-.71-1.7-1.93-1.35-.21.06-.5.53-.43.71C198.39,143.86,199.19,144,200.32,143.41Z" fill="none"/><path d="M386.4,184.28c-1.86,1.49-2.43,3.33-1.81,5.93l3.93-1,2.54,1.28.3-2.21c1.15-1,2.24-1.54,2.67-2.37a8.58,8.58,0,0,1,5.35-4c3.93-1.22,6.82-3.79,10.23-5.66,1.47-.81,1.5-1.88.49-3.15-1.34-1.7-2.51-1.9-4.61-.9-6.11,2.89-11.42,6.87-17,10.44A24.11,24.11,0,0,0,386.4,184.28Z" fill="none"/><path d="M203.89,222.95a5.68,5.68,0,0,0-.79-.58,5.11,5.11,0,0,1-2.74-4.35,3.15,3.15,0,0,0-2.6-3.19,4.63,4.63,0,0,1-3.31-2.85,5.07,5.07,0,0,0-4-3.34,2.91,2.91,0,0,1-2.54-2.21c-.68-3.5-3.44-5.08-6.67-6.3-1.27-.48-2.75-.68-3.89-1.91a16.62,16.62,0,0,0,3.17-1.51,2.54,2.54,0,0,0,1-2,4.43,4.43,0,0,0-5.35-3.08c-3.78,1-7.46,2.25-10.19,5.1-2.18,2.27-2.2,2.86.29,5a1.66,1.66,0,0,1,.29.55,1.19,1.19,0,0,1,0,.31,3,3,0,0,1-.22.89c-2.3,4.1-1.61,7.68,2,10.88a6.17,6.17,0,0,1,2.09,4.43,5.3,5.3,0,0,0,.74,2c.11.22.54.3.95.51l1.2-1.59a2.91,2.91,0,0,1,3.09,2.16,4.64,4.64,0,0,0,1.62,2.54c2.72,1.59,3.52,3.89,3.49,6.59a4.35,4.35,0,0,0,3.23,4.55c.93.33,1.7,1,2.62,1.39a10.59,10.59,0,0,0,3.2.86c1.89.1,2.84-1.28,2.1-2.87-.37-.79-.81-1.56-1.43-2.74,1.51-.16,2.47-.28,3.44-.37a19.3,19.3,0,0,0,8.79-2.88C206.11,227.21,206.2,225,203.89,222.95Z" fill="none"/><path d="M573.23,26.16c-3.25.84-11.61,5.47-13.4,7.47L570.56,44.8c2.93-2.63,6.56-4.26,7.53-8.35C574.4,33.9,573.56,30.12,573.23,26.16Z" fill="none"/><path d="M494.09,50.32a51.85,51.85,0,0,0-6.34,4c-1.16.79-2.07,1.9-3.24,2.66-3.82,2.49-6.86,5.86-11,8-.74.39-1.19,1.22-1.8,1.82-2.74,2.7-5.34,5.55-8.3,8a12,12,0,0,0-4.31,6.77c-.79,3.4-.53,3.94,3,5,.95.28,1.91.53,3.12.87a15.07,15.07,0,0,1,1.21-3.58c2.41-3.57,5-7.06,7.5-10.57a1.07,1.07,0,0,1,.23-.22,6.54,6.54,0,0,0,2.57-4.2,3.36,3.36,0,0,1,1.4-2.3,9.68,9.68,0,0,0,4.63-3.84c.36-.55,1.29-.77,1.89-1.22a102.54,102.54,0,0,0,8.43-6.55c1.36-1.27,2.32-2.71,4.46-2.92.42,0,.78-.6,1.2-.94C496.75,49.72,496,49.41,494.09,50.32Z" fill="none"/><path d="M396.79,107.85a6.68,6.68,0,0,0-1.31-.24l-7.83-.9c.21,1.7.35,3.62.72,5.5.43,2.21,1.91,3.23,4.32,2.76a20.79,20.79,0,0,0,5.19-1.91c1.1-.55,2.63-1.22,2.38-2.68C400,108.74,398.26,108.33,396.79,107.85Z" fill="none"/><path d="M583,184l.08.57,2,.14.15-.55c-.32-.19-.62-.53-.95-.54A3.84,3.84,0,0,0,583,184Z" fill="none"/><path d="M381.58,102.76c-.34,0-1.07.64-1.17,1.08-.22.92.08,1.78,1.5,2.18.32-.37.89-.76,1-1.23A1.54,1.54,0,0,0,381.58,102.76Z" fill="none"/><path d="M574.14,191.11c3.24-.41,5.27-1.32,6.92-4C578,187.73,575.76,188.28,574.14,191.11Z" fill="none"/><path d="M559.22,200.59l.05.82c.54.23,1.21.79,1.6.65,3.1-1.05,5.92-2.48,7.64-5.13l-.46-.64Z" fill="none"/><path d="M525.95,176a2.42,2.42,0,0,0-.89.12c-2.49,1.35-5,2.65-7.41,4.15a1.22,1.22,0,0,0,.37,2.25,5.88,5.88,0,0,0,3.17.07c2-.58,3.92-1.47,5.88-2.21,1.29-.49,2.06-1.29,1.75-2.61S527.41,176,525.95,176Z" fill="none"/><path d="M233.74,238.36c1.15,2.58,2.34,3.08,5.89,2.37C238.18,238.28,236.06,238.31,233.74,238.36Z" fill="none"/><path d="M308.07,114.77a13.25,13.25,0,0,0,3,5.09c2.26,2.74,2.88,2.72,5-.18.7-1,1.35-1.92,3.33-1.31-.93,3,2.27,6.25-.69,9.22-6.32,0-6.32,0-10.43-3.77a5.32,5.32,0,0,0-1-.86,22.63,22.63,0,0,0-2.44-.89,17,17,0,0,0,1.48,2.68c.7.8,1.59,1.45,2.38,2.18,2.72,2.55,3.13,5.35,1.44,8.6a2.34,2.34,0,0,0-.13,2,18.87,18.87,0,0,0,3.47,4.45c3.37,2.83,7,5.44,10.52,8.07a31.36,31.36,0,0,0,3.56,2c.46-1,1.06-1.66,1-2.26-.27-2.63.64-5,1.22-7.54.77-3.31.86-3.43,3.92-1.27.12.08.4,0,1-.09L332,134.14l2.27-5.07,3,.17c-.57-1.59-1-2.74-1.39-3.86a19.39,19.39,0,0,1-1.07-2.57,44.1,44.1,0,0,1-1.34-7.29,7.63,7.63,0,0,0-3.58-6.28,5,5,0,0,1-2.3-5.15c3.08.07,1.83,3.39,3.8,4.08.34-.11.66-.12.74-.25,1.57-2.62,2.4-5.25.56-8.12a11.41,11.41,0,0,1-1.65-4,18.06,18.06,0,0,1,0-4.58,4.55,4.55,0,0,0-3-4.66,3,3,0,0,0-3.38.71c-1,1.09-.58,2.33,0,3.5.94,2,1.92,3.91,2.78,5.9.2.46,0,1.06-.06,1.8a4,4,0,0,1-3.3-3.37c-.48-1.84-1.48-3-3.71-2.8A3.37,3.37,0,0,1,317,90.61a5.48,5.48,0,0,0-6-2.3c-2.75.62-5.15,3-5.24,5.33-.08,2.05.1,4.11.07,6.17,0,3.26.55,6.6-1.57,9.6-.32.45-.18,1.17-.29,2.09C306.66,111.25,307.61,113,308.07,114.77Z" fill="none"/><path d="M311,55.24A7.26,7.26,0,0,0,313.73,61a6,6,0,0,1,2.33,4c.21,1.23,1.12,2.35,1.89,3.88a35.87,35.87,0,0,0,4.25-1.63c.55-.3,1.25-1.27,1.09-1.64-1.33-3-2.23-6.47-4.49-8.78A21.85,21.85,0,0,1,313.67,49,11.77,11.77,0,0,0,309,43c.59,3.29,1.11,6.11,1.59,8.93C310.77,53,310.92,54.12,311,55.24Z" fill="none"/><path d="M375.72,182.62a44.36,44.36,0,0,0-7.59,10.13c-.43.75-.85,2-.46,2.57a28.81,28.81,0,0,0,9,8.16,2.17,2.17,0,0,0,1,.19c4,0,7,1.92,10,4,3.46,2.45,7,4.85,10.56,7.14a44.35,44.35,0,0,0,9.18,4.79c-4.2-3.18-8.63-6.47-12.95-9.88a16.39,16.39,0,0,1-2.86-3.37c-1.11-1.53-2.12-3.13-3.14-4.73a89.16,89.16,0,0,1-5-8,13.94,13.94,0,0,1,.43-14c1.43-2.41,3.12-4.7,4.69-7l-.41-.28c-2.67,2-5.39,4-8,6C378.57,179.7,377.19,181.2,375.72,182.62Z" fill="none"/><path d="M321,76.46a2.47,2.47,0,0,0,.75,2.12,2.82,2.82,0,0,0,2.4.18A26,26,0,0,0,327.67,76a6.51,6.51,0,0,0-5.21-3.29A21.19,21.19,0,0,0,321,76.46Z" fill="none"/><path d="M282.11,280.09l-.63-5.68C279.18,277.92,279.27,278.44,282.11,280.09Z" fill="none"/><path d="M352.39,55.68c-1.68,2.14-1.53,5.13.37,7.6a6.2,6.2,0,0,0,6.68,2.12C359.2,58.59,359.84,57.79,352.39,55.68Z" fill="none"/><path d="M370.56,124.26a7,7,0,0,0,2.52,3.5,14,14,0,0,1,5.38,6.5c.64,1.76,2.13,3.27,3.24,4.89l.6-.4a23.21,23.21,0,0,0-3.76-8.8,14.15,14.15,0,0,1-1.68-3c-1.36-3.36-2.5-6.8-4-10.12A132.42,132.42,0,0,1,366.51,99c-.54-1.92-1.38-3.77-2.13-5.79l-4.15,1.7c.49,1.3,1,2.44,1.36,3.6.55,1.66,1,3.34,1.57,5,1.67,5.11,3.31,10.22,5.07,15.31C368.86,120.68,369.88,122.42,370.56,124.26Z" fill="none"/><path d="M355,192.09a9.32,9.32,0,0,0-3.52-4.78,2.57,2.57,0,0,0-.89-.17L350,189.8c-2.76-1.35-2.9-1.43-3.15-3.42a3,3,0,0,0-1.34-2.66c-3.86-2.3-7.66-4.69-11.55-6.94a43.22,43.22,0,0,0-7.9-4.06,54,54,0,0,0-9.56-1.73c-.92-.12-1.93.4-2.91.52-1.64.21-3.51.88-4.9.4-3.92-1.34-7.22.49-10.68,1.28a51.41,51.41,0,0,0-7.12,2.74c-2.4.95-4.14,2.37-4.69,4.86-1,4.43-2.06,8.84-3,13.27a15.73,15.73,0,0,0-.24,3.07c-.09,4.41.36,8.87-1.72,13.06a1.88,1.88,0,0,0-.16.91c.17,3.22-2.1,5.05-4.6,6.73-.72.49-1.54.86-2.29,1.3a3.28,3.28,0,0,0-1.84,3.39c.07.58.1,1.17.18,2.18-1.73.07-3.25.12-4.76.2-2,.1-2.8.51-3,2.29-.3,3.09-2.1,5.32-4.19,7.53a8.17,8.17,0,0,1-4.13,2.46,9.74,9.74,0,0,0-3.75,1.81c-2.73,2.3-5.57,4.13-9.67,3.38l-2.8,4.42c3.67.5,4,2.82,5,4.89,1.54,3,3.72,6,7.55,7s8,1.19,11.83,2.26c5.76,1.6,11.2.68,16.4-1.39a38.85,38.85,0,0,1,14.46-2.38,12.08,12.08,0,0,0,3.34-.17,5.51,5.51,0,0,1,5.3,1.05,10.68,10.68,0,0,0,2.29,1.3,4.17,4.17,0,0,0,5.69-2.26,9.9,9.9,0,0,0,.34-2.13c.36-2.84.36-2.83,3.69-3.18.19,0,.37-.21.55-.32,1.12-3.66,1.1-3.69,4.71-6a63.52,63.52,0,0,1,8.56-4.66,26.6,26.6,0,0,0,12.85-12.23c1.24-2.3,2.08-4.77,3.24-7.11a3.55,3.55,0,0,1,1.7-1.68c5.92-2.21,7.59-7.49,10.44-11.91,0-3.27.57-6.57-.79-9.76Q356.13,195.14,355,192.09Z" fill="none"/><path d="M645.93,8.36a7.51,7.51,0,0,1-2-1c-1.61-1.24-3.07-2.64-4.74-3.81A9,9,0,0,0,635.76,2a3,3,0,0,1-2.59-2h-2.7c-1,1.26-2.88,2.07-2.45,4.13a1.84,1.84,0,0,1-1,1.49c-2.69,1.25-3.48,3.71-4.43,5.94s-2.64,3.35-4.9,4.28a88.54,88.54,0,0,0-8.26,4.08c-6,3.23-11.93,6.54-17.9,9.81a16.68,16.68,0,0,1-1.75.75c-1.36-2.09-2.46-4.07-3.85-5.85-1.65-2.11-2.34-2.13-5-.86A5.68,5.68,0,0,1,580,24c-1.95-1.67-2-2.13-.07-3.5,4-2.84,8.06-5.56,12-8.47,4.09-3,8.06-6.2,12-9.39A17.6,17.6,0,0,0,606.17,0H386.79a4.79,4.79,0,0,1-.42,1.79c-2.88,4-5.73,8-8.8,11.82a6.77,6.77,0,0,1-8.6,2.17,3.65,3.65,0,0,0-1-.12c-.88,2.92-.75,3.22,2,4.49,3.63,1.68,4.31,3.8,2.18,7a11.05,11.05,0,0,1-4,4c-1.08.58-1.49,2.17-2.25,3.28a3,3,0,0,0,0,3.72c1.06,1.74.14,3.45-1.11,4.81a19.35,19.35,0,0,1-3.35,2.55c-1,.67-2,1.26-3,1.9a10.34,10.34,0,0,1,.18,2.28c-.08.55-.37,1.34-.82,1.55-1.76.8-3.63,1.41-5.71,2.19a10.19,10.19,0,0,1-.55-2c-.08-2.77-.06-5.54-.13-8.3A7,7,0,0,0,351,41c-2.13-6-1.46-12.15-.57-18.28a14.9,14.9,0,0,0,0-2.44c-.06-3-.27-6-.15-8.94a12,12,0,0,1,1.1-4.77,10.06,10.06,0,0,0,.93-6.6H143.78c1.19,3.51,2.6,4.35,6.33,3.82a14.49,14.49,0,0,1,2.67-.1,10.16,10.16,0,0,0,6.1-1.42,8.89,8.89,0,0,1,5.79-1.13A19.55,19.55,0,0,1,171.8,3l-1.88,1.82a4.76,4.76,0,0,0,3.8,3.78,22.23,22.23,0,0,0,4,.62c1.39.12,2.69.27,3.55,1.78l-2.12,1.24c-.62,1.76.11,3.16,1.49,4.39.57.5,1.14,1,1.7,1.5,2,1.82,1.85,2.23-.92,3.11A27.22,27.22,0,0,0,177.83,23c1.62,4.74,6,4.51,10.48,4.88-1.87,1.31-3.13,2.23-4.43,3.09s-2.63,1.51-3.8,2.41a5.69,5.69,0,0,0-1.95,2.29,8.71,8.71,0,0,1-4.4,5.21c-2.81,1.44-4.25,4.11-5.16,6.63s.39,5.11,2.33,7.1c1,1.05,2.64,1,4.12.47a36.7,36.7,0,0,0,4.69-1.55,30.32,30.32,0,0,0,4.59-3,13.66,13.66,0,0,0,1.85-2.16c2.87,1.35,5.85.61,8.85.38a10.75,10.75,0,0,1,3.84.75c2.12.67,4.14,1.69,6.47.61a2.06,2.06,0,0,1,1.61.06c2.88,1.73,6.4,2.6,8.58,5.3a11.39,11.39,0,0,0,2.05,2c2.55,1.87,3.51,4.38,4,7.23.57,3.4,2.84,5.59,6.26,7,.32-.55.65-.85.59-1.06-.67-2.2.22-3.65,2.22-4.94s2.44-4.67,1.25-7.37c-.38-.85-1-1.62-1.4-2.46A11.14,11.14,0,0,1,229.35,53c-.3-1.85.77-2.63,2.82-2.24,4.21.8,5.53,2.27,5.46,6.12-.05,3-.18,5.93-.2,8.9,0,1.64-1,2.65-2.35,3.5s-3,1.48-3.68,3.25c.66.44,1.25.87,1.88,1.23.86.49,1.82.83,2.62,1.39,2.16,1.5,2.37,3.25.77,5.27-.71.89-1.34,1.84-2.16,3l-4.23-4a3.22,3.22,0,0,0,.34,4c1,1.21,1.64,2.5.43,3.94-4.1.22-6.59,2.22-7.84,5.72-.59,1.65-1.49,3.21-2.1,4.86a29.81,29.81,0,0,0-1,3.85,39.2,39.2,0,0,1-1.19,5.41,17.9,17.9,0,0,0-1.35,5.31,7.46,7.46,0,0,1-2.42,4.22,34.21,34.21,0,0,1-11.87,7.41,6.14,6.14,0,0,1-3.21.33,6.78,6.78,0,0,0-4.52.62c-2.89,1.35-3.71,1.08-5.46-1.49a1.41,1.41,0,0,1-.17-.27c-1-2.63-2.89-3.66-6-3a4.63,4.63,0,0,1-4.26-1.43,5.49,5.49,0,0,0-5.8-1.42,33.92,33.92,0,0,1-4.34.48c-1.06.13-2.12.33-3.15.5a4.88,4.88,0,0,0-.05,1.24c.81,2.71.09,3.8-2.82,3.58a12.42,12.42,0,0,1-4.63-1.51c-1.51-.79-2.75-1.11-4.37-.26s-3.48,1.42-5.2,2.17a4.21,4.21,0,0,0-2.33,2.86,18.46,18.46,0,0,1-2.19,5.09c-2.1,2.93-2.15,6-1.41,9.18a20.34,20.34,0,0,1-2.17,14.64,8.13,8.13,0,0,1-2.38,2.56,4.84,4.84,0,0,0-2.09,4.61c.12,2.15.06,4.31.17,6.46a5.11,5.11,0,0,0,.58,2.36c1.26,2.05.76,4-.28,5.88-.4.74-.9,1.43-1.27,2.18-.22.45-.55,1.17-.34,1.44,1,1.22,2.19,2.28,3.19,3.48a3.29,3.29,0,0,0,4.32,1.08c2.6-1,6.13,1.18,6.52,3.8s.64,5.24,1,7.85a1.4,1.4,0,0,0,.31.86c2.11,1.82,2.31,4.4,3.22,6.7a4.37,4.37,0,0,1,.42,1.48c0,5.2,2.94,9.1,6.72,12.63.16.15.34.27.48.43.75.8,1.56,1.69.7,2.73s-1.9.54-2.76.06c-3.54-2-7-4-10.53-6-.66-.38-1.19-1.17-1.87-1.26-4.68-.65-8-4-12.47-5.18-3.14-.86-5.81-3.08-8.8-4.5a67.76,67.76,0,0,0-7.72-3c-.86-.29-2,.16-3,.09a16.06,16.06,0,0,1-2.59-.63l.49-3.45a7.12,7.12,0,0,0-2.13-.64c-3.38.13-6.58.54-9.58,2.43a31.35,31.35,0,0,1-7.71,3c-2.66.79-5.44,1.29-8.17,1.88a7.84,7.84,0,0,1-6.06-1.3c-2.12-1.37-2-3.43.31-4.69,3.71-2,7.62-3.56,12.11-3.17a3.32,3.32,0,0,0,1,0c5.95-1.38,12.14-2.21,16.78-6.48,1.37-1.26,1.84-2.49.47-3.77-3.7-3.45-7.36-7-13.61-5.81-3.15.59-6.49.31-9.72.6a23.65,23.65,0,0,0-5.56,1.13c-2.62.91-5.11,2.12-7.65,3.22a2.53,2.53,0,0,0-1.08.71,1.21,1.21,0,0,0,.88,2.15,9,9,0,0,0,2-.27,15.33,15.33,0,0,1,4-.44c4,.59,7.77-.59,11.63-1.05a17.11,17.11,0,0,1,4.67.08,2.55,2.55,0,0,1,1.79,1.52c.09.49-.78,1.4-1.45,1.7-1.51.67-3.16,1.06-4.74,1.6-2.2.74-4.4,1.51-6.59,2.28-.31.11-.59.41-.89.42-3.25.07-5.75,2.24-8.82,2.67a79.22,79.22,0,0,1-8.36.46c-1.12,0-2.32-.42-3.35-.17-5.48,1.29-11,.4-16.44.24-3.11-.09-4.14-.55-5.72-2.65a4.66,4.66,0,0,1,1.48-.53c7.69.16,14-3.26,20.31-6.58,1-.54,1.47-1.31,1.1-2.31a2.93,2.93,0,0,1,1.45-4c.88-.52,1.71-1.37,1-2.3a5.46,5.46,0,0,0-2.46-1.37,3.35,3.35,0,0,0-1.63.2c-2.52.59-2.52.6-3.84-1.47-1.45-2.27-3.29-2.68-5.55-1.09A19.14,19.14,0,0,0,50,177c-1.85,2-1.15,4.64,1.35,6.11a12.47,12.47,0,0,1,2.26,2.4c-2,.88-3.64,1.5-5.16,2.27s-2.77,1.81-4.3,2.41a14,14,0,0,1-4,.62c-2.35.18-4.71.35-7.06.34a11,11,0,0,1-3.93-.61c-9.07-3.61-18.1-7.32-27.13-11-.72-.29-1.38-.69-2.07-1V530.56c0,.94,48.95.41,49.19-.34,1.11-3.53,4.7-5.09,6.61-7.78,1.68.07,3.14,1.18,4.57-.46l-2.59-1.66,1.5-3.91,3,4.34,2.22-1.5,4.35,12a14.27,14.27,0,0,0-.27-6.52c-.63-1.78-1.9-3.41-.85-5.49.31-.6-.36-1.58-.41-2.39-.06-1.07,0-2.15.1-3.68l2.38,1.6c1.51-1.77,1.46-3.72,1.2-5.64-.57-4.12,1.73-6.92,4.87-9.41A6,6,0,0,0,77.13,498a17.54,17.54,0,0,0,.75-1.69c0-.08.18-.11.45-.27,2,1.14.38,4.14,3,5.08,1.58-1.53.67-3.53,1.29-5.44l2.63,3.66c.59-1.52-.88-3.36,1.18-4.63l3,4.13.62-.3c-1.17-2.69-.92-5.79-3.17-8.16a2.53,2.53,0,0,1-.71-2.81,3,3,0,0,0-1.74-3.88c-.75-.38-1.15-1.33-1.94-2.31,2.16.27,3.86.22,5.33.74s2.47,1.57,4,2.62c2.69-.6,4.21,2.46,7,3a1.92,1.92,0,0,0,0-3.07,22.75,22.75,0,0,0-5-4,4.75,4.75,0,0,1-2.69-3.24,38.21,38.21,0,0,0-1.8-4.38l1.56-3.88c1.49,2.85,3.6,4.71,2.85,7.74-.49,2,.61,2.94,3,3.18.54.05,1.1,0,1.81,0l-.42-1.27a32.65,32.65,0,0,0,2.69-4,5.27,5.27,0,0,1,7.74-2.31,22,22,0,0,1,8.22,8.8,13.8,13.8,0,0,0,1.92,2.8c1.52,1.72,1.54,2.13-.34,4.25l-3.36-.95-.2,3.12-5,2.49c.75,2.5-.83,4.33-3.32,6l-4-.37,1.22,3-3.46.35,1.56,3H97.25l2.62,3.61-4.64-1.07-.45.46,2.47,3.43-4.48-.53-.62,2.37c-1.23.48-2.37.9-3.48,1.37-.5.22-1.19.46-1.37.85-.91,2-1.69,4.1-2.64,6.48l-1.64.17c-1.79,1.75-3.22,3.33-4.85,4.71C75.66,529,75,528.41,73,531c25.25-.27,74.24,0,75.4-2.17,3.73,1,6.21,1,8-.35,2.18,2.89,5.23.77,5.4-.36a19.53,19.53,0,0,1-1.91-1.6c-.58-.6-1.37-1.32-1.41-2a13.08,13.08,0,0,1,2.35-9l3.75.59c.45-1.22.56-2.5,1.3-3.23s2.26-1.14,3.51-1.72c-.6-2.93-4.24-4.34-4.4-7.69.77,0,1.58-.22,1.94,0a6.53,6.53,0,0,1,1.8,2.1c.57,1.07.94,2.22,2.36,2.67l.9-1.75c2.56,2.4,2.49,5.92,5.14,8.13,1.6-2.66-1.48-4.3-1.27-6.75.18-2.12-1.29-4.37-2.08-6.71l2.73-1.5a4.76,4.76,0,0,1,3.05,3.73,7.82,7.82,0,0,0,4,5.47c-.88-2.39-1.87-4.26-2.21-6.22a39.44,39.44,0,0,1-.08-6.49l2.78,1.73c1-2.48-1.83-3.8-1.68-6.35,3.12,1.82,6.09,3.12,8.43,5.06s4,4.47,5.94,6.75l.69-.41a23.18,23.18,0,0,0-1.45-2.57c-.94-1.28-2-2.48-3-3.71a13.21,13.21,0,0,1-2.62-5.34l.84-.59,2.77,3.34.49-.22-.46-3.33,2.9.79-1.77-6.82c4,2,7.73,3.42,8.41,7.75.17,1.12.4,2.23.54,3.35a3.81,3.81,0,0,0,1.6,3.07c2.78-1.39.66-4.47,3-6.21.49,1.12,1,2,1.3,3,1.35,3.91,2.62,7.85,4,11.75a8.46,8.46,0,0,0,1.27,1.83c1.18-3.2-1.34-5.36-1.9-8s-1.53-5.28-2.31-7.92a3.92,3.92,0,0,1,1.87,1.53,22,22,0,0,0,1.45,2.42,44.44,44.44,0,0,1,8.15,13.41c.63,1.59,1.89,2.42,4.18,2.36a14.3,14.3,0,0,0-3.51-7,47.76,47.76,0,0,1-3.86-4.67c-1.87-2.65-3.58-5.41-5.35-8.1l1.47.32a29.32,29.32,0,0,0-1-5,23.71,23.71,0,0,0-2.41-4l.44-.24,3.32,3.47c-.73-2.41-2.62-4.37-2-7.56l7.1,4.49-.2-2.68c3.95,4.62,6.79,9.76,9.74,15.31.7-2.07,0-3.33-.76-4.62a34.41,34.41,0,0,1-1.54-3.34c-1.71-4-3.08-8.13-5.21-11.92-2.29-4.08-2.6-3.94,1.64-6.18-.38-3.59-1.14-7.26.34-10.89a5.87,5.87,0,0,1,.63,2.61c-.08,2.4.37,4.33,3.61,4.47.38,0,.74.41,1.62.93a15.21,15.21,0,0,1-.76-3.23,24.7,24.7,0,0,1,.54-4.82c.2-.91,1.06-1.25,2.06-.77l.87,3.17,2.17-1.86c-.84-2.9-.84-2.9,1.15-5.46.32,1.27.2,2.82,1,3.57,2,1.92,2.72,4.32,3.7,6.64,0,.07.37,0,.54,0,.81-2.33-.87-5.16,1.78-7.15l-1.44-3.89.48-.2,3.14,3.85v-3.68l.54-.18,3.09,4.84.55-.18-1.63-6.87,1.76.83a14.33,14.33,0,0,0,1.29-6.34l.74-.15,3.64,4.55,5.41,1.73-1.52-5.27c.8-.42,1.84-.63,2.13-1.17.87-1.66,2-3.29.7-5.35-.75-1.2-.83-2.76-1.18-4.16,0-.17.09-.37.16-.62h1.27l.69-2,2.36.3a25.94,25.94,0,0,1-1.16-4.67c-.09-1.46-1-3.23,1-4.27l-1.4-4c3.17-1.66,2.94-4.23,2.19-7,2.23,0,2.52,2.13,4.22,2.71-.4-3.14-3.22-5.32-3.29-8.58l5.42.79c-3-3.75-1.66-7.51-1.74-11.68l4.16,1a8.15,8.15,0,0,0,2.26-.85c.62-.46,1.4-1.38,1.27-1.94-.57-2.47-.12-5.12-1.74-7.43-1.13-1.61-1.43-3.51-1-6.08l3.46,5.15c.82-2.27,2.18-4,1.89-5.56-1.25-6.51-3-12.93-4.54-19.39,2.8,2.58,5.09,5.59,8.71,8.14-1.18-2.31-2.17-4-2.95-5.83-.91-2.09-1.52-4.29-2.45-6.37q-2.49-5.56-5.22-11c-.91-1.83-1.86-3.51,0-5.36.32-.32,0-1.15,0-1.74a22.91,22.91,0,0,1,2,3.22c.35.56,1.22,1.43,1.53,1.32,1.44-.46,1.73.58,2.38,1.2.48.46,1,.88,1.51,1.32-1.66-5.59-5.81-10.12-7.09-16.14l3.27,1.37c1.59-2.11,1.59-2.11,3.84-1.53a3.94,3.94,0,0,0-.32-4.37,56.82,56.82,0,0,0-4.17-5.18c-.81-.92-1.92-1.64-2-3.49l3.15,2.27a4.31,4.31,0,0,0-1.94-3.43c-1.19-1-2.19-2.16-2-3.74.46-3.48-1.17-6.43-2.72-9.4-.53-1-1.32-1.92-1.88-2.92-.71-1.27-1.34-2.59-.18-4.36,2.45,2.05,4.08,4.71,7.46,6.25l-1.24-7.06,3.51-1-.26-1.45,2.38-.81c-3.3-3.75-1.87-8-3-12.4,2,.92,2.83,2,2.87,3.53,0,1.85,0,3.7.12,5.55a9.16,9.16,0,0,0,.43,1.76l.77-.05c.28-3.11.65-6.21.8-9.33s0-6,0-8.95c0-2.13.39-2.51,2.67-3.33a9.51,9.51,0,0,1,1.81-.75,3.33,3.33,0,0,1,2.16.24,9.94,9.94,0,0,1,2.2,2.62c.83,1.37,1.48,2.83,2.33,4.49,2.68-3.12-.38-6.65,1.71-9.44,3.46.07,2.56,3.77,4.84,4.93.54-1.53-.58-3.17,1.07-4.2l2.88.77.79-2.39c.89.21,1.93.73,2.23.48,1.63-1.33,3.15-.35,4.94-.22a19.78,19.78,0,0,1,.72,4.27,21.72,21.72,0,0,1-1.06,4.31l.46.17,1.23-1.24,1.78.77,3.44-6.53a12.9,12.9,0,0,1,.67,1.81c.32,2.23.52,4.48.93,6.7.13.71.61,1.73,1.2,1.92,1.22.4,1.79-.65,2-1.56,1-3.58,2-7.15,2.68-10.77.51-2.77,1-5.47,2.9-7.76.49-.59,1.24-1.35,1.92-1.39,1.22-.07,1.47,1.06,1.71,2a7.29,7.29,0,0,1,.2,1.22c.34,3.89.7,7.78,1,11.67a21.87,21.87,0,0,0,.83,5.46,18.6,18.6,0,0,0,.87-1.75,6.65,6.65,0,0,0,.45-1.8c.19-5.47,1.55-11-1.24-16.33-.62-1.18-.64-2.61-1.1-3.87-.74-2,.71-3.33,2-4.54a10.4,10.4,0,0,1,3-1.44c0-1.84,0-1.84,1.44-2.69l2.28,3.58v-4.58c2.47-.32,2.78,1.35,3.31,2.6a52.72,52.72,0,0,1,4.3,21.11c0,1.4,0,2.8,0,4.38,3.42-1,1.59-4.7,4.55-5.9a2.88,2.88,0,0,1,.5.8c.55,2.62,1.49,5.25,1.52,7.88.05,5.07,1.69,9.7,3.61,14.34a139.82,139.82,0,0,1,7.37,21.45,52.8,52.8,0,0,0,4.7,12.51,36.58,36.58,0,0,1,4.16,12.95,11.13,11.13,0,0,0,.54,1.86l.68-.08-.48-10.26.39-.06,1.46,3.18a8.27,8.27,0,0,0,.29-3.06c0-1.52.58-2.07,2.17-2.16a11,11,0,0,1,1.68.11c19.79,2,39.58,3.88,59.36,6a106.81,106.81,0,0,1,12.88,2.3c2.89.67,5.52,2.33,8.75,1.61a5.05,5.05,0,0,1,2,.29c3.15.69,6.52.49,9.46,2a2.84,2.84,0,0,0,1.33.14c3.6-.13,7.22-.08,10.78-.48a38.22,38.22,0,0,0,7.41-1.86c2.86-.93,5.6-2.13,8.43-3.14a19.25,19.25,0,0,1,3-.49c-1.09,2.47-1.86,4.48-2.86,6.39a14.34,14.34,0,0,0-1.83,8.37c.26,2.33-.8,3.71-2.73,4.85a14,14,0,0,0-2.76,1.77c-2,1.94-4.17,3.8-5.58,6.06a14.5,14.5,0,0,0-2.24,9.2,8,8,0,0,1-.37,2.11c-.77.2-1.4.4-2,.52-4.28.82-8.6,1.52-12.85,2.46a30.15,30.15,0,0,0-10.31,4.38c-3.84,2.56-7.53,5.22-10.06,9-1,1.44-2,2.88-1.22,5.09.84-.73,1.42-1.17,1.92-1.67,1.42-1.45,2.68-3.06,4.23-4.39a41.49,41.49,0,0,1,15.58-8.86c5.6-1.61,11.11-3.31,17-3.49a37.29,37.29,0,0,0,4.37-.15c6.58-1,13.19-.87,19.81-.74,3.88.08,7.76,0,11.64,0A85.39,85.39,0,0,0,516,370.76c-3.92-.29-7.86-.3-11.79-.46s-7.94-.36-11.89-.54c-.57-3.45-.26-6.59,2.07-8.81,4-3.82,7.86-8,13.44-10.09,1-.4,2.16-.81,1.76-2.19-.19-.15-.33-.35-.52-.4-2.88-.71-3.38-1.41-2.44-3.79s2-5,4.32-6.86c1.84-1.48,3.84-2.89,4.58-5.21a1.13,1.13,0,0,1,.68-.65c1.62-.4,1.81-1.67,2.2-2.84s.76-2.34,1.23-3.8c3,.79,3.77-1,4.3-3.09a3.25,3.25,0,0,1,.41-1.17c1.49-2,1.88-4.9,5.55-5.1,1.52-.08,1.93-1.37,1.08-2.9a98.24,98.24,0,0,0-5.29-8.94,23.84,23.84,0,0,1-3.71-7.88c-.23-.88-.44-2.05-1.12-2.5-2.29-1.51-2.76-3.6-2.95-5.92a12.3,12.3,0,0,0-.71-2.05,40,40,0,0,1-1.2-4.81c-.36-2.5.66-3.29,3.28-2.64,2.27.56,4.5,1.26,6.77,1.84a8.36,8.36,0,0,0,1.84,0c-.23-.38-.26-.5-.34-.55a4,4,0,0,0-.87-.45,26.33,26.33,0,0,1-14.25-9.83,17.14,17.14,0,0,0-4.8-4.25A60.94,60.94,0,0,1,499.9,259c-2.76-2.45-4.46-5.71-7.89-7.79-2.18-1.33-3.43-4-4.93-6.17-1.92-2.75-1.17-4.44,2.25-5.63a54.9,54.9,0,0,0,5.58-2.17,7.05,7.05,0,0,0,2.39-2c1.21-1.55,2.23-3.21,3.58-5.19a8.41,8.41,0,0,0-3.78-5.44c-2.95-1.87-6-3.62-9.11-5.24a5.42,5.42,0,0,1-2.84-2.87c-.68-1.74-1.37-3.48-2.11-5.2-.86-2-2.22-2.89-4-2.52-4.66.95-8.3,3.52-11.62,6.47a5.67,5.67,0,0,0-1.21,2.8,20.61,20.61,0,0,0-.4,3.05c-.19,1.72.12,2.12,2,2.64l2.9.8a10,10,0,0,1-5.59,1.54c-1.75.14-3,.71-3.27,2.51a2.48,2.48,0,0,1-.47.86,7.49,7.49,0,0,1-7-4.28,1.07,1.07,0,0,0-.21-.24,3.71,3.71,0,0,1-.87-4.29c.48-1.31,1.14-2.71,0-4.52l-2.85,1.31c-2.11,1-4.19,2-6.35,2.83a8.91,8.91,0,0,1-6-.12,12.63,12.63,0,0,1,4.14-4c1.63-1.1,3.32-2.13,4.91-3.27a14.74,14.74,0,0,0,1.86-2,20.12,20.12,0,0,1-3.38-.84c-.59-.27-1.37-1-1.31-1.45s.91-1.19,1.52-1.3a10.24,10.24,0,0,1,3.34,0c3.19.47,5.79-.16,7.55-2.84A6.36,6.36,0,0,1,458,203c1.65-1.33,3-2.77,2.93-5,0-.64.69-1.27.88-1.95a7.33,7.33,0,0,0,.36-2.58c-.31-3.37-2-6.77.48-10.07.3-.4-.08-1.22-.19-2.3-3.11,1.4-4,4.18-6.32,5.57s-4.63,2.86-7,4.34a9,9,0,0,0-6.92-.56,4.7,4.7,0,0,1-2.61,0,4.75,4.75,0,0,0-4.43.66c-.75.45-1.47,1-2.26,1.35-1.92,6.31-1.92,15.13-7.92-2.9-.44-1.16-1-2.28-1.57-3.4a45.61,45.61,0,0,0-3-5.84c-1.46-2.15-3-4.53-5.09-6-4.58-3.15-9.45-5.9-13-10.18-1.36-1.65-2.15-1.65-4-.49-.59.38-1.16.79-2.21,1.52,2.62-4.29,2.75-3.87-.42-7.7a14.37,14.37,0,0,1-2.88-5.13,63.75,63.75,0,0,0-6.86-15.7,49,49,0,0,1-3.35-7.72,3.3,3.3,0,0,1,0-2.65,48.75,48.75,0,0,1,3.9-4.65c1.88,1.48,2.74,2.92,1.9,5-1.27,3.11.12,6,1.13,8.89,0,.12.39.15.71.25,1.77-.5,1.61-1.95,1.76-3.24.47-4.07,2.22-7.16,6.79-8.7,4.09-1.38,7.95-3.31,12.39-3.76a16,16,0,0,0,3.48-1.12c1.78-.62,3.55-1.3,5.34-1.88,3.91-1.26,7.63-1.29,11.25,1a10.89,10.89,0,0,0,8.7,1.51c5.2-1.4,9.86-.94,14.41,1.93,2.48,1.57,3.13,1.25,5.25-.73a54.63,54.63,0,0,0,9.21-11,141.3,141.3,0,0,1,16.76-22c1.91-2,4-3.94,4.28-6.83a4.81,4.81,0,0,1,1.1-1.88c2.06-2.91,3.82-6.11,7.81-7.31a1.14,1.14,0,0,0,.27-.18c3.62-2.44,7.23-4.88,10.86-7.3.54-.36,1.17-.59,1.75-.91,1.9-1.06,3.86-2,5.67-3.21,1.46-.94,2.67-2.22,4.14-3.16,10.86-7,21.79-13.85,32.63-20.83,3.13-2,4.82-2.16,7.62,1.76.3.43.38,1,.72,1.39,2.37,2.74,3.38,6.54,7.69,8.06l-1.6,5.95-.07,0a19.52,19.52,0,0,1,1.67,2.29q4.8,9,9.51,18.07a17.69,17.69,0,0,1,1.09,2.58c1,2.94,1.93,5.9,2.87,8.85,1,3.23,2.83,6.23,2.78,9.78A35.16,35.16,0,0,1,580.66,114a77.51,77.51,0,0,1-13.5,15.35c-5,4.47-10.1,8.78-15.15,13.18-.77.67-1.44,1.43-2.12,2.12a9.46,9.46,0,0,0,.8,1.06c2.28,2.12,2.28,2.59.11,4.79a14.45,14.45,0,0,0-2.31,2.63c-1.27,2.16-2.23,4.48-3.53,6.62a10.86,10.86,0,0,1-3.09,3.58c-2.24,1.45-3.83,3.1-4.27,5.62,0,.22-.45.38-.87.71-.45-.68-.85-1.25-1.21-1.85a15.27,15.27,0,0,0-5.58-5.67c-3.48-2-3.5-1.93-2.74-5.64.45-2.2-.2-3.17-2.65-3.26a49.57,49.57,0,0,0-7.74.27,21.51,21.51,0,0,1-11.14-1.69c-5.42-2.27-10.83-4.57-16.35-6.61a63.39,63.39,0,0,0-10-2.79c-5.66-1.09-10.55,2.56-10.87,7.77a23.52,23.52,0,0,0,1.59,10c1,2.6,2.3,5.14,3,7.8,1.66,6,2.93,12,2.42,18.29-.26,3.17,1.1,5.76,4.4,7.39a9.15,9.15,0,0,0,5.06,1.22c4-.33,8.06.39,11.94-1.14a3.23,3.23,0,0,1,2.55.32c2.27,1.64,4.75,1.56,7.38,1.26a29.46,29.46,0,0,1,4.38-.06c4.08.14,6.48,1.86,7.45,5.48.27,1,.5,2.45-.06,3.17-1,1.25-2.17-.09-3.25-.46-1.92-.66-3-.22-3.56,1.6a4.16,4.16,0,0,0-.1,2.41,9.61,9.61,0,0,1-.18,6.07c-.7,2.44-1.23,4.92-1.86,7.46.57.07.94.23,1.19.14,4.43-1.72,8.86-3.46,13.26-5.25a5.28,5.28,0,0,0,1.53-1.17c3.46-3.3,7.08-6.32,12.41-6.79A34.7,34.7,0,0,0,543,207,6.06,6.06,0,0,0,545.3,206a19,19,0,0,1,9.15-3.57,2.93,2.93,0,0,1,2.31.56c.67,1-.44,1.66-1.28,2.15-.65.38-1.51.47-2.14.86a46.56,46.56,0,0,0-4.48,3.12,30.54,30.54,0,0,0-2.36,2.6,49.63,49.63,0,0,0-4.89,5,7.67,7.67,0,0,1-5.46,3.62c-2.64.39-3.59,2.47-2.82,5,.26.83.4,1.68.57,2.41-3.07,1.66-3.29-1.8-5.41-2-.1,1.61.06,3.14-1.8,4.08-1,.5-.74,2.87.1,4s1.89.87,3,.62a9.73,9.73,0,0,0,4.85-2.6,14.53,14.53,0,0,1,8.66-4.38c2.69-.27,5.36-.36,7.74-1.8,1.32-.8,2.56-.34,3.59.71a5.39,5.39,0,0,1-1.25,8.35,31.16,31.16,0,0,0-3.56,2.76c-1.16,1-2.07,2.42-3.41,2.92-3.14,1.19-5.16,3.6-7.79,5.31a4,4,0,0,0-2,4,32,32,0,0,1-.92,12.53,4.73,4.73,0,0,0,1.9,5,5,5,0,0,0,5.4.54,7,7,0,0,1,5.12-.51,11.39,11.39,0,0,0,4.34.32c3-.65,5.51.51,8.1,1.38a30.06,30.06,0,0,1,3.87,1.86c2.24,1.13,4.37,1.74,7,.59a9.9,9.9,0,0,1,5.26-.34,12.51,12.51,0,0,0,6.25-.39,9.57,9.57,0,0,1,3.31-.1c2.68.14,5.37.51,8,.45a9.14,9.14,0,0,0,4-1.27c2.77-1.56,5.31-3.46,8.11-5a95.62,95.62,0,0,0,25.9-20.46q7.71-8.58,15.6-17c1.14-1.22,2.4-6.47,3.77-7.51,0-71.23.31-138.08.31-209.31C650,9.79,648,9.1,645.93,8.36ZM224.82,34c-4.85-3.7-5.2-9.78-9.29-13.69C221.81,23.38,226.15,29.71,224.82,34Zm-25-5.47a15.78,15.78,0,0,0-3.89-.77c-3.37-.56-4.27-1.32-4.74-4.15,1-1,2.12-.33,3.05.09A14.86,14.86,0,0,0,201,25.43a4.59,4.59,0,0,1,1.88.58,5.48,5.48,0,0,0,4.2.3c2.34-.77,4.61-.71,6.59,1a10.6,10.6,0,0,0,2.21.86l-2.33-3.94.54-.41a12.23,12.23,0,0,1,5.55,5.81c1.05,2.26,1.9,4.6,2.74,6.93a10.33,10.33,0,0,1,.17,2.46,13.46,13.46,0,0,1-2.35-1,38.59,38.59,0,0,0-3.25-2.65,5.74,5.74,0,0,0-3.34-.93,5.54,5.54,0,0,1-3.74-.8C206.57,31.81,203.24,30.12,199.83,28.57ZM217.2,54.31c-.45-.23-.83-.31-1-.53-2.11-2.9-4.19-5.82-6.45-9h2.65l-.59-3.56.44-.19a10.75,10.75,0,0,1,1.32,1.56c1.13,2,2.1,4.09,3.29,6.06A5.85,5.85,0,0,1,217.2,54.31Zm8.07-1c-2.65-1.12-4.69-3.55-7-8.11C222.27,46.22,225.65,50,225.27,53.27ZM89.65,477.74c-2.45-.22-3-.74-3.91-3.68C89.11,474.5,89.75,475.14,89.65,477.74ZM198.38,142.06c1.22-.35,1.85.11,1.93,1.35-1.13.62-1.93.46-2.36-.64C197.88,142.59,198.17,142.12,198.38,142.06Zm3.28,9.63c-1.92,2.38-3.27,2.26-5.44-.63C198.42,150.33,200.1,150.42,201.67,151.69Zm-28.87-29c1-1.2,2.07-.58,3.25.16-.71,1.67-1.76,1.89-3,1.14A1.25,1.25,0,0,1,172.8,122.68ZM140.65,425.9c1.11,2.64,1.07,2.84-.51,4.42ZM135,367.43,130.38,355C133.93,357.41,135.81,362.32,135,367.43ZM118.85,351a24.76,24.76,0,0,0,0-3.31,10.45,10.45,0,0,1,1.66.64,1.34,1.34,0,0,1,.42.81c.59,2.28,1.16,4.57,1.74,6.92C118.87,355.05,118.36,354.32,118.85,351Zm-1.55,4.69c3.56.52,5.37,2.57,6.91,5.42-2.2.49-4.23,1.21-6.1,0C116.46,360.05,116.23,357.84,117.3,355.71Zm24.34,84c-.09.71-.43,1.4-.49,2.11a16,16,0,0,0,.15,2.36,3.39,3.39,0,0,0-2.78,3.11c-.31,1.82-1.11,3.39-3.66,3.46.4,3.9-1.55,6.71-4.77,8.94-.25.17-.59.48-.57.7.16,1.62-1.86,2.11-2.11,3.26-.32,1.42-1.42,1.76-2.21,2.58a15,15,0,0,0-2.48,3.24c-.93,1.87-2.88,2.48-3.82,3.77-2.23-.74-4.3-1.38-6.32-2.12A7.32,7.32,0,0,1,111,470l-4.45-3.2c-1.8-2.35,1.21-4.39,1-7.21l2.32,1.75c3.18-4,1.16-8.57,1.83-12.92l2.54-.34L112,439.28c1.45-1.27,2.68-2.24,3.78-3.34,2.24-2.24,3.62-2.16,6.31,1l-2.54.83C121,440.56,121,440.56,130,444a7.87,7.87,0,0,0,.2-2.29c-.51-2.26-.36-4.26,2.26-5.56l-1.74-2.76c2.86,1.25,4.26-.12,5.29-2C141.66,434,142.33,434.4,141.64,439.75Zm10-12.08c-1.13,3.45-2.63,7.05-7.51,7.61-.82-3,.07-12.75,1.49-15.76,1.52,1.14,3.83,1.25,4.58,3.23C150.81,424.38,152.08,426.29,151.63,427.67ZM148.84,392c2.45,3.57,1.7,7.86,3.06,11.7A24.36,24.36,0,0,1,148.84,392Zm2.26,23.62c-1.61-3-1.81-5.43-.76-7.31C152.66,409.63,152.91,411.61,151.1,415.6Zm5-11.44-.7.06a24,24,0,0,1-1.31-3.31c-1-4-1.73-8.06-2.7-12.08a105.66,105.66,0,0,0-3.15-11.65,14.28,14.28,0,0,1,.27-11.27c2.81,5.45,8.32,8.58,12.23,13,1.5,1.7,3.33,3.13,2.21,5.67-.17.39.14,1,.32,1.47.89,2.32,1.15,4.52-.51,6.76-.6.81-.42,2.1-.66,3.53a2.68,2.68,0,0,1-2-3.3c.56-2.78-.38-4.94-2.5-7-1.19-1.15-1.76-2.84-2.57-4.3a15,15,0,0,0-1.61-2.64c.52,3,1.06,5.87,2.86,8.54a11.48,11.48,0,0,1,1.85,5.15c.18,1.86.56,3.39,2.2,4.59.43.32.6.93,1.29,2.06l-3.87-1.6Zm19.29-.72a33.11,33.11,0,0,1-4.09,8.64c-.9,1.39-2.54,2.39-4.17,3.85.26,1.07,1.59,1,2.56,1.38,2.57,1,2.75,1.77,1,4.11-.22,0-.5.12-.65,0-4.23-2.3-8.5-4.54-12.64-7-1.36-.8-1.16-2.32.16-3.78,1.49-1.64,3-3.25,4.87-5.22l-2.74-2.91a13.41,13.41,0,0,1,1.83.73c1.79,1.16,3.4,1.82,5.33,0,.71-.68,2.26-.61,3.39-.88l-1.34-13.3a11.92,11.92,0,0,1,4.76,6.86,7.79,7.79,0,0,0,1.2,2.48A5.74,5.74,0,0,1,175.42,403.44ZM192,478.73c3,.32,4,2.32,5.06,5.13A11.61,11.61,0,0,1,192,478.73ZM203.47,228.9a19.3,19.3,0,0,1-8.79,2.88c-1,.09-1.92.2-3.44.37.62,1.18,1.06,1.95,1.43,2.74.74,1.59-.21,3-2.1,2.87a10.59,10.59,0,0,1-3.2-.86c-.92-.36-1.69-1.05-2.62-1.39a4.35,4.35,0,0,1-3.23-4.55c0-2.71-.77-5-3.49-6.59a4.64,4.64,0,0,1-1.62-2.54,2.91,2.91,0,0,0-3.09-2.16l-1.2,1.59c-.41-.21-.83-.29-.95-.51a5.3,5.3,0,0,1-.74-2,6.17,6.17,0,0,0-2.09-4.43c-3.66-3.2-4.35-6.78-2-10.88a3,3,0,0,0,.22-.89,1.19,1.19,0,0,0,0-.31,1.66,1.66,0,0,0-.29-.55c-2.49-2.14-2.46-2.72-.29-5,2.73-2.85,6.41-4.09,10.19-5.1a4.43,4.43,0,0,1,5.35,3.08,2.54,2.54,0,0,1-1,2,16.62,16.62,0,0,1-3.17,1.51c1.14,1.23,2.61,1.44,3.89,1.91,3.24,1.22,6,2.8,6.67,6.3a2.91,2.91,0,0,0,2.54,2.21,5.07,5.07,0,0,1,4,3.34,4.63,4.63,0,0,0,3.31,2.85,3.15,3.15,0,0,1,2.6,3.19,5.11,5.11,0,0,0,2.74,4.35,5.68,5.68,0,0,1,.79.58C206.2,225,206.11,227.21,203.47,228.9ZM327.67,76a26,26,0,0,1-3.48,2.72,2.82,2.82,0,0,1-2.4-.18,2.47,2.47,0,0,1-.75-2.12,21.19,21.19,0,0,1,1.43-3.7A6.51,6.51,0,0,1,327.67,76ZM313.67,49a21.85,21.85,0,0,0,5.13,7.76c2.26,2.32,3.16,5.77,4.49,8.78.16.37-.54,1.34-1.09,1.64A35.87,35.87,0,0,1,318,68.81c-.78-1.53-1.68-2.65-1.89-3.88a6,6,0,0,0-2.33-4A7.26,7.26,0,0,1,311,55.24c-.08-1.12-.23-2.24-.42-3.35-.48-2.82-1-5.64-1.59-8.93A11.77,11.77,0,0,1,313.67,49Zm-9.44,60.42c2.12-3,1.53-6.34,1.57-9.6,0-2.06-.15-4.12-.07-6.17.09-2.36,2.49-4.71,5.24-5.33a5.48,5.48,0,0,1,6,2.3,3.37,3.37,0,0,0,3.29,1.68c2.23-.2,3.23,1,3.71,2.8a4,4,0,0,0,3.3,3.37c0-.74.26-1.34.06-1.8-.86-2-1.84-3.94-2.78-5.9-.56-1.17-.93-2.41,0-3.5a3,3,0,0,1,3.38-.71,4.55,4.55,0,0,1,3,4.66,18.06,18.06,0,0,0,0,4.58,11.41,11.41,0,0,0,1.65,4c1.85,2.88,1,5.5-.56,8.12-.08.13-.4.14-.74.25-2-.68-.72-4-3.8-4.08a5,5,0,0,0,2.3,5.15,7.63,7.63,0,0,1,3.58,6.28,44.1,44.1,0,0,0,1.34,7.29,19.39,19.39,0,0,0,1.07,2.57c.44,1.13.82,2.27,1.39,3.86l-3-.17L332,134.14l2.73,6.73c-.6.06-.88.17-1,.09-3.07-2.16-3.15-2-3.92,1.27-.58,2.5-1.49,4.91-1.22,7.54.06.6-.53,1.26-1,2.26a31.36,31.36,0,0,1-3.56-2c-3.56-2.63-7.15-5.24-10.52-8.07a18.87,18.87,0,0,1-3.47-4.45,2.34,2.34,0,0,1,.13-2c1.7-3.25,1.28-6.05-1.44-8.6-.78-.74-1.68-1.38-2.38-2.18a17,17,0,0,1-1.48-2.68,22.63,22.63,0,0,1,2.44.89,5.32,5.32,0,0,1,1,.86c4.11,3.76,4.11,3.76,10.43,3.77,3-3-.25-6.19.69-9.22-2-.61-2.63.35-3.33,1.31-2.11,2.9-2.74,2.92-5,.18a13.25,13.25,0,0,1-3-5.09c-.46-1.8-1.41-3.52-4.14-3.27C304,110.58,303.91,109.86,304.23,109.41Zm-70.49,129c2.32,0,4.44-.09,5.89,2.37C236.08,241.44,234.88,240.95,233.74,238.36Zm47.74,36,.63,5.68C279.27,278.44,279.18,277.92,281.48,274.4Zm76.72-66.49c-2.86,4.42-4.53,9.7-10.44,11.91a3.55,3.55,0,0,0-1.7,1.68c-1.15,2.34-2,4.81-3.24,7.11A26.6,26.6,0,0,1,330,240.84a63.52,63.52,0,0,0-8.56,4.66c-3.62,2.26-3.6,2.29-4.71,6-.18.11-.35.3-.55.32-3.33.35-3.32.34-3.69,3.18a9.9,9.9,0,0,1-.34,2.13,4.17,4.17,0,0,1-5.69,2.26,10.68,10.68,0,0,1-2.29-1.3,5.51,5.51,0,0,0-5.3-1.05,12.08,12.08,0,0,1-3.34.17A38.85,38.85,0,0,0,281,259.55c-5.2,2.07-10.64,3-16.4,1.39-3.84-1.07-8-1.28-11.83-2.26s-6-3.94-7.55-7c-1-2.07-1.34-4.39-5-4.89l2.8-4.42c4.1.75,6.94-1.08,9.67-3.38a9.74,9.74,0,0,1,3.75-1.81,8.17,8.17,0,0,0,4.13-2.46c2.08-2.22,3.88-4.45,4.19-7.53.17-1.78,1-2.19,3-2.29,1.52-.08,3-.13,4.76-.2-.08-1-.11-1.59-.18-2.18a3.28,3.28,0,0,1,1.84-3.39c.75-.45,1.57-.82,2.29-1.3,2.5-1.68,4.76-3.51,4.6-6.73a1.88,1.88,0,0,1,.16-.91c2.09-4.19,1.64-8.65,1.72-13.06a15.73,15.73,0,0,1,.24-3.07c1-4.43,2.06-8.84,3-13.27.55-2.48,2.29-3.91,4.69-4.86a51.41,51.41,0,0,1,7.12-2.74c3.46-.79,6.76-2.62,10.68-1.28,1.39.47,3.26-.19,4.9-.4,1-.13,2-.65,2.91-.52a54,54,0,0,1,9.56,1.73,43.22,43.22,0,0,1,7.9,4.06c3.89,2.25,7.69,4.64,11.55,6.94a3,3,0,0,1,1.34,2.66c.25,2,.39,2.07,3.15,3.42l.51-2.65a2.57,2.57,0,0,1,.89.17,9.32,9.32,0,0,1,3.52,4.78q1.17,3.05,2.46,6.07C358.77,201.34,358.22,204.64,358.2,207.91ZM352.75,63.27c-1.9-2.47-2-5.46-.37-7.6,7.45,2.11,6.81,2.91,7,9.72A6.2,6.2,0,0,1,352.75,63.27Zm8.83,35.25c-.39-1.16-.86-2.3-1.36-3.6l4.15-1.7c.75,2,1.6,3.87,2.13,5.79a132.42,132.42,0,0,0,6.38,17.83c1.46,3.32,2.6,6.76,4,10.12a14.15,14.15,0,0,0,1.68,3,23.21,23.21,0,0,1,3.76,8.8l-.6.4c-1.11-1.62-2.6-3.12-3.24-4.89a14,14,0,0,0-5.38-6.5,7,7,0,0,1-2.52-3.5c-.67-1.84-1.7-3.58-2.34-5.43-1.76-5.08-3.4-10.2-5.07-15.31C362.61,101.87,362.14,100.18,361.59,98.52Zm43.91,73.72c2.1-1,3.27-.8,4.61.9,1,1.27,1,2.34-.49,3.15-3.41,1.87-6.3,4.44-10.23,5.66a8.58,8.58,0,0,0-5.35,4c-.43.84-1.52,1.39-2.67,2.37l-.3,2.21-2.54-1.28-3.93,1c-.62-2.6-.06-4.44,1.81-5.93a24.11,24.11,0,0,1,2.06-1.59C394.07,179.11,399.39,175.14,405.5,172.24Zm-17.36.12.41.28c-1.57,2.34-3.26,4.63-4.69,7a13.94,13.94,0,0,0-.43,14,89.16,89.16,0,0,0,5,8c1,1.59,2,3.19,3.14,4.73a16.39,16.39,0,0,0,2.86,3.37c4.31,3.41,8.75,6.7,12.95,9.88a44.35,44.35,0,0,1-9.18-4.79c-3.59-2.29-7.1-4.7-10.56-7.14-3-2.11-6-4-10-4a2.17,2.17,0,0,1-1-.19,28.81,28.81,0,0,1-9-8.16c-.4-.52,0-1.82.46-2.57a44.36,44.36,0,0,1,7.59-10.13c1.47-1.41,2.85-2.92,4.44-4.2C382.75,176.32,385.48,174.37,388.14,172.36Zm-5.23-67.57c-.11.47-.68.86-1,1.23-1.42-.4-1.72-1.26-1.5-2.18.1-.44.84-1.13,1.17-1.08A1.54,1.54,0,0,1,382.91,104.8Zm15,8.26a20.79,20.79,0,0,1-5.19,1.91c-2.41.48-3.88-.54-4.32-2.76-.37-1.89-.5-3.81-.72-5.5l7.83.9a6.68,6.68,0,0,1,1.31.24c1.47.49,3.18.89,3.47,2.53C400.51,111.84,399,112.5,397.88,113.06ZM497.55,52c-2.14.22-3.1,1.66-4.46,2.92a102.54,102.54,0,0,1-8.43,6.55c-.6.45-1.54.67-1.89,1.22a9.68,9.68,0,0,1-4.63,3.84,3.36,3.36,0,0,0-1.4,2.3,6.54,6.54,0,0,1-2.57,4.2,1.07,1.07,0,0,0-.23.22c-2.52,3.52-5.09,7-7.5,10.57a15.07,15.07,0,0,0-1.21,3.58c-1.21-.34-2.17-.59-3.12-.87-3.51-1-3.77-1.56-3-5a12,12,0,0,1,4.31-6.77c3-2.48,5.56-5.33,8.3-8,.61-.6,1.06-1.43,1.8-1.82,4.1-2.18,7.15-5.54,11-8,1.18-.76,2.08-1.87,3.24-2.66a51.85,51.85,0,0,1,6.34-4c1.87-.91,2.67-.6,4.66.74C498.33,51.41,498,52,497.55,52Zm73-7.2L559.83,33.63c1.79-2,10.15-6.63,13.4-7.47.33,4,1.17,7.75,4.86,10.29C577.12,40.54,573.49,42.17,570.56,44.8ZM527.07,180.37c-2,.74-3.87,1.62-5.88,2.21a5.88,5.88,0,0,1-3.17-.07,1.22,1.22,0,0,1-.37-2.25c2.39-1.49,4.92-2.8,7.41-4.15a2.42,2.42,0,0,1,.89-.12c1.47,0,2.56.45,2.87,1.77S528.36,179.88,527.07,180.37Zm33.79,21.68c-.39.13-1.06-.42-1.6-.65l-.05-.82,8.82-4.31.46.64C566.79,199.58,564,201,560.86,202.06Zm13.28-10.94c1.62-2.83,3.86-3.38,6.92-4C579.41,189.79,577.38,190.7,574.14,191.11ZM585,184.75l-2-.14L583,184a3.84,3.84,0,0,1,1.23-.37c.32,0,.63.35.95.54Z" fill="none"/><path d="M143.78,0c1.19,3.51,2.6,4.35,6.33,3.82a14.49,14.49,0,0,1,2.67-.1,10.16,10.16,0,0,0,6.1-1.42,8.89,8.89,0,0,1,5.79-1.13A19.55,19.55,0,0,1,171.8,3l-1.88,1.82a4.76,4.76,0,0,0,3.8,3.78,22.24,22.24,0,0,0,4,.62c1.39.12,2.69.27,3.55,1.78l-2.12,1.24c-.62,1.76.11,3.16,1.49,4.39.57.5,1.14,1,1.7,1.5,2,1.82,1.85,2.23-.92,3.11A27.22,27.22,0,0,0,177.83,23c1.62,4.74,6,4.51,10.48,4.88-1.87,1.31-3.13,2.23-4.43,3.09s-2.63,1.51-3.8,2.41a5.69,5.69,0,0,0-1.95,2.29,8.71,8.71,0,0,1-4.4,5.21c-2.81,1.44-4.25,4.11-5.16,6.63s.39,5.11,2.33,7.1c1,1.05,2.64,1,4.12.47a36.71,36.71,0,0,0,4.69-1.55,30.33,30.33,0,0,0,4.59-3,13.66,13.66,0,0,0,1.85-2.16c2.87,1.35,5.85.61,8.85.38a10.75,10.75,0,0,1,3.84.75c2.12.67,4.14,1.69,6.47.61a2.06,2.06,0,0,1,1.61.06c2.88,1.73,6.4,2.6,8.58,5.3a11.39,11.39,0,0,0,2.05,2c2.55,1.87,3.51,4.38,4,7.23.57,3.4,2.84,5.59,6.26,7,.32-.55.65-.85.59-1.06-.67-2.2.22-3.65,2.22-4.94s2.44-4.67,1.25-7.37c-.38-.85-1-1.62-1.4-2.46A11.14,11.14,0,0,1,229.35,53c-.3-1.85.77-2.63,2.82-2.24,4.21.8,5.53,2.27,5.46,6.12-.05,3-.18,5.93-.2,8.9,0,1.64-1,2.65-2.35,3.5s-3,1.48-3.68,3.25c.66.44,1.25.87,1.88,1.23.86.49,1.82.83,2.62,1.39,2.16,1.5,2.37,3.25.77,5.27-.71.89-1.34,1.84-2.16,3l-4.23-4a3.22,3.22,0,0,0,.34,4c1,1.21,1.64,2.5.43,3.94-4.1.22-6.59,2.22-7.84,5.72-.59,1.65-1.49,3.21-2.1,4.86a29.82,29.82,0,0,0-1,3.85,39.21,39.21,0,0,1-1.19,5.41,17.9,17.9,0,0,0-1.35,5.31,7.46,7.46,0,0,1-2.42,4.22,34.21,34.21,0,0,1-11.87,7.41,6.14,6.14,0,0,1-3.21.33,6.78,6.78,0,0,0-4.52.62c-2.89,1.35-3.71,1.08-5.46-1.49a1.41,1.41,0,0,1-.17-.27c-1-2.63-2.89-3.66-6-3a4.63,4.63,0,0,1-4.26-1.43,5.49,5.49,0,0,0-5.8-1.42,33.92,33.92,0,0,1-4.34.48c-1.06.13-2.12.33-3.15.5a4.88,4.88,0,0,0-.05,1.24c.81,2.71.09,3.8-2.82,3.58a12.42,12.42,0,0,1-4.63-1.51c-1.5-.79-2.75-1.11-4.37-.26s-3.48,1.42-5.2,2.17a4.21,4.21,0,0,0-2.33,2.86,18.46,18.46,0,0,1-2.19,5.09c-2.1,2.93-2.15,6-1.41,9.18a20.34,20.34,0,0,1-2.17,14.64,8.13,8.13,0,0,1-2.38,2.56,4.84,4.84,0,0,0-2.09,4.61c.12,2.15.06,4.31.17,6.46a5.11,5.11,0,0,0,.58,2.36c1.26,2.05.76,4-.28,5.88-.4.74-.9,1.43-1.27,2.18-.22.45-.55,1.17-.34,1.44,1,1.22,2.19,2.28,3.19,3.48a3.29,3.29,0,0,0,4.32,1.08c2.6-1,6.13,1.18,6.52,3.8s.64,5.24,1,7.85a1.4,1.4,0,0,0,.31.86c2.11,1.82,2.31,4.4,3.22,6.7a4.37,4.37,0,0,1,.42,1.48c0,5.2,2.94,9.1,6.72,12.63.16.15.34.27.48.43.75.8,1.56,1.69.7,2.73s-1.9.54-2.76.06c-3.54-2-7-4-10.53-6-.66-.38-1.19-1.17-1.87-1.26-4.68-.65-8-4-12.47-5.18-3.14-.86-5.81-3.08-8.8-4.5a67.75,67.75,0,0,0-7.72-3c-.86-.29-2,.16-3,.09a16.06,16.06,0,0,1-2.59-.63l.49-3.45a7.12,7.12,0,0,0-2.13-.64c-3.38.13-6.58.54-9.58,2.43a31.36,31.36,0,0,1-7.71,3c-2.66.79-5.44,1.29-8.17,1.88a7.84,7.84,0,0,1-6.06-1.3c-2.12-1.37-2-3.43.31-4.69,3.71-2,7.62-3.56,12.11-3.17a3.32,3.32,0,0,0,1,0c5.95-1.38,12.14-2.21,16.78-6.48,1.37-1.26,1.84-2.49.47-3.77-3.7-3.45-7.36-7-13.61-5.81-3.15.59-6.49.31-9.72.6a23.65,23.65,0,0,0-5.56,1.13c-2.62.91-5.11,2.12-7.65,3.22a2.53,2.53,0,0,0-1.08.71,1.21,1.21,0,0,0,.88,2.15,9,9,0,0,0,2-.27,15.33,15.33,0,0,1,4-.44c4,.59,7.77-.59,11.63-1.05a17.11,17.11,0,0,1,4.67.08,2.55,2.55,0,0,1,1.79,1.52c.09.49-.78,1.4-1.45,1.7-1.51.67-3.16,1.06-4.74,1.6-2.2.74-4.4,1.51-6.59,2.28-.31.11-.59.41-.89.42-3.25.07-5.75,2.24-8.82,2.67a79.21,79.21,0,0,1-8.36.46c-1.12,0-2.32-.42-3.35-.17-5.48,1.29-11,.4-16.44.24-3.11-.09-4.14-.55-5.72-2.65a4.66,4.66,0,0,1,1.48-.53c7.69.16,14-3.26,20.31-6.58,1-.54,1.47-1.31,1.1-2.31a2.93,2.93,0,0,1,1.45-4c.88-.52,1.71-1.37,1-2.3a5.46,5.46,0,0,0-2.46-1.37,3.35,3.35,0,0,0-1.63.2c-2.52.59-2.52.6-3.84-1.47-1.45-2.27-3.29-2.68-5.55-1.09A19.14,19.14,0,0,0,50,177c-1.85,2-1.15,4.64,1.35,6.11a12.48,12.48,0,0,1,2.26,2.4c-2,.88-3.64,1.5-5.16,2.26s-2.77,1.81-4.3,2.41a14,14,0,0,1-4,.62c-2.35.18-4.71.35-7.06.34a11,11,0,0,1-3.93-.61c-9.07-3.61-18.1-7.32-27.13-11-.72-.29-1.38-.69-2.07-1v-7.41l12.41,1c2.39.2,2.68,0,3.26-2.43-2.21-1.32-4.36-2.84-6.73-4s-5.14-.78-7.87-2.36A46.78,46.78,0,0,1,7.82,162a30.29,30.29,0,0,0,8.78-2c3-1.06,3.16-1.89.91-4.09-.13-.13-.14-.38-.39-1.15a3.51,3.51,0,0,0,1.21-.61c2-2,1.77-3.61-.82-5a17.45,17.45,0,0,0-4.11-1.29c-2.78-.68-5.59-1.27-8.39-1.9a40.89,40.89,0,0,1,7.2-1.62c3.69-.7,4.4-2.13,2.71-5.12-.09-.16,0-.4,0-.62,1.64-2.08,1.64-2.08,3.75-2.85a25,25,0,0,0,2.8-1.06c2.09-1.06,2.29-2.24.85-4S19,128.4,17,127.61c-3.21-1.29-3.63-2.39-2.43-4.72.52-1,.53-2.24,1.06-3.24a19,19,0,0,1,3.17-5c3.78-3.64,7.83-7.06,11.83-10.51a4.23,4.23,0,0,0,1.63-3.23c.1-2.69,2.35-5.37,5.45-6.63,1.07,1.07.53,2.3.39,3.48-.28,2.36.34,3.89,1.72,4.25s2.91-1,3.68-3.33c.7-2.16,1.5-4.3,2.27-6.44C46.9,89.11,48,86,49.17,82.9c0-.1.11-.21.09-.29-.15-.56-.14-1.36-.53-1.6a2.21,2.21,0,0,0-1.77.28c-1.27.81-2.32,2-3.67,2.61a4,4,0,0,0-2.58,4.54c.13,1.07.6,2.21-.33,3.22C37.87,90.17,37,88.32,37.75,86c.48-1.58.9-3.18,1.44-4.75.67-2-.22-3.68-1.07-5.32a2.61,2.61,0,0,0-2.19-1,23.62,23.62,0,0,0-5.54,2,19,19,0,0,0-4.07,3.22,4.69,4.69,0,0,1-4.15,1.25,20.71,20.71,0,0,0-7.56.77c-5,1.58-9.74,3.62-14.6,5.47V0ZM99.27,91.83,95.14,97.1c3.32,1.7,4.28,4.09,3.87,7.17q-.33,2.48,2.29,2.35a5.7,5.7,0,0,1,5.55,2.73,2.17,2.17,0,0,0,2.89.89c3-1.41,6.75-1.68,8.57-4.88.33-.59,1.18-.93,1.79-1.38,2.67-2,4.2-4.66,6-7.29a13.26,13.26,0,0,0-10.54-.14c-.9-2.34-2.61-3.33-4.7-4a8.54,8.54,0,0,1-2.72-1.75c-.4-.35-.43-1-.79-2a15.38,15.38,0,0,1,2.53.37c3.06,1.07,4.37.77,6.39-1.48a8.29,8.29,0,0,1,2.13-1.92,7.41,7.41,0,0,0,3.53-4,14.16,14.16,0,0,1,5.66-7.09,4.65,4.65,0,0,0,2.16-4.91,8.64,8.64,0,0,1,.77-5c1.15-2.7.33-4.61-2.24-6.38-.75-.52-1.41-1.14-2.29-1.86a15,15,0,0,0,2.2-1.93,17,17,0,0,0,2.24-3.71,1.54,1.54,0,0,0-1.64-2.12,47.18,47.18,0,0,0-6.68,1.95c-.47.17-.66,1.17-.81,1.82s.11,1.75-.32,2.32a37.27,37.27,0,0,1-3.45,3.74,50.32,50.32,0,0,0-4,4.09,15.66,15.66,0,0,1-5.05,4.42,31,31,0,0,0-5.18,3.41,10.74,10.74,0,0,0-2.67,3.47c-.75,1.55-.18,2.42,1.52,3.2l4,1.85c-1.84,4.32-6.46,6.41-8.16,10.43ZM167,76.63c1.6,0,2.08,1.06,2.3,2.18a6,6,0,0,0,3.24,4.11,20.3,20.3,0,0,1,1.83,1.36c2.14,1.57,4.31,3,7.33,2a6.81,6.81,0,0,1,1.67,0c2.35-.14,4.72-.2,7-.49.72-.09,1.35-.82,2-1.26a8.09,8.09,0,0,0-1.68-1.65,6.68,6.68,0,0,0-2.85-.88c-2.82-.07-4-1.71-5.2-3.72a22.26,22.26,0,0,0-4.46-5.32,20.21,20.21,0,0,1-4.61-5.21c-2-3.44-6.22-4.26-9.68-2.09l-1.11.7c-2,1.28-2.07,1.9-.58,3.7.56.68,1.8,1,1.27,2.53-2.69,0-5.65-1-8.38.6l.39,2.73-2.28,2.21,2.27,3.14c-.41,1.87-1.37,3.81-3.48,4.06-2.45.29-3.84-1.63-5.09-3.56l1.74-.79a13.33,13.33,0,0,0-8.85-3c-5,.13-7.42,2.71-6.52,7.27.57,2.93.59,5.65-1,8.37-.89,1.54.06,3.09,1.94,3.07,3.69,0,7.55.07,10.88-1.59,2.67-1.33,4.91-1.84,7.32.27a1.9,1.9,0,0,0,2.95-.12c1.1-1.58,2.7-1.62,4.41-1.67.86,0,1.72-.16,1.93-.18a30.37,30.37,0,0,1,3.2-4.06,47.36,47.36,0,0,1,4.76-3.34C167.2,84.13,166.08,80.14,167,76.63Zm47.92-.54A14.68,14.68,0,0,0,210.18,64a9.57,9.57,0,0,0-5.67-3,23.8,23.8,0,0,1-7.91-2.47,28.08,28.08,0,0,0-3.08-1.23,4.42,4.42,0,0,0-4.41.59,5.72,5.72,0,0,1-2.62,1.23c-1.86.22-3,1.32-4.21,2.37-1.58,1.37-1.83,2.35-.75,4.1a27.35,27.35,0,0,0,3.29,4.26c3.72,4,8.76,6.28,13.72,8.72a31.41,31.41,0,0,0,12.27,2.85c3.07.18,4.08-.73,4.12-3.49C214.94,77.32,214.94,76.71,214.94,76.09Zm-84.77,34.55.09-.86a8.93,8.93,0,0,0-2.73-1.39c-2.65-.31-5.34-.57-7.91.59a37,37,0,0,1-7,2.78c-2.69.59-3.12,2-3.43,4.17a9.42,9.42,0,0,1-3.79,6.65A20.72,20.72,0,0,1,98.29,126c-4.92,1-7.73,4.28-10.73,7.4-1.4,1.46-.95,2.94,1,3.69a9.37,9.37,0,0,0,5.25.56,24.23,24.23,0,0,0,7-2.83c1.72-.91,2.79-1.94,2.83-3.82s1.32-3.19,3-4.23c2.74-1.75,5.47-3.51,8.15-5.34a7.46,7.46,0,0,0,2-2,7.88,7.88,0,0,1,4.16-2.91,10.18,10.18,0,0,0,4.34-2.72C126.55,112.2,127.67,110.74,130.16,110.64ZM91.71,48.32c-2.95-1.95-5.24-2.5-8.38-1.46C78.15,48.56,73.1,50.54,69.85,55a32.84,32.84,0,0,1-2.47,2.51,28.8,28.8,0,0,0-3.3,3.85C62.9,63.23,62,65.22,60,66.5a1.59,1.59,0,0,0-.52,1.57,2.69,2.69,0,0,0,1.81,1A25.88,25.88,0,0,0,65.92,69a4.06,4.06,0,0,0,2.39-.91c1.72-2,4-3.23,6.17-4.69,4.22-2.86,8.22-6,12.52-8.76A10.54,10.54,0,0,0,91.71,48.32ZM189.46,90c.71,1.21,1.15,1.89,1.5,2.59,1.22,2.43,3.25,3.5,6.18,3.33a28.51,28.51,0,0,1,3.68.27A9.31,9.31,0,0,1,208.1,100a18,18,0,0,0,1.37,1.48c.65-.41,1.34-.64,1.65-1.09,1.58-2.28,2.33-4.89,1-7.31a12.79,12.79,0,0,0-7.48-5.82c-1.75-.52-4.22.28-6.11,1a14.42,14.42,0,0,1-5.45,1.26A32.7,32.7,0,0,0,189.46,90Zm-36.79,17.2c2.39,3.9,4.8,4.19,7.69,1.12a5.4,5.4,0,0,1,2.75-1.44,25.12,25.12,0,0,1,4.68-.24c1.29,0,2.6,0,3.09-1.31a3.28,3.28,0,0,0-.55-3.77,9.06,9.06,0,0,0-7.88-2.78l-.33,3.12a6.64,6.64,0,0,1-1.78,0c-2.51-.82-4.07.22-5.32,2.08C154.33,105,153.55,105.95,152.67,107.15ZM140.48,21.62a65.35,65.35,0,0,0,6-3.33c.86-.59.32-1.51-.74-1.86-.83-.27-1.74-.39-2.53-.74-2.8-1.24-3.62-1.15-5.34,1-.79,1-2.05,2.1-1,3.25C137.59,20.74,139.11,21,140.48,21.62Zm-4.67,91a8.67,8.67,0,0,0-2.05-1.53c-.31-.11-1.2.48-1.36.91-.31.79.83,1.8,1.82,1.66C134.64,113.63,135,113.19,135.81,112.66ZM176.45,88l-.58.54,2.42,2.24.63-.58Z"/><path d="M0,87.7c4.86-1.85,9.64-3.89,14.6-5.47a20.71,20.71,0,0,1,7.56-.77,4.69,4.69,0,0,0,4.15-1.25A19,19,0,0,1,30.38,77a23.62,23.62,0,0,1,5.54-2,2.61,2.61,0,0,1,2.19,1c.85,1.64,1.74,3.36,1.07,5.32-.53,1.57-1,3.17-1.44,4.75-.71,2.34.12,4.18,2.64,5.67.93-1,.46-2.15.33-3.22A4,4,0,0,1,43.3,83.9c1.35-.63,2.4-1.8,3.67-2.61A2.21,2.21,0,0,1,48.73,81c.39.23.38,1,.53,1.6,0,.09-.05.2-.09.29C48,86,46.9,89.11,45.77,92.22c-.77,2.14-1.57,4.28-2.27,6.44-.78,2.38-2.2,3.72-3.68,3.33s-2-1.89-1.72-4.25c.14-1.18.68-2.41-.39-3.48-3.1,1.26-5.35,3.94-5.45,6.63a4.23,4.23,0,0,1-1.63,3.23c-4,3.46-8,6.87-11.83,10.51a19,19,0,0,0-3.17,5c-.53,1-.54,2.23-1.06,3.24-1.2,2.32-.78,3.43,2.43,4.72,2,.79,4,1.42,5.33,3.09s1.23,3-.85,4a25,25,0,0,1-2.8,1.06c-2.11.77-2.11.76-3.75,2.85,0,.22-.08.46,0,.62,1.7,3,1,4.43-2.71,5.12A40.89,40.89,0,0,0,5,146c2.8.63,5.6,1.22,8.39,1.9a17.45,17.45,0,0,1,4.11,1.29c2.59,1.39,2.79,3,.82,5a3.51,3.51,0,0,1-1.21.61c.25.77.26,1,.39,1.15,2.25,2.2,2.06,3-.91,4.09a30.29,30.29,0,0,1-8.78,2,46.78,46.78,0,0,0-6.74,1.36c2.73,1.58,5.6,1.27,7.87,2.36s4.52,2.64,6.73,4c-.58,2.41-.86,2.62-3.26,2.43L0,171.07Z" fill="#fff"/><path d="M386.79,0a4.79,4.79,0,0,1-.42,1.79c-2.88,4-5.73,8-8.8,11.82a6.77,6.77,0,0,1-8.6,2.17,3.65,3.65,0,0,0-1-.12c-.88,2.92-.75,3.22,2,4.49,3.63,1.68,4.31,3.8,2.18,7a11.06,11.06,0,0,1-4,4c-1.08.58-1.49,2.17-2.25,3.28a3,3,0,0,0,0,3.72c1.06,1.74.14,3.45-1.11,4.81a19.35,19.35,0,0,1-3.35,2.55c-1,.67-2,1.26-3,1.9a10.34,10.34,0,0,1,.18,2.28c-.08.55-.37,1.34-.82,1.55-1.76.8-3.63,1.41-5.71,2.19a10.19,10.19,0,0,1-.55-2c-.08-2.77-.06-5.54-.13-8.3A7,7,0,0,0,351,41c-2.13-6-1.46-12.15-.57-18.28a14.91,14.91,0,0,0,0-2.44c-.06-3-.27-6-.15-8.94a12,12,0,0,1,1.1-4.77,10.06,10.06,0,0,0,.93-6.6Z"/><path d="M630.47,0c-1,1.26-2.88,2.07-2.45,4.13a1.84,1.84,0,0,1-1,1.49c-2.69,1.25-3.48,3.71-4.43,5.94s-2.64,3.35-4.9,4.28a88.55,88.55,0,0,0-8.26,4.08c-6,3.23-11.93,6.54-17.9,9.81a16.69,16.69,0,0,1-1.75.75c-1.36-2.09-2.46-4.07-3.85-5.85-1.65-2.11-2.34-2.13-5-.86A5.69,5.69,0,0,1,580,24c-1.95-1.67-2-2.13-.07-3.5,4-2.84,8.06-5.56,12-8.47,4.09-3,8.06-6.2,12-9.39A17.61,17.61,0,0,0,606.17,0Z"/><path d="M652.07,441.57c-6-4.85-12-9.59-17.83-14.58-4.58-3.94-8.82-8.19-13.23-12.29-.77-.72-1.62-1.36-2.6-2.18-1.57.89-3,1.67-4.39,2.48-2.42,1.41-2.87,1.49-4.94-.42-4.36-4-8.59-8.12-12.87-12.19-1.4-1.33-2.81-2.66-4.14-4-1-1-1.8-2.05-2.88-3.3,2.55-2.87,6-3.77,9.44-4.5a16.12,16.12,0,0,1,10.93,1.22c-2.59,1.29-4.92.53-7,1.09a25.6,25.6,0,0,0-5.61,2.48c1.22,2.57,11.64,12.81,14.91,14.69L619,406c2.86,2.72,5.66,5.22,8.25,7.89,5.51,5.68,10.91,11.45,16.36,17.18,2,2.09,4,4.18,6,6.25.81.84,1.69,1.63,2.54,2.45Z" fill="#fff"/><path d="M652.07,405.13c-.11,0-.25,0-.33,0-5-2.42-10-4.88-13.61-9.08a6.33,6.33,0,0,1-.62-1.39c4.84-1.69,9.53-3.48,14.57-4.35V394L645,396.7a27.72,27.72,0,0,0,7.11,6Z" fill="#fff"/><path d="M652.07,259.39a20.94,20.94,0,0,1-3.33-2.39,10.34,10.34,0,0,1-1.91-3.23c-.68-1.67-2.59-3.34-1.33-5.14,1.59-2.26,3.12-4.85,6.57-5.31Q652.07,251.36,652.07,259.39Z" fill="#fff"/><path d="M652.07,410.69l-7.62-4.55a3.53,3.53,0,0,1-.82-.54c-4.54-5-11-6.73-17.38-8.58-.75-.22-1.51-.41-2.25-.65-.19-.06-.33-.26-.79-.64a7.79,7.79,0,0,1,1.81-.48,20.82,20.82,0,0,1,10.2,2.69c5.45,3.05,11.21,5.64,16.84,8.43Q652.07,408.53,652.07,410.69Z" fill="#fff"/><path d="M652.07,10.5C650,9.79,648,9.1,645.93,8.36a7.51,7.51,0,0,1-2-1c-1.61-1.24-3.07-2.64-4.74-3.81A9,9,0,0,0,635.76,2a3,3,0,0,1-2.59-2h8.78c2.57,3.82,6.18,6.7,10.13,9.26Z"/><path d="M652.07,9.26C648.13,6.7,644.52,3.82,641.95,0h10.13Z" fill="#fff"/><path d="M652.07,402.66a27.72,27.72,0,0,1-7.11-6l7.11-2.68Q652.07,398.34,652.07,402.66Z"/><path d="M652.07,302c-2.59-.86-3.24-1.4-5.3-4.47,1.07-2,3.13-2.28,5.3-2.32Z" fill="#fff"/><path d="M529.39,61.09c.68-.67,1-1.19,1.43-1.37,3.82-1.47,7.6-3.1,11.54-4.24a12.56,12.56,0,0,1,8.82,1.08A52.77,52.77,0,0,1,569.6,71.23a64.47,64.47,0,0,1,10.3,16.24c3.63,8.66,2.65,17-2.19,25-5,8.24-11.92,14.93-19.85,20.8a115.31,115.31,0,0,1-11.36,7.71c-3.21,1.83-6.88,3-10.35,4.42-.41.17-.87.23-1.26.43-8.89,4.53-18.11,3.4-27.22,1a79.09,79.09,0,0,1-29.42-15.24c-5.71-4.6-7.33-10.43-5.79-17.06a23.32,23.32,0,0,1,5.91-10.63q5.37-5.73,10.9-11.34A18,18,0,0,1,492,90.57l.63.37c-.05.63.1,1.37-.21,1.87a21,21,0,0,1-2.05,2.43,12,12,0,0,0-2.43,12,4.72,4.72,0,0,0,3,3.15,23,23,0,0,1,2.19.8c2.21,1.1,4.27,1.23,6-.8.55.19,1.16.22,1.33.48,1.94,2.91,4.87,2.4,7.79,2a23.24,23.24,0,0,1,3-.5c.53,0,1.06.48,1.72.81-1.25,2-4.47,1.75-4.85,4.27a3.2,3.2,0,0,0,3.11,1.41c6.12,0,12.14-.72,17.55-3.56A116,116,0,0,0,541.23,108c2.34-1.63,4-4.13,5.83-6.3.27-.31.09-.94.14-1.77a11.76,11.76,0,0,0-2.36.46,18.42,18.42,0,0,0-3.18,1.74c-2.32,1.64-5,1.52-7.91,1.51a7.71,7.71,0,0,1,4-4.55,8.16,8.16,0,0,0,3.51-3.67l-2.23-3.26c2.6-1.11,2.39-3.32,2.81-5.28.51-2.38-2.51-3-2.81-5.06h-3.14l2-2.68L537,76.37a7.54,7.54,0,0,1,9-.11c1.71-1.42,3.87-2.24,4.81-4.59a23,23,0,0,0-2.51-.85c-2.18-.47-4.38-.86-6.58-1.28-.22,0-.49-.16-.66-.08-2.91,1.28-6.43.62-9.18,2.52a19.8,19.8,0,0,1-5.44,2.94c-1.94.57-4.14.37-6.53.53-1.6,2.89-3.16,6.46-8.39,6.37-.42,1.54-1.77,2.22-3.41,2.88-1.42.58-2.5,1.85-3.81,2.88-2.47-.86-3.42-2.47-2.14-4.55A20.59,20.59,0,0,1,506,78.74c1.66-1.5,3.67-2.67,5.36-4.14a15.11,15.11,0,0,1,6.48-3.74A3.35,3.35,0,0,0,519,70.4c5.31-4.1,11.78-5.33,18.37-6.3a16.06,16.06,0,0,0,2.61-1C536.41,61.3,532.8,62.7,529.39,61.09Zm-15.15,84.15C510,142,506.1,138.85,502.05,136c-6-4.31-13.07-5.19-20.57-4.59C485.17,137.27,505.36,145.89,514.24,145.24Z" fill="#fff"/><path d="M433.71,515a6.05,6.05,0,0,1-4.5-2.3c-3.79-3.81-8.65-6.17-13.42-8.66-.95-.49-2.39-.67-2-2s1.76-1.08,2.85-1.1c4.27-.07,8.54-.14,12.81-.14,3.33,0,4,.57,4.15,3.55q.27,4.15.41,8.31A14.57,14.57,0,0,1,433.71,515Z" fill="#fff"/><path d="M382.75,339.91c4.29,24.18,7.57,48.45,8,73a3.45,3.45,0,0,1-.74,0,.45.45,0,0,1-.22-.22,1.9,1.9,0,0,1-.18-.59C387.94,388,386,363.89,382.75,339.91Z" fill="#fff"/><path d="M414.88,167.43a24.9,24.9,0,0,1,4.1,1.22c3.14,1.56,6.23,3.2,9.21,5a7,7,0,0,1,2.52,2.75c.9,1.82-.28,3.18-2.4,2.72a24.64,24.64,0,0,1-5.24-2c-2.28-1.08-4.49-2.29-6.65-3.56C413.94,172.14,413,170.68,414.88,167.43Z" fill="#fff"/><path d="M369.35,531.37c.45,1.58,2.8-5.63-1.15-8.72l-.75.42a4.81,4.81,0,0,0,0,1.16C368.07,526.62,368.68,529,369.35,531.37Z" fill="#fff"/><path d="M433.11,467.69a2.82,2.82,0,0,1,.57-3.09c1.26-1.56,2.38-3.24,3.8-4.67,3.27-3.31,6.28-6.86,10.06-9.74a6.08,6.08,0,0,1,1.25-.53,2.33,2.33,0,0,1-.62,2.95,26.91,26.91,0,0,1-4.32,3.8,11.49,11.49,0,0,0-3.43,3.27c-1.53,2.26-3.24,4.4-4.87,6.6-.5.67-1,1.36-1.43,2Z" fill="#fff"/><path d="M214.89,511.37a8.59,8.59,0,0,1,1.66,6.92c-1,.69-1.75.57-2.22-.34C213.67,516.65,214,513.41,214.89,511.37Z" fill="#fff"/><path d="M518.83,106.5c1.39-3.56,3-4.39,6-3.44C523.48,104.92,521.27,105.26,518.83,106.5Z" fill="#fff"/><path d="M580.78,317.35c-1.1.22-1.74.55-2.22.41-1.92-.58-3-2-3.93-3.81Z" fill="#fff"/><path d="M546,283.62c-1.88-.62-4.23-.45-5.54-3.2l5.79,2.55Z" fill="#fff"/><path d="M516.34,109.39c.38,1.29,0,2.05-1.21,2.25a1.15,1.15,0,0,1-.85-.71C514.25,109.84,514.78,109.17,516.34,109.39Z" fill="#fff"/><path d="M449.43,416.36l-2.64-2.78C449.61,413.58,449.67,413.65,449.43,416.36Z" fill="#fff"/><path d="M588.46,309c1.55,2.74,1.53,2.79-.79,3.56C586.88,311.31,587.37,310.3,588.46,309Z" fill="#fff"/><path d="M568.57,53.31c.91,1.39,1.88,2.76,1,4.52-2.12-1.44-2.18-1.76-.9-4.48Z" fill="#fff"/><path d="M641.53,298.82H644c-.91,1.44-1.64,1.35-2.46.8Z" fill="#fff"/><path d="M240.24,246.81l2.8-4.42c4.1.75,6.94-1.08,9.67-3.38a9.74,9.74,0,0,1,3.75-1.81,8.17,8.17,0,0,0,4.13-2.46c2.08-2.22,3.88-4.45,4.19-7.53.17-1.78,1-2.19,3-2.29,1.52-.08,3-.13,4.76-.2-.08-1-.11-1.59-.18-2.18a3.28,3.28,0,0,1,1.84-3.39c.75-.45,1.57-.82,2.29-1.3,2.5-1.68,4.76-3.51,4.6-6.73a1.88,1.88,0,0,1,.16-.91c2.09-4.19,1.64-8.65,1.72-13.06a15.73,15.73,0,0,1,.24-3.07c1-4.43,2.06-8.84,3-13.27.55-2.48,2.29-3.91,4.69-4.86a51.42,51.42,0,0,1,7.12-2.74c3.46-.79,6.76-2.62,10.68-1.28,1.39.47,3.26-.19,4.9-.4,1-.13,2-.65,2.91-.52a54,54,0,0,1,9.56,1.73,43.22,43.22,0,0,1,7.9,4.06c3.89,2.25,7.69,4.64,11.55,6.94a3,3,0,0,1,1.34,2.66c.25,2,.39,2.07,3.15,3.42l.51-2.65a2.57,2.57,0,0,1,.89.17,9.32,9.32,0,0,1,3.52,4.78q1.17,3.05,2.46,6.07c1.36,3.19.81,6.49.79,9.76-2.86,4.42-4.53,9.7-10.44,11.91a3.55,3.55,0,0,0-1.7,1.68c-1.15,2.34-2,4.81-3.24,7.11A26.6,26.6,0,0,1,330,240.84a63.51,63.51,0,0,0-8.56,4.66c-3.62,2.26-3.6,2.29-4.71,6-.18.11-.35.3-.55.32-3.33.35-3.32.34-3.69,3.18a9.91,9.91,0,0,1-.34,2.13,4.17,4.17,0,0,1-5.69,2.26,10.68,10.68,0,0,1-2.29-1.3,5.51,5.51,0,0,0-5.31-1.05,12.08,12.08,0,0,1-3.34.17A38.85,38.85,0,0,0,281,259.55c-5.2,2.07-10.64,3-16.4,1.39-3.84-1.07-8-1.28-11.83-2.26s-6-3.94-7.55-7C244.2,249.63,243.9,247.31,240.24,246.81Zm50.84-54.63c-.14,3.77,1.63,6.15,3.63,8.41,2.34,2.64,3.56,2.89,7.05,1.88a8,8,0,0,0,4.11-3,6.65,6.65,0,0,1,2.29-2.15c2.92-1.23,5.94-2.29,9-3.29,1.95-.65,2.44-1.79,1.06-3.22-.89-.92-2-1.64-2.93-2.54-2.16-2.12-4.6-2.46-7.66-1.75-4.05.94-8,2.5-12.46,1.62-2.22-.44-2.66.05-3.48,2A13.67,13.67,0,0,0,291.08,192.18Zm59.54,8.73c0,1.28,1,1.94,2.06,2.46a5.58,5.58,0,0,0,2,0l.25-3.77Zm-3.22,0c1.81-2.91,1.5-3.88-1.35-5.22C345.33,197.54,346.3,199,347.39,200.88ZM319,189.95c1.5.67,1.89,2.2,3.6,1.52a1,1,0,0,0,.36-1C322.21,189.28,321.11,188.89,319,189.95Zm-18.24-5.25c-.56-.45-.94-1-1.29-1s-.81.53-1.22.83a5.17,5.17,0,0,0,1.23,1.14C299.64,185.77,300.2,185.15,300.77,184.7ZM333.5,183c.62,1.4,1.35,1.84,2.79,1.53C335.84,183.34,335.17,182.82,333.5,183Z"/><path d="M78.16,526.9c1.63-1.38,3.06-3,4.85-4.71l1.64-.17c1-2.38,1.73-4.45,2.64-6.48.18-.39.87-.64,1.37-.85,1.11-.48,2.25-.89,3.48-1.37l.62-2.37,4.48.53L94.77,508l.45-.46,4.64,1.07L97.25,505h4.49l-1.56-3,3.46-.35-1.22-3,4,.37c2.49-1.7,4.07-3.53,3.32-6l5-2.49.2-3.12,3.36.95c1.87-2.13,1.85-2.53.34-4.25a13.8,13.8,0,0,1-1.92-2.8,22,22,0,0,0-8.22-8.8,5.27,5.27,0,0,0-7.74,2.31,32.65,32.65,0,0,1-2.69,4l.42,1.27c-.71,0-1.26,0-1.81,0-2.34-.23-3.45-1.18-3-3.18.75-3-1.37-4.89-2.85-7.74l-1.56,3.88a38.21,38.21,0,0,1,1.8,4.38,4.75,4.75,0,0,0,2.69,3.24,22.75,22.75,0,0,1,5,4,1.92,1.92,0,0,1,0,3.07c-2.75-.56-4.27-3.62-7-3-1.57-1.05-2.68-2.14-4-2.62s-3.17-.47-5.33-.74c.79,1,1.19,1.93,1.94,2.31a3,3,0,0,1,1.74,3.88,2.53,2.53,0,0,0,.71,2.81c2.26,2.37,2,5.47,3.17,8.16l-.62.3-3-4.13c-2.06,1.27-.58,3.1-1.18,4.63l-2.63-3.66c-.62,1.9.29,3.9-1.29,5.44-2.64-.94-1-3.94-3-5.08-.27.15-.42.19-.45.27a17.54,17.54,0,0,1-.75,1.69,6,6,0,0,1-1.28,1.72c-3.14,2.5-5.44,5.29-4.87,9.41.27,1.92.31,3.87-1.2,5.64l-2.38-1.6c-.05,1.53-.16,2.61-.1,3.68,0,.81.72,1.79.41,2.39-1.06,2.08.21,3.71.85,5.49a14.27,14.27,0,0,1,.27,6.52l-4.35-12-2.22,1.5-3-4.34-1.5,3.91L60.37,522c-1.44,1.64-2.89.53-4.57.46-1.91,2.69-5.5,4.25-6.61,7.78C48.95,531,75.66,529,78.16,526.9Zm3.37-12.47c-2-3.73-4.1-7.46-4.15-12.09C80.42,506.1,80.17,510.5,81.53,514.43Z"/><path d="M337.25,129.24l-3-.17L332,134.14l2.73,6.73c-.6.06-.88.17-1,.09-3.07-2.16-3.15-2-3.92,1.27-.58,2.5-1.49,4.91-1.22,7.54.06.6-.53,1.26-1,2.26a31.35,31.35,0,0,1-3.56-2c-3.56-2.63-7.15-5.24-10.52-8.07a18.87,18.87,0,0,1-3.47-4.45,2.34,2.34,0,0,1,.13-2c1.7-3.25,1.28-6.05-1.44-8.6-.78-.74-1.68-1.38-2.38-2.18a17,17,0,0,1-1.48-2.68,22.64,22.64,0,0,1,2.44.89,5.32,5.32,0,0,1,1,.86c4.11,3.76,4.11,3.76,10.43,3.77,3-3-.25-6.19.69-9.22-2-.61-2.63.35-3.33,1.31-2.11,2.9-2.74,2.92-5,.18a13.25,13.25,0,0,1-3-5.09c-.46-1.8-1.41-3.52-4.14-3.27.11-.92,0-1.64.29-2.09,2.12-3,1.53-6.34,1.57-9.6,0-2.06-.15-4.12-.07-6.17.09-2.36,2.49-4.71,5.24-5.33a5.48,5.48,0,0,1,6,2.3,3.37,3.37,0,0,0,3.29,1.68c2.23-.2,3.23,1,3.71,2.8a4,4,0,0,0,3.3,3.37c0-.74.26-1.34.06-1.8-.86-2-1.84-3.94-2.78-5.9-.56-1.17-.93-2.41,0-3.5a3,3,0,0,1,3.38-.71,4.54,4.54,0,0,1,3,4.66,18.06,18.06,0,0,0,0,4.58,11.41,11.41,0,0,0,1.65,4c1.85,2.88,1,5.5-.56,8.12-.08.13-.4.14-.74.25-2-.68-.72-4-3.8-4.08a5,5,0,0,0,2.3,5.15,7.63,7.63,0,0,1,3.58,6.28,44.1,44.1,0,0,0,1.34,7.29,19.4,19.4,0,0,0,1.07,2.57C336.29,126.5,336.68,127.65,337.25,129.24Zm-28.34-24.43a30.42,30.42,0,0,0,5.84-5.69,2.49,2.49,0,0,0,.19-1.79,2.2,2.2,0,0,0-3.78-1.17,9.7,9.7,0,0,0-3,7.57C308.17,104,308.5,104.23,308.91,104.81Zm8.85,10c.87-1.79.83-2.55-1-3.73-2-1.35-4.27-2.44-6.39-3.62-1.12.49-1.32,1.24-.61,2A4.58,4.58,0,0,1,311.3,113c0,.82,1,1.68,1.31,2.19Zm-.58,22.77c1.27-1.37,1.23-2.3-.26-3.4C315.92,135.4,315.79,136.34,317.19,137.58Z"/><path d="M173.34,219.69l-1.2,1.59c-.41-.21-.83-.29-.95-.51a5.3,5.3,0,0,1-.74-2,6.17,6.17,0,0,0-2.09-4.43c-3.66-3.2-4.35-6.78-2-10.88a3,3,0,0,0,.22-.89,1.2,1.2,0,0,0,0-.31,1.67,1.67,0,0,0-.29-.55c-2.49-2.14-2.46-2.72-.29-5,2.73-2.85,6.41-4.09,10.19-5.1a4.43,4.43,0,0,1,5.35,3.08,2.54,2.54,0,0,1-1,2,16.62,16.62,0,0,1-3.17,1.51c1.14,1.23,2.61,1.44,3.89,1.91,3.24,1.22,6,2.8,6.67,6.3a2.91,2.91,0,0,0,2.54,2.21,5.07,5.07,0,0,1,4,3.34,4.63,4.63,0,0,0,3.31,2.85,3.15,3.15,0,0,1,2.6,3.19,5.11,5.11,0,0,0,2.74,4.35,5.68,5.68,0,0,1,.79.58c2.31,2.07,2.23,4.26-.41,6a19.3,19.3,0,0,1-8.79,2.88c-1,.09-1.92.2-3.44.37.62,1.18,1.06,1.95,1.43,2.74.74,1.59-.21,3-2.1,2.87a10.59,10.59,0,0,1-3.2-.86c-.92-.36-1.69-1.05-2.62-1.39a4.35,4.35,0,0,1-3.23-4.55c0-2.71-.77-5-3.49-6.59a4.64,4.64,0,0,1-1.62-2.54A2.91,2.91,0,0,0,173.34,219.69Z"/><path d="M106.57,466.83c-1.8-2.35,1.21-4.39,1-7.21l2.32,1.75c3.18-4,1.16-8.57,1.83-12.92l2.54-.34L112,439.28c1.45-1.27,2.68-2.24,3.78-3.34,2.24-2.24,3.62-2.16,6.31,1l-2.54.83C121,440.56,121,440.56,130,444a7.87,7.87,0,0,0,.2-2.29c-.51-2.26-.36-4.26,2.26-5.56l-1.74-2.76c2.86,1.25,4.26-.12,5.29-2,5.67,2.62,6.34,3,5.64,8.36-.09.71-.43,1.4-.49,2.11a16,16,0,0,0,.15,2.36,3.39,3.39,0,0,0-2.78,3.11c-.31,1.81-1.11,3.39-3.66,3.46.4,3.9-1.55,6.71-4.77,8.94-.25.17-.59.48-.57.7.16,1.62-1.86,2.11-2.11,3.26-.32,1.42-1.42,1.76-2.21,2.58a15,15,0,0,0-2.48,3.24c-.93,1.87-2.88,2.48-3.82,3.77-2.23-.74-4.3-1.38-6.32-2.12A7.32,7.32,0,0,1,111,470ZM120.88,444a2.7,2.7,0,0,0-1.85-2.84c-.34-.13-1,.46-1.81.87.84.57,1.34,1,1.89,1.26A17.15,17.15,0,0,0,120.88,444Zm-5.62-.29c-.47,2.28-.31,2.48,2,2.37C116.93,444.42,116.93,444.42,115.25,443.67Z"/><path d="M388.55,172.64c-1.57,2.34-3.26,4.63-4.69,7a13.94,13.94,0,0,0-.43,14,89.15,89.15,0,0,0,5,8c1,1.59,2,3.19,3.14,4.73a16.39,16.39,0,0,0,2.86,3.37c4.31,3.41,8.75,6.7,12.95,9.88a44.35,44.35,0,0,1-9.18-4.79c-3.59-2.29-7.1-4.7-10.56-7.14-3-2.11-6-4-10-4a2.17,2.17,0,0,1-1-.19,28.81,28.81,0,0,1-9-8.16c-.4-.52,0-1.82.46-2.57a44.36,44.36,0,0,1,7.59-10.13c1.47-1.41,2.85-2.92,4.44-4.2,2.59-2.09,5.31-4,8-6Zm-9.88,23.08c-.76,3.24.26,4.42,5.18,6.14Z"/><path d="M162.12,396.37a2.68,2.68,0,0,1-2-3.3c.56-2.78-.38-4.94-2.5-7-1.19-1.15-1.76-2.84-2.57-4.3a15,15,0,0,0-1.61-2.64c.52,3,1.06,5.87,2.86,8.54a11.48,11.48,0,0,1,1.85,5.15c.18,1.86.56,3.39,2.2,4.59.43.32.6.93,1.29,2.06l-3.87-1.6-1.64,6.28-.7.06a24,24,0,0,1-1.31-3.31c-1-4-1.73-8.06-2.7-12.08a105.66,105.66,0,0,0-3.15-11.65,14.28,14.28,0,0,1,.27-11.27c2.81,5.45,8.32,8.58,12.23,13,1.5,1.7,3.33,3.13,2.21,5.67-.17.39.14,1,.32,1.47.89,2.32,1.15,4.52-.51,6.76C162.18,393.65,162.36,394.94,162.12,396.37Z"/><path d="M465.23,87.42c-1.21-.34-2.17-.59-3.12-.87-3.51-1-3.77-1.56-3-5a12,12,0,0,1,4.31-6.77c3-2.48,5.56-5.33,8.3-8,.61-.6,1.06-1.43,1.8-1.82,4.1-2.18,7.14-5.54,11-8,1.18-.76,2.08-1.87,3.24-2.66a51.85,51.85,0,0,1,6.34-4c1.87-.91,2.67-.6,4.66.74-.42.35-.78.9-1.2.94-2.14.22-3.1,1.66-4.46,2.92a102.55,102.55,0,0,1-8.43,6.55c-.6.45-1.54.67-1.89,1.22a9.69,9.69,0,0,1-4.63,3.84,3.36,3.36,0,0,0-1.4,2.3,6.54,6.54,0,0,1-2.57,4.2,1.07,1.07,0,0,0-.23.22c-2.52,3.52-5.09,7-7.5,10.57A15.07,15.07,0,0,0,465.23,87.42Z"/><path d="M167.16,415.93c.26,1.07,1.59,1,2.56,1.38,2.57,1,2.75,1.77,1,4.11-.22,0-.5.12-.65,0-4.23-2.3-8.5-4.54-12.64-7-1.36-.8-1.16-2.32.16-3.78,1.49-1.64,3-3.25,4.87-5.22l-2.74-2.91a13.41,13.41,0,0,1,1.83.73c1.79,1.16,3.4,1.82,5.33,0,.71-.68,2.26-.61,3.39-.88l-1.34-13.3a11.92,11.92,0,0,1,4.76,6.86,7.79,7.79,0,0,0,1.2,2.48,5.74,5.74,0,0,1,.57,5,33.11,33.11,0,0,1-4.09,8.64C170.43,413.48,168.79,414.47,167.16,415.93Z"/><path d="M381.7,139.16c-1.11-1.62-2.6-3.12-3.24-4.89a14,14,0,0,0-5.38-6.5,7,7,0,0,1-2.52-3.5c-.67-1.84-1.7-3.58-2.34-5.43-1.76-5.08-3.4-10.2-5.07-15.31-.54-1.66-1-3.34-1.57-5-.39-1.16-.86-2.3-1.36-3.6l4.15-1.7c.75,2,1.6,3.87,2.13,5.79a132.41,132.41,0,0,0,6.38,17.83c1.46,3.32,2.6,6.76,4,10.12a14.15,14.15,0,0,0,1.68,3,23.21,23.21,0,0,1,3.76,8.8Z"/><path d="M559.83,33.63c1.79-2,10.15-6.63,13.4-7.47.33,4,1.17,7.75,4.86,10.29-1,4.09-4.6,5.72-7.53,8.35Z"/><path d="M214.08,23.8a12.23,12.23,0,0,1,5.55,5.81c1.05,2.26,1.9,4.6,2.74,6.93a10.33,10.33,0,0,1,.17,2.46,13.46,13.46,0,0,1-2.35-1,38.61,38.61,0,0,0-3.25-2.65,5.74,5.74,0,0,0-3.34-.93,5.54,5.54,0,0,1-3.74-.8c-3.28-1.76-6.62-3.46-10-5a15.78,15.78,0,0,0-3.89-.77c-3.37-.56-4.27-1.32-4.74-4.15,1-1,2.12-.33,3.05.09A14.86,14.86,0,0,0,201,25.43a4.59,4.59,0,0,1,1.88.58,5.48,5.48,0,0,0,4.2.3c2.34-.77,4.61-.71,6.59,1a10.6,10.6,0,0,0,2.21.86l-2.33-3.94Z"/><path d="M384.6,190.21c-.62-2.6-.06-4.44,1.81-5.93a24.1,24.1,0,0,1,2.06-1.59c5.61-3.58,10.92-7.55,17-10.44,2.1-1,3.27-.8,4.61.9,1,1.27,1,2.34-.49,3.15-3.41,1.87-6.3,4.44-10.23,5.66a8.58,8.58,0,0,0-5.35,4c-.43.84-1.52,1.39-2.67,2.37l-.3,2.21-2.54-1.28Z"/><path d="M318,68.81c-.78-1.53-1.68-2.65-1.89-3.88a6,6,0,0,0-2.33-4A7.26,7.26,0,0,1,311,55.24c-.08-1.12-.23-2.24-.42-3.35-.48-2.82-1-5.64-1.59-8.93a11.77,11.77,0,0,1,4.68,6,21.85,21.85,0,0,0,5.13,7.76c2.26,2.32,3.16,5.77,4.49,8.78.16.37-.54,1.34-1.09,1.64A35.87,35.87,0,0,1,318,68.81Z"/><path d="M144.11,435.28c-.82-3,.07-12.75,1.49-15.76,1.52,1.14,3.83,1.25,4.58,3.23.62,1.63,1.89,3.53,1.44,4.91C150.5,431.12,149,434.73,144.11,435.28Z"/><path d="M387.65,106.71l7.83.9a6.68,6.68,0,0,1,1.31.24c1.47.49,3.18.89,3.47,2.53.25,1.46-1.28,2.13-2.38,2.68a20.8,20.8,0,0,1-5.19,1.91c-2.41.48-3.88-.54-4.31-2.76C388,110.33,387.87,108.41,387.65,106.71Z"/><path d="M352.39,55.68c7.45,2.11,6.81,2.91,7,9.72a6.2,6.2,0,0,1-6.68-2.12C350.85,60.8,350.71,57.82,352.39,55.68Z"/><path d="M525.95,176c1.47,0,2.56.45,2.87,1.77s-.46,2.12-1.75,2.61c-2,.74-3.87,1.62-5.88,2.21a5.88,5.88,0,0,1-3.17-.07,1.22,1.22,0,0,1-.37-2.25c2.39-1.49,4.92-2.8,7.41-4.15A2.41,2.41,0,0,1,525.95,176Z"/><path d="M215.54,20.35c6.27,3,10.61,9.36,9.29,13.69C220,30.34,219.63,24.26,215.54,20.35Z"/><path d="M217.2,54.31c-.45-.23-.83-.31-1-.53-2.11-2.9-4.19-5.82-6.45-9h2.65l-.59-3.56.44-.19a10.74,10.74,0,0,1,1.32,1.56c1.13,2,2.1,4.09,3.29,6.06A5.85,5.85,0,0,1,217.2,54.31Z"/><path d="M117.3,355.71c3.56.52,5.37,2.57,6.91,5.42-2.2.49-4.23,1.21-6.1,0C116.46,360.05,116.23,357.84,117.3,355.71Z"/><path d="M322.47,72.76A6.51,6.51,0,0,1,327.67,76a26,26,0,0,1-3.48,2.72,2.82,2.82,0,0,1-2.4-.18,2.47,2.47,0,0,1-.75-2.12A21.19,21.19,0,0,1,322.47,72.76Z"/><path d="M225.27,53.27c-2.65-1.12-4.69-3.55-7-8.11C222.27,46.22,225.65,50,225.27,53.27Z"/><path d="M122.69,356.07c-3.83-1-4.33-1.75-3.84-5.06a24.76,24.76,0,0,0,0-3.31,10.45,10.45,0,0,1,1.66.64,1.34,1.34,0,0,1,.42.81C121.54,351.44,122.1,353.73,122.69,356.07Z"/><path d="M559.22,200.59l8.82-4.31.46.64c-1.72,2.66-4.54,4.08-7.64,5.13-.39.13-1.06-.42-1.6-.65Z"/><path d="M135,367.43,130.38,355C133.93,357.41,135.81,362.32,135,367.43Z"/><path d="M151.1,415.6c-1.61-3-1.81-5.43-.76-7.31C152.66,409.63,152.91,411.61,151.1,415.6Z"/><path d="M151.9,403.68a24.36,24.36,0,0,1-3.06-11.7C151.29,395.55,150.54,399.84,151.9,403.68Z"/><path d="M239.62,240.74c-3.55.71-4.74.21-5.89-2.37C236.06,238.31,238.18,238.28,239.62,240.74Z"/><path d="M574.14,191.11c1.62-2.83,3.86-3.38,6.92-4C579.41,189.79,577.38,190.7,574.14,191.11Z"/><path d="M196.23,151.06c2.19-.74,3.87-.64,5.44.63C199.75,154.07,198.39,154,196.23,151.06Z"/><path d="M85.74,474.05c3.37.45,4,1.09,3.91,3.68C87.21,477.51,86.63,477,85.74,474.05Z"/><path d="M192,478.73c3,.32,4,2.32,5.06,5.13A11.61,11.61,0,0,1,192,478.73Z"/><path d="M381.91,106c-1.42-.4-1.72-1.26-1.5-2.18.1-.44.84-1.13,1.17-1.08a1.54,1.54,0,0,1,1.32,2C382.8,105.27,382.22,105.65,381.91,106Z"/><path d="M281.48,274.4l.63,5.68C279.27,278.44,279.18,277.92,281.48,274.4Z"/><path d="M176,122.84c-.71,1.67-1.76,1.89-3,1.14a1.25,1.25,0,0,1-.27-1.3C173.83,121.48,174.87,122.1,176,122.84Z"/><path d="M140.65,425.9c1.11,2.64,1.07,2.84-.51,4.42Z"/><path d="M200.32,143.41c-1.13.62-1.93.46-2.36-.64-.07-.18.22-.65.43-.71C199.6,141.71,200.24,142.16,200.32,143.41Z"/><path d="M585,184.75l-2-.14L583,184a3.84,3.84,0,0,1,1.23-.37c.32,0,.63.35.95.54Z"/><path d="M99.27,91.83,98,89.43c1.7-4,6.32-6.12,8.16-10.43l-4-1.85c-1.7-.78-2.27-1.66-1.52-3.2a10.74,10.74,0,0,1,2.67-3.47,31,31,0,0,1,5.18-3.41,15.66,15.66,0,0,0,5.05-4.42,50.32,50.32,0,0,1,4-4.09A37.27,37.27,0,0,0,121,54.82c.42-.58.14-1.56.32-2.32s.34-1.65.81-1.82a47.18,47.18,0,0,1,6.68-1.95,1.54,1.54,0,0,1,1.64,2.12,17,17,0,0,1-2.24,3.71,15,15,0,0,1-2.2,1.93c.87.72,1.53,1.34,2.29,1.86,2.57,1.77,3.39,3.68,2.24,6.38a8.64,8.64,0,0,0-.77,5,4.65,4.65,0,0,1-2.16,4.91A14.16,14.16,0,0,0,122,81.77a7.41,7.41,0,0,1-3.53,4,8.29,8.29,0,0,0-2.13,1.92c-2,2.25-3.33,2.55-6.39,1.48a15.38,15.38,0,0,0-2.53-.37c.36,1,.4,1.65.79,2a8.54,8.54,0,0,0,2.72,1.75c2.09.71,3.8,1.7,4.7,4a13.26,13.26,0,0,1,10.54.14c-1.83,2.63-3.36,5.34-6,7.29-.61.45-1.46.79-1.79,1.38-1.82,3.2-5.58,3.47-8.57,4.88a2.17,2.17,0,0,1-2.89-.89,5.7,5.7,0,0,0-5.55-2.73q-2.62.13-2.29-2.35c.41-3.09-.55-5.48-3.87-7.17Z" fill="#fff"/><path d="M167,76.63c-.94,3.51.19,7.5,2.74,9.3A47.36,47.36,0,0,0,165,89.26a30.37,30.37,0,0,0-3.2,4.06c-.21,0-1.07.16-1.93.18-1.71.05-3.31.09-4.41,1.67a1.9,1.9,0,0,1-2.95.12c-2.41-2.11-4.65-1.59-7.32-.27-3.33,1.65-7.19,1.55-10.88,1.59-1.88,0-2.83-1.54-1.94-3.07,1.57-2.72,1.56-5.44,1-8.37-.89-4.56,1.51-7.14,6.52-7.27a13.33,13.33,0,0,1,8.85,3l-1.74.79c1.25,1.94,2.65,3.85,5.09,3.56,2.1-.25,3.07-2.18,3.48-4.06l-2.27-3.14,2.28-2.21-.39-2.73c2.73-1.58,5.69-.55,8.38-.6.53-1.5-.71-1.85-1.27-2.53-1.49-1.8-1.41-2.41.58-3.7l1.11-.7c3.47-2.16,7.72-1.34,9.68,2.09a20.21,20.21,0,0,0,4.61,5.21,22.26,22.26,0,0,1,4.46,5.32c1.21,2,2.38,3.65,5.2,3.72a6.68,6.68,0,0,1,2.85.88,8.09,8.09,0,0,1,1.68,1.65c-.67.44-1.3,1.17-2,1.26-2.33.29-4.7.35-7,.49a6.81,6.81,0,0,0-1.67,0c-3,1-5.18-.44-7.33-2a20.3,20.3,0,0,0-1.83-1.36,6,6,0,0,1-3.24-4.11C169.1,77.69,168.62,76.62,167,76.63ZM148.54,88.95c1.16,2.71,2.65,3.39,5.12,2.34A7.08,7.08,0,0,0,148.54,88.95Z" fill="#fff"/><path d="M214.94,76.09c0,.62,0,1.23,0,1.85,0,2.76-1,3.67-4.12,3.49a31.41,31.41,0,0,1-12.27-2.85c-5-2.43-10-4.7-13.72-8.72a27.35,27.35,0,0,1-3.29-4.26c-1.07-1.75-.83-2.73.75-4.1,1.21-1,2.35-2.15,4.21-2.37a5.72,5.72,0,0,0,2.62-1.23,4.42,4.42,0,0,1,4.41-.59,28.08,28.08,0,0,1,3.08,1.23A23.8,23.8,0,0,0,204.51,61a9.57,9.57,0,0,1,5.67,3A14.68,14.68,0,0,1,214.94,76.09Zm-8.46-9.85L206,70l-.62.22c-1.2-1.63-2.52-3.2-3.55-4.91s-2.11-2.37-4.29-1.63a13.43,13.43,0,0,0-2.06,1,1.84,1.84,0,0,0-1,2.6c1,2.47,2.57,4.34,5.73,4.44,2.12.07,4.24.14,6.35,0a2.16,2.16,0,0,0,1.61-1.22A4.21,4.21,0,0,0,206.48,66.24Z" fill="#fff"/><path d="M130.16,110.64c-2.49.1-3.61,1.56-4.87,3.2a10.18,10.18,0,0,1-4.34,2.72,7.88,7.88,0,0,0-4.16,2.91,7.46,7.46,0,0,1-2,2c-2.68,1.83-5.42,3.58-8.15,5.34-1.63,1-2.92,2.31-3,4.23s-1.11,2.91-2.83,3.82a24.23,24.23,0,0,1-7,2.83,9.37,9.37,0,0,1-5.25-.56c-1.93-.75-2.38-2.23-1-3.69,3-3.13,5.81-6.37,10.73-7.4a20.72,20.72,0,0,0,7.08-3.43,9.42,9.42,0,0,0,3.79-6.65c.31-2.13.74-3.57,3.43-4.17a37,37,0,0,0,7-2.78c2.58-1.16,5.26-.9,7.91-.59a8.93,8.93,0,0,1,2.73,1.39Z" fill="#fff"/><path d="M91.71,48.32A10.54,10.54,0,0,1,87,54.6c-4.3,2.75-8.3,5.9-12.52,8.76-2.16,1.46-4.45,2.72-6.17,4.69a4.06,4.06,0,0,1-2.39.91,25.88,25.88,0,0,1-4.68.13,2.69,2.69,0,0,1-1.81-1A1.59,1.59,0,0,1,60,66.5c2.07-1.28,2.95-3.28,4.12-5.14a28.8,28.8,0,0,1,3.3-3.85A32.84,32.84,0,0,0,69.85,55c3.25-4.46,8.3-6.44,13.48-8.14C86.46,45.83,88.76,46.37,91.71,48.32Z" fill="#fff"/><path d="M189.46,90a32.7,32.7,0,0,1,3.6-.44,14.42,14.42,0,0,0,5.45-1.26c1.89-.74,4.36-1.55,6.11-1a12.79,12.79,0,0,1,7.48,5.82c1.35,2.41.6,5-1,7.31-.31.45-1,.67-1.65,1.09A18,18,0,0,1,208.1,100a9.31,9.31,0,0,0-7.28-3.83,28.51,28.51,0,0,0-3.68-.27c-2.93.17-5-.9-6.18-3.33C190.61,91.84,190.17,91.17,189.46,90Z" fill="#fff"/><path d="M152.67,107.15c.88-1.21,1.66-2.2,2.35-3.24,1.24-1.86,2.81-2.9,5.32-2.08a6.64,6.64,0,0,0,1.78,0l.33-3.12a9.06,9.06,0,0,1,7.88,2.78,3.28,3.28,0,0,1,.55,3.77c-.49,1.32-1.8,1.31-3.09,1.31a25.12,25.12,0,0,0-4.68.24,5.4,5.4,0,0,0-2.75,1.44C157.47,111.34,155.06,111.06,152.67,107.15Z" fill="#fff"/><path d="M140.48,21.62c-1.37-.61-2.89-.88-3.62-1.72-1-1.15.26-2.29,1-3.25,1.73-2.11,2.55-2.2,5.34-1,.79.35,1.7.47,2.53.74,1.05.35,1.6,1.27.74,1.86A65.35,65.35,0,0,1,140.48,21.62Z" fill="#fff"/><path d="M135.81,112.66c-.8.53-1.17,1-1.6,1-1,.14-2.12-.87-1.82-1.66.17-.42,1.06-1,1.36-.91A8.67,8.67,0,0,1,135.81,112.66Z" fill="#fff"/><path d="M176.45,88l2.47,2.2-.63.58-2.42-2.24Z" fill="#fff"/><path d="M514.24,145.24c-8.88.65-29.07-8-32.76-13.87,7.51-.6,14.53.28,20.57,4.59C506.1,138.85,510,142,514.24,145.24Z"/><path d="M291.08,192.18a13.67,13.67,0,0,1,.6-2c.82-2,1.26-2.47,3.48-2,4.43.88,8.4-.68,12.46-1.62,3.06-.71,5.5-.37,7.66,1.75.92.9,2,1.62,2.93,2.54,1.38,1.43.89,2.58-1.06,3.22-3,1-6,2.06-9,3.29a6.65,6.65,0,0,0-2.29,2.15,8,8,0,0,1-4.11,3c-3.49,1-4.71.76-7.05-1.88C292.71,198.33,290.94,195.95,291.08,192.18Z" fill="#fff"/><path d="M350.62,200.9l4.33-1.27-.25,3.77a5.58,5.58,0,0,1-2,0C351.65,202.85,350.63,202.19,350.62,200.9Z" fill="#fff"/><path d="M347.39,200.88c-1.1-1.86-2.07-3.34-1.35-5.22C348.9,197,349.2,198,347.39,200.88Z" fill="#fff"/><path d="M319,189.95c2.11-1.06,3.21-.67,4,.52a1,1,0,0,1-.36,1C320.9,192.15,320.5,190.62,319,189.95Z" fill="#fff"/><path d="M300.77,184.7c-.57.45-1.13,1.07-1.29,1a5.17,5.17,0,0,1-1.23-1.14c.41-.3.8-.8,1.22-.83S300.21,184.25,300.77,184.7Z" fill="#fff"/><path d="M333.5,183c1.67-.22,2.34.3,2.79,1.53C334.85,184.88,334.12,184.44,333.5,183Z" fill="#fff"/><path d="M81.53,514.43c-2-3.73-4.1-7.46-4.15-12.09C80.42,506.1,80.17,510.5,81.53,514.43Z" fill="#fff"/><path d="M308.91,104.81c-.41-.57-.74-.82-.75-1.08a9.7,9.7,0,0,1,3-7.57,2.2,2.2,0,0,1,3.78,1.17,2.49,2.49,0,0,1-.19,1.79A30.42,30.42,0,0,1,308.91,104.81Z" fill="#fff"/><path d="M317.76,114.81l-5.16.4c-.33-.51-1.34-1.37-1.31-2.19a4.58,4.58,0,0,0-1.49-3.56c-.71-.76-.51-1.51.61-2,2.12,1.19,4.36,2.28,6.39,3.62C318.59,112.27,318.64,113,317.76,114.81Z" fill="#fff"/><path d="M317.19,137.58c-1.39-1.25-1.27-2.19-.26-3.4C318.42,135.28,318.46,136.22,317.19,137.58Z" fill="#fff"/><path d="M120.88,444a17.15,17.15,0,0,1-1.76-.7c-.55-.3-1.05-.69-1.89-1.26.81-.41,1.47-1,1.81-.87A2.7,2.7,0,0,1,120.88,444Z" fill="#fff"/><path d="M115.25,443.67c1.67.76,1.67.76,2,2.37C114.95,446.15,114.78,446,115.25,443.67Z" fill="#fff"/><path d="M378.67,195.72l5.18,6.14C378.93,200.14,377.91,199,378.67,195.72Z" fill="#fff"/><path d="M148.54,88.95a7.08,7.08,0,0,1,5.12,2.34C151.19,92.33,149.7,91.66,148.54,88.95Z"/><path d="M206.48,66.24a4.21,4.21,0,0,1,1.71,4.28,2.16,2.16,0,0,1-1.61,1.22c-2.11.13-4.23.06-6.35,0-3.16-.1-4.71-2-5.73-4.44a1.84,1.84,0,0,1,1-2.6,13.43,13.43,0,0,1,2.06-1c2.18-.74,3.17-.22,4.29,1.63s2.36,3.28,3.55,4.91L206,70Z"/></g></svg>