<svg xmlns="http://www.w3.org/2000/svg" viewBox="0 0 724.49 89.23"><title>name</title><path d="M153.86,95.5q-.68,1.16-1.33,2.19,3.28-2.49,6.78-5.59t6.78-6.55c2.18-2.3,8-9,8.85-10.25,0,0,3.09-6.27,4.82-9.81l19.32-39.32a25.86,25.86,0,0,0,6.38-.4A34.33,34.33,0,0,0,212.08,24L186.43,76.22a30.06,30.06,0,0,0-2.82,7.63q-.45,2.77,1.47,3.11,2.26.57,6.55-3.16c2.86-2.49,5.59-6.28,8.9-11.93,1.64-3.15,1.53-3.78,4.09-7.62a47.81,47.81,0,0,1,8.08-9.32,32.3,32.3,0,0,1,8.53-5.48,19.5,19.5,0,0,1,8.42-1.64,17.88,17.88,0,0,1,7.74,2.09,12,12,0,0,0,6.38,1.47,18.81,18.81,0,0,0,6.95-1.58L237.28,76.22Q232,87,235.92,87q2.6,0,6.78-3.5a29.55,29.55,0,0,0,4.41-4.8c1-1.35,2.82-4.18,3.85-5.82A.59.59,0,0,1,252,73l.42,2.07a1.24,1.24,0,0,1-.19.94c-1.51,2.22-1.54,2.42-3.24,4.69a44.61,44.61,0,0,1-5.71,6.33A27.51,27.51,0,0,1,237,91.42a15.8,15.8,0,0,1-7.06,1.64,7.05,7.05,0,0,1-5-2c-1.39-1.32-2.25-4.77-1.49-7.3l1.09-2.4h-.34l-1.24,2a27,27,0,0,1-6.55,6.93,13.68,13.68,0,0,1-8,2.59,9.33,9.33,0,0,1-9.66-8.55,28.56,28.56,0,0,1-.19-3.79s-4,4.82-5.91,6.63a25.46,25.46,0,0,1-6,4.3,15.18,15.18,0,0,1-6.89,1.58,8.88,8.88,0,0,1-3.28-.62,7,7,0,0,1-2.66-1.81,6.84,6.84,0,0,1-1.53-2.94,20.25,20.25,0,0,1-.11-4.12s-5.63,5.78-8.76,8.76a106.64,106.64,0,0,1-9.1,7.8,37.1,37.1,0,0,1-7.35,4.58,25.73,25.73,0,0,1-4.52,3.45,16.59,16.59,0,0,1-5,2,15.08,15.08,0,0,1-5.37.17,16.15,16.15,0,0,1-5.59-2,11.07,11.07,0,0,1-3.62-3.11,9.1,9.1,0,0,1-1.58-3.45,5.27,5.27,0,0,1,.17-3A3,3,0,0,1,122.93,97q2.15-.79,4,1.64t1.47,6.95a8.89,8.89,0,0,0,3.16.79,7.18,7.18,0,0,0,3.45-.68l.49-.25a11.82,11.82,0,0,0,3-2.47,23.61,23.61,0,0,0,3.45-5.31l6.78-14,3.16-4.35h-.45a28.14,28.14,0,0,1-9.55,7.8c-3.2,1.69-6,2.53-8.42,2.46a8.61,8.61,0,0,1-4.69-1.23,7.48,7.48,0,0,1-.69-.49,6.89,6.89,0,0,1-2.19-3,9.34,9.34,0,0,1-.7-2.78c.1-.21-3.24,3.07-5.23,4.87a27.51,27.51,0,0,1-6.33,4.35,15.8,15.8,0,0,1-7.06,1.64,7.05,7.05,0,0,1-5-2,7.61,7.61,0,0,1-2.09-5.67l1.69-4h-.34l-1.24,2A27,27,0,0,1,93,90.31a13.68,13.68,0,0,1-8,2.59,9.26,9.26,0,0,1-6.5-2.29,10.31,10.31,0,0,1-3.16-6.26,18.22,18.22,0,0,1-.11-4.43l-.71.94A51.84,51.84,0,0,1,69,87.13a26.43,26.43,0,0,1-5.54,4.1,13.69,13.69,0,0,1-5.51,1.67q-4.66.35-7.11-2.1a7.59,7.59,0,0,1-1.92-6.1A12.69,12.69,0,0,1,50,80.52q.9-1.92,1.81-3.56a28.13,28.13,0,0,0,1.41-2.88,2.5,2.5,0,0,0-.06-2.26,2.11,2.11,0,0,0-2-.85A8.92,8.92,0,0,0,47.67,72a19.84,19.84,0,0,0-4.29,3.05,28.54,28.54,0,0,0-4.29,5.3l-6.1,13H21L53.09,25.93a28,28,0,0,0,6-.39A49.4,49.4,0,0,0,66,24.07L44.39,69.13h0l.39.78a32.77,32.77,0,0,1,4.52-3.23q4.58-3.11,8.42-6.22a41.28,41.28,0,0,0,6.33-6.22,9.32,9.32,0,0,0,2.38-6.16,13.55,13.55,0,0,1,3.29-.74,7.69,7.69,0,0,1,3.13.28A5.43,5.43,0,0,1,75.2,49.1a4,4,0,0,1,.95,2.83,7.52,7.52,0,0,1-1.45,4.35,15,15,0,0,1-4.08,3.84,29.76,29.76,0,0,1-6.34,3.11,48.9,48.9,0,0,1-8.13,2.15l-.79.45a11.74,11.74,0,0,1,5.88.73,5.23,5.23,0,0,1,3.16,3.33,7,7,0,0,1,.17,3.62,15,15,0,0,1-1.19,3.28q-.79,1.58-1.75,3.22a17.54,17.54,0,0,0-1.53,3.33,2.94,2.94,0,0,0,.06,2.6,2,2,0,0,0,2.09.9,6.28,6.28,0,0,0,3.38-1.3,23.69,23.69,0,0,0,3.92-3.45,55.35,55.35,0,0,0,4-4.86c1.34-1.81,2.38-3.56,3.58-5.52.87-2.59,1.51-3.63,4.07-7.48a47.81,47.81,0,0,1,8.08-9.32,32.3,32.3,0,0,1,8.53-5.48,19.5,19.5,0,0,1,8.42-1.64A17.88,17.88,0,0,1,114,49.89a12,12,0,0,0,6.38,1.47,18.81,18.81,0,0,0,6.95-1.58L113.89,76.22Q108.57,87,112.53,87q2.6,0,6.78-3.5c2.67-2.24,5.51-6.21,8.59-11.44l11-22.12a26.34,26.34,0,0,0,6.27-.34,32,32,0,0,0,6.72-1.81L139.31,73.17q-2.49,5.31-2.49,7.68a2.29,2.29,0,0,0,2.26,2.6,5.91,5.91,0,0,0,2.88-.68,19.35,19.35,0,0,0,3.9-2.49,35.25,35.25,0,0,0,4.41-4.24,50,50,0,0,0,4.41-5.82l.11-.11,10.85-21.58a35.51,35.51,0,0,0,6-.06q3.39-.28,6.33-.73l-22.6,45.09Q154.59,94.24,153.86,95.5Z" transform="translate(-20.21 -23.09)" fill="none" stroke="#000" stroke-miterlimit="10"/><path d="M88.69,87.64q3.39-.11,8-5.25A66.19,66.19,0,0,0,106,68.09l7.57-15.26a8.33,8.33,0,0,0-5-.51,16.17,16.17,0,0,0-5.71,2.37,31.23,31.23,0,0,0-5.88,5A45.63,45.63,0,0,0,91.4,67,49.38,49.38,0,0,0,87,75.49,23.29,23.29,0,0,0,85.47,82a7.5,7.5,0,0,0,.68,4.18A2.75,2.75,0,0,0,88.69,87.64Z" transform="translate(-20.21 -23.09)" fill="none" stroke="#000" stroke-miterlimit="10"/><path d="M212.08,87.64q3.39-.11,8-5.25a66.19,66.19,0,0,0,9.27-14.29l7.57-15.26a8.33,8.33,0,0,0-5-.51,16.17,16.17,0,0,0-5.71,2.37,31.23,31.23,0,0,0-5.88,5A45.63,45.63,0,0,0,214.79,67a49.38,49.38,0,0,0-4.35,8.53,23.29,23.29,0,0,0-1.58,6.5,7.5,7.5,0,0,0,.68,4.18A2.75,2.75,0,0,0,212.08,87.64Z" transform="translate(-20.21 -23.09)" fill="none" stroke="#000" stroke-miterlimit="10"/><path d="M327.34,71.59h0" transform="translate(-20.21 -23.09)" fill="none" stroke="#000" stroke-miterlimit="10"/><path d="M395.81,75.32l-.48.75c-1.43,2.11-1,1.44-2.51,3.77a40.91,40.91,0,0,1-5.2,6.38,28.13,28.13,0,0,1-6.38,4.8,16.17,16.17,0,0,1-7.91,1.92,20.73,20.73,0,0,1-6.67-1,55,55,0,0,0-5.59-1.58,19.07,19.07,0,0,0-6.1-.28,25.39,25.39,0,0,0-8.31,2.83l-1.36-2.71,43.39-35.6-.45-.56q-1.69,1.25-3.73,2.54a12.43,12.43,0,0,1-4.29,1.75,8.71,8.71,0,0,1-3.67-.11q-2-.45-3.9-1a36.75,36.75,0,0,0-3.79-.9,7.09,7.09,0,0,0-3.56.23,6.54,6.54,0,0,0-2.94,2.37,38.38,38.38,0,0,0-2.77,4.35q-1.41,2.54-3.11,5.71c-1.13,2.11-5.48,8.74-7.17,11.07a45.55,45.55,0,0,1-5.59,6.38,29.13,29.13,0,0,1-6.67,4.75,16.77,16.77,0,0,1-7.8,1.86,7.08,7.08,0,0,1-5.42-2.32q-2.14-2.31-1.36-7.18s-7,6.67-9.26,7.8a16.69,16.69,0,0,1-7.57,1.69,7.55,7.55,0,0,1-5.42-2.32q-2.37-2.31-1.69-7.18a25.57,25.57,0,0,1,2.77-8.19c1.54-3.05,3.18-6.3,4.92-9.85l5.54-11.14h-11l-26.89,55.44a27.24,27.24,0,0,0-6.1.26,49.13,49.13,0,0,0-6.89,1.44L289,54.39h-5.65l2.49-4h5.31l2.6-5.44c1.28-2.86,2.5-5.47,3.67-7.58a43.37,43.37,0,0,1,3.5-5.49A21.81,21.81,0,0,1,304.74,28a22.56,22.56,0,0,1,4.52-2.73,17.84,17.84,0,0,1,4.07-1.19,23.63,23.63,0,0,1,4.63-.34,21.19,21.19,0,0,1,4.63.62,15.81,15.81,0,0,1,4.18,1.69q4,2.26,5,5.08a7.11,7.11,0,0,1-.11,5.42A5.69,5.69,0,0,1,329.88,39a8.89,8.89,0,0,1-2.6,1.47,7.55,7.55,0,0,1-2.88.45,6.83,6.83,0,0,1-2.83-.73,6.52,6.52,0,0,1-3.45-4.12,6.78,6.78,0,0,1,.62-4.92,5.73,5.73,0,0,1,2.83-2.83,7.44,7.44,0,0,0-5.25.4,11,11,0,0,0-5.14,4.58,40.08,40.08,0,0,0-3,5.42c-.94,2-2.05,4.69-3.33,7.48l-1.92,4.2h12.32c1.81-1,3.71-.43,5.71-.58a17.26,17.26,0,0,0,5.59-1.48l-13.67,28c-3.39,7.16-3.69,10.7-.9,10.7,1.73,0,3.92-1.18,6.55-3.52s5.57-6.3,8.81-11.87m0,0c1.54-3.05,1.2-2.74,2.94-6.28L339,47.39h-5.31l2.49-4h5l5.88-12a27.16,27.16,0,0,0,6.55-.41A29.32,29.32,0,0,0,360,29.24l-7,14.14h9l-2.37,4h-8.81L336.94,76a32.75,32.75,0,0,0-3,8.17c-.26,1.77.28,2.7,1.64,2.7,1.66,0,3.92-1.16,6.78-3.54s8.15-10.28,9-11.8c.85-1.3,5.65-10.8,7.23-13.44a35.53,35.53,0,0,1,5.31-6.89,11.93,11.93,0,0,1,6.89-3.5,18.84,18.84,0,0,1,6.61.23L383,49.33a24,24,0,0,0,6,.62,21.1,21.1,0,0,0,8-2.2l1.24,3.16L356,85.26l.45.45q1.92-1.36,4.29-2.83a12.63,12.63,0,0,1,5.2-1.81,11.55,11.55,0,0,1,4,.23,26.12,26.12,0,0,1,3.28,1.07l3.11,1.24a9.82,9.82,0,0,0,3.62.62q4,0,7.8-3.67a37.27,37.27,0,0,0,6.78-9h0" transform="translate(-20.21 -23.09)" fill="none" stroke="#000" stroke-miterlimit="10"/><path d="M657.52,71.7a21.25,21.25,0,0,1-6.84,7.85,16.29,16.29,0,0,1-8.19,3,33.67,33.67,0,0,0,3.45-5.21,47.68,47.68,0,0,0,2.77-6.24,26.88,26.88,0,0,0,1.7-9,15.53,15.53,0,0,0-1.7-7.43,12.45,12.45,0,0,0-5-5,16.54,16.54,0,0,0-8.19-1.87,24.47,24.47,0,0,0-8.36,1.47,30.41,30.41,0,0,0-7.68,4.12,32.53,32.53,0,0,0-6.5,6.38,33.45,33.45,0,0,0-4.69,8.36,30.84,30.84,0,0,0-2.15,7.25c-.94.71-5.23,5.23-6.66,6.7a27.45,27.45,0,0,1-4.24,3.62,6.76,6.76,0,0,1-3.56,1.41,1.37,1.37,0,0,1-1.58-1.36,9.19,9.19,0,0,1,.73-3.67,41.49,41.49,0,0,1,2.54-5.42Q595,73.51,597.07,70a89.93,89.93,0,0,0,4.8-9.21,12.78,12.78,0,0,0,.85-7.74q-.91-5.2-6.55-5.54a20.37,20.37,0,0,0-9.72,2.37q-5.42,2.6-10.85,9l-.23-.34,3.07-4a8.87,8.87,0,0,0-2.23-4.88,6.59,6.59,0,0,0-4.58-2q-4.41-.45-10.23,2.37T549.83,60l-.34-.56,4.75-5.64,2.94-6c-2.19.6-4.46,1.17-6.84,1.58a17.86,17.86,0,0,1-6,.28L533.45,72.29q-1.52,2.37-3.39,4.78a58.48,58.48,0,0,1-4.29,5,27.45,27.45,0,0,1-4.24,3.62A6.76,6.76,0,0,1,518,87.07a1.37,1.37,0,0,1-1.58-1.36,9.19,9.19,0,0,1,.73-3.67,41.49,41.49,0,0,1,2.54-5.42q1.69-3.11,3.73-6.61a89.93,89.93,0,0,0,4.8-9.21,12.78,12.78,0,0,0,.85-7.74q-.91-5.2-6.55-5.54a20.37,20.37,0,0,0-9.72,2.37q-5.42,2.6-10.85,9l-.23-.34,2.71-4.41a7.46,7.46,0,0,0-1.87-4.52,6.59,6.59,0,0,0-4.58-2q-4.41-.45-10.23,2.37T476.16,60l-.34-.56,4.75-5.64,2.94-6c-2.19.6-4.46,1.17-6.84,1.58a17.86,17.86,0,0,1-6,.28c-3.24,5.58-12.76,27.31-14.94,30.73-1.9,3-9.21,6.57-10.94,6.57q-4.18,0,.9-10.74l14.13-28.48a30.64,30.64,0,0,1-13,2.15L439,65.49c-1.73,3.54-2.73,5.44-4.43,8.41a50.94,50.94,0,0,1-5.68,7.3A56,56,0,0,1,424,85.83a36.93,36.93,0,0,1-5,3.62l-.23-.56q.56-.45,1.58-1.41a4.69,4.69,0,0,0,1.36-2.2,14.66,14.66,0,0,0,.4-8.08,33,33,0,0,0-2.66-6.78q-1.69-3.22-3.22-6.38A12.89,12.89,0,0,1,415,57.13a8.09,8.09,0,0,1,2.71-5.48,8.48,8.48,0,0,1,5.42-2.2,7.49,7.49,0,0,0,1.41,2.2,9,9,0,0,0,2.09,1.75,4.77,4.77,0,0,0,2.2.73,2.71,2.71,0,0,0,2-.73,2.35,2.35,0,0,0,.68-2,4,4,0,0,0-1.07-2.26,8,8,0,0,0-2.71-1.86,10,10,0,0,0-4.12-.79,29.71,29.71,0,0,0-7.51.85,20,20,0,0,0-5.76,2.49,20.3,20.3,0,0,0-4.58,4.07A34.94,34.94,0,0,0,402,59.39q-2,3.62-4.35,7.23c-1.54,2.41-.83,1.18-2.26,3.59l-.85,1.38m71.75-35.37a8.14,8.14,0,0,1-4.69,4.12,7.53,7.53,0,0,1-5.93-.28,7.29,7.29,0,0,1-3.9-4.41,7.09,7.09,0,0,1,.85-5.76,7.56,7.56,0,0,1,4.69-3.84,8.07,8.07,0,0,1,5.93.45,7.41,7.41,0,0,1,3.67,4.35A6.58,6.58,0,0,1,466.33,36.22Z" transform="translate(-20.21 -23.09)" fill="none" stroke="#000" stroke-miterlimit="10"/><path d="M637.07,50.8a7.61,7.61,0,0,0-4.18,1.41,22.43,22.43,0,0,0-4.35,3.9A42.33,42.33,0,0,0,624.24,62a66.77,66.77,0,0,0-3.9,7.34,58.24,58.24,0,0,0-3.05,7.74A26,26,0,0,0,616,83.62a9.14,9.14,0,0,0,.73,4.52,3,3,0,0,0,2.88,1.64,7.49,7.49,0,0,0,4.24-1.53,24.62,24.62,0,0,0,4.46-4.12A41.06,41.06,0,0,0,632.72,78a80.33,80.33,0,0,0,4-7.85,54.08,54.08,0,0,0,2.77-7.57,25.87,25.87,0,0,0,1-6.16,8,8,0,0,0-.79-4.12A2.85,2.85,0,0,0,637.07,50.8Z" transform="translate(-20.21 -23.09)" fill="none" stroke="#000" stroke-miterlimit="10"/><path d="M657.52,71.7l10.39-22a17.86,17.86,0,0,0,6-.28c2.37-.41,4.65-1,6.84-1.58l-2.94,6-4.75,5.75.34.56q5.87-7.12,12-10t10.51-2.43q5.31.57,6.55,5.42a11.19,11.19,0,0,1-.85,7.46q-1.75,4-4.8,9.49-2.15,3.73-3.84,6.84a43.6,43.6,0,0,0-2.54,5.37,8.73,8.73,0,0,0-.73,3.56q.11,1.3,1.58,1.3a6.59,6.59,0,0,0,3.62-1.41A31.49,31.49,0,0,0,699.16,82a47.52,47.52,0,0,0,4.29-5q2.09-2.77,3.79-5.48c1.43-2.41,1.56-2.56,3.11-5s3-4.82,4.35-7.23a34.94,34.94,0,0,1,3.73-5.48A20.3,20.3,0,0,1,723,49.84a20,20,0,0,1,5.76-2.49,29.71,29.71,0,0,1,7.51-.85,10,10,0,0,1,4.13.79,8,8,0,0,1,2.71,1.86,4,4,0,0,1,1.07,2.26,2.35,2.35,0,0,1-.68,2,2.71,2.71,0,0,1-2,.73,4.77,4.77,0,0,1-2.2-.73,9,9,0,0,1-2.09-1.75,7.49,7.49,0,0,1-1.41-2.2,8.48,8.48,0,0,0-5.42,2.2,8.09,8.09,0,0,0-2.71,5.48A12.56,12.56,0,0,0,728.93,64q1.58,3.17,3.28,6.38A37.74,37.74,0,0,1,735,77.24a14.08,14.08,0,0,1-.28,8.14A17.2,17.2,0,0,1,730.23,92a17.5,17.5,0,0,1-6.38,3.73,16.77,16.77,0,0,1-7.23.68,14.68,14.68,0,0,1-6.78-2.6,11.29,11.29,0,0,1-3.33-3.39A7.88,7.88,0,0,1,705.32,87a4.64,4.64,0,0,1,.62-2.82,3.3,3.3,0,0,1,2-1.53,2.85,2.85,0,0,1,2.37.34,4.38,4.38,0,0,1,1.58,2,9.1,9.1,0,0,1,.62,3.22,20.09,20.09,0,0,1-.28,3.9,7.27,7.27,0,0,0,3.62.45,8.15,8.15,0,0,0,3.5-1.24,9.44,9.44,0,0,0,2.77-2.83,10.12,10.12,0,0,0,1.53-4.18,11.07,11.07,0,0,0-.57-5.65,51.7,51.7,0,0,0-2.37-5.37c-.9-1.77-1.26-2.46-2-4.11a10,10,0,0,1-.79-5c0-.36,1.41-5.19,1.41-5.19l-.94-.33q-.91,1.69-2.15,3.9t-2.6,4.52c-.9,1.54-7.61,11.55-9.49,14a49.51,49.51,0,0,1-5.76,6.27,26,26,0,0,1-5.93,4.12A14.29,14.29,0,0,1,686,92.95a7.81,7.81,0,0,1-5.65-2.32,7.7,7.7,0,0,1-2.15-6.27A15.54,15.54,0,0,1,680.06,78q1.75-3.45,4.35-7.74,3.05-5.09,4.75-8.48a23.32,23.32,0,0,0,2.09-5.37q.4-2-.28-2.71a2.87,2.87,0,0,0-2.37-.62A8.85,8.85,0,0,0,685,54.53a29,29,0,0,0-5,4.18A72,72,0,0,0,673.79,66a94.33,94.33,0,0,0-6.89,11l-7.8,16.38h-12l6-12.51a20.78,20.78,0,0,1-2.62,2.36,18.26,18.26,0,0,1-11.36,2.82,25.56,25.56,0,0,1-18,7,16.35,16.35,0,0,1-8.36-2,12.68,12.68,0,0,1-5.08-5.37c-1.13-2.26-1.58-6.75-1.58-6.75-.83,1-.83,1-1.75,2.12a55.61,55.61,0,0,1-5.76,6.27,24.44,24.44,0,0,1-5.93,4.12,14.42,14.42,0,0,1-6.33,1.47,7.71,7.71,0,0,1-5.59-2.26,7.63,7.63,0,0,1-2.09-6.22,17.69,17.69,0,0,1,1.86-6.61q1.64-3.33,4.24-7.63,3-5.09,4.63-8.48a29.13,29.13,0,0,0,2-5.37q.45-2-.23-2.71a2.87,2.87,0,0,0-2.37-.62q-2.26.23-6.44,4c-2.57,2.29-8.92,11.3-9.9,12.7a2.56,2.56,0,0,0-.22.39l-10.9,23.28h-12l10.73-22.93c.83-1.58,1.79-3.52,2.88-5.59A46.82,46.82,0,0,0,565.6,59a12.49,12.49,0,0,0,.9-4.43c0-1.17-.77-1.69-2.2-1.54a8.37,8.37,0,0,0-3.45,1.41A27.69,27.69,0,0,0,556,58.6a64,64,0,0,0-6,7.29A107.85,107.85,0,0,0,543.28,77l-7.8,16.38h-12l3.36-7.06A40.89,40.89,0,0,1,519,91.48a14.42,14.42,0,0,1-6.33,1.47,7.71,7.71,0,0,1-5.59-2.26A7.63,7.63,0,0,1,505,84.47a17.69,17.69,0,0,1,1.86-6.61q1.64-3.33,4.24-7.63c2-3.39,3.42-6.28,4.61-8.48.88-1.62,2.67-5.36,2.67-6.19v0a2.29,2.29,0,0,0-1.17-2.41c-2.36-1.26-5.89,2.11-6.53,2.68a67.42,67.42,0,0,0-7.4,8.72c-2.24,3.2-15.57,28.86-15.57,28.86h-12l10.73-22.93c.83-1.58,1.79-3.52,2.88-5.59a46.82,46.82,0,0,0,2.6-5.82,12.49,12.49,0,0,0,.9-4.43c0-1.17-.77-1.69-2.2-1.54a8.37,8.37,0,0,0-3.45,1.41,27.69,27.69,0,0,0-4.86,4.12,64,64,0,0,0-6,7.29A107.85,107.85,0,0,0,469.6,77l-7.8,16.38h-12l3-6.53A28.59,28.59,0,0,1,446,91.37a16.69,16.69,0,0,1-7.57,1.69c-2,0-7.94-2-7.27-7.59a61.66,61.66,0,0,1-8.51,5.91,43.79,43.79,0,0,1-9.19,4.06,20,20,0,0,1-8.81,1,16.06,16.06,0,0,1-7.46-2.54,12.48,12.48,0,0,1-3.33-3.5A7.83,7.83,0,0,1,392.65,87a4.53,4.53,0,0,1,.62-2.77,3.3,3.3,0,0,1,2-1.53,2.85,2.85,0,0,1,2.37.34,4.38,4.38,0,0,1,1.58,2,9.1,9.1,0,0,1,.62,3.22,20.09,20.09,0,0,1-.28,3.9A8.19,8.19,0,0,0,407.06,91a9.81,9.81,0,0,0,3.9-6.67,11.07,11.07,0,0,0-.57-5.65A51.7,51.7,0,0,0,408,73.34q-1.36-2.65-2.54-5.14a10.57,10.57,0,0,1-1.07-5.08L406,58.82l-.34-.11q-.91,1.69-2.15,3.9t-2.6,4.52q-1.36,2.32-2.66,4.46t-2.43,3.73" transform="translate(-20.21 -23.09)" fill="none" stroke="#000" stroke-miterlimit="10"/></svg>