<svg xmlns="http://www.w3.org/2000/svg" viewBox="0 0 482.92 98.14"><title>sd</title><path d="M136.81,26.54a10.3,10.3,0,0,0-3.64,1.51,19.89,19.89,0,0,0-3.74,3.17,29.07,29.07,0,0,0-3.53,4.64,31.46,31.46,0,0,0-2.77,5.44,14.84,14.84,0,0,0-1,4.14,4.78,4.78,0,0,0,.43,2.66,1.75,1.75,0,0,0,1.62.94q2.16-.07,5.11-3.35a42.17,42.17,0,0,0,5.9-9.11L140,26.86A5.3,5.3,0,0,0,136.81,26.54Z" transform="translate(-3.86 -6.13)" fill="none"/><path d="M58.18,26.54a10.3,10.3,0,0,0-3.64,1.51,19.89,19.89,0,0,0-3.74,3.17,29.07,29.07,0,0,0-3.53,4.64A31.46,31.46,0,0,0,44.5,41.3a14.84,14.84,0,0,0-1,4.14,4.78,4.78,0,0,0,.43,2.66,1.75,1.75,0,0,0,1.62.94q2.16-.07,5.11-3.35a42.17,42.17,0,0,0,5.9-9.11l4.82-9.72A5.3,5.3,0,0,0,58.18,26.54Z" transform="translate(-3.86 -6.13)" fill="none"/><path d="M419.65,25.57a4.86,4.86,0,0,0-2.66.9A14.3,14.3,0,0,0,414.22,29a27,27,0,0,0-2.74,3.74A42.51,42.51,0,0,0,409,37.38a37.1,37.1,0,0,0-1.94,4.93,16.56,16.56,0,0,0-.79,4.18,5.83,5.83,0,0,0,.47,2.88,1.9,1.9,0,0,0,1.84,1,4.77,4.77,0,0,0,2.7-1,15.65,15.65,0,0,0,2.84-2.63,26.17,26.17,0,0,0,2.77-3.92,51.11,51.11,0,0,0,2.56-5,34.53,34.53,0,0,0,1.76-4.82,16.47,16.47,0,0,0,.65-3.92,5.08,5.08,0,0,0-.5-2.63A1.82,1.82,0,0,0,419.65,25.57Z" transform="translate(-3.86 -6.13)" fill="none"/><path d="M69.31,61.42a8.31,8.31,0,0,0-3.67-1.66,22.92,22.92,0,0,0-5.22-.32,59.38,59.38,0,0,0-7.13.76q-4.07.65-9.32,1.58a35.17,35.17,0,0,1-9.18.68,9.15,9.15,0,0,1-5.51-2,7.72,7.72,0,0,1-2.48-5.72,18.6,18.6,0,0,1,2-8.46,14.07,14.07,0,0,1,1-2.09q.61-1,1.12-2.05A8.9,8.9,0,0,0,31.65,40a4.78,4.78,0,0,0-.14-2.3,3.33,3.33,0,0,0-2-2.12,7.48,7.48,0,0,0-3.74-.47l.5-.29a31.17,31.17,0,0,0,5.18-1.37,19,19,0,0,0,4-2,9.55,9.55,0,0,0,2.6-2.45A4.79,4.79,0,0,0,39,26.29a2.54,2.54,0,0,0-.6-1.8,3.46,3.46,0,0,0-1.49-.94,4.89,4.89,0,0,0-2-.18,8.62,8.62,0,0,0-2.1.47,5.94,5.94,0,0,1-1.51,3.92,26.29,26.29,0,0,1-4,4q-2.45,2-5.36,4t-5.36,4l-.14-.22,2.38-2.23L32.52,8.5a31.56,31.56,0,0,1-4.36.9,17.15,17.15,0,0,1-3.85.18L3.86,52.42h7.63l3.89-8.14A17,17,0,0,1,18.12,41a12.62,12.62,0,0,1,2.74-1.94,5.68,5.68,0,0,1,2.23-.68,1.34,1.34,0,0,1,1.3.54,1.86,1.86,0,0,1,.14,1.44,9.57,9.57,0,0,1-.76,1.84l-1.22,2.38a15,15,0,0,0-1.12,2.92,16.94,16.94,0,0,0-.65,8.21,10.49,10.49,0,0,0,4,6.34Q27,64,32.31,64.77a45.44,45.44,0,0,0,12.52-.25,73.9,73.9,0,0,1,9.47-.72,24.69,24.69,0,0,1,6.84.83,12.42,12.42,0,0,1,4.75,2.48A12.72,12.72,0,0,1,69,71.36l2.45-1.08A7.59,7.59,0,0,0,71.94,65,6.83,6.83,0,0,0,69.31,61.42Z" transform="translate(-3.86 -6.13)"/><path d="M117.84,57.68a14.23,14.23,0,0,1-3.89,3.64A12.52,12.52,0,0,1,108.84,63a24.32,24.32,0,0,1-6.95-.32,71.69,71.69,0,0,1-9.25-2.34,61.35,61.35,0,0,0-8.42-2.09,28.23,28.23,0,0,0,2.05-2.81A33.35,33.35,0,0,0,88,52.35l14.4-28.73q-1.87.29-4,.47a22.61,22.61,0,0,1-3.82,0L87.67,37.88,87.6,38a31.81,31.81,0,0,1-2.81,3.71A22.4,22.4,0,0,1,82,44.36a12.34,12.34,0,0,1-2.48,1.58,3.77,3.77,0,0,1-1.84.43,1.46,1.46,0,0,1-1.44-1.66,13.66,13.66,0,0,1,1.58-4.9l8-16.2a20.42,20.42,0,0,1-4.28,1.15,16.79,16.79,0,0,1-4,.22l-7.2,14.62-.11.24a26.76,26.76,0,0,1-5.14,6.53q-2.66,2.23-4.32,2.23-2.52,0,.86-6.84l8.57-16.85a12,12,0,0,1-4.43,1A7.65,7.65,0,0,1,61.68,25a11.39,11.39,0,0,0-4.93-1.33,12.43,12.43,0,0,0-5.36,1,20.59,20.59,0,0,0-5.44,3.49,30.47,30.47,0,0,0-5.15,5.94,23.45,23.45,0,0,0-3.31,7A14.43,14.43,0,0,0,37,47a6.59,6.59,0,0,0,2,4,5.91,5.91,0,0,0,4.14,1.48,8.69,8.69,0,0,0,5.11-1.62,16.91,16.91,0,0,0,4.18-4.36l.79-1.15h.22l-1.08,2.45a4.57,4.57,0,0,0,1.33,3.49,4.49,4.49,0,0,0,3.2,1.26,10.06,10.06,0,0,0,4.5-1,17.51,17.51,0,0,0,4-2.77A28.11,28.11,0,0,0,68.82,45a6.17,6.17,0,0,0,.42,2.35,4.59,4.59,0,0,0,1.84,2.2,5.49,5.49,0,0,0,3,.79,11.06,11.06,0,0,0,5.36-1.55,23,23,0,0,0,6.08-4.93h.29l-2,2.74-4.32,8.86q-.22.36-.54,1a6.06,6.06,0,0,1-.9,1.3,17.76,17.76,0,0,0-3.46.43A6.42,6.42,0,0,0,72,59.34a2.57,2.57,0,0,0-1.12,1.91,1.87,1.87,0,0,0,.94,1.69,5.06,5.06,0,0,0,2.81.65,11.75,11.75,0,0,0,4.57-1.22,19.63,19.63,0,0,0,3-2.09,34.3,34.3,0,0,1,4.18,1.12q2.3.76,4.82,1.62,5,1.94,8.93,3.24A65.94,65.94,0,0,0,107,68.19a20.91,20.91,0,0,0,5.29.54,9.22,9.22,0,0,0,4-1,7.18,7.18,0,0,0,3.24-3.13,7.37,7.37,0,0,0,.36-5.36ZM56.56,36.58a42.17,42.17,0,0,1-5.9,9.11Q47.71,49,45.55,49a1.75,1.75,0,0,1-1.62-.94,4.78,4.78,0,0,1-.43-2.66,14.84,14.84,0,0,1,1-4.14,31.46,31.46,0,0,1,2.77-5.44,29.07,29.07,0,0,1,3.53-4.64,19.89,19.89,0,0,1,3.74-3.17,10.3,10.3,0,0,1,3.64-1.51,5.3,5.3,0,0,1,3.2.32Z" transform="translate(-3.86 -6.13)"/><path d="M143.68,46.38q-2.66,2.23-4.32,2.23-2.52,0,.86-6.84l8.57-16.85a12,12,0,0,1-4.43,1A7.65,7.65,0,0,1,140.3,25a11.39,11.39,0,0,0-4.93-1.33,12.43,12.43,0,0,0-5.36,1,20.59,20.59,0,0,0-5.44,3.49,30.47,30.47,0,0,0-5.15,5.94,25.63,25.63,0,0,0-2.81,5.41,30.1,30.1,0,0,1-5.47,7.05q-2.74,2.38-4.18,2-1.23-.22-.94-2a19.14,19.14,0,0,1,1.8-4.86L124.17,8.5A21.88,21.88,0,0,1,120,9.62a16.47,16.47,0,0,1-4.07.25L103.58,34.93l-3.1,6.3a18.56,18.56,0,0,0-1.8,5.22,6.75,6.75,0,0,0,.07,2.63,4.36,4.36,0,0,0,1,1.87,4.43,4.43,0,0,0,1.69,1.15,5.65,5.65,0,0,0,2.09.4,9.67,9.67,0,0,0,4.39-1,16.21,16.21,0,0,0,3.85-2.74,31.3,31.3,0,0,0,3.56-4l.24-.33a11.5,11.5,0,0,0,.08,2.56,6.59,6.59,0,0,0,2,4,5.91,5.91,0,0,0,4.14,1.48,8.69,8.69,0,0,0,5.11-1.62,16.91,16.91,0,0,0,4.18-4.36l.79-1.15h.22L131,47.74a4.57,4.57,0,0,0,1.33,3.49,4.49,4.49,0,0,0,3.2,1.26,10.06,10.06,0,0,0,4.5-1,17.51,17.51,0,0,0,4-2.77,28.4,28.4,0,0,0,3.64-4q1.73-2.3,3.46-4.82l-1.73-1A29.06,29.06,0,0,1,143.68,46.38Zm-8.5-9.79a42.17,42.17,0,0,1-5.9,9.11q-3,3.28-5.11,3.35a1.75,1.75,0,0,1-1.62-.94,4.78,4.78,0,0,1-.43-2.66,14.84,14.84,0,0,1,1-4.14,31.46,31.46,0,0,1,2.77-5.44,29.07,29.07,0,0,1,3.53-4.64,19.89,19.89,0,0,1,3.74-3.17,10.3,10.3,0,0,1,3.64-1.51,5.3,5.3,0,0,1,3.2.32Z" transform="translate(-3.86 -6.13)"/><path d="M210.64,28H199.48l6.91-14.47c.91,0,1.84-.11,2.77-.18a21.31,21.31,0,0,0,2.77-.4A6.6,6.6,0,0,0,215,11.6a3.51,3.51,0,0,0,1.22-2,2.41,2.41,0,0,0-.58-2,4.05,4.05,0,0,0-2.34-1.3,11.11,11.11,0,0,0-7.63,1.37Q202.5,7.5,199,7t-6.84-.72A44.63,44.63,0,0,0,186,6.24a10.22,10.22,0,0,0-4.64,1.26,6,6,0,0,0-2.92,3.92,5.8,5.8,0,0,0,0,2.41A4.44,4.44,0,0,0,179.54,16a11.05,11.05,0,0,1,4.68-2.48,25.14,25.14,0,0,1,5.65-.76,50.48,50.48,0,0,1,6.23.25c2.16.22,2,.25,4.13.35h0c-.77.38-1.51,2-2.18,2.89A23.65,23.65,0,0,0,196,20L192.07,28H171l3,4.1,16.42-.86L183,46.67a8,8,0,0,1-2.92,3.67,3.36,3.36,0,0,1-3.35.22,2.5,2.5,0,0,1-1.4-1.48,5.28,5.28,0,0,1-.29-2.34,10.68,10.68,0,0,1,.65-2.77,13.07,13.07,0,0,1,1.4-2.77,6.76,6.76,0,0,1,2.45-2.38,4.83,4.83,0,0,0-4.82-2.59,5.8,5.8,0,0,0-2.77,1.08A6.44,6.44,0,0,0,169.82,40a9.72,9.72,0,0,0-1,3.85,8.87,8.87,0,0,0,.58,3.74,8.61,8.61,0,0,0,2.23,3.2,9.87,9.87,0,0,0,3.85,2.16,15.08,15.08,0,0,0,4.36.65,11.11,11.11,0,0,0,4.28-.86A12.26,12.26,0,0,0,188,50a17.22,17.22,0,0,0,3.31-5l6.77-14.11,12.53-.72Z" transform="translate(-3.86 -6.13)"/><path d="M221.73,18.73a4.8,4.8,0,0,0,3.78.18,5.19,5.19,0,0,0,3-2.63,4.19,4.19,0,0,0,.4-3.42,4.72,4.72,0,0,0-2.34-2.77,5.14,5.14,0,0,0-3.78-.29,4.81,4.81,0,0,0-3,2.45,4.51,4.51,0,0,0-.54,3.67A4.64,4.64,0,0,0,221.73,18.73Z" transform="translate(-3.86 -6.13)"/><path d="M278.82,64.88a12.1,12.1,0,0,1-5.22-.14,25.73,25.73,0,0,1-6.37-2.56,85.48,85.48,0,0,1-8.06-5.08q-2.66-1.8-5.26-3.2a23.27,23.27,0,0,0-5.22-2.09,18.93,18.93,0,0,0-5.29-.61,14,14,0,0,0-2.42.28.66.66,0,0,1-.56-1.16l28.76-24.21a1,1,0,0,0,.29-1.15l-.14-.36A1,1,0,0,0,268,24a12,12,0,0,1-4.14,1,15.27,15.27,0,0,1-3.85-.4l-3.56-.86a12,12,0,0,0-4.21-.14,7.6,7.6,0,0,0-4.39,2.23,22.63,22.63,0,0,0-3.38,4.39q-1.51,2.52-2.81,5.26c-.58,1.22-1.17,2.32-1.77,3.33l0,0q-.37.64-.73,1.23l-.14.21h0a25,25,0,0,1-4.9,6.08q-2.74,2.27-4.32,2.27-1.3,0-1-1.69a20.61,20.61,0,0,1,1.91-5.15L239.33,24a.67.67,0,0,1,.6-.38h4.8a.67.67,0,0,0,.59-.35l.79-1.47a.67.67,0,0,0-.59-1H242a.67.67,0,0,1-.6-1l3.26-6.56a.67.67,0,0,0-.77-.94,21.71,21.71,0,0,1-2.6.59,18.19,18.19,0,0,1-3.73.28.68.68,0,0,0-.65.38l-3.36,6.85a.67.67,0,0,1-.6.37h-2.36a.67.67,0,0,0-.58.34l-.53.95a1,1,0,0,0,.89,1.52h0a1,1,0,0,1,.92,1.47l-4.82,9.83c-.75,1.54-1.47,3-2.17,4.38l0,0a30.18,30.18,0,0,1-5.29,7q-2.52,2.23-4.18,2.23-2.66,0,.58-6.84l8.27-16.66a.66.66,0,0,0-.79-.93,19.19,19.19,0,0,1-2.65.6,18.46,18.46,0,0,1-3.66.24.68.68,0,0,0-.64.37l-4.77,9.54q-1.66,3.39-3.13,6.3a16.37,16.37,0,0,0-1.76,5.22q-.43,3.1,1.08,4.57a4.81,4.81,0,0,0,3.46,1.48,10.65,10.65,0,0,0,4.82-1.08,16.38,16.38,0,0,0,4-2.88q1-.92,1.86-2-.46,3,.88,4.46a4.51,4.51,0,0,0,3.46,1.48,10.68,10.68,0,0,0,5-1.19,18.54,18.54,0,0,0,4.25-3,29,29,0,0,0,3.56-4.07q1.62-2.23,3.06-4.39l0,0c.55-.88,1.08-1.76,1.55-2.64q1.08-2,2-3.64a24.29,24.29,0,0,1,1.76-2.77,4.17,4.17,0,0,1,1.87-1.51A4.51,4.51,0,0,1,251,29.1a23.46,23.46,0,0,1,2.41.58q1.22.36,2.48.65a5.55,5.55,0,0,0,2.34.07A7.92,7.92,0,0,0,261,29.28q1.29-.83,2.38-1.62l.29.43L233.79,53.38a.67.67,0,0,0-.17.81l.63,1.26.22-.14a10.3,10.3,0,0,1,2-.94,16.24,16.24,0,0,1,3-.79,20.88,20.88,0,0,1,3.41-.29,12,12,0,0,1,4,.68A23.71,23.71,0,0,1,251,55.84a36.09,36.09,0,0,1,3.92,2.63q1.87,1.44,3.6,3T262,64.38a34.36,34.36,0,0,0,9.65,6.37,13.08,13.08,0,0,0,7.56,1,6.89,6.89,0,0,0,6-6.78.69.69,0,0,0-.15-.49l-1.09-1.33A.66.66,0,0,0,283,63,11.62,11.62,0,0,1,278.82,64.88Z" transform="translate(-3.86 -6.13)"/><path d="M304.09,18.73a4.8,4.8,0,0,0,3.78.18,5.19,5.19,0,0,0,3-2.63,4.19,4.19,0,0,0,.4-3.42,4.72,4.72,0,0,0-2.34-2.77,5.14,5.14,0,0,0-3.78-.29,4.81,4.81,0,0,0-3,2.45,4.51,4.51,0,0,0-.54,3.67A4.64,4.64,0,0,0,304.09,18.73Z" transform="translate(-3.86 -6.13)"/><path d="M475.68,53.05a9.58,9.58,0,0,0,4.7-5,10.62,10.62,0,0,0,.37-7c-.66-2.2-2-4.12-3.05-6.18s-1.72-4.48-.93-6.65,3.58-3.65,5.51-2.4c1,.68,1.83,2,3.13,1.83a1.82,1.82,0,0,0,1.35-2.07c-.25-1.54-1.69-2.32-3.08-2.66-6.5-1.59-12.41,1.09-16.31,6.33-.67.9-3.38,7.74-3.94,8.72a37,37,0,0,1-4.19,6.21C457,47.08,453.6,49,452,47.34c-2.4-2.4,5.66-11,8.13-16.28a5.93,5.93,0,0,0,.49-3.59c-.75-4-4.21-4.17-7-3.56A19.51,19.51,0,0,0,442,31.58l4.76-7.82c-2.83.85-8.19-1.1-8.77.95-2.42,8.53-6.91,16.42-14.46,20.76,2.9-5.62,5.82-12.53,1.87-17.86-1.8-2.43-5.91-4.16-8.93-4-6.59.3-11.48,5.11-14.5,10.56-1.66,3-2.87,6.29-4.9,9.07a11.86,11.86,0,0,1-6.47,4.71,1.13,1.13,0,0,1-1.24-1.61l6.3-12.95c1.13-2.32,2.3-4.9.51-7.44a6.8,6.8,0,0,0-5-2.43c-4.14,0-7.24,2.82-10.1,5.5.6-3.14-3-5.79-6.18-5.52-2.85.24-4.6,1.75-7,3.39-.89.61-1.35.44-1.31,0a6.19,6.19,0,0,1,.65-2.15.47.47,0,0,0-.54-.67,45,45,0,0,1-7.11.7s-6.22,13.58-10.66,19.56c-1.23,1.66-3,3.39-4.82,3.93a1.43,1.43,0,0,1-1.68-2l7.32-15.9a6.34,6.34,0,0,0,.36-3.72c-.91-3.25-3.83-3.25-6.21-2.7a20.32,20.32,0,0,0-9.75,5.43.17.17,0,0,1-.28-.15c.66-3-2.79-6-6-5.75s-5.77,2.32-8.11,4.49a.33.33,0,0,1-.55-.31,9.57,9.57,0,0,1,.93-2.66.59.59,0,0,0-.65-.87,23,23,0,0,1-6.87.61c-3,8.51-7.26,16.81-13.53,23.31-1.47,1.52-2.6,1.51-3.51,1.11-1.81-.8-.56-3.45.21-5L305.12,25a.59.59,0,0,0-.71-.83,18.74,18.74,0,0,1-7.09.84,53.85,53.85,0,0,1-17.26,25.25c3.31-2.93,1.64-8.31-.26-12.3s-3.51-9.41-.14-12.27a2.81,2.81,0,0,1,2.42-.75c1.7.43,2.47,3,4.21,2.89a1.79,1.79,0,0,0,1.46-2.43c-.54-1.68-2.27-2.23-3.87-2.43-6-.73-12.83,3.26-13.06,9.26-.11,2.82,1.2,5.47,2.3,8.07s2,5.52,1.15,8.2-4.35,4.6-6.65,3c.3-2.4-.42-5.92-3-5.34-1.85.42-2.43,2.25-1.47,3.88,2.78,4.73,8.93,5.58,13.8,3.84,4.2-1.49,7.62-4.57,10.76-7.74-1.23,3,2.07,6.38,5.35,6.4s6.13-2.16,8.48-4.44l-2.12,4.44,7.7,0a64.72,64.72,0,0,1,16.38-25.06,2.08,2.08,0,0,1,2.76-.07c.74.71.43,1.57.12,2.32q-4.77,11.58-10.49,22.73l7.74.07c3.27-9.37,8.74-16.38,16.18-24.61a2.08,2.08,0,0,1,2.56-.38c1.31.9.74,2.13.19,3.12l-6.49,11.56a13.21,13.21,0,0,0-1.26,3.31c-1.2,6.31,4.15,7.88,7.86,6.46,2.4-.91,4.28-2.79,6.08-4.61l-2.39,5.12,7.67,0A80.4,80.4,0,0,1,365.86,31.9c1.62-2.06,3.55-4.17,6.14-4.63a2.26,2.26,0,0,1,1.78.27c1,.74.57,2.28.07,3.39q-5,11-11,21.55l8.73.19a79.32,79.32,0,0,1,11.32-21.56c.95-1.28,2-2.59,3.65-2.88a2.65,2.65,0,0,1,2.62,1.1c.58,1.05,0,2.11-.49,3l-5.31,9.42c-1.48,2.63-3,5.69-.75,8.59A4.81,4.81,0,0,0,385.15,52c6,1.61,9.68-1.32,12.81-5.28,2.18,5.19,7.63,7.44,13.19,6.88,6-.61,15.85-6.88,17.29-7.28,0,0,.05,0,0,.06-1.69,3.23-2.5,4-3.3,6.11l7.73.06A60.62,60.62,0,0,1,450,27.28a2.3,2.3,0,0,1,2.85-.09c1,.83.55,1.9.14,2.8q-3,6.72-6.69,13.13a9.53,9.53,0,0,0-1.17,3.17c-1.5,9.17,10.93,5.64,14.89,2.45,6.11-4.92,6.6-7.64,9.47-14.94-.81,2.88-.06,4.23,1.14,7s3.61,4.45,2.9,7.36-4.42,5.17-6.79,3.35c.72-1.84.34-4.32-1.43-5.2a2.59,2.59,0,0,0-3.14,1.09c-.65,1-.11,2.51.48,3.47,1.31,2.13,3.79,2.86,6.15,3a34.92,34.92,0,0,0,4.45,0m-2,.66-51-21.36A34.53,34.53,0,0,1,418.56,38,51.11,51.11,0,0,1,416,43a26.17,26.17,0,0,1-2.77,3.92,15.65,15.65,0,0,1-2.84,2.63,4.77,4.77,0,0,1-2.7,1,1.9,1.9,0,0,1-1.84-1,5.83,5.83,0,0,1-.47-2.88,16.56,16.56,0,0,1,.79-4.18,37.1,37.1,0,0,1,1.94-4.93,42.51,42.51,0,0,1,2.48-4.68A27,27,0,0,1,413.34,29a14.3,14.3,0,0,1,2.77-2.48,4.86,4.86,0,0,1,2.66-.9,1.82,1.82,0,0,1,1.69.94,5.08,5.08,0,0,1,.5,2.63A16.47,16.47,0,0,1,420.32,33.13Z" transform="translate(-3.86 -6.13)"/><path d="M149,70.24h.27a2.72,2.72,0,0,1,0-1.3,3.31,3.31,0,0,0-2.35.22,5.15,5.15,0,0,0-2.21,2.09,14.86,14.86,0,0,0-1.06,2q-.48,1.11-.86,2.06h3.7Z" transform="translate(-3.86 -6.13)" fill="none"/><path d="M192.59,79.15a6.88,6.88,0,0,0-2.42,1,13.28,13.28,0,0,0-2.5,2.11,19.4,19.4,0,0,0-2.35,3.1A21,21,0,0,0,183.47,89a9.9,9.9,0,0,0-.67,2.76,3.19,3.19,0,0,0,.29,1.78,1.17,1.17,0,0,0,1.08.62q1.44,0,3.41-2.23a28.12,28.12,0,0,0,3.94-6.07l3.22-6.48A3.54,3.54,0,0,0,192.59,79.15Z" transform="translate(-3.86 -6.13)" fill="none"/><path d="M229.86,83.16A6.35,6.35,0,0,0,231,80q0-1.22-.72-1.37-1.06-.34-3.12,1.39a21.36,21.36,0,0,0-4.37,5.81,15,15,0,0,0-1.63,4.08,9.29,9.29,0,0,0,4.73-2A15.49,15.49,0,0,0,229.86,83.16Z" transform="translate(-3.86 -6.13)" fill="none"/><path d="M123.35,78.5a3.24,3.24,0,0,0-1.78.6,9.55,9.55,0,0,0-1.85,1.66,18,18,0,0,0-1.82,2.5,28.41,28.41,0,0,0-1.66,3.12,24.77,24.77,0,0,0-1.3,3.29,11,11,0,0,0-.53,2.78,3.88,3.88,0,0,0,.31,1.92,1.27,1.27,0,0,0,1.22.7,3.18,3.18,0,0,0,1.8-.65,10.43,10.43,0,0,0,1.9-1.75A17.48,17.48,0,0,0,121.5,90a34.18,34.18,0,0,0,1.7-3.34,23,23,0,0,0,1.18-3.22,11,11,0,0,0,.43-2.62,3.38,3.38,0,0,0-.34-1.75A1.21,1.21,0,0,0,123.35,78.5Z" transform="translate(-3.86 -6.13)" fill="none"/><path d="M373.13,83.16a6.35,6.35,0,0,0,1.1-3.19q0-1.22-.72-1.37-1.06-.34-3.12,1.39A21.36,21.36,0,0,0,366,85.8a15,15,0,0,0-1.63,4.08,9.29,9.29,0,0,0,4.73-2A15.49,15.49,0,0,0,373.13,83.16Z" transform="translate(-3.86 -6.13)" fill="none"/><path d="M261.49,83.16a6.35,6.35,0,0,0,1.1-3.19q0-1.22-.72-1.37-1.06-.34-3.12,1.39a21.36,21.36,0,0,0-4.37,5.81,15,15,0,0,0-1.63,4.08,9.29,9.29,0,0,0,4.73-2A15.49,15.49,0,0,0,261.49,83.16Z" transform="translate(-3.86 -6.13)" fill="none"/><path d="M304.06,79.41a4.59,4.59,0,0,0-4.49.14,12.71,12.71,0,0,0-4.58,5,16.09,16.09,0,0,0-1.56,3.22,7.16,7.16,0,0,0-.43,2.33,2.09,2.09,0,0,0,.5,1.44,1.59,1.59,0,0,0,1.2.5,4.51,4.51,0,0,0,3-1.61,19.85,19.85,0,0,0,3.34-5.06Z" transform="translate(-3.86 -6.13)" fill="none"/><path d="M353.79,83.16a6.35,6.35,0,0,0,1.1-3.19q0-1.22-.72-1.37-1.06-.34-3.12,1.39a21.36,21.36,0,0,0-4.37,5.81,15,15,0,0,0-1.63,4.08,9.29,9.29,0,0,0,4.73-2A15.49,15.49,0,0,0,353.79,83.16Z" transform="translate(-3.86 -6.13)" fill="none"/><path d="M233.55,90.79a15.91,15.91,0,0,1-3.19,2.35,14.54,14.54,0,0,1-3.29,1.34,11.43,11.43,0,0,1-2.88.43,3.15,3.15,0,0,1-2.59-1.06,3.84,3.84,0,0,1-.67-2.93,15.79,15.79,0,0,0,7.9-1.73A13,13,0,0,0,232,86.92a11,11,0,0,0,2.21-3,6.27,6.27,0,0,0,.67-2.28,4.27,4.27,0,0,0-.29-2A3.85,3.85,0,0,0,233.34,78a4.25,4.25,0,0,0-2.18-.79,11.16,11.16,0,0,0-3.38.14,13,13,0,0,0-3.6,1.27,15.11,15.11,0,0,0-3.46,2.52,15.93,15.93,0,0,0-2.9,3.84,13.72,13.72,0,0,0-1.17,2.85l-1.33,1.83a24.64,24.64,0,0,1-1.58,1.94,8.17,8.17,0,0,1-1.06,1.06,9.4,9.4,0,0,1-1.13.82,3.19,3.19,0,0,1-1.06.43,1.2,1.2,0,0,1-.84-.1q-.77-.34-.1-2a48,48,0,0,1,2.16-4.37l1.13-2q.55-1,1-1.92a8.7,8.7,0,0,0,.58-1.8,4.57,4.57,0,0,0,0-1.68q-.77-4.08-7.87-2.69h-2.4a2.63,2.63,0,0,0,.19,1A1.16,1.16,0,0,0,205,79q-.48,1.34-1,2.42t-1,2.11q-.53,1-1.15,2.16l-1,1.81a18.94,18.94,0,0,1-3.72,4.83,5.12,5.12,0,0,1-2.88,1.49q-1.68,0,.58-4.56l5.71-11.23a8,8,0,0,1-3,.67,5.1,5.1,0,0,1-2.71-.62,7.59,7.59,0,0,0-3.29-.89,8.27,8.27,0,0,0-3.58.7,13.71,13.71,0,0,0-3.62,2.33,20.28,20.28,0,0,0-3.43,4,17.11,17.11,0,0,0-1.87,3.58A8.91,8.91,0,0,1,176,91a5.9,5.9,0,0,1-4,.86,22.37,22.37,0,0,0,2.88-3.79,24.52,24.52,0,0,0,2-4.13,15.2,15.2,0,0,0,.79-3.19,4.62,4.62,0,0,0-.22-2.33,2,2,0,0,0-1.3-1.2,4.24,4.24,0,0,0-2.4.14,26.34,26.34,0,0,1-.65,3.24A24.09,24.09,0,0,1,172,83.88a33.49,33.49,0,0,1-2.18,4.56,30.42,30.42,0,0,1-2.4,3.6,10.87,10.87,0,0,1-2.26,2.23,2,2,0,0,1-1.75.5q-.82-.19-.84-1.32a10.63,10.63,0,0,1,1.37-4L170,77.2a12.75,12.75,0,0,1-2.74.77,10.2,10.2,0,0,1-2.54.14L160,87.72A35,35,0,0,1,157.19,92a3.47,3.47,0,0,1-2.5,1.63q-1,0-1.1-1.06a6.08,6.08,0,0,1,1-3.22l6-12.19a14,14,0,0,1-2.62.72,12.33,12.33,0,0,1-2.62.19l-5.07,10.23a16.57,16.57,0,0,1-3.23,4,5.28,5.28,0,0,1-2.88,1.51q-.86,0-.7-1.13a13.79,13.79,0,0,1,1.27-3.43l5.9-12.1h3.74l1-1.87h-3.84l3-6A12.3,12.3,0,0,1,152,70c0-.07,0-.13,0-.2A3,3,0,0,0,150.32,68a6.29,6.29,0,0,0-1.56-.58,7.66,7.66,0,0,0-1.7-.19,10,10,0,0,0-1.7.14,5.86,5.86,0,0,0-1.46.43,9.19,9.19,0,0,0-3.46,2.74,17.65,17.65,0,0,0-2.54,4.8h-3.41l-1.06,1.87h3.5l-5.45,11.1a8.57,8.57,0,0,1-2.35,2.41A6.92,6.92,0,0,1,125.65,92a14.34,14.34,0,0,0,1.46-2.21,20.24,20.24,0,0,0,1.18-2.65A11.42,11.42,0,0,0,129,83.3a6.6,6.6,0,0,0-.72-3.15A5.29,5.29,0,0,0,126.16,78a7,7,0,0,0-3.48-.8,10.39,10.39,0,0,0-3.55.62,12.92,12.92,0,0,0-3.26,1.75,13.83,13.83,0,0,0-2.76,2.71,14.21,14.21,0,0,0-2,3.55,14.42,14.42,0,0,0-.65,2.09,15,15,0,0,1-.93,1.36q-.82,1.06-1.8,2.11a23.78,23.78,0,0,1-2.06,2,15.72,15.72,0,0,1-2.14,1.54l-.1-.24q.24-.19.67-.6a2,2,0,0,0,.58-.94,6.58,6.58,0,0,0,.12-3.46,15.75,15.75,0,0,0-1.08-2.9q-.67-1.37-1.3-2.71a5.5,5.5,0,0,1-.48-2.88A3.24,3.24,0,0,1,103,78.81a3.63,3.63,0,0,1,2.28-.89,3.17,3.17,0,0,0,.6.94,3.83,3.83,0,0,0,.89.74,2,2,0,0,0,.94.31,1.15,1.15,0,0,0,.84-.31,1,1,0,0,0,.29-.84,1.68,1.68,0,0,0-.46-1,3.41,3.41,0,0,0-1.15-.79,4.23,4.23,0,0,0-1.75-.34,10,10,0,0,0-5,1.06,6.22,6.22,0,0,0-2.86,6.7,18.26,18.26,0,0,0,1,2.81q.62,1.34,1.15,2.69a5.3,5.3,0,0,1,.29,2.83,4.17,4.17,0,0,1-1.66,2.83,3.48,3.48,0,0,1-3.19.48,8.56,8.56,0,0,0,.12-1.66A3.87,3.87,0,0,0,95.12,93a1.87,1.87,0,0,0-.67-.86,1.21,1.21,0,0,0-1-.14,1.4,1.4,0,0,0-.84.65,1.93,1.93,0,0,0-.26,1.18,3.32,3.32,0,0,0,.5,1.44,5.33,5.33,0,0,0,1.42,1.49,6.82,6.82,0,0,0,3.17,1.08,8.5,8.5,0,0,0,3.74-.41,8.75,8.75,0,0,0,2.83-1.3,26.39,26.39,0,0,0,3-2.35,27.87,27.87,0,0,0,2.81-2.88l.35-.43a6.77,6.77,0,0,0,.66,2.83A5.39,5.39,0,0,0,113,95.61a7,7,0,0,0,3.55.84,10.86,10.86,0,0,0,7.63-3,9.19,9.19,0,0,0,4.82-1.2c.25-.14.49-.31.72-.47l-6.13,12.47a20.94,20.94,0,0,1,2.93-.6,11.67,11.67,0,0,1,2.59-.12L141.92,77.2h3.7l-3.7,7.54q-1.1,2.26-2.09,4.2a12,12,0,0,0-1.22,3.48,3.5,3.5,0,0,0,.58,3,3,3,0,0,0,2.3,1,7.12,7.12,0,0,0,3.31-.79,12.38,12.38,0,0,0,2.83-2,19.06,19.06,0,0,0,1.32-1.38,4.33,4.33,0,0,0,.32,2.15,3.29,3.29,0,0,0,1.3,1.46,3.88,3.88,0,0,0,2.06.53,5.57,5.57,0,0,0,3.12-1,12.18,12.18,0,0,0,3-3.14,4.23,4.23,0,0,0,1.22,3.1,4.63,4.63,0,0,0,3.34,1.13,8.56,8.56,0,0,0,3.7-.86,14.81,14.81,0,0,0,3.46-2.3,9.24,9.24,0,0,0,5.4-.79,9.06,9.06,0,0,0,2.57-1.81,8,8,0,0,0,0,2,4.4,4.4,0,0,0,1.34,2.66,3.94,3.94,0,0,0,2.76,1A5.79,5.79,0,0,0,186,95.32a11.27,11.27,0,0,0,2.78-2.9l.53-.77h.14l-.72,1.63a3,3,0,0,0,.89,2.33,3,3,0,0,0,2.14.84,6.71,6.71,0,0,0,3-.7,11.68,11.68,0,0,0,2.69-1.85,19,19,0,0,0,2.42-2.69c.56-.75,1.12-1.53,1.68-2.33l0,0a22.24,22.24,0,0,0,1.3-2.14q.72-1.32,1.44-2.76t1.32-2.81q.6-1.37.89-2.23a5.49,5.49,0,0,1,2.09-.07,1.19,1.19,0,0,1,1.08,1,2.53,2.53,0,0,1-.17,1.27,10.41,10.41,0,0,1-.77,1.63q-.5.89-1.15,1.92t-1.32,2.18a17.17,17.17,0,0,0-1.42,2.81,9.32,9.32,0,0,0-.65,2.64,4.07,4.07,0,0,0,.38,2.18,3.9,3.9,0,0,0,3.31,1.85,6.38,6.38,0,0,0,1.8-.31,9,9,0,0,0,1.75-.79A8.67,8.67,0,0,0,213,94.2a19.47,19.47,0,0,0,2.88-3.14l.38-.52A6.13,6.13,0,0,0,216.8,93a5.5,5.5,0,0,0,2.38,2.5,8.46,8.46,0,0,0,4.2.94,13.87,13.87,0,0,0,4.18-.65,17.63,17.63,0,0,0,7.25-4.39A16.25,16.25,0,0,0,237.39,88l-1.15-.67A14.67,14.67,0,0,1,233.55,90.79Zm-10.8-5A21.36,21.36,0,0,1,227.12,80q2.06-1.73,3.12-1.39.67.14.72,1.37a6.35,6.35,0,0,1-1.1,3.19,15.49,15.49,0,0,1-4,4.75,9.29,9.29,0,0,1-4.73,2A15,15,0,0,1,222.75,85.8Zm-98.37-2.3a23,23,0,0,1-1.18,3.22A34.18,34.18,0,0,1,121.5,90a17.48,17.48,0,0,1-1.85,2.62,10.43,10.43,0,0,1-1.9,1.75,3.18,3.18,0,0,1-1.8.65,1.27,1.27,0,0,1-1.22-.7,3.88,3.88,0,0,1-.31-1.92,11,11,0,0,1,.53-2.78,24.77,24.77,0,0,1,1.3-3.29,28.41,28.41,0,0,1,1.66-3.12,18,18,0,0,1,1.82-2.5,9.55,9.55,0,0,1,1.85-1.66,3.24,3.24,0,0,1,1.78-.6,1.21,1.21,0,0,1,1.13.62,3.38,3.38,0,0,1,.34,1.75A11,11,0,0,1,124.38,83.49Zm20-8.16h-1.58q.38-1,.86-2.06a14.86,14.86,0,0,1,1.06-2A5.15,5.15,0,0,1,147,69.16a3.31,3.31,0,0,1,2.35-.22,2.72,2.72,0,0,0,0,1.3H149l-2.5,5.09h-2.11Zm47.09,10.51a28.12,28.12,0,0,1-3.94,6.07q-2,2.18-3.41,2.23a1.17,1.17,0,0,1-1.08-.62,3.19,3.19,0,0,1-.29-1.78,9.9,9.9,0,0,1,.67-2.76,21,21,0,0,1,1.85-3.62,19.4,19.4,0,0,1,2.35-3.1,13.28,13.28,0,0,1,2.5-2.11,6.88,6.88,0,0,1,2.42-1,3.54,3.54,0,0,1,2.14.22Z" transform="translate(-3.86 -6.13)"/><path d="M317.84,73.94a3.2,3.2,0,0,0,2.52.12,3.45,3.45,0,0,0,2-1.75,2.79,2.79,0,0,0,.26-2.28,3.15,3.15,0,0,0-1.56-1.85,3.43,3.43,0,0,0-2.52-.19,3.21,3.21,0,0,0-2,1.63,3,3,0,0,0-.36,2.45A3.1,3.1,0,0,0,317.84,73.94Z" transform="translate(-3.86 -6.13)"/><path d="M395.55,87.33q-1,1.34-1.68,2.33a24.64,24.64,0,0,1-1.58,1.94,8.23,8.23,0,0,1-1.06,1.06,9.36,9.36,0,0,1-1.13.82,3.19,3.19,0,0,1-1.06.43,1.2,1.2,0,0,1-.84-.1q-.77-.34-.1-2a48,48,0,0,1,2.16-4.37l1.13-2q.55-1,1-1.92a8.7,8.7,0,0,0,.58-1.8A4.57,4.57,0,0,0,393,80q-.77-4.08-7.87-2.69h-2.4a2.64,2.64,0,0,0,.19,1,1.16,1.16,0,0,0,.67.65q-.48,1.34-1,2.42t-1,2.11q-.53,1-1.15,2.16l-.89,1.62,0,0a14.67,14.67,0,0,1-2.69,3.46,15.91,15.91,0,0,1-3.19,2.35,14.54,14.54,0,0,1-3.29,1.34,11.43,11.43,0,0,1-2.88.43,3.15,3.15,0,0,1-2.59-1.06,3.84,3.84,0,0,1-.67-2.93,15.79,15.79,0,0,0,7.9-1.73,13,13,0,0,0,3.14-2.28,11,11,0,0,0,2.21-3,6.27,6.27,0,0,0,.67-2.28,4.27,4.27,0,0,0-.29-2A3.85,3.85,0,0,0,376.61,78a4.25,4.25,0,0,0-2.18-.79,11.16,11.16,0,0,0-3.38.14,13,13,0,0,0-3.6,1.27A15.11,15.11,0,0,0,364,81.14a15.93,15.93,0,0,0-2.9,3.84,13.88,13.88,0,0,0-1.13,2.7,14.5,14.5,0,0,1-2.47,3.11,15.91,15.91,0,0,1-3.19,2.35A14.54,14.54,0,0,1,351,94.48a11.43,11.43,0,0,1-2.88.43,3.15,3.15,0,0,1-2.59-1.06,3.84,3.84,0,0,1-.67-2.93,15.79,15.79,0,0,0,7.9-1.73,13,13,0,0,0,3.14-2.28,11,11,0,0,0,2.21-3,6.27,6.27,0,0,0,.67-2.28,4.27,4.27,0,0,0-.29-2A3.85,3.85,0,0,0,357.27,78a4.25,4.25,0,0,0-2.18-.79,11.16,11.16,0,0,0-3.38.14,13,13,0,0,0-3.6,1.27,15.11,15.11,0,0,0-3.46,2.52,15.93,15.93,0,0,0-2.9,3.84,13.78,13.78,0,0,0-1.15,2.79c-.41.62-.84,1.25-1.32,1.89a20.19,20.19,0,0,1-1.82,2.11,13.33,13.33,0,0,1-1.8,1.54,2.8,2.8,0,0,1-1.54.6q-.62,0-.67-.55a3.71,3.71,0,0,1,.31-1.51,18.31,18.31,0,0,1,1.08-2.28q.72-1.32,1.63-2.9,1.3-2.35,2-4a4.76,4.76,0,0,0,.36-3.17,2.92,2.92,0,0,0-2.78-2.3,8.68,8.68,0,0,0-4.46,1,15.3,15.3,0,0,0-5.09,4.25l-.14-.24,2-2.45,1.25-2.54q-1.39.39-2.9.65a7.44,7.44,0,0,1-2.57.07l-4.63,9.68A20.31,20.31,0,0,1,316,92.37a4.75,4.75,0,0,1-2.78,1.49q-1.78,0,.38-4.56l6-12.1a13,13,0,0,1-5.52.91l-3.31,6.62c-.55,1.13-1.08,2.18-1.58,3.19a26.38,26.38,0,0,1-1.58,2.25q-1.15,1.46-2.47,2.9t-2.78,2.76q-1.46,1.32-2.81,2.38L301.28,95,310,78.07a9.11,9.11,0,0,1-3,.7,5.25,5.25,0,0,1-2.78-.65,8.57,8.57,0,0,0-3.26-.89,8.85,8.85,0,0,0-3.53.5,11.86,11.86,0,0,0-3.55,2,16.33,16.33,0,0,0-3.24,3.62,11.92,11.92,0,0,0-1.85,4.1c0,.11,0,.21-.05.31-.4.61-.82,1.23-1.29,1.85a20.19,20.19,0,0,1-1.82,2.11,13.33,13.33,0,0,1-1.8,1.54,2.8,2.8,0,0,1-1.54.6q-.62,0-.67-.55a3.71,3.71,0,0,1,.31-1.51A18.31,18.31,0,0,1,283,89.56q.72-1.32,1.63-2.9,1.3-2.35,2-4a4.76,4.76,0,0,0,.36-3.17,2.92,2.92,0,0,0-2.78-2.3,8.68,8.68,0,0,0-4.46,1,15.3,15.3,0,0,0-5.09,4.25l-.14-.24,2-2.45,1.25-2.54q-1.39.39-2.9.65a7.44,7.44,0,0,1-2.57.07l-4.61,9.64a14.56,14.56,0,0,1-2.54,3.22A15.91,15.91,0,0,1,262,93.14a14.54,14.54,0,0,1-3.29,1.34,11.43,11.43,0,0,1-2.88.43,3.15,3.15,0,0,1-2.59-1.06,3.84,3.84,0,0,1-.67-2.93,15.79,15.79,0,0,0,7.9-1.73,13,13,0,0,0,3.14-2.28,11,11,0,0,0,2.21-3,6.27,6.27,0,0,0,.67-2.28,4.27,4.27,0,0,0-.29-2A3.85,3.85,0,0,0,265,78a4.25,4.25,0,0,0-2.18-.79,11.16,11.16,0,0,0-3.38.14,13,13,0,0,0-3.6,1.27,15.11,15.11,0,0,0-3.46,2.52,15.93,15.93,0,0,0-2.9,3.84A12.19,12.19,0,0,0,248,89.35a6.68,6.68,0,0,0,.48,3.62,5.5,5.5,0,0,0,2.38,2.5,8.46,8.46,0,0,0,4.2.94,13.87,13.87,0,0,0,4.18-.65A17.77,17.77,0,0,0,263.07,94a17.56,17.56,0,0,0,2.46-1.84l-2,4.24h5.09l3.31-6.86A38.2,38.2,0,0,1,274.83,85a30.67,30.67,0,0,1,2.64-3.1,12.31,12.31,0,0,1,2.14-1.78,3.76,3.76,0,0,1,1.51-.62,1.22,1.22,0,0,1,1,.26,1.33,1.33,0,0,1,.12,1.15,9.89,9.89,0,0,1-.89,2.28q-.72,1.44-2,3.6-1.1,1.82-1.85,3.29a6.59,6.59,0,0,0-.79,2.71,3.27,3.27,0,0,0,.91,2.66,3.31,3.31,0,0,0,2.4,1,6.07,6.07,0,0,0,2.71-.62A11.05,11.05,0,0,0,285.25,94a21.09,21.09,0,0,0,2.45-2.66l.9-1.19a5.9,5.9,0,0,0,.13.75,4.15,4.15,0,0,0,4.1,3.31,5.11,5.11,0,0,0,2.74-.55,8.93,8.93,0,0,0,2.21-1.61l.67-.62h.19l-1.44,2L294.9,98a6.87,6.87,0,0,1-3,3.5,2.83,2.83,0,0,1-2.81,0,4.48,4.48,0,0,0,0-1.75,2.79,2.79,0,0,0-.58-1.18,1.56,1.56,0,0,0-.89-.53,1.35,1.35,0,0,0-.94.14,1.18,1.18,0,0,0-.58.74,2.09,2.09,0,0,0,0,1.13,3.94,3.94,0,0,0,.7,1.32,5.2,5.2,0,0,0,1.49,1.27,5.82,5.82,0,0,0,1.56.65,6.81,6.81,0,0,0,1.7.22,8.35,8.35,0,0,0,1.68-.17,7.8,7.8,0,0,0,1.49-.46,8.55,8.55,0,0,0,2.45-1.73,22.51,22.51,0,0,0,3.19-2.18,49.3,49.3,0,0,0,3.74-3.31c1.17-1.14,2.29-2.34,3.38-3.59,0,.08,0,.17,0,.26a3.4,3.4,0,0,0,.72,3,3.21,3.21,0,0,0,2.3,1,7.09,7.09,0,0,0,3.22-.72,11,11,0,0,0,2.69-1.92c.13-.12.24-.26.37-.39l-1.43,3h5.09l3.31-6.86A38.2,38.2,0,0,1,326.67,85a30.67,30.67,0,0,1,2.64-3.1,12.31,12.31,0,0,1,2.14-1.78,3.76,3.76,0,0,1,1.51-.62,1.22,1.22,0,0,1,1,.26,1.33,1.33,0,0,1,.12,1.15,9.89,9.89,0,0,1-.89,2.28q-.72,1.44-2,3.6-1.1,1.82-1.85,3.29a6.59,6.59,0,0,0-.79,2.71,3.27,3.27,0,0,0,.91,2.66,3.31,3.31,0,0,0,2.4,1,6.07,6.07,0,0,0,2.71-.62A11.05,11.05,0,0,0,337.09,94a21.09,21.09,0,0,0,2.45-2.66l.67-.88a6.15,6.15,0,0,0,.53,2.49,5.5,5.5,0,0,0,2.38,2.5,8.46,8.46,0,0,0,4.2.94,13.87,13.87,0,0,0,4.18-.65,17.63,17.63,0,0,0,7.25-4.39c.28-.28.55-.58.81-.88a6.14,6.14,0,0,0,.53,2.48,5.5,5.5,0,0,0,2.38,2.5,8.46,8.46,0,0,0,4.2.94,13.87,13.87,0,0,0,4.18-.65,17.63,17.63,0,0,0,7.25-4.39,16.44,16.44,0,0,0,2-2.46l0,0a22.45,22.45,0,0,0,1.3-2.14q.72-1.32,1.44-2.76t1.32-2.81q.6-1.37.89-2.23a5.49,5.49,0,0,1,2.09-.07,1.19,1.19,0,0,1,1.08,1,2.52,2.52,0,0,1-.17,1.27,10.36,10.36,0,0,1-.77,1.63q-.5.89-1.15,1.92t-1.32,2.18a17.09,17.09,0,0,0-1.42,2.81,9.31,9.31,0,0,0-.65,2.64,4.07,4.07,0,0,0,.38,2.18,3.9,3.9,0,0,0,3.31,1.85,6.38,6.38,0,0,0,1.8-.31,9,9,0,0,0,1.75-.79,8.65,8.65,0,0,0,1.54-1.13,19.47,19.47,0,0,0,2.88-3.14q1.2-1.66,2.26-3ZM366,85.8A21.36,21.36,0,0,1,370.4,80q2.06-1.73,3.12-1.39.67.14.72,1.37a6.35,6.35,0,0,1-1.1,3.19,15.49,15.49,0,0,1-4,4.75,9.29,9.29,0,0,1-4.73,2A15,15,0,0,1,366,85.8Zm-19.34,0A21.36,21.36,0,0,1,351.05,80q2.06-1.73,3.12-1.39.67.14.72,1.37a6.35,6.35,0,0,1-1.1,3.19,15.49,15.49,0,0,1-4,4.75,9.29,9.29,0,0,1-4.73,2A15,15,0,0,1,346.69,85.8Zm-92.3,0A21.36,21.36,0,0,1,258.75,80q2.06-1.73,3.12-1.39.67.14.72,1.37a6.35,6.35,0,0,1-1.1,3.19,15.49,15.49,0,0,1-4,4.75,9.29,9.29,0,0,1-4.73,2A15,15,0,0,1,254.38,85.8Zm43.37,4.63a4.51,4.51,0,0,1-3,1.61,1.59,1.59,0,0,1-1.2-.5,2.09,2.09,0,0,1-.5-1.44,7.16,7.16,0,0,1,.43-2.33A16.09,16.09,0,0,1,295,84.55a12.71,12.71,0,0,1,4.58-5,4.59,4.59,0,0,1,4.49-.14l-3,6A19.85,19.85,0,0,1,297.75,90.43Z" transform="translate(-3.86 -6.13)"/></svg>