<svg xmlns="http://www.w3.org/2000/svg" viewBox="0 0 716.54 87.24"><title>Artboard 1</title><path d="M73,26.56A7.61,7.61,0,0,0,68.83,28a22.45,22.45,0,0,0-4.35,3.9,42.33,42.33,0,0,0-4.29,5.88,66.94,66.94,0,0,0-3.9,7.34,58.3,58.3,0,0,0-3.05,7.74A26,26,0,0,0,52,59.38a9.15,9.15,0,0,0,.73,4.52,3,3,0,0,0,2.88,1.64A7.49,7.49,0,0,0,59.85,64a24.62,24.62,0,0,0,4.46-4.12,41.13,41.13,0,0,0,4.35-6.16,80.33,80.33,0,0,0,4-7.85,54.14,54.14,0,0,0,2.77-7.57,25.89,25.89,0,0,0,1-6.16A8,8,0,0,0,75.67,28,2.85,2.85,0,0,0,73,26.56Z" fill="none" stroke="#000" stroke-miterlimit="10"/><path d="M38.11,59.86a33.44,33.44,0,0,0,3.68-4.47c-.07,3,.72,3.82,1.85,6.08a12.68,12.68,0,0,0,5.08,5.37,16.35,16.35,0,0,0,8.36,2,25.56,25.56,0,0,0,18-7c3.84.15,9.07-1.36,12.79-3.39L73.69,87.24a49.24,49.24,0,0,1,6.89-1.41,27.44,27.44,0,0,1,6.1-.28l30.06-62H125l2.37-4.41h-8.48q.9-2.26,2-4.86a34.94,34.94,0,0,1,2.49-4.75,12.11,12.11,0,0,1,5.2-4.92,7.79,7.79,0,0,1,5.54-.51,6.18,6.18,0,0,0,0,3.33,4,4,0,0,0,1.36,2,3.54,3.54,0,0,0,2,.73,3.3,3.3,0,0,0,2-.51q1.47-1,1-3.45t-3.9-4.35A14.81,14.81,0,0,0,132.84.45a18,18,0,0,0-4-.45,23.73,23.73,0,0,0-4,.34,13.79,13.79,0,0,0-3.45,1,21.65,21.65,0,0,0-8.14,6.44,41.55,41.55,0,0,0-6,11.3h-8L96.74,23.5H105L92.8,48.32a17.07,17.07,0,0,1-6.17,7,16.3,16.3,0,0,1-8.19,3,33.74,33.74,0,0,0,3.45-5.21,47.88,47.88,0,0,0,2.77-6.24,26.9,26.9,0,0,0,1.69-9,15.54,15.54,0,0,0-1.69-7.43,12.46,12.46,0,0,0-5-5,16.54,16.54,0,0,0-8.19-1.87A24.47,24.47,0,0,0,63.07,25a30.41,30.41,0,0,0-7.68,4.12,28,28,0,0,0-6.5,6.38c-3.63,5.17-4.41,9.19-5.6,12.3A33.63,33.63,0,0,1,40.47,52q-1.92,2.49-4.24,5a56,56,0,0,1-4.86,4.63,37,37,0,0,1-5,3.62l-.23-.56q.47-.37,1.25-1.1l.33-.31A4.69,4.69,0,0,0,29.06,61a15.5,15.5,0,0,0,.28-8.14A37.17,37.17,0,0,0,26.8,46q-1.58-3.22-3.05-6.38a12.93,12.93,0,0,1-1.13-6.78,7.62,7.62,0,0,1,2.54-5.59,8.54,8.54,0,0,1,5.37-2.09,7.46,7.46,0,0,0,1.41,2.2A9,9,0,0,0,34,29.15a4.76,4.76,0,0,0,2.2.73,2.71,2.71,0,0,0,2-.73,2.35,2.35,0,0,0,.68-2,4,4,0,0,0-1.07-2.26,8,8,0,0,0-2.71-1.86A10,10,0,0,0,31,22.26a23.42,23.42,0,0,0-11.75,2.49A13.32,13.32,0,0,0,12.78,33a13.21,13.21,0,0,0-.28,7.51,42.93,42.93,0,0,0,2.43,6.61q1.47,3.16,2.71,6.33a12.49,12.49,0,0,1,.68,6.67,9.81,9.81,0,0,1-3.9,6.67,8.19,8.19,0,0,1-7.51,1.13A20.06,20.06,0,0,0,7.19,64a9.12,9.12,0,0,0-.62-3.22,4.39,4.39,0,0,0-1.58-2,2.85,2.85,0,0,0-2.37-.34,3.3,3.3,0,0,0-2,1.53A4.53,4.53,0,0,0,0,62.72,7.83,7.83,0,0,0,1.2,66.1a12.54,12.54,0,0,0,3.33,3.5A16.06,16.06,0,0,0,12,72.15a20,20,0,0,0,8.81-1,20.6,20.6,0,0,0,6.67-3.05A58.1,58.1,0,0,0,38.11,59.86Z" fill="none" stroke="#000" stroke-miterlimit="10"/><path d="M294.12,54.35m-1.29,0-.87,0M139.62,58.75m-1.78-.12" fill="none" stroke="#000" stroke-miterlimit="10"/><path d="M216.18,63.39q3.39-.11,8-5.25a66.19,66.19,0,0,0,9.27-14.29L241,28.59a8.33,8.33,0,0,0-5-.51,16.17,16.17,0,0,0-5.71,2.37,31.23,31.23,0,0,0-5.88,5,45.63,45.63,0,0,0-5.54,7.29,49.38,49.38,0,0,0-4.35,8.53,23.29,23.29,0,0,0-1.58,6.5,7.5,7.5,0,0,0,.68,4.18A2.75,2.75,0,0,0,216.18,63.39Z" fill="none" stroke="#000" stroke-miterlimit="10"/><path d="M185.79,26.39l1.48-3a30,30,0,0,1-6.44,1.81,24,24,0,0,1-6,.34l-5.4,10.9-5.79,11.7q-2.58,4.51-4.86,7.75-.92,1.31-1.8,2.42-3.05,3.84-5.88,3.84-2.26.11-2.6-2.49t2.26-7.57L165,23.41a32.92,32.92,0,0,1-6.16,1.7,29,29,0,0,1-6.16.45L137.93,56.78l-2.86,2.37q-4.3,3.56-6.78,3.56-2,0-1.64-2.66a32.45,32.45,0,0,1,3-8.08l13.9-28.48h8.81l2.37-4.41h-9L150.08,10a.36.36,0,0,0-.5-.48,19.77,19.77,0,0,1-5.61,2,26.85,26.85,0,0,1-6.89.92l-3.25,6.63h-5l-2.49,4.41h5.31L123,41.25q-2.6,5.31-4.92,9.89a28.32,28.32,0,0,0-2.88,8.19q-.79,4.86,1.36,7.18A6.39,6.39,0,0,0,122,68.82c5.88-.63,13.17-6.22,15.58-7.46,0,2,2.49,5.19,3.85,6a9.12,9.12,0,0,0,4.86,1.24,13.11,13.11,0,0,0,7.34-2.32,28.66,28.66,0,0,0,7.12-7.4,10,10,0,0,0,2.88,7.29q2.77,2.66,7.85,2.66a20.15,20.15,0,0,0,8.7-2,34.86,34.86,0,0,0,8.14-5.42c4.29.68,10.18-.59,14.36-2.51.38,2.42,1.61,6,3.31,7.52a9.27,9.27,0,0,0,6.5,2.32,13.64,13.64,0,0,0,8-2.54A26.54,26.54,0,0,0,227,59.33l1.24-1.81h.34l-.87,2.91a6.79,6.79,0,0,0-.29,2.25A5.59,5.59,0,0,0,229,66.84a7.05,7.05,0,0,0,5,2,15.8,15.8,0,0,0,7.06-1.64,27.51,27.51,0,0,0,6.33-4.35,44.61,44.61,0,0,0,5.71-6.33c1.81-2.41,9.38-14.69,10.51-16.95s2.16-4.46,3.11-6.61,1.64-3.9,2.09-5.25a12.94,12.94,0,0,1,4.92-.17,2.81,2.81,0,0,1,2.54,2.43,6,6,0,0,1-.4,3,24.5,24.5,0,0,1-1.81,3.84q-1.19,2.09-2.71,4.52t-3.11,5.14a40.32,40.32,0,0,0-3.33,6.61,21.92,21.92,0,0,0-1.53,6.21,9.59,9.59,0,0,0,.9,5.14,9.18,9.18,0,0,0,7.8,4.35,15,15,0,0,0,4.24-.73,21.1,21.1,0,0,0,4.12-1.86,20.4,20.4,0,0,0,3.62-2.66A71,71,0,0,0,292.35,54c-.05.31-.46,4.13.67,6.58a12.93,12.93,0,0,0,5.59,5.88,19.9,19.9,0,0,0,9.89,2.2,32.65,32.65,0,0,0,9.83-1.53,41.78,41.78,0,0,0,9.15-4.12,35.5,35.5,0,0,0,7.91-6.22c1.35-1.47,3.92-4.68,3.92-6.07l-.44-2.83a.21.21,0,0,0-.4-.07,34.24,34.24,0,0,1-6,7.61A37.39,37.39,0,0,1,324.94,61a34.22,34.22,0,0,1-7.74,3.16,26.91,26.91,0,0,1-6.78,1q-4.07,0-6.1-2.49t-1.58-6.89A36.27,36.27,0,0,0,312.4,55a36.43,36.43,0,0,0,8.93-3.22,30.75,30.75,0,0,0,7.4-5.37,25.87,25.87,0,0,0,5.2-7.18,14.8,14.8,0,0,0,1.58-5.37,10,10,0,0,0-.68-4.8,9.05,9.05,0,0,0-2.88-3.67,10,10,0,0,0-5.14-1.86,26.25,26.25,0,0,0-8,.34,30.5,30.5,0,0,0-8.48,3c-2.83,1.47-9.46,7.87-11.66,10.72s-4.85,8-5.26,10c-1.49,2.12-2.8,3.7-3.93,5.24a58.22,58.22,0,0,1-3.73,4.58,19.35,19.35,0,0,1-2.49,2.49,22.12,22.12,0,0,1-2.66,1.92,7.52,7.52,0,0,1-2.49,1,2.82,2.82,0,0,1-2-.23q-1.81-.79-.23-4.63A113.18,113.18,0,0,1,281,47.69q1.36-2.48,2.66-4.8T286,38.36a20.52,20.52,0,0,0,1.36-4.24,10.77,10.77,0,0,0,.06-4q-1.81-9.6-18.53-6.33h-5.65a6.19,6.19,0,0,0,.45,2.43,2.73,2.73,0,0,0,1.58,1.53Q264.09,31,263,33.5t-2.37,5q-1.24,2.43-2.71,5.08c-.95,1.71-8.29,13.32-11.07,15.65s-5,3.5-6.78,3.5q-4,0,1.36-10.74l13.45-26.44a18.81,18.81,0,0,1-6.95,1.58,12,12,0,0,1-6.38-1.47,17.88,17.88,0,0,0-7.74-2.09,19.5,19.5,0,0,0-8.42,1.64,32.3,32.3,0,0,0-8.53,5.48A47.81,47.81,0,0,0,208.72,40a36.81,36.81,0,0,0-5.2,11,21.09,21.09,0,0,0-.79,4.18c-3.24,1.88-7.85,3.37-10.94,2.85a52.69,52.69,0,0,0,6.78-8.93,57.73,57.73,0,0,0,4.75-9.72,35.82,35.82,0,0,0,1.86-7.51,10.89,10.89,0,0,0-.51-5.48,4.74,4.74,0,0,0-3.05-2.82,10,10,0,0,0-5.65.34,62.07,62.07,0,0,1-1.53,7.63,56.77,56.77,0,0,1-2.54,7.63,78.67,78.67,0,0,1-5.14,10.74,71.63,71.63,0,0,1-5.65,8.47,25.61,25.61,0,0,1-5.31,5.25q-2.54,1.75-4.12,1.19-1.92-.45-2-3.11t3.22-9.32l11.7-23.58ZM307,43.73a35.34,35.34,0,0,0-3.84,9.6,21.85,21.85,0,0,0,11.13-4.63,36.47,36.47,0,0,0,9.44-11.19q2.71-4.63,2.6-7.51t-1.69-3.22q-2.49-.79-7.35,3.28T307,43.73Z" fill="none" stroke="#000" stroke-miterlimit="10"/><path d="M381.5,43.73a35.38,35.38,0,0,0-3.84,9.6,21.85,21.85,0,0,0,11.13-4.63,36.46,36.46,0,0,0,9.44-11.19q2.71-4.63,2.6-7.51t-1.7-3.22q-2.49-.79-7.34,3.28T381.5,43.73Z" fill="none" stroke="#000" stroke-miterlimit="10"/><path d="M476.41,58.42q3.39,0,7.18-3.79t7.85-11.92l7-14q-5-2.6-10.57.34T477.09,40.79a37.81,37.81,0,0,0-3.67,7.57,16.81,16.81,0,0,0-1,5.48,4.91,4.91,0,0,0,1.19,3.39A3.74,3.74,0,0,0,476.41,58.42Z" fill="none" stroke="#000" stroke-miterlimit="10"/><path d="M541.5,12a8.14,8.14,0,0,1-4.69,4.12,7.53,7.53,0,0,1-5.93-.28,7.29,7.29,0,0,1-3.9-4.41,7.09,7.09,0,0,1,.85-5.76,7.56,7.56,0,0,1,4.69-3.84,8.07,8.07,0,0,1,5.93.45,7.41,7.41,0,0,1,3.67,4.35A6.58,6.58,0,0,1,541.5,12Z" fill="none" stroke="#000" stroke-miterlimit="10"/><path d="M585.12,47.66,461.6,48.74c-3.07,5.64-6.66,10.8-13,13.65-.84.38-1.9.67-2.61.09-2.45-2,3.38-11,4.53-13,2.61-4.64,5.5-9.19,7.19-14.27,1.24-3.73,1.71-8.27-2.58-10.71a9.18,9.18,0,0,0-4.9-1.08c-8.5.33-15.2,6.33-21.16,12.14a53.45,53.45,0,0,0,7.51-11.94,35.81,35.81,0,0,1-10.94,1.66,3.33,3.33,0,0,0-1.74.29,3.1,3.1,0,0,0-1,1.29c-4.5,8.47-7.13,18-13.13,25.5A35.05,35.05,0,0,1,387.33,65c-2.9.39-6.22.26-8.25-1.85-1.81-1.88-2-4.78-1.79-7.38a34.59,34.59,0,0,0,27.88-11.68,19.33,19.33,0,0,0,4.56-8.31,10.45,10.45,0,0,0-2-9c-2.71-3.11-7.3-3.79-11.41-3.38-10.86,1.08-20.48,8.41-26.08,17.78a26.66,26.66,0,0,0-4,11.56A15,15,0,0,0,370,64.11c3.62,3.77,9.3,4.79,14.52,4.49a37.37,37.37,0,0,0,23.36-10.1L403.78,67a1.12,1.12,0,0,0,1,1.6c2.82.13,9.85.37,10.76.22,2.65-.45,2.33-1,4.51-8.85a74.64,74.64,0,0,1,3.1-9.67c1.76-4.49,6-9.47,7.78-11.49A58.06,58.06,0,0,1,438.6,32a15,15,0,0,1,5.83-3.22,2.87,2.87,0,0,1,2.37.62q.68.74.28,2.71A23.31,23.31,0,0,1,445,37.52C441.75,44,436.82,50,434.69,57c-1.05,3.46-.6,7.86,2.44,10.21,4.6,3.55,10.18,1,14.3-2a120.79,120.79,0,0,0,10.26-9.54.74.74,0,0,1,1.23.25c1.67,4.22,5.3,8.23,10.79,7.69,3.94-.39,7.5-2.63,10.29-5.44a2.61,2.61,0,0,1,1.37-.94,46.33,46.33,0,0,1-3.15,5.86c-2.87,4.79-4.37,8.56-7.37,13-1.81,2.68-4.9,5.62-8.36,5.71-3.88.09-2.73-3.06-3.45-5.71a4.71,4.71,0,0,0-2-2.77c-3.16-2-5.63,1.1-4.8,4.17,1.63,6,9.29,8.63,14.88,8,3.64-.4,8.75-2.79,11.62-5S487,77.23,489.8,75,504,62.78,506.47,59.33q-.68,4.86,1.69,7.18a7.55,7.55,0,0,0,5.42,2.32,16.69,16.69,0,0,0,7.57-1.69,32,32,0,0,0,7.15-5.33L525,68.7h7.38c1.17,0,4.36-.19,4.36-.19s2.31-4.16,3-5.67a141.45,141.45,0,0,1,8.93-16.92,70.77,70.77,0,0,1,10.49-12.64c2-1.89,4.13-3.7,6.8-4.44a2.87,2.87,0,0,1,2.16.18c1.54.86,1.23,2.57.78,3.94-2.91,8.8-9.64,15.88-12.48,24.78a9.31,9.31,0,0,0-.2,5.22c1.75,6.52,9.36,6.55,14,4.27a26,26,0,0,0,5.93-4.12A49.51,49.51,0,0,0,582,56.84l1.88-2.41c-.15,2.78,0,6.4,3.16,9.48,4,3.92,9.27,4.8,13.26,4.8a32.65,32.65,0,0,0,9.83-1.53,42.23,42.23,0,0,0,9.15-4.12A50.79,50.79,0,0,0,629,54.9a14,14,0,0,0,1,5.42c2.73,6.41,10,8.49,16.46,8.34a35.31,35.31,0,0,0,17.11-4.91C675,57,681.58,44.57,687.06,32.54a13.21,13.21,0,0,1,2.58-4.2,4.41,4.41,0,0,1,4.54-1.19,4.33,4.33,0,0,1,2.35,4.22,11.11,11.11,0,0,1-1.68,4.82c-3.41,6.16-8,11.78-10.15,18.47-1.46,4.47-1.64,10,3.13,12.77a9.25,9.25,0,0,0,4.26,1.22,18.27,18.27,0,0,0,12-3.78c5.14-4,8.53-10.17,10.61-13.93a1,1,0,0,0,.06-.84L714,48.23a.43.43,0,0,0-.78-.07c-3.39,5.64-6.52,9.51-11.88,13.33-.93.66-3.62,1.85-4.6,1.26-1.44-.87-1.15-2.58-.71-3.95,2.66-8.18,8.66-15,11.11-23.22a11,11,0,0,0,.27-6.73C706,24.74,701,23,696.68,23.07s-8.71,1.3-13,.73a3.19,3.19,0,0,0,.6,2.7,3.39,3.39,0,0,1,.79,1.12,2.17,2.17,0,0,1-.12,1.17c-4.79,16.18-17.21,35.4-35.86,36.32-5.88.29-9.47-3-9.06-8.86a.39.39,0,0,1,.4-.36c1.53,0,7.5-.55,8.17-.68,8.58-1.65,17.55-6.72,22.05-14.49a15.39,15.39,0,0,0,2.22-8.35,9.24,9.24,0,0,0-3.23-6.79,11.39,11.39,0,0,0-6-2.15c-9.37-1-19.17,3.94-25.34,10.77-3.12,3.45-7.24,8.32-7.69,13.16A35.77,35.77,0,0,1,604.48,65c-6.33.83-10.66-2.63-10-9.21,11.1.52,22.23-4.09,29.13-13a17.59,17.59,0,0,0,3.43-7.51c3.16-17-20-11.9-28.25-6.6C592.47,32.74,589,39.39,585.45,46c-3.29,6.14-8.16,12.46-13.68,16a3.45,3.45,0,0,1-3,.75,2.44,2.44,0,0,1-1.34-2.46,7.15,7.15,0,0,1,1-2.8l7.72-14.79c2.32-4.45,5.54-8.66,4.19-13.92q-1.25-4.86-6.55-5.42-4.41-.45-10.51,2.43t-12,10l-.34-.57,4.75-5.76,2.94-6q-3.28.91-6.84,1.53a17.5,17.5,0,0,1-6,.17L535.32,47.28l-.07.14q-4.84,8.31-8.78,11.8t-6.55,3.5q-4.18,0,.9-10.74L534.95,23.5a27.71,27.71,0,0,1-6.55,1.81,27.65,27.65,0,0,1-6.44.34l-7.8,15.59c-1.28,2.62-2.36,5.29-3.88,7.8a77.55,77.55,0,0,1-9.39,11.86q-3.11,3.39-6.55,6.5T487.71,73l4.18-7.57,18.42-35.92a17.68,17.68,0,0,0,1.75-3.72,17.32,17.32,0,0,1-11.38.28c-3.11-.9-6.19-2-9.42-2.32-6.45-.62-12.93,2.14-17.77,6.45C468,35.13,465.14,42.25,461.6,48.74Zm137.19-5a35.38,35.38,0,0,0-3.84,9.6,21.85,21.85,0,0,0,11.13-4.63,36.46,36.46,0,0,0,9.44-11.19q2.71-4.63,2.6-7.51t-1.7-3.22q-2.49-.79-7.34,3.28T598.79,43.73Z" fill="none" stroke="#000" stroke-miterlimit="10"/><path d="M644.33,43.73a35.38,35.38,0,0,0-3.84,9.6,21.85,21.85,0,0,0,11.13-4.63,36.46,36.46,0,0,0,9.44-11.19q2.71-4.63,2.6-7.51T662,26.78q-2.49-.79-7.34,3.28T644.33,43.73Z" fill="none" stroke="#000" stroke-miterlimit="10"/></svg>