<svg xmlns="http://www.w3.org/2000/svg" viewBox="0 0 480.55 176.68"><title>title</title><path d="M228.55,131.61a13.78,13.78,0,0,0,1.84-2.3l.24-.38a5.11,5.11,0,0,0,.33,1.8,3.86,3.86,0,0,0,1.51,1.84,4.8,4.8,0,0,0,2.67.7,7.74,7.74,0,0,0,2.66-.47,10.6,10.6,0,0,0,2.48-1.28c.77-.54,0-1.08-.69-.64a8.58,8.58,0,0,1-2.09,1,6.37,6.37,0,0,1-1.83.31,1.89,1.89,0,0,1-1.65-.78,3.17,3.17,0,0,1-.42-2.15,8.52,8.52,0,0,0,2.61-.26,9,9,0,0,0,2.41-1,8.46,8.46,0,0,0,2-1.67,8.13,8.13,0,0,0,1.41-2.24,5.16,5.16,0,0,0,.43-1.67,3.58,3.58,0,0,0-.18-1.5,2.81,2.81,0,0,0-.78-1.15,2.49,2.49,0,0,0-1.39-.59,6.16,6.16,0,0,0-2.15.1,7.54,7.54,0,0,0-2.29.93,9.78,9.78,0,0,0-2.2,1.84,11.7,11.7,0,0,0-1.85,2.82,11,11,0,0,0-.75,2.09l-.85,1.35q-.46.72-1,1.43a5.7,5.7,0,0,1-.67.77,6.12,6.12,0,0,1-.72.6,1.9,1.9,0,0,1-.67.32.67.67,0,0,1-.53-.07q-.49-.25-.06-1.45t1.38-3.21l.72-1.5q.35-.72.61-1.41a7.12,7.12,0,0,0,.37-1.32,3.87,3.87,0,0,0,0-1.23q-.48-3-5-2h-1.53a2.2,2.2,0,0,0,.12.76.8.8,0,0,0,.43.48q-.31,1-.62,1.78t-.65,1.55q-.34.76-.74,1.59l-.63,1.33a13.82,13.82,0,0,1-2.37,3.54,3.11,3.11,0,0,1-1.83,1.09q-1.07,0,.38-3.35l3.66-8.24a4.51,4.51,0,0,1-1.88.49,2.9,2.9,0,0,1-1.72-.46,4.34,4.34,0,0,0-2.09-.66,4.66,4.66,0,0,0-2.28.5,8.67,8.67,0,0,0-2.31,1.7,14.48,14.48,0,0,0-2.19,2.9,13.38,13.38,0,0,0-1.2,2.63,6.21,6.21,0,0,1-2,2.37,3.35,3.35,0,0,1-2.57.63,16.46,16.46,0,0,0,1.84-2.78,19.32,19.32,0,0,0,1.29-3,12.64,12.64,0,0,0,.51-2.34,3.9,3.9,0,0,0-.13-1.71,1.38,1.38,0,0,0-.82-.88,2.35,2.35,0,0,0-1.53.1,22.08,22.08,0,0,1-.42,2.38,19.7,19.7,0,0,1-.69,2.38,26.41,26.41,0,0,1-1.4,3.35,22.87,22.87,0,0,1-1.53,2.64,7.51,7.51,0,0,1-1.44,1.64q-.69.55-1.12.37t-.53-1a8.68,8.68,0,0,1,.88-2.91l3.9-9a7.29,7.29,0,0,1-1.74.56,5.64,5.64,0,0,1-1.62.1l-3,7a26.31,26.31,0,0,1-1.81,3.17q-.83,1.2-1.59,1.19-.61,0-.7-.78a5,5,0,0,1,.62-2.36l3.87-8.95a8,8,0,0,1-1.67.52,6.81,6.81,0,0,1-1.66.14l-3.24,7.5a12,12,0,0,1-2.07,2.94,3.21,3.21,0,0,1-1.84,1.11q-.55,0-.44-.83a11.18,11.18,0,0,1,.82-2.52l3.78-8.88h2.38l.64-1.37H189.5l1.9-4.4a7.09,7.09,0,0,1-1.74.54,8,8,0,0,1-.84.11,2,2,0,0,0,0-.29,2.14,2.14,0,0,0-1-1.36,3.68,3.68,0,0,0-1-.43,4.25,4.25,0,0,0-1.08-.14,5.55,5.55,0,0,0-1.08.1,3.36,3.36,0,0,0-.93.31,5.16,5.16,0,0,0-2.14,2.11,35.4,35.4,0,0,0-1.75,3.59l-3.9,9.07a6.39,6.39,0,0,1-1.7,2.1,3.73,3.73,0,0,1-2.28.87,10.8,10.8,0,0,0,.94-1.62,16.18,16.18,0,0,0,.75-1.94,9.56,9.56,0,0,0,.47-2.81,5.48,5.48,0,0,0-.45-2.32,3.68,3.68,0,0,0-1.35-1.58,4,4,0,0,0-2.21-.59,5.82,5.82,0,0,0-2.26.45,7.91,7.91,0,0,0-2.08,1.28,9.54,9.54,0,0,0-1.76,2,11,11,0,0,0-1.27,2.61,10.19,10.19,0,0,0-.59,3,5.86,5.86,0,0,0,.42,2.47,3.79,3.79,0,0,0,1.37,1.68,4,4,0,0,0,2.26.62,6.52,6.52,0,0,0,4.89-2.17,5.48,5.48,0,0,0,3.12-.84,5.29,5.29,0,0,0,.53-.38l-3.94,9.15a11.72,11.72,0,0,1,1.86-.44,6.45,6.45,0,0,1,1.65-.08l4.89-11.59h3.29l-.38.86a9.77,9.77,0,0,0-.79,2.56,2.89,2.89,0,0,0,.36,2.24,1.8,1.8,0,0,0,1.46.73,4,4,0,0,0,2.11-.57,8,8,0,0,0,1.81-1.48c.29-.32.57-.66.84-1a3.63,3.63,0,0,0,.2,1.58,2.34,2.34,0,0,0,.82,1.08,2.22,2.22,0,0,0,1.31.39,3.22,3.22,0,0,0,2-.72,8.49,8.49,0,0,0,1.93-2.3,3.38,3.38,0,0,0,.77,2.28,2.71,2.71,0,0,0,2.12.84,4.85,4.85,0,0,0,2.35-.63,9.42,9.42,0,0,0,2.2-1.69,5.17,5.17,0,0,0,3.44-.57,5.83,5.83,0,0,0,1.64-1.33,6.75,6.75,0,0,0,0,1.49,3.43,3.43,0,0,0,.85,2,2.32,2.32,0,0,0,1.75.73,3.36,3.36,0,0,0,2.17-.79,7.88,7.88,0,0,0,1.78-2.13l.34-.56h.09l-.46,1.2a2.44,2.44,0,0,0,.56,1.71,1.78,1.78,0,0,0,1.36.62,3.8,3.8,0,0,0,1.91-.51,7.49,7.49,0,0,0,1.71-1.35,13.44,13.44,0,0,0,1.55-2c.36-.55.72-1.12,1.07-1.71l0,0a17,17,0,0,0,.83-1.57q.46-1,.92-2t.85-2.06q.38-1,.57-1.64a3,3,0,0,1,1.33,0,.82.82,0,0,1,.69.76,2.13,2.13,0,0,1-.11.93,8.28,8.28,0,0,1-.49,1.2q-.32.65-.74,1.41t-.84,1.6a13.45,13.45,0,0,0-.91,2.06,7.74,7.74,0,0,0-.42,1.94,3.4,3.4,0,0,0,.24,1.61,2.19,2.19,0,0,0,1.07,1.1,1.83,1.83,0,0,0,1,.27,3.56,3.56,0,0,0,1.15-.23,5.37,5.37,0,0,0,1.12-.58A5.63,5.63,0,0,0,228.55,131.61Zm6.15-6.15a15.64,15.64,0,0,1,2.79-4.26q1.32-1.27,2-1,.43.11.46,1a5.18,5.18,0,0,1-.71,2.34,11.12,11.12,0,0,1-2.56,3.48,5.5,5.5,0,0,1-3,1.44A12.07,12.07,0,0,1,234.7,125.46ZM171,123.56a18.72,18.72,0,0,1-.75,2.36s0,0,0,0,0,0,0,0a.38.38,0,0,0-.18,0,1.51,1.51,0,0,0-1.22.6,2.17,2.17,0,0,0-.49,1.41,2.4,2.4,0,0,0,.36,1.27,9.42,9.42,0,0,1-1.56,2.06,2.26,2.26,0,0,1-1.5.75.79.79,0,0,1-.78-.51,3.25,3.25,0,0,1-.19-1.41,9.24,9.24,0,0,1,.34-2,20,20,0,0,1,.83-2.41,22.09,22.09,0,0,1,1.06-2.29,13.33,13.33,0,0,1,1.16-1.83,6.45,6.45,0,0,1,1.18-1.21,1.88,1.88,0,0,1,1.13-.44.76.76,0,0,1,.72.46,2.82,2.82,0,0,1,.21,1.29A9.26,9.26,0,0,1,171,123.56Zm11.89,1.8h-3.3l3.19-7.4q.46-1.13.94-2.18a11.69,11.69,0,0,1,1-1.8,3.51,3.51,0,0,1,1.07-1.07,1.2,1.2,0,0,1,1.24,0,2.22,2.22,0,0,0,0,1,1.28,1.28,0,0,0,.36.62l.1.06-1.27,3h-1.34l-.68,1.37h1.44l-2.37,5.53Zm27.22,6.16a.73.73,0,0,1-.69-.46,1.54,1.54,0,0,1-.11-.31,3.36,3.36,0,0,1-.07-1,8.22,8.22,0,0,1,.43-2,16.46,16.46,0,0,1,1.18-2.66,14.23,14.23,0,0,1,1.5-2.27,8.87,8.87,0,0,1,1.59-1.55,4.07,4.07,0,0,1,1.54-.74,2,2,0,0,1,1.36.16C216.33,123.08,212.1,131.17,210.13,131.52Z" fill="none"/><path d="M155,92.26a38.41,38.41,0,0,0,4.48,1.47,11.82,11.82,0,0,0,3.43.42,5.36,5.36,0,0,0,2.6-.77A3.77,3.77,0,0,0,167.61,91a22.72,22.72,0,0,0,.16-5.42.32.32,0,0,0-.6-.18A10.64,10.64,0,0,1,164,88.59a7.6,7.6,0,0,1-3.32,1.26,13.7,13.7,0,0,1-4.51-.26,41.54,41.54,0,0,1-6-1.77,35.48,35.48,0,0,0-5.46-1.58,21.24,21.24,0,0,0,1.34-2.1q.63-1.13,1.15-2.32l9.4-21.52q-1.22.21-2.62.34a12.74,12.74,0,0,1-2.48,0L147,71l0,.05a23.85,23.85,0,0,1-1.83,2.77,15.72,15.72,0,0,1-1.83,2A7.94,7.94,0,0,1,141.64,77a2.18,2.18,0,0,1-1.19.32q-.94-.11-.93-1.24a11.43,11.43,0,0,1,1-3.67l5.22-12.13a11.86,11.86,0,0,1-2.78.85,9.45,9.45,0,0,1-2.59.15l-4.7,10.95-.08.19a19.83,19.83,0,0,1-3.35,4.88q-1.73,1.67-2.81,1.66-1.64,0,.57-5.13l5.59-12.62a6.91,6.91,0,0,1-2.88.75,4.44,4.44,0,0,1-2.64-.71,6.64,6.64,0,0,0-3.2-1,7.14,7.14,0,0,0-3.48.77,13.29,13.29,0,0,0-3.54,2.61A22.2,22.2,0,0,0,116.54,68a18.91,18.91,0,0,0-2.16,5.23,12.45,12.45,0,0,0-.32,4.37,6.32,6.32,0,0,0,.47,1.73c-1,.42-3.8,1.39-4.47.12a3.75,3.75,0,0,1,0-1.78,29.4,29.4,0,0,1,.55-3.1,22.09,22.09,0,0,0,.6-4.4,6.76,6.76,0,0,0-.62-3.16,4.16,4.16,0,0,0-3.36-2.39l-.28-.27,2.24,0a9,9,0,0,0,3.77-1.85,9.89,9.89,0,0,0,2.75-4.34c.53-1.55,1.94-5.74,2.62-7,.83-1.54,3-3.55,3.58-3.62a6.38,6.38,0,0,0-2.94-.55,5.44,5.44,0,0,0-3.13,1.12,5.8,5.8,0,0,0-1.48,1.53,15,15,0,0,0-1.13,2q-.49,1.05-.89,2.13t-.78,2a24,24,0,0,1-1.71,3.45,8.35,8.35,0,0,1-1.9,2.21,5.8,5.8,0,0,1-2.29,1.1,8,8,0,0,1-2.9.07l5.74-13.44a12.72,12.72,0,0,1-5.32.75s-1.17,2.9-1.61,3.94L89.58,82.49a22.16,22.16,0,0,1,2.76-.64,9.59,9.59,0,0,1,2.57-.15l7.2-17.58q5.75.24,3.77,7.63a23.83,23.83,0,0,0-1,5.72,5.76,5.76,0,0,0,.79,3.24A3.59,3.59,0,0,0,108,82.14c2.74.71,6.19-.7,6.9-2a4.27,4.27,0,0,0,.44.56,3.62,3.62,0,0,0,3,1.11,5.5,5.5,0,0,0,3.24-1.39,12.36,12.36,0,0,0,2.49-3.06l.52-.86h.14L124,78.28a3.73,3.73,0,0,0,.86,2.62,2.72,2.72,0,0,0,2.08,1,5.82,5.82,0,0,0,2.92-.77A11.46,11.46,0,0,0,132.52,79a20.31,20.31,0,0,0,2.19-2.76A5.26,5.26,0,0,0,135,78a3.37,3.37,0,0,0,1.19,1.65,3.21,3.21,0,0,0,1.94.6,6.46,6.46,0,0,0,3.48-1.15,15.56,15.56,0,0,0,4-3.69h.19l-1.31,2-2.82,6.63q-.14.27-.35.75a4.58,4.58,0,0,1-.59,1,10.07,10.07,0,0,0-2.24.32,3.93,3.93,0,0,0-1.64.86,2,2,0,0,0-.73,1.43,1.47,1.47,0,0,0,.6,1.27,2.94,2.94,0,0,0,1.82.49,6.82,6.82,0,0,0,3-.91,12.85,12.85,0,0,0,1.92-1.56,19.89,19.89,0,0,1,2.71.85l3.13,1.22Q152.47,91.28,155,92.26ZM126.71,69.92a32.45,32.45,0,0,1-3.85,6.82q-1.92,2.45-3.33,2.5a1.12,1.12,0,0,1-1-.71,4.07,4.07,0,0,1-.28-2,12.58,12.58,0,0,1,.66-3.1,25.1,25.1,0,0,1,1.81-4.07,21.72,21.72,0,0,1,2.3-3.48,13.58,13.58,0,0,1,2.44-2.37,6.22,6.22,0,0,1,2.36-1.13,3,3,0,0,1,2.08.25Z" fill="none"/><path d="M164.28,117a5.39,5.39,0,0,0,.48-1.67,4.68,4.68,0,0,0-.12-1.76,4.21,4.21,0,0,0-.84-1.61,4.63,4.63,0,0,0-1.71-1.24,5.77,5.77,0,0,0-2.09-.45,5.11,5.11,0,0,0-2,.36,5.67,5.67,0,0,0-1.76,1.12,5.58,5.58,0,0,0-1.29,1.83,8.38,8.38,0,0,0-.7,4.23,10.53,10.53,0,0,0,1.77,4.73,16.54,16.54,0,0,1,1,1.84,7.13,7.13,0,0,1,.58,1.84,5.66,5.66,0,0,1,0,1.85,5.24,5.24,0,0,1-.71,1.85,4.7,4.7,0,0,1-1.26,1.37,4.59,4.59,0,0,1-1.56.74,4,4,0,0,1-1.66.07,3.49,3.49,0,0,1-1.54-.68,4,4,0,0,1-1.2-1.31,5.31,5.31,0,0,1-.61-1.7,7,7,0,0,1-.07-1.91,9.08,9.08,0,0,1,.4-1.94,10.21,10.21,0,0,1,1.26-2.64,6.17,6.17,0,0,1,1.71-1.69,2,2,0,0,0-1.23-.87,2.63,2.63,0,0,0-1.51,0,3.92,3.92,0,0,0-1.87,1.53,8,8,0,0,0-1.29,3,9.42,9.42,0,0,0-.22,2.26,7.41,7.41,0,0,0,.39,2.21,7.22,7.22,0,0,0,1.08,2,7.83,7.83,0,0,0,1.84,1.73,5.74,5.74,0,0,0,2.12.87,7.27,7.27,0,0,0,2.37.08,7.17,7.17,0,0,0,2.31-.72,6.08,6.08,0,0,0,1.94-1.55,8.94,8.94,0,0,0,1.49-2.25,7.63,7.63,0,0,0,.68-2.59,8.37,8.37,0,0,0-.25-2.77,8.86,8.86,0,0,0-1.31-2.79,9.66,9.66,0,0,1-1.65-3.69,6.11,6.11,0,0,1,.21-3.09,3.84,3.84,0,0,1,.8-1.32,3,3,0,0,1,1.06-.74,2.79,2.79,0,0,1,1.15-.21,2.07,2.07,0,0,1,1,.3,1.76,1.76,0,0,1,.87,1.5,4.45,4.45,0,0,1-.36,2.06,4.38,4.38,0,0,1-1.81,2.15,1.92,1.92,0,0,0,.72,1.06,1.69,1.69,0,0,0,1.1.32,2.37,2.37,0,0,0,1.22-.47A3.33,3.33,0,0,0,164.28,117Z" fill="none"/><path d="M267,81.51a2.74,2.74,0,0,1-2.81.37,11.09,11.09,0,0,0,.12-1.86,5,5,0,0,0-.25-1.54,2.08,2.08,0,0,0-.65-1,1,1,0,0,0-1-.17,1.41,1.41,0,0,0-.82.73,2.44,2.44,0,0,0-.26,1.32,4.15,4.15,0,0,0,.49,1.62,5.74,5.74,0,0,0,1.37,1.68A5.83,5.83,0,0,0,266,84a5.94,5.94,0,0,0,3-.29,7.11,7.11,0,0,0,2.69-1.8,7.58,7.58,0,0,0,1.78-3.26,7.71,7.71,0,0,0,.15-3.83,19.12,19.12,0,0,0-1.11-3.3q-.7-1.57-1.32-3.08a6.85,6.85,0,0,1-.48-3.24,3.9,3.9,0,0,1,1.06-2.67,3.28,3.28,0,0,1,2.22-1,3.67,3.67,0,0,0,.58,1.05,3.91,3.91,0,0,0,.86.84,1.8,1.8,0,0,0,.91.35,1,1,0,0,0,.82-.35,1.23,1.23,0,0,0,.28-.94,2,2,0,0,0-.44-1.08,3.37,3.37,0,0,0-1.12-.89,3.65,3.65,0,0,0-1.7-.38,8.19,8.19,0,0,0-4.86,1.14,6.4,6.4,0,0,0-2.67,4,7.31,7.31,0,0,0-.06,3.75,28.63,28.63,0,0,0,1.11,3.38q.65,1.62,1.11,3.19a5.74,5.74,0,0,1,0,3.24A5.05,5.05,0,0,1,267,81.51Z" fill="none"/><path d="M297.2,138.14a4.68,4.68,0,0,1-2.17.8,9.64,9.64,0,0,1-2.95-.17,25.41,25.41,0,0,1-3.92-1.14,27.11,27.11,0,0,0-2.68-.86,9.4,9.4,0,0,0,1.23-1.74q.58-1,1.29-2.62L293.55,120a5.16,5.16,0,0,1-1.89.51,3,3,0,0,1-1.77-.48,4.8,4.8,0,0,0-4.32-.3,7.37,7.37,0,0,0-2.26,1.49,11.61,11.61,0,0,0-2.07,2.66,9.48,9.48,0,0,0-1.18,3c0,.08,0,.15,0,.23-.25.45-.53.9-.83,1.36A14.49,14.49,0,0,1,278,130a8.94,8.94,0,0,1-1.15,1.13,1.65,1.65,0,0,1-1,.44.39.39,0,0,1-.43-.41,3.1,3.1,0,0,1,.2-1.11,14.55,14.55,0,0,1,.69-1.67q.46-1,1-2.13.83-1.73,1.31-3a4,4,0,0,0,.23-2.33,2,2,0,0,0-1.77-1.7,4.91,4.91,0,0,0-2.84.75,10.18,10.18,0,0,0-3.24,3.11l-.09-.18,1.29-1.8.8-1.87a17.32,17.32,0,0,1-1.85.47,4.1,4.1,0,0,1-1.63,0l-3.56,8.54c-.87.73-2,1.64-2.29,1.83a8.75,8.75,0,0,1-1.5.82,10.38,10.38,0,0,1-1.67.56,5.78,5.78,0,0,1-1.65.17,4,4,0,0,1-2-.55,3.79,3.79,0,0,1-1.31-1.31,4.21,4.21,0,0,1-.56-1.8,4.7,4.7,0,0,1,.28-2,7,7,0,0,1,3.63-4.26,10.43,10.43,0,0,1,2.8-.91,16,16,0,0,1,3.24-.24l-.64-.78a4.27,4.27,0,0,1-1.52-1,4.2,4.2,0,0,1-.91-1.36,4.47,4.47,0,0,1-.33-1.55,4.89,4.89,0,0,1,.19-1.55,4.76,4.76,0,0,1,.84-1.67,3.71,3.71,0,0,1,1.15-1,2.51,2.51,0,0,1,2.38,0,1.76,1.76,0,0,1,.87,1.47,4.69,4.69,0,0,1-.36,2.2,5.28,5.28,0,0,1-1.72,2.22,1.69,1.69,0,0,0,.78.85,2,2,0,0,0,1.22.25,2.56,2.56,0,0,0,1.33-.61,4.08,4.08,0,0,0,1.13-1.71,4.34,4.34,0,0,0,.29-1.67,4.71,4.71,0,0,0-.33-1.69,4.06,4.06,0,0,0-1-1.41,3.83,3.83,0,0,0-1.65-.91,9.63,9.63,0,0,0-2.66-.33,6.85,6.85,0,0,0-2.35.45,5.16,5.16,0,0,0-1.85,1.23,4.93,4.93,0,0,0-1.15,2,4.17,4.17,0,0,0-.23,1.46,5.58,5.58,0,0,0,.21,1.45,4.65,4.65,0,0,0,.58,1.27,7.77,7.77,0,0,0,1.51,1.45,25.1,25.1,0,0,0-2.81.38,9,9,0,0,0-2.49,1.05,8.5,8.5,0,0,0-2.11,1.84,7.91,7.91,0,0,0-1.43,2.64,6.5,6.5,0,0,0-.27,3,5.42,5.42,0,0,0,1.08,2.54,5.54,5.54,0,0,0,2.3,1.7,7.15,7.15,0,0,0,3.4.43,7.57,7.57,0,0,0,1.89-.31,11.91,11.91,0,0,0,1.79-.68,10,10,0,0,0,1.54-.91c.19-.14.81-.63,1.51-1.2l-1.3,3.12h3.24l2.12-5a29,29,0,0,1,1.87-3.36,22,22,0,0,1,1.69-2.27,8.2,8.2,0,0,1,1.36-1.3,2.22,2.22,0,0,1,1-.46.71.71,0,0,1,.64.2,1.11,1.11,0,0,1,.07.85,8,8,0,0,1-.57,1.67q-.46,1.06-1.29,2.64-.71,1.34-1.18,2.41a5.42,5.42,0,0,0-.51,2,2.64,2.64,0,0,0,.57,2,2,2,0,0,0,1.53.73,3.44,3.44,0,0,0,1.73-.45,7.09,7.09,0,0,0,1.61-1.28,14.84,14.84,0,0,0,1.56-2l.58-.87a4.93,4.93,0,0,0,.08.55,3.26,3.26,0,0,0,.91,1.75,2.5,2.5,0,0,0,1.69.69,2.88,2.88,0,0,0,1.74-.4,5.77,5.77,0,0,0,1.41-1.18l.43-.46h.12L284,134.55q-.28.6-.54,1a5.18,5.18,0,0,1-.54.76,6.86,6.86,0,0,0-2,.12,2.86,2.86,0,0,0-1.38.68.92.92,0,0,0-.35.76.85.85,0,0,0,.46.62,2.58,2.58,0,0,0,1.13.3,4.71,4.71,0,0,0,1.67-.22,4.2,4.2,0,0,0,.69-.21l.66-.28a2.09,2.09,0,0,0,.31-.18l.31-.21q.7.21,1.48.53l1.63.68q2.13,1,3.78,1.6a25.08,25.08,0,0,0,2.93,1,7.73,7.73,0,0,0,2.24.27,3.5,3.5,0,0,0,1.7-.51,3,3,0,0,0,1.38-1.53,13.49,13.49,0,0,0,.37-4.26A15.68,15.68,0,0,1,297.2,138.14ZM285.7,129a2.76,2.76,0,0,1-1.94,1.18,1,1,0,0,1-.76-.37,1.68,1.68,0,0,1-.32-1.06,6,6,0,0,1,.28-1.71,12.67,12.67,0,0,1,1-2.36,8.93,8.93,0,0,1,2.93-3.66,2.58,2.58,0,0,1,2.86-.1l-1.9,4.37A14.88,14.88,0,0,1,285.7,129Z" fill="none"/><path d="M154.09,77.41a5.85,5.85,0,0,0,0,2,3.48,3.48,0,0,0,.63,1.41,2.9,2.9,0,0,0,1.1.87,3.24,3.24,0,0,0,1.35.3,5.59,5.59,0,0,0,2.85-.75,10.69,10.69,0,0,0,2.51-2,22.71,22.71,0,0,0,2.32-3l.16-.24a10,10,0,0,0,.05,1.92,5.25,5.25,0,0,0,1.3,3,3.54,3.54,0,0,0,2.68,1.12,5.14,5.14,0,0,0,3.32-1.2,12.06,12.06,0,0,0,2.72-3.26l.52-.86h.14l-.71,1.83a3.24,3.24,0,0,0,.86,2.62c2.1,1.64,4.54.23,5.78-.6,1.53-1,2.87-2.52,2.58-3-.42-.72-3.08,1.67-3.8,1.67q-1.64,0,.57-5.13l5.59-12.62a6.91,6.91,0,0,1-2.88.75,4.44,4.44,0,0,1-2.64-.71,6.64,6.64,0,0,0-3.2-1,7.13,7.13,0,0,0-3.48.77,13.29,13.29,0,0,0-3.54,2.61,22.2,22.2,0,0,0-3.35,4.44,20.43,20.43,0,0,0-1.84,4,22.41,22.41,0,0,1-3.56,5.28q-1.78,1.78-2.71,1.5t-.6-1.49A15.88,15.88,0,0,1,160,73.92L170.71,49a12.69,12.69,0,0,1-2.74.83,9.29,9.29,0,0,1-2.64.18l-8,18.77-2,4.72A15.45,15.45,0,0,0,154.09,77.41Zm15.42-5a16.65,16.65,0,0,1,4.09-7c2-2.29,6.67-2.93,7.29-2.6l-3.15,7.28a34,34,0,0,1-3.58,6.47c-.09.12-2.66,2.82-3.59,2.85-1.52,0-1.59-1.41-1.72-2.51A15.16,15.16,0,0,1,169.51,72.38Z" fill="none"/><path d="M227.07,69q-1.08,2.54-2,4.72a13.63,13.63,0,0,0-1.16,3.91,4.26,4.26,0,0,0,.69,3.43,2.94,2.94,0,0,0,2.24,1.11,6.15,6.15,0,0,0,3.13-.8,10.8,10.8,0,0,0,2.62-2.15c.42-.46.82-1,1.21-1.49a4.37,4.37,0,0,0,.56,3.35,2.76,2.76,0,0,0,2.24,1.11,6.19,6.19,0,0,0,3.23-.88,12.21,12.21,0,0,0,2.76-2.26,21.15,21.15,0,0,0,2.32-3q1.06-1.67,2-3.29l0,0c.36-.66.71-1.32,1-2q.71-1.51,1.29-2.72A18.8,18.8,0,0,1,250.31,66a2.81,2.81,0,0,1,1.22-1.13,2.55,2.55,0,0,1,1.47-.1,13.59,13.59,0,0,1,1.56.44q.79.27,1.61.49a3.14,3.14,0,0,0,1.52.06,4.78,4.78,0,0,0,1.78-.83q.84-.62,1.55-1.21l.19.32L241.52,83.15l.56,1.3.14-.11a6.37,6.37,0,0,1,1.29-.7,9.42,9.42,0,0,1,2-.59,12,12,0,0,1,2.7-.2,5.13,5.13,0,0,1,1.57.31,14.63,14.63,0,0,1,3.2,1.62,23.42,23.42,0,0,1,2.54,2q1.21,1.08,2.33,2.25t2.24,2.19a22.31,22.31,0,0,0,6.25,4.8,8.17,8.17,0,0,0,5,.93c3.83-.71,2.72-7,2.72-7a7.36,7.36,0,0,1-3,1.66,6.82,6.82,0,0,1-3.39-.12,15.46,15.46,0,0,1-4.13-1.93,54.92,54.92,0,0,1-5.22-3.82,40.41,40.41,0,0,0-3.41-2.41,14,14,0,0,0-3.38-1.58,10.72,10.72,0,0,0-3.43-.47,8.94,8.94,0,0,0-3.55.91l20.71-20-.51-1.51a7.83,7.83,0,0,1-3.3,1,8.63,8.63,0,0,1-2.5-.31l-2.31-.66a6.76,6.76,0,0,0-2.73-.12A4.73,4.73,0,0,0,251,62.28a16.91,16.91,0,0,0-2.21,3.29q-1,1.89-1.83,3.94c-.38.91-.76,1.74-1.15,2.49h0l-.47.92-.09.16h0A18.48,18.48,0,0,1,242,77.62q-1.78,1.69-2.81,1.69-.84,0-.67-1.27a17.12,17.12,0,0,1,1.25-3.86l5.78-13.59h3.65l1-2.1h-3.74l2.92-6.74a10.85,10.85,0,0,1-2.67.83,9.7,9.7,0,0,1-2.71.18l-2.45,5.72h-2.06l-1,2.1h2.2L237,69c-.5,1.17-1,2.26-1.43,3.31a22.57,22.57,0,0,1-3.45,5.26q-1.64,1.67-2.72,1.66-1.73,0,.39-5.13l5.88-13.59a10.29,10.29,0,0,1-2.71.85,9.92,9.92,0,0,1-2.66.15Z" fill="none"/><path d="M201.4,80.8a6.25,6.25,0,0,0,2.5,1.63,8.58,8.58,0,0,0,2.83.5,6.38,6.38,0,0,0,2.78-.64,8,8,0,0,0,2.58-2,13.2,13.2,0,0,0,2.16-3.72L218.67,66l8.13-.51V63.82l-7.24,0L224.07,53l1.8-.13a12.16,12.16,0,0,0,1.8-.29,4,4,0,0,0,2-1,2.72,2.72,0,0,0,.8-1.48,2,2,0,0,0-.37-1.49,2.57,2.57,0,0,0-1.52-1,6.38,6.38,0,0,0-5,1q-2.06-.17-4.35-.53t-4.44-.55a25.09,25.09,0,0,0-4-.07,6,6,0,0,0-3,.94,4.06,4.06,0,0,0-1.24,1.27,4.73,4.73,0,0,0-.66,1.67,5,5,0,0,0,0,1.81,3.54,3.54,0,0,0,.72,1.62,6.92,6.92,0,0,1,3-1.85,14.28,14.28,0,0,1,3.67-.55,28.46,28.46,0,0,1,4,.2q2.1.25,4.21.36v.32l-1.54.27A4.23,4.23,0,0,0,218.65,55a18.65,18.65,0,0,0-1.36,2.78l-2.54,6-13.65,0,2,3.08,10.66-.61-4.89,11.54a5.88,5.88,0,0,1-1.9,2.75,1.93,1.93,0,0,1-2.17.15,1.79,1.79,0,0,1-.91-1.11,4.54,4.54,0,0,1-.18-1.76,9.07,9.07,0,0,1,.43-2.08,10.46,10.46,0,0,1,.92-2.08,4.74,4.74,0,0,1,1.59-1.78,3.45,3.45,0,0,0-1.35-1.57,2.82,2.82,0,0,0-1.77-.38,3.48,3.48,0,0,0-1.8.8,4.76,4.76,0,0,0-1.38,2,8.19,8.19,0,0,0-.69,2.89A7.62,7.62,0,0,0,200,78.4,6.57,6.57,0,0,0,201.4,80.8Z" fill="none"/><path d="M285.9,57.05a2.73,2.73,0,0,0,2.45.14,4,4,0,0,0,2.21-4.53A3.46,3.46,0,0,0,289,50.58a2.93,2.93,0,0,0-2.45-.22,3.27,3.27,0,0,0-1.94,1.83,3.84,3.84,0,0,0-.36,2.75A3.38,3.38,0,0,0,285.9,57.05Z" fill="none"/><path d="M234,56.88a2.73,2.73,0,0,0,2.45.14,4,4,0,0,0,2.21-4.53,3.46,3.46,0,0,0-1.51-2.08,2.93,2.93,0,0,0-2.45-.22A3.27,3.27,0,0,0,232.77,52a3.84,3.84,0,0,0-.36,2.75A3.38,3.38,0,0,0,234,56.88Z" fill="none"/><path d="M298.42,117a1.79,1.79,0,0,0,1.6.09,2.62,2.62,0,0,0,1.44-3,2.26,2.26,0,0,0-1-1.36,1.91,1.91,0,0,0-1.6-.15,2.13,2.13,0,0,0-1.27,1.2,2.51,2.51,0,0,0-.23,1.8A2.21,2.21,0,0,0,298.42,117Z" fill="none"/><path d="M403.83,60.9a3.65,3.65,0,0,0-1.7-.38,10.72,10.72,0,0,0-3.11.39,7.71,7.71,0,0,0-2.39,1.18,8.93,8.93,0,0,0-1.9,1.94,17,17,0,0,0-1.55,2.61q-.85,1.73-1.81,3.45c-.44.79-.86,1.59-1.28,2.38h0q-.7,1.29-1.57,2.61a21.88,21.88,0,0,1-1.78,2.37A13.61,13.61,0,0,1,385,79.17a2.51,2.51,0,0,1-1.5.67.59.59,0,0,1-.65-.62,4.75,4.75,0,0,1,.31-1.7A22.57,22.57,0,0,1,384.19,75q.7-1.48,1.6-3.26,1.27-2.64,2-4.53a6.11,6.11,0,0,0,.36-3.56,3,3,0,0,0-2.7-2.6,7.52,7.52,0,0,0-4.35,1.15,15.58,15.58,0,0,0-5,4.76l-.14-.27,2-2.75L379.18,61a26.34,26.34,0,0,1-2.83.72,6.28,6.28,0,0,1-2.5.07l-4.79,11.49a9.6,9.6,0,0,1-2.47,3,5.7,5.7,0,0,1-3.49,1.34,16.49,16.49,0,0,0,1.43-2.49,24.81,24.81,0,0,0,1.15-3,14.65,14.65,0,0,0,.71-4.3,8.39,8.39,0,0,0-.69-3.55,5.63,5.63,0,0,0-2.07-2.42,6.11,6.11,0,0,0-3.39-.91,8.91,8.91,0,0,0-3.46.69,12.12,12.12,0,0,0-3.18,2,14.61,14.61,0,0,0-2.7,3,16.81,16.81,0,0,0-1.95,4,18.19,18.19,0,0,0-.61,2.24c-.39.68-.8,1.36-1.27,2a27.18,27.18,0,0,1-1.78,2.37A11.94,11.94,0,0,1,343.54,79a2.58,2.58,0,0,1-1.47.67.6.6,0,0,1-.65-.65,5,5,0,0,1,.31-1.75,21.36,21.36,0,0,1,1.06-2.59q.71-1.48,1.55-3.15a45.75,45.75,0,0,0,2-4.39,7,7,0,0,0,.36-3.7,2.75,2.75,0,0,0-2.7-2.65,7.52,7.52,0,0,0-4,1.12,14.67,14.67,0,0,0-4.5,4.3l-.09-.16L336.5,64a3.87,3.87,0,0,0-.77-2.16,2.59,2.59,0,0,0-1.89-1A7.14,7.14,0,0,0,329.61,62a15.44,15.44,0,0,0-4.8,4.74l-.14-.27,2-2.69,1.22-2.86a26.36,26.36,0,0,1-2.83.72,6.28,6.28,0,0,1-2.5.07l-4.61,11.06c-.4.7-.83,1.41-1.31,2.12a27.16,27.16,0,0,1-1.78,2.37,11.94,11.94,0,0,1-1.76,1.72,2.58,2.58,0,0,1-1.47.67.6.6,0,0,1-.65-.65,5,5,0,0,1,.31-1.75,21.34,21.34,0,0,1,1.06-2.59q.71-1.48,1.55-3.15a45.77,45.77,0,0,0,2-4.39,7,7,0,0,0,.36-3.7,2.75,2.75,0,0,0-2.7-2.65,7.52,7.52,0,0,0-4,1.12,14.67,14.67,0,0,0-4.5,4.3L304.9,66l1.13-2.1a3.87,3.87,0,0,0-.77-2.16,2.59,2.59,0,0,0-1.89-1,7.14,7.14,0,0,0-4.23,1.12,15.44,15.44,0,0,0-4.8,4.74l-.14-.27,2-2.69,1.22-2.86a26.35,26.35,0,0,1-2.83.72,6.27,6.27,0,0,1-2.5.07l-4.54,10.88a22.81,22.81,0,0,1-3.5,5.35q-1.64,1.67-2.72,1.66-1.73,0,.39-5.13l5.88-13.59a10.29,10.29,0,0,1-2.71.86,9.92,9.92,0,0,1-2.66.15l-3.24,7.44q-1.08,2.54-2,4.72a13.63,13.63,0,0,0-1.16,3.91,4.26,4.26,0,0,0,.69,3.43,2.94,2.94,0,0,0,2.24,1.11,6.15,6.15,0,0,0,3.13-.8,10.8,10.8,0,0,0,2.62-2.15c.12-.14.24-.3.36-.44l-1.4,3.35,5,0,3.24-7.71a50.76,50.76,0,0,1,2.79-5.2,30.09,30.09,0,0,1,2.49-3.47,12.09,12.09,0,0,1,2-2,3.23,3.23,0,0,1,1.43-.67q.89-.1.91.73a6.73,6.73,0,0,1-.38,2.11,24,24,0,0,1-1.08,2.75l-1.2,2.62L294.1,82.35l5,0,4.66-10.95v-.05l0-.05a28.06,28.06,0,0,1,4-6.09,5.65,5.65,0,0,1,2.67-1.88,1.08,1.08,0,0,1,1,.3,1.65,1.65,0,0,1,.09,1.3,15.26,15.26,0,0,1-.85,2.56q-.66,1.62-1.93,4-1.08,2-1.76,3.64a9.48,9.48,0,0,0-.78,3.16,4,4,0,0,0,.86,3,3,3,0,0,0,2.31,1.09,5.31,5.31,0,0,0,2.62-.69,10.2,10.2,0,0,0,2.46-2c.33-.35.67-.74,1-1.14l-1.59,3.81,5,0,3.24-7.71a50.72,50.72,0,0,1,2.79-5.2A30.08,30.08,0,0,1,327.35,66a12.09,12.09,0,0,1,2-2,3.23,3.23,0,0,1,1.43-.67q.89-.1.91.73a6.72,6.72,0,0,1-.38,2.11A24,24,0,0,1,330.24,69L329,71.61l-4.47,10.84,5,0,4.66-10.95v-.05l0-.05a28.06,28.06,0,0,1,4-6.09,5.65,5.65,0,0,1,2.67-1.88,1.08,1.08,0,0,1,1,.3A1.65,1.65,0,0,1,342,65a15.27,15.27,0,0,1-.85,2.56q-.66,1.62-1.93,4-1.08,2-1.76,3.64a9.47,9.47,0,0,0-.78,3.16,4,4,0,0,0,.86,3,3,3,0,0,0,2.31,1.09,5.31,5.31,0,0,0,2.62-.69,10.2,10.2,0,0,0,2.46-2,25.51,25.51,0,0,0,2.39-3c.24-.35.49-.73.74-1.1a8.69,8.69,0,0,0,.64,3.31,5.79,5.79,0,0,0,2.1,2.57,6,6,0,0,0,3.46,1,10,10,0,0,0,7.49-3.32A8.39,8.39,0,0,0,366.51,78a7.94,7.94,0,0,0,.83-.58l-2.16,5.17,5,0,3.25-7.71a44,44,0,0,1,2.86-5.15,33.59,33.59,0,0,1,2.58-3.47,12.58,12.58,0,0,1,2.08-2,3.41,3.41,0,0,1,1.47-.7,1.08,1.08,0,0,1,1,.3,1.7,1.7,0,0,1,.11,1.3,12.25,12.25,0,0,1-.87,2.56q-.71,1.62-2,4-1.08,2-1.81,3.69a8.3,8.3,0,0,0-.78,3,4,4,0,0,0,.88,3,3,3,0,0,0,2.33,1.11,5.27,5.27,0,0,0,2.64-.69,10.85,10.85,0,0,0,2.46-2,22.71,22.71,0,0,0,2.39-3c.58-.86,1.19-1.79,1.8-2.76l0,0c.16-.26.33-.55.51-.86l.1-.16h0l.41-.75q.54-1,1.1-2.13t1.08-2.16q.52-1.05.89-1.86l.14.05-.66,2.05a5.73,5.73,0,0,0,.44,2.43q.49,1.19,1,2.46a26.66,26.66,0,0,1,1,2.57,6,6,0,0,1,.23,2.7,5.31,5.31,0,0,1-.64,2,4.28,4.28,0,0,1-1.15,1.35,3.09,3.09,0,0,1-1.45.59,2.64,2.64,0,0,1-1.49-.22,11.06,11.06,0,0,0,.12-1.86A5,5,0,0,0,392,78.9a2.09,2.09,0,0,0-.65-1,1,1,0,0,0-1-.17,1.41,1.41,0,0,0-.82.73,2.5,2.5,0,0,0-.26,1.35,4.16,4.16,0,0,0,.49,1.65,5.13,5.13,0,0,0,1.37,1.62,5.62,5.62,0,0,0,2.8,1.25,6,6,0,0,0,3-.31,7.09,7.09,0,0,0,2.65-1.77,8.4,8.4,0,0,0,1.85-3.18,7.73,7.73,0,0,0,.13-3.89,19.79,19.79,0,0,0-1.14-3.27q-.7-1.54-1.35-3.06a6.82,6.82,0,0,1-.51-3.3A4.11,4.11,0,0,1,399.69,63a3.27,3.27,0,0,1,2.25-1,3.66,3.66,0,0,0,.58,1.05,3.91,3.91,0,0,0,.86.84,1.8,1.8,0,0,0,.91.35,1,1,0,0,0,.82-.35,1.23,1.23,0,0,0,.28-.94,2,2,0,0,0-.44-1.08A3.37,3.37,0,0,0,403.83,60.9ZM352.1,78.29a6.64,6.64,0,0,1,0-.7,10.5,10.5,0,0,1,.53-2.62,14.17,14.17,0,0,0-.52,3.13C352.1,78.16,352.1,78.22,352.1,78.29ZM362,67.12q-.08.45-.2.93a28.52,28.52,0,0,1-1.15,3.61s0,.05,0,.05,0,0,0,.05a.58.58,0,0,0-.28-.05,2.31,2.31,0,0,0-1.87.91,3.32,3.32,0,0,0-.75,2.16,3.67,3.67,0,0,0,.56,1.95,14.41,14.41,0,0,1-2.39,3.15A3.46,3.46,0,0,1,353.59,81a1.22,1.22,0,0,1-1.19-.79,2.81,2.81,0,0,1-.29-1.52,23.46,23.46,0,0,1,1.79-7.46c.54-1.24,1-2.43,1.62-3.5A20.35,20.35,0,0,1,357.3,65a9.87,9.87,0,0,1,1.8-1.86,2.87,2.87,0,0,1,1.73-.67,1.16,1.16,0,0,1,1.1.71,4.33,4.33,0,0,1,.32,2A12.38,12.38,0,0,1,362,67.12Z" fill="none"/><path d="M341.19,119.6h-1.53a2.2,2.2,0,0,0,.12.76.8.8,0,0,0,.43.48q-.31,1-.62,1.78t-.65,1.55q-.34.76-.74,1.59l-.57,1.19h0a10.72,10.72,0,0,1-1.72,2.53,10.31,10.31,0,0,1-2,1.72,8.57,8.57,0,0,1-2.09,1,6.37,6.37,0,0,1-1.83.31,1.89,1.89,0,0,1-1.65-.78,3.17,3.17,0,0,1-.42-2.15,8.52,8.52,0,0,0,2.61-.26,9,9,0,0,0,2.41-1,8.46,8.46,0,0,0,2-1.67,8.13,8.13,0,0,0,1.41-2.24,5.16,5.16,0,0,0,.43-1.67,3.58,3.58,0,0,0-.18-1.5,2.8,2.8,0,0,0-.78-1.15,2.49,2.49,0,0,0-1.39-.59,6.16,6.16,0,0,0-2.15.1,7.54,7.54,0,0,0-2.29.93,9.78,9.78,0,0,0-2.2,1.84,11.7,11.7,0,0,0-1.85,2.82,11.15,11.15,0,0,0-.72,2,10.55,10.55,0,0,1-1.58,2.28,10.31,10.31,0,0,1-2,1.72,8.57,8.57,0,0,1-2.09,1,6.37,6.37,0,0,1-1.83.31,1.89,1.89,0,0,1-1.65-.78,3.17,3.17,0,0,1-.42-2.15,8.52,8.52,0,0,0,2.61-.26,9,9,0,0,0,2.42-1,8.46,8.46,0,0,0,2-1.67,8.13,8.13,0,0,0,1.41-2.24,5.16,5.16,0,0,0,.43-1.67,3.58,3.58,0,0,0-.18-1.5,2.8,2.8,0,0,0-.78-1.15,2.49,2.49,0,0,0-1.39-.59,6.16,6.16,0,0,0-2.15.1,7.54,7.54,0,0,0-2.29.93,9.78,9.78,0,0,0-2.2,1.84,11.7,11.7,0,0,0-1.85,2.82,11.07,11.07,0,0,0-.74,2c-.26.46-.54.92-.84,1.39a14.48,14.48,0,0,1-1.16,1.55,8.94,8.94,0,0,1-1.15,1.13,1.65,1.65,0,0,1-1,.44.39.39,0,0,1-.43-.41,3.1,3.1,0,0,1,.2-1.11,14.55,14.55,0,0,1,.69-1.67q.46-1,1-2.13.83-1.73,1.31-3a4,4,0,0,0,.23-2.33,2,2,0,0,0-1.77-1.7,4.91,4.91,0,0,0-2.84.75,10.18,10.18,0,0,0-3.24,3.11l-.09-.18,1.29-1.8.8-1.87a17.31,17.31,0,0,1-1.85.47,4.1,4.1,0,0,1-1.63,0l-3,7.11a14.9,14.9,0,0,1-2.29,3.49,2.9,2.9,0,0,1-1.77,1.09q-1.13,0,.25-3.35l3.84-8.88a6.72,6.72,0,0,1-1.77.56,6.49,6.49,0,0,1-1.74.1l-2.12,4.86q-.71,1.66-1.34,3.08a8.89,8.89,0,0,0-.75,2.56,2.78,2.78,0,0,0,.45,2.24,1.92,1.92,0,0,0,1.46.73,4,4,0,0,0,2-.52,7,7,0,0,0,1.71-1.41l.24-.29-.91,2.19H300l2.12-5a28.94,28.94,0,0,1,1.87-3.36,21.94,21.94,0,0,1,1.69-2.27,8.2,8.2,0,0,1,1.36-1.3,2.22,2.22,0,0,1,1-.46.71.71,0,0,1,.64.2,1.11,1.11,0,0,1,.07.85,8,8,0,0,1-.57,1.67q-.46,1.06-1.29,2.64-.71,1.34-1.18,2.41a5.43,5.43,0,0,0-.51,2,2.64,2.64,0,0,0,.57,2,2,2,0,0,0,1.53.73A3.44,3.44,0,0,0,309,133a7.09,7.09,0,0,0,1.61-1.28,14.84,14.84,0,0,0,1.56-2l.43-.64a5.12,5.12,0,0,0,.33,1.83,3.86,3.86,0,0,0,1.51,1.84,4.8,4.8,0,0,0,2.67.7,7.74,7.74,0,0,0,2.66-.47,10.6,10.6,0,0,0,2.48-1.28,11.65,11.65,0,0,0,2.14-1.93c.18-.21.35-.42.52-.64a5.12,5.12,0,0,0,.33,1.83,3.86,3.86,0,0,0,1.51,1.84,4.8,4.8,0,0,0,2.67.7,7.74,7.74,0,0,0,2.66-.47,10.6,10.6,0,0,0,2.48-1.28,11.65,11.65,0,0,0,2.14-1.93,11.88,11.88,0,0,0,1.3-1.81h0a17,17,0,0,0,.83-1.57q.46-1,.92-2t.85-2.06q.38-1,.57-1.64a3,3,0,0,1,1.33,0,.82.82,0,0,1,.69.76,2.13,2.13,0,0,1-.11.93,8.28,8.28,0,0,1-.49,1.2q-.32.65-.74,1.41t-.84,1.6a13.45,13.45,0,0,0-.91,2.06,7.74,7.74,0,0,0-.42,1.94,3.4,3.4,0,0,0,.24,1.61,2.19,2.19,0,0,0,1.07,1.1,1.83,1.83,0,0,0,1,.27,3.56,3.56,0,0,0,1.15-.23,5.37,5.37,0,0,0,1.12-.58,12.17,12.17,0,0,0,1.34-1.34c.71-.73-.05-1-.57-.61-.26.21-.48.43-.72.6a1.9,1.9,0,0,1-.67.32.67.67,0,0,1-.53-.07q-.49-.25-.06-1.45t1.38-3.21l.72-1.5q.35-.72.61-1.41a7.13,7.13,0,0,0,.37-1.32,3.86,3.86,0,0,0,0-1.23Q345.71,118.59,341.19,119.6ZM329,125.77a15.64,15.64,0,0,1,2.79-4.26q1.32-1.27,2-1,.43.11.46,1a5.18,5.18,0,0,1-.71,2.34,11.12,11.12,0,0,1-2.56,3.48,5.5,5.5,0,0,1-3,1.44A12.07,12.07,0,0,1,329,125.77Zm-12.31,0a15.64,15.64,0,0,1,2.79-4.26q1.32-1.27,2-1,.43.11.46,1a5.18,5.18,0,0,1-.71,2.34,11.12,11.12,0,0,1-2.56,3.48,5.5,5.5,0,0,1-3,1.44A12.07,12.07,0,0,1,316.68,125.73Z" fill="none"/><path d="M170.57,79.41c.94,0,3.5-2.73,3.59-2.85a34,34,0,0,0,3.58-6.47l3.15-7.28c-.62-.33-5.25.31-7.29,2.6a16.65,16.65,0,0,0-4.09,7,15.16,15.16,0,0,0-.66,4.51C169,78,169,79.41,170.57,79.41Z" fill="#fff" stroke="#000" stroke-miterlimit="10" stroke-width="0.25"/><path d="M.25.25V176.18l480,.25V.25ZM284.8,52.19a3.27,3.27,0,0,1,1.94-1.83,2.93,2.93,0,0,1,2.45.22,3.46,3.46,0,0,1,1.51,2.08,4,4,0,0,1-2.21,4.53,2.73,2.73,0,0,1-2.45-.14,3.38,3.38,0,0,1-1.61-2.11A3.84,3.84,0,0,1,284.8,52.19ZM269,75.52q-.46-1.57-1.11-3.19A28.63,28.63,0,0,1,266.77,69a7.31,7.31,0,0,1,.06-3.75,6.4,6.4,0,0,1,2.67-4,8.19,8.19,0,0,1,4.86-1.14,3.65,3.65,0,0,1,1.7.38,3.37,3.37,0,0,1,1.12.89,2,2,0,0,1,.44,1.08,1.23,1.23,0,0,1-.28.94,1,1,0,0,1-.82.35,1.8,1.8,0,0,1-.91-.35,3.91,3.91,0,0,1-.86-.84,3.67,3.67,0,0,1-.58-1.05,3.28,3.28,0,0,0-2.22,1,3.9,3.9,0,0,0-1.06,2.67,6.85,6.85,0,0,0,.48,3.24q.63,1.51,1.32,3.08a19.12,19.12,0,0,1,1.11,3.3,7.71,7.71,0,0,1-.15,3.83,7.58,7.58,0,0,1-1.78,3.26,7.11,7.11,0,0,1-2.69,1.8,5.94,5.94,0,0,1-3,.29,5.83,5.83,0,0,1-2.8-1.28A5.74,5.74,0,0,1,262,81a4.15,4.15,0,0,1-.49-1.62,2.44,2.44,0,0,1,.26-1.32,1.41,1.41,0,0,1,.82-.73,1,1,0,0,1,1,.17,2.08,2.08,0,0,1,.65,1,5,5,0,0,1,.25,1.54,11.09,11.09,0,0,1-.12,1.86,2.74,2.74,0,0,0,2.81-.37A5.05,5.05,0,0,0,269,78.76,5.74,5.74,0,0,0,269,75.52ZM232.93,52a3.27,3.27,0,0,1,1.94-1.83,2.93,2.93,0,0,1,2.45.22,3.46,3.46,0,0,1,1.51,2.08A4,4,0,0,1,236.63,57a2.73,2.73,0,0,1-2.45-.14,3.38,3.38,0,0,1-1.61-2.11A3.84,3.84,0,0,1,232.93,52Zm.21,9.4a10.29,10.29,0,0,0,2.71-.85L230,74.15q-2.12,5.12-.39,5.13,1.07,0,2.72-1.66a22.57,22.57,0,0,0,3.45-5.26c.46-1.06.93-2.15,1.43-3.31l3.62-8.47h-2.2l1-2.1h2.06l2.45-5.72a9.7,9.7,0,0,0,2.71-.18,10.85,10.85,0,0,0,2.67-.83l-2.92,6.74h3.74l-1,2.1h-3.65l-5.78,13.59A17.12,17.12,0,0,0,238.68,78q-.17,1.27.67,1.27,1,0,2.81-1.69a18.48,18.48,0,0,0,3.19-4.55h0l.09-.16.47-.92h0c.39-.75.78-1.58,1.15-2.49q.85-2,1.83-3.94a16.91,16.91,0,0,1,2.21-3.29A4.73,4.73,0,0,1,254,60.62a6.76,6.76,0,0,1,2.73.12l2.31.66a8.63,8.63,0,0,0,2.5.31,7.83,7.83,0,0,0,3.3-1l.51,1.51-20.71,20a8.94,8.94,0,0,1,3.55-.91,10.72,10.72,0,0,1,3.43.47A14,14,0,0,1,255,83.33a40.41,40.41,0,0,1,3.41,2.41,54.92,54.92,0,0,0,5.22,3.82,15.46,15.46,0,0,0,4.13,1.93,6.82,6.82,0,0,0,3.39.12,7.36,7.36,0,0,0,3-1.66s1.12,6.28-2.72,7a8.17,8.17,0,0,1-5-.93,22.31,22.31,0,0,1-6.25-4.8q-1.12-1-2.24-2.19t-2.33-2.25a23.42,23.42,0,0,0-2.54-2,14.63,14.63,0,0,0-3.2-1.62,5.13,5.13,0,0,0-1.57-.31,12,12,0,0,0-2.7.2,9.42,9.42,0,0,0-2,.59,6.37,6.37,0,0,0-1.29.7l-.14.11-.56-1.3L261.36,64l-.19-.32q-.7.59-1.55,1.21a4.78,4.78,0,0,1-1.78.83,3.14,3.14,0,0,1-1.52-.06q-.82-.22-1.61-.49a13.59,13.59,0,0,0-1.56-.44,2.55,2.55,0,0,0-1.47.1A2.81,2.81,0,0,0,250.46,66,18.8,18.8,0,0,0,249.31,68q-.59,1.21-1.29,2.72c-.31.66-.65,1.32-1,2l0,0q-.94,1.62-2,3.29a21.15,21.15,0,0,1-2.32,3A12.21,12.21,0,0,1,240,81.34a6.19,6.19,0,0,1-3.23.88,2.76,2.76,0,0,1-2.24-1.11,4.37,4.37,0,0,1-.56-3.35c-.39.53-.79,1-1.21,1.49a10.8,10.8,0,0,1-2.62,2.15,6.15,6.15,0,0,1-3.13.8,2.94,2.94,0,0,1-2.24-1.11,4.26,4.26,0,0,1-.69-3.43,13.63,13.63,0,0,1,1.16-3.91q1-2.18,2-4.72l3.24-7.44A9.92,9.92,0,0,0,233.13,61.41ZM199.75,75.59a8.19,8.19,0,0,1,.69-2.89,4.76,4.76,0,0,1,1.38-2,3.48,3.48,0,0,1,1.8-.8,2.82,2.82,0,0,1,1.77.38,3.45,3.45,0,0,1,1.35,1.57,4.74,4.74,0,0,0-1.59,1.78,10.46,10.46,0,0,0-.92,2.08,9.07,9.07,0,0,0-.43,2.08,4.54,4.54,0,0,0,.18,1.76,1.79,1.79,0,0,0,.91,1.11,1.93,1.93,0,0,0,2.17-.15,5.88,5.88,0,0,0,1.9-2.75l4.89-11.54-10.66.61-2-3.08,13.65,0,2.54-6A18.65,18.65,0,0,1,218.8,55a4.23,4.23,0,0,1,1.41-1.48l1.54-.27V52.9q-2.1-.11-4.21-.36a28.46,28.46,0,0,0-4-.2,14.28,14.28,0,0,0-3.67.55,6.92,6.92,0,0,0-3,1.85,3.54,3.54,0,0,1-.72-1.62,5,5,0,0,1,0-1.81,4.73,4.73,0,0,1,.66-1.67A4.06,4.06,0,0,1,208,48.37a6,6,0,0,1,3-.94,25.09,25.09,0,0,1,4,.07q2.15.2,4.44.55t4.35.53a6.38,6.38,0,0,1,5-1,2.57,2.57,0,0,1,1.52,1,2,2,0,0,1,.37,1.49,2.72,2.72,0,0,1-.8,1.48,4,4,0,0,1-2,1,12.16,12.16,0,0,1-1.8.29l-1.8.13L219.72,63.8l7.24,0v1.62l-8.13.51L214.4,76.53a13.2,13.2,0,0,1-2.16,3.72,8,8,0,0,1-2.58,2,6.38,6.38,0,0,1-2.78.64,8.58,8.58,0,0,1-2.83-.5,6.25,6.25,0,0,1-2.5-1.63,6.57,6.57,0,0,1-1.44-2.41A7.62,7.62,0,0,1,199.75,75.59ZM165.49,50a9.29,9.29,0,0,0,2.64-.18,12.69,12.69,0,0,0,2.74-.83L160.19,73.92A15.88,15.88,0,0,0,159,77.56q-.19,1.32.6,1.49t2.71-1.5a22.41,22.41,0,0,0,3.56-5.28,20.43,20.43,0,0,1,1.84-4,22.2,22.2,0,0,1,3.35-4.44,13.29,13.29,0,0,1,3.54-2.61,7.13,7.13,0,0,1,3.48-.77,6.64,6.64,0,0,1,3.2,1,4.44,4.44,0,0,0,2.64.71,6.91,6.91,0,0,0,2.88-.75L181.22,74q-2.21,5.12-.57,5.13c.72,0,3.38-2.39,3.8-1.67.3.51-1,2-2.58,3-1.24.83-3.68,2.24-5.78.6a3.24,3.24,0,0,1-.86-2.62l.71-1.83h-.14l-.52.86a12.06,12.06,0,0,1-2.72,3.26,5.14,5.14,0,0,1-3.32,1.2,3.54,3.54,0,0,1-2.68-1.12,5.25,5.25,0,0,1-1.3-3,10,10,0,0,1-.05-1.92l-.16.24a22.71,22.71,0,0,1-2.32,3,10.69,10.69,0,0,1-2.51,2,5.59,5.59,0,0,1-2.85.75,3.24,3.24,0,0,1-1.35-.3,2.9,2.9,0,0,1-1.1-.87,3.48,3.48,0,0,1-.63-1.41,5.85,5.85,0,0,1,0-2,15.45,15.45,0,0,1,1.18-3.91l2-4.72Zm-22,37.73a12.85,12.85,0,0,1-1.92,1.56,6.82,6.82,0,0,1-3,.91,2.94,2.94,0,0,1-1.82-.49,1.47,1.47,0,0,1-.6-1.27,2,2,0,0,1,.73-1.43,3.93,3.93,0,0,1,1.64-.86,10.07,10.07,0,0,1,2.24-.32,4.58,4.58,0,0,0,.59-1q.21-.49.35-.75l2.82-6.63,1.31-2h-.19a15.56,15.56,0,0,1-4,3.69,6.46,6.46,0,0,1-3.48,1.15,3.21,3.21,0,0,1-1.94-.6A3.37,3.37,0,0,1,135.13,78a5.26,5.26,0,0,1-.26-1.77A20.31,20.31,0,0,1,132.67,79a11.46,11.46,0,0,1-2.62,2.07,5.82,5.82,0,0,1-2.92.77,2.72,2.72,0,0,1-2.08-1,3.73,3.73,0,0,1-.86-2.62l.71-1.83h-.14l-.52.86a12.36,12.36,0,0,1-2.49,3.06,5.5,5.5,0,0,1-3.24,1.39,3.62,3.62,0,0,1-3-1.11,4.27,4.27,0,0,1-.44-.56c-.71,1.35-4.17,2.76-6.9,2a3.59,3.59,0,0,1-2.36-1.44,5.76,5.76,0,0,1-.79-3.24,23.83,23.83,0,0,1,1-5.72q2-7.39-3.77-7.63l-7.2,17.58a9.59,9.59,0,0,0-2.57.15,22.16,22.16,0,0,0-2.76.64l11.95-28.63c.44-1,1.61-3.94,1.61-3.94a12.72,12.72,0,0,0,5.32-.75L102.87,62.6a8,8,0,0,0,2.9-.07,5.8,5.8,0,0,0,2.29-1.1,8.35,8.35,0,0,0,1.9-2.21,24,24,0,0,0,1.71-3.45q.38-.92.78-2t.89-2.13a15,15,0,0,1,1.13-2A5.8,5.8,0,0,1,116,48.12,5.44,5.44,0,0,1,119.09,47a6.38,6.38,0,0,1,2.94.55c-.53.07-2.74,2.08-3.58,3.62-.68,1.26-2.08,5.45-2.62,7a9.89,9.89,0,0,1-2.75,4.34,9,9,0,0,1-3.77,1.85l-2.24,0,.28.27a4.16,4.16,0,0,1,3.36,2.39,6.76,6.76,0,0,1,.62,3.16,22.09,22.09,0,0,1-.6,4.4,29.4,29.4,0,0,0-.55,3.1,3.75,3.75,0,0,0,0,1.78c.67,1.27,3.42.3,4.47-.12a6.32,6.32,0,0,1-.47-1.73,12.45,12.45,0,0,1,.32-4.37A18.91,18.91,0,0,1,116.69,68,22.2,22.2,0,0,1,120,63.61,13.29,13.29,0,0,1,123.58,61a7.14,7.14,0,0,1,3.48-.77,6.64,6.64,0,0,1,3.2,1,4.44,4.44,0,0,0,2.64.71,6.91,6.91,0,0,0,2.88-.75l-5.59,12.62q-2.21,5.12-.57,5.13,1.07,0,2.81-1.66a19.83,19.83,0,0,0,3.35-4.88l.08-.19,4.7-10.95a9.45,9.45,0,0,0,2.59-.15,11.86,11.86,0,0,0,2.78-.85L140.71,72.4a11.43,11.43,0,0,0-1,3.67q0,1.13.93,1.24a2.18,2.18,0,0,0,1.19-.32,7.94,7.94,0,0,0,1.62-1.18,15.72,15.72,0,0,0,1.83-2A23.85,23.85,0,0,0,147.07,71l0-.05,4.51-10.3a12.74,12.74,0,0,0,2.48,0q1.4-.13,2.62-.34l-9.4,21.52q-.52,1.19-1.15,2.32a21.24,21.24,0,0,1-1.34,2.1,35.48,35.48,0,0,1,5.46,1.58,41.54,41.54,0,0,0,6,1.77,13.7,13.7,0,0,0,4.51.26,7.6,7.6,0,0,0,3.32-1.26,10.64,10.64,0,0,0,3.21-3.16.32.32,0,0,1,.6.18,22.72,22.72,0,0,1-.16,5.42,3.77,3.77,0,0,1-2.11,2.34,5.36,5.36,0,0,1-2.6.77,11.82,11.82,0,0,1-3.43-.42,38.41,38.41,0,0,1-4.48-1.47q-2.52-1-5.79-2.45l-3.13-1.22A19.89,19.89,0,0,0,143.52,87.74Zm17.54,30.74a1.92,1.92,0,0,1-.72-1.06,4.38,4.38,0,0,0,1.81-2.15,4.45,4.45,0,0,0,.36-2.06,1.76,1.76,0,0,0-.87-1.5,2.07,2.07,0,0,0-1-.3,2.79,2.79,0,0,0-1.15.21,3,3,0,0,0-1.06.74,3.84,3.84,0,0,0-.8,1.32,6.11,6.11,0,0,0-.21,3.09,9.66,9.66,0,0,0,1.65,3.69,8.86,8.86,0,0,1,1.31,2.79,8.37,8.37,0,0,1,.25,2.77,7.63,7.63,0,0,1-.68,2.59,8.94,8.94,0,0,1-1.49,2.25,6.08,6.08,0,0,1-1.94,1.55,7.17,7.17,0,0,1-2.31.72,7.27,7.27,0,0,1-2.37-.08,5.74,5.74,0,0,1-2.12-.87,7.83,7.83,0,0,1-1.84-1.73,7.22,7.22,0,0,1-1.08-2,7.41,7.41,0,0,1-.39-2.21,9.42,9.42,0,0,1,.22-2.26,8,8,0,0,1,1.29-3,3.92,3.92,0,0,1,1.87-1.53,2.63,2.63,0,0,1,1.51,0,2,2,0,0,1,1.23.87,6.17,6.17,0,0,0-1.71,1.69,10.21,10.21,0,0,0-1.26,2.64,9.08,9.08,0,0,0-.4,1.94,7,7,0,0,0,.07,1.91,5.31,5.31,0,0,0,.61,1.7,4,4,0,0,0,1.2,1.31,3.49,3.49,0,0,0,1.54.68,4,4,0,0,0,1.66-.07,4.59,4.59,0,0,0,1.56-.74,4.7,4.7,0,0,0,1.26-1.37,5.24,5.24,0,0,0,.71-1.85,5.66,5.66,0,0,0,0-1.85,7.13,7.13,0,0,0-.58-1.84,16.54,16.54,0,0,0-1-1.84,10.53,10.53,0,0,1-1.77-4.73,8.38,8.38,0,0,1,.7-4.23,5.58,5.58,0,0,1,1.29-1.83,5.67,5.67,0,0,1,1.76-1.12,5.11,5.11,0,0,1,2-.36,5.77,5.77,0,0,1,2.09.45,4.63,4.63,0,0,1,1.71,1.24,4.21,4.21,0,0,1,.84,1.61,4.68,4.68,0,0,1,.12,1.76,5.39,5.39,0,0,1-.48,1.67,3.33,3.33,0,0,1-1.06,1.35,2.37,2.37,0,0,1-1.22.47A1.69,1.69,0,0,1,161.05,118.48Zm64.41,14.77a1.83,1.83,0,0,1-1-.27,2.19,2.19,0,0,1-1.07-1.1,3.4,3.4,0,0,1-.24-1.61,7.74,7.74,0,0,1,.42-1.94,13.45,13.45,0,0,1,.91-2.06q.43-.85.84-1.6t.74-1.41a8.28,8.28,0,0,0,.49-1.2,2.13,2.13,0,0,0,.11-.93.82.82,0,0,0-.69-.76,3,3,0,0,0-1.33,0q-.19.63-.57,1.64t-.85,2.06q-.46,1.06-.92,2a17,17,0,0,1-.83,1.57l0,0c-.36.59-.72,1.16-1.07,1.71a13.44,13.44,0,0,1-1.55,2,7.49,7.49,0,0,1-1.71,1.35,3.8,3.8,0,0,1-1.91.51,1.78,1.78,0,0,1-1.36-.62,2.44,2.44,0,0,1-.56-1.71l.46-1.2h-.09l-.34.56a7.88,7.88,0,0,1-1.78,2.13,3.36,3.36,0,0,1-2.17.79,2.32,2.32,0,0,1-1.75-.73,3.43,3.43,0,0,1-.85-2,6.75,6.75,0,0,1,0-1.49,5.83,5.83,0,0,1-1.64,1.33,5.17,5.17,0,0,1-3.44.57,9.42,9.42,0,0,1-2.2,1.69,4.85,4.85,0,0,1-2.35.63,2.71,2.71,0,0,1-2.12-.84,3.38,3.38,0,0,1-.77-2.28,8.49,8.49,0,0,1-1.93,2.3,3.22,3.22,0,0,1-2,.72,2.22,2.22,0,0,1-1.31-.39,2.34,2.34,0,0,1-.82-1.08,3.63,3.63,0,0,1-.2-1.58c-.27.36-.55.69-.84,1a8,8,0,0,1-1.81,1.48,4,4,0,0,1-2.11.57,1.8,1.8,0,0,1-1.46-.73,2.89,2.89,0,0,1-.36-2.24,9.77,9.77,0,0,1,.79-2.56l.38-.86h-3.29l-4.89,11.59a6.45,6.45,0,0,0-1.65.08,11.72,11.72,0,0,0-1.86.44l3.94-9.15a5.29,5.29,0,0,1-.53.38,5.48,5.48,0,0,1-3.12.84,6.52,6.52,0,0,1-4.89,2.17,4,4,0,0,1-2.26-.62,3.79,3.79,0,0,1-1.37-1.68,5.86,5.86,0,0,1-.42-2.47,10.19,10.19,0,0,1,.59-3,11,11,0,0,1,1.27-2.61,9.54,9.54,0,0,1,1.76-2,7.91,7.91,0,0,1,2.08-1.28,5.82,5.82,0,0,1,2.26-.45,4,4,0,0,1,2.21.59,3.68,3.68,0,0,1,1.35,1.58,5.48,5.48,0,0,1,.45,2.32,9.56,9.56,0,0,1-.47,2.81,16.18,16.18,0,0,1-.75,1.94,10.8,10.8,0,0,1-.94,1.63,3.73,3.73,0,0,0,2.28-.87,6.39,6.39,0,0,0,1.7-2.1l3.9-9.07a35.4,35.4,0,0,1,1.75-3.59,5.16,5.16,0,0,1,2.14-2.11,3.36,3.36,0,0,1,.93-.31,5.55,5.55,0,0,1,1.08-.1,4.25,4.25,0,0,1,1.08.14,3.68,3.68,0,0,1,1,.43,2.14,2.14,0,0,1,1,1.36,2,2,0,0,1,0,.29,8,8,0,0,0,.84-.11,7.09,7.09,0,0,0,1.74-.54l-1.9,4.4h2.44l-.64,1.37h-2.38l-3.78,8.88a11.18,11.18,0,0,0-.82,2.52q-.11.83.44.83a3.21,3.21,0,0,0,1.84-1.11,12,12,0,0,0,2.07-2.94l3.24-7.5a6.81,6.81,0,0,0,1.66-.14,8,8,0,0,0,1.67-.52L191.52,128a5,5,0,0,0-.62,2.36q.09.81.7.78.76,0,1.59-1.19a26.31,26.31,0,0,0,1.81-3.17l3-7a5.64,5.64,0,0,0,1.62-.1,7.29,7.29,0,0,0,1.74-.56l-3.9,9a8.68,8.68,0,0,0-.88,2.91q0,.83.53,1t1.12-.37a7.51,7.51,0,0,0,1.44-1.64,22.87,22.87,0,0,0,1.53-2.64,26.41,26.41,0,0,0,1.4-3.35,19.7,19.7,0,0,0,.69-2.38,22.08,22.08,0,0,0,.42-2.38,2.35,2.35,0,0,1,1.53-.1,1.38,1.38,0,0,1,.82.88,3.9,3.9,0,0,1,.13,1.71,12.64,12.64,0,0,1-.51,2.34,19.32,19.32,0,0,1-1.29,3,16.46,16.46,0,0,1-1.84,2.78,3.35,3.35,0,0,0,2.57-.63,6.21,6.21,0,0,0,2-2.37,13.38,13.38,0,0,1,1.2-2.63,14.48,14.48,0,0,1,2.19-2.9,8.67,8.67,0,0,1,2.31-1.7,4.66,4.66,0,0,1,2.28-.5,4.34,4.34,0,0,1,2.09.66,2.9,2.9,0,0,0,1.72.46,4.51,4.51,0,0,0,1.88-.49L217.17,128q-1.44,3.35-.38,3.35a3.11,3.11,0,0,0,1.83-1.09,13.82,13.82,0,0,0,2.37-3.54l.63-1.33q.4-.83.74-1.59t.65-1.55q.31-.79.62-1.78a.8.8,0,0,1-.43-.48,2.2,2.2,0,0,1-.12-.76h1.53q4.52-1,5,2a3.87,3.87,0,0,1,0,1.23,7.12,7.12,0,0,1-.37,1.32q-.26.69-.61,1.41l-.72,1.5q-1,2-1.38,3.21t.06,1.45a.67.67,0,0,0,.53.07,1.9,1.9,0,0,0,.67-.32,6.12,6.12,0,0,0,.72-.6,5.7,5.7,0,0,0,.67-.77q.55-.7,1-1.43l.85-1.35a11,11,0,0,1,.75-2.09,11.7,11.7,0,0,1,1.85-2.82,9.78,9.78,0,0,1,2.2-1.84,7.54,7.54,0,0,1,2.29-.93,6.16,6.16,0,0,1,2.15-.1,2.49,2.49,0,0,1,1.39.59,2.81,2.81,0,0,1,.78,1.15,3.58,3.58,0,0,1,.18,1.5,5.16,5.16,0,0,1-.43,1.67,8.13,8.13,0,0,1-1.41,2.24,8.46,8.46,0,0,1-2,1.67,9,9,0,0,1-2.41,1,8.52,8.52,0,0,1-2.61.26,3.17,3.17,0,0,0,.42,2.15,1.89,1.89,0,0,0,1.65.78,6.37,6.37,0,0,0,1.83-.31,8.58,8.58,0,0,0,2.09-1c.7-.44,1.46.1.69.64a10.6,10.6,0,0,1-2.48,1.28,7.74,7.74,0,0,1-2.66.47,4.8,4.8,0,0,1-2.67-.7,3.86,3.86,0,0,1-1.51-1.84,5.11,5.11,0,0,1-.33-1.8l-.24.38a13.78,13.78,0,0,1-1.84,2.3,5.63,5.63,0,0,1-1,.83,5.37,5.37,0,0,1-1.12.58A3.56,3.56,0,0,1,225.46,133.24Zm74.28,6.49a3,3,0,0,1-1.38,1.53,3.5,3.5,0,0,1-1.7.51,7.73,7.73,0,0,1-2.24-.27,25.08,25.08,0,0,1-2.93-1q-1.65-.64-3.78-1.6l-1.63-.68q-.78-.32-1.48-.53l-.31.21a2.09,2.09,0,0,1-.31.18l-.66.28a4.2,4.2,0,0,1-.69.21,4.71,4.71,0,0,1-1.67.22,2.58,2.58,0,0,1-1.13-.3.85.85,0,0,1-.46-.62.92.92,0,0,1,.35-.76,2.86,2.86,0,0,1,1.38-.68,6.86,6.86,0,0,1,2-.12,5.18,5.18,0,0,0,.54-.76q.26-.44.54-1l2.33-4.75h-.12l-.43.46a5.77,5.77,0,0,1-1.41,1.18,2.88,2.88,0,0,1-1.74.4,2.5,2.5,0,0,1-1.69-.69,3.26,3.26,0,0,1-.91-1.75,4.93,4.93,0,0,1-.08-.55l-.58.87a14.84,14.84,0,0,1-1.56,2,7.09,7.09,0,0,1-1.61,1.28,3.44,3.44,0,0,1-1.73.45,2,2,0,0,1-1.53-.73,2.64,2.64,0,0,1-.57-2,5.42,5.42,0,0,1,.51-2q.48-1.07,1.18-2.41.83-1.58,1.29-2.64a8,8,0,0,0,.57-1.67,1.11,1.11,0,0,0-.07-.85.71.71,0,0,0-.64-.2,2.22,2.22,0,0,0-1,.46,8.2,8.2,0,0,0-1.36,1.3,22,22,0,0,0-1.69,2.27,29,29,0,0,0-1.87,3.36l-2.12,5h-3.24l1.3-3.12c-.7.57-1.32,1.06-1.51,1.2a10,10,0,0,1-1.54.91,11.91,11.91,0,0,1-1.79.68,7.57,7.57,0,0,1-1.89.31,7.15,7.15,0,0,1-3.4-.43,5.54,5.54,0,0,1-2.3-1.7,5.42,5.42,0,0,1-1.08-2.54,6.5,6.5,0,0,1,.27-3,7.91,7.91,0,0,1,1.43-2.64,8.5,8.5,0,0,1,2.11-1.84,9,9,0,0,1,2.49-1.05,25.1,25.1,0,0,1,2.81-.38,7.77,7.77,0,0,1-1.51-1.45,4.65,4.65,0,0,1-.58-1.27,5.58,5.58,0,0,1-.21-1.45,4.17,4.17,0,0,1,.23-1.46,4.93,4.93,0,0,1,1.15-2,5.16,5.16,0,0,1,1.85-1.23,6.85,6.85,0,0,1,2.35-.45,9.63,9.63,0,0,1,2.66.33,3.83,3.83,0,0,1,1.65.91,4.06,4.06,0,0,1,1,1.41,4.71,4.71,0,0,1,.33,1.69,4.34,4.34,0,0,1-.29,1.67,4.08,4.08,0,0,1-1.13,1.71,2.56,2.56,0,0,1-1.33.61,2,2,0,0,1-1.22-.25,1.69,1.69,0,0,1-.78-.85,5.28,5.28,0,0,0,1.72-2.22,4.69,4.69,0,0,0,.36-2.2,1.76,1.76,0,0,0-.87-1.47,2.51,2.51,0,0,0-2.38,0,3.71,3.71,0,0,0-1.15,1,4.76,4.76,0,0,0-.84,1.67,4.89,4.89,0,0,0-.19,1.55,4.47,4.47,0,0,0,.33,1.55,4.2,4.2,0,0,0,.91,1.36,4.27,4.27,0,0,0,1.52,1l.64.78a16,16,0,0,0-3.24.24,10.43,10.43,0,0,0-2.8.91,7,7,0,0,0-3.63,4.26,4.7,4.7,0,0,0-.28,2,4.21,4.21,0,0,0,.56,1.8,3.79,3.79,0,0,0,1.31,1.31,4,4,0,0,0,2,.55,5.78,5.78,0,0,0,1.65-.17,10.38,10.38,0,0,0,1.67-.56,8.75,8.75,0,0,0,1.5-.82c.29-.2,1.42-1.1,2.29-1.83l3.56-8.54a4.1,4.1,0,0,0,1.63,0,17.32,17.32,0,0,0,1.85-.47l-.8,1.87-1.29,1.8.09.18A10.18,10.18,0,0,1,274.5,120a4.91,4.91,0,0,1,2.84-.75,2,2,0,0,1,1.77,1.7,4,4,0,0,1-.23,2.33q-.48,1.23-1.31,3-.58,1.16-1,2.13a14.55,14.55,0,0,0-.69,1.67,3.1,3.1,0,0,0-.2,1.11.39.39,0,0,0,.43.41,1.65,1.65,0,0,0,1-.44,8.94,8.94,0,0,0,1.15-1.13,14.49,14.49,0,0,0,1.16-1.55c.3-.46.57-.91.83-1.36,0-.08,0-.15,0-.23a9.48,9.48,0,0,1,1.18-3,11.61,11.61,0,0,1,2.07-2.66,7.37,7.37,0,0,1,2.26-1.49,4.8,4.8,0,0,1,4.32.3,3,3,0,0,0,1.77.48,5.16,5.16,0,0,0,1.89-.51l-5.56,12.44q-.71,1.58-1.29,2.62a9.4,9.4,0,0,1-1.23,1.74,27.11,27.11,0,0,1,2.68.86,25.41,25.41,0,0,0,3.92,1.14,9.64,9.64,0,0,0,2.95.17,4.68,4.68,0,0,0,2.17-.8,15.68,15.68,0,0,0,2.74-2.67A13.49,13.49,0,0,1,299.74,139.73Zm46.6-16.9a7.13,7.13,0,0,1-.37,1.32q-.26.69-.61,1.41l-.72,1.5q-1,2-1.38,3.21t.06,1.45a.67.67,0,0,0,.53.07,1.9,1.9,0,0,0,.67-.32c.23-.16.46-.39.72-.6.52-.41,1.29-.12.57.61a12.17,12.17,0,0,1-1.34,1.34,5.37,5.37,0,0,1-1.12.58,3.56,3.56,0,0,1-1.15.23,1.83,1.83,0,0,1-1-.27,2.19,2.19,0,0,1-1.07-1.1,3.4,3.4,0,0,1-.24-1.61,7.74,7.74,0,0,1,.42-1.94,13.45,13.45,0,0,1,.91-2.06q.43-.85.84-1.6t.74-1.41a8.28,8.28,0,0,0,.49-1.2,2.13,2.13,0,0,0,.11-.93.82.82,0,0,0-.69-.76,3,3,0,0,0-1.33,0q-.19.63-.57,1.64t-.85,2.06q-.46,1.06-.92,2a17,17,0,0,1-.83,1.57h0a11.88,11.88,0,0,1-1.3,1.81,11.65,11.65,0,0,1-2.14,1.93,10.6,10.6,0,0,1-2.48,1.28,7.74,7.74,0,0,1-2.66.47,4.8,4.8,0,0,1-2.67-.7,3.86,3.86,0,0,1-1.51-1.84,5.12,5.12,0,0,1-.33-1.83c-.17.22-.34.43-.52.64a11.65,11.65,0,0,1-2.14,1.93,10.6,10.6,0,0,1-2.48,1.28,7.74,7.74,0,0,1-2.66.47,4.8,4.8,0,0,1-2.67-.7A3.86,3.86,0,0,1,313.1,131a5.12,5.12,0,0,1-.33-1.83l-.43.64a14.84,14.84,0,0,1-1.56,2,7.09,7.09,0,0,1-1.61,1.28,3.44,3.44,0,0,1-1.73.45,2,2,0,0,1-1.53-.73,2.64,2.64,0,0,1-.57-2,5.43,5.43,0,0,1,.51-2q.48-1.07,1.18-2.41.83-1.58,1.29-2.64a8,8,0,0,0,.57-1.67,1.11,1.11,0,0,0-.07-.85.71.71,0,0,0-.64-.2,2.22,2.22,0,0,0-1,.46,8.2,8.2,0,0,0-1.36,1.3,21.94,21.94,0,0,0-1.69,2.27,28.94,28.94,0,0,0-1.87,3.36l-2.12,5h-3.24l.91-2.19-.24.29a7,7,0,0,1-1.71,1.41,4,4,0,0,1-2,.52,1.92,1.92,0,0,1-1.46-.73,2.78,2.78,0,0,1-.45-2.24,8.89,8.89,0,0,1,.75-2.56q.63-1.43,1.34-3.08l2.12-4.86a6.49,6.49,0,0,0,1.74-.1,6.72,6.72,0,0,0,1.77-.56l-3.84,8.88q-1.38,3.35-.25,3.35a2.9,2.9,0,0,0,1.77-1.09,14.9,14.9,0,0,0,2.29-3.49l3-7.11a4.1,4.1,0,0,0,1.63,0,17.31,17.31,0,0,0,1.85-.47l-.8,1.87L304,123l.09.18a10.18,10.18,0,0,1,3.24-3.11,4.91,4.91,0,0,1,2.84-.75,2,2,0,0,1,1.77,1.7,4,4,0,0,1-.23,2.33q-.48,1.23-1.31,3-.58,1.16-1,2.13a14.55,14.55,0,0,0-.69,1.67,3.1,3.1,0,0,0-.2,1.11.39.39,0,0,0,.43.41,1.65,1.65,0,0,0,1-.44A8.94,8.94,0,0,0,311,130.1a14.48,14.48,0,0,0,1.16-1.55c.31-.47.58-.93.84-1.39a11.07,11.07,0,0,1,.74-2,11.7,11.7,0,0,1,1.85-2.82,9.78,9.78,0,0,1,2.2-1.84,7.54,7.54,0,0,1,2.29-.93,6.16,6.16,0,0,1,2.15-.1,2.49,2.49,0,0,1,1.39.59,2.8,2.8,0,0,1,.78,1.15,3.58,3.58,0,0,1,.18,1.5,5.16,5.16,0,0,1-.43,1.67,8.13,8.13,0,0,1-1.41,2.24,8.46,8.46,0,0,1-2,1.67,9,9,0,0,1-2.42,1,8.52,8.52,0,0,1-2.61.26,3.17,3.17,0,0,0,.42,2.15,1.89,1.89,0,0,0,1.65.78,6.37,6.37,0,0,0,1.83-.31,8.57,8.57,0,0,0,2.09-1,10.31,10.31,0,0,0,2-1.72,10.55,10.55,0,0,0,1.58-2.28,11.15,11.15,0,0,1,.72-2,11.7,11.7,0,0,1,1.85-2.82,9.78,9.78,0,0,1,2.2-1.84,7.54,7.54,0,0,1,2.29-.93,6.16,6.16,0,0,1,2.15-.1,2.49,2.49,0,0,1,1.39.59,2.8,2.8,0,0,1,.78,1.15,3.58,3.58,0,0,1,.18,1.5,5.16,5.16,0,0,1-.43,1.67,8.13,8.13,0,0,1-1.41,2.24,8.46,8.46,0,0,1-2,1.67,9,9,0,0,1-2.41,1,8.52,8.52,0,0,1-2.61.26,3.17,3.17,0,0,0,.42,2.15,1.89,1.89,0,0,0,1.65.78,6.37,6.37,0,0,0,1.83-.31,8.57,8.57,0,0,0,2.09-1,10.31,10.31,0,0,0,2-1.72,10.72,10.72,0,0,0,1.72-2.53h0l.57-1.19q.4-.83.74-1.59t.65-1.55q.31-.79.62-1.78a.8.8,0,0,1-.43-.48,2.2,2.2,0,0,1-.12-.76h1.53q4.52-1,5,2A3.86,3.86,0,0,1,346.33,122.83Zm-48.57-9.05a2.13,2.13,0,0,1,1.27-1.2,1.91,1.91,0,0,1,1.6.15,2.26,2.26,0,0,1,1,1.36,2.62,2.62,0,0,1-1.44,3,1.79,1.79,0,0,1-1.6-.09,2.21,2.21,0,0,1-1-1.38A2.51,2.51,0,0,1,297.76,113.78Zm107.51-50a1,1,0,0,1-.82.35,1.8,1.8,0,0,1-.91-.35,3.91,3.91,0,0,1-.86-.84,3.66,3.66,0,0,1-.58-1.05,3.27,3.27,0,0,0-2.25,1,4.11,4.11,0,0,0-1.13,2.62,6.82,6.82,0,0,0,.51,3.3q.65,1.51,1.35,3.06a19.79,19.79,0,0,1,1.14,3.27,7.73,7.73,0,0,1-.13,3.89,8.4,8.4,0,0,1-1.85,3.18A7.09,7.09,0,0,1,397.08,84a6,6,0,0,1-3,.31,5.62,5.62,0,0,1-2.8-1.25,5.13,5.13,0,0,1-1.37-1.62,4.16,4.16,0,0,1-.49-1.65,2.5,2.5,0,0,1,.26-1.35,1.41,1.41,0,0,1,.82-.73,1,1,0,0,1,1,.17,2.09,2.09,0,0,1,.65,1,5,5,0,0,1,.25,1.54,11.06,11.06,0,0,1-.12,1.86,2.64,2.64,0,0,0,1.49.22,3.09,3.09,0,0,0,1.45-.59,4.28,4.28,0,0,0,1.15-1.35,5.31,5.31,0,0,0,.64-2,6,6,0,0,0-.23-2.7,26.66,26.66,0,0,0-1-2.57q-.56-1.27-1-2.46a5.73,5.73,0,0,1-.44-2.43l.66-2.05-.14-.05q-.38.81-.89,1.86t-1.08,2.16q-.56,1.11-1.1,2.13l-.41.75h0l-.1.16c-.18.31-.35.6-.51.86l0,0c-.62,1-1.22,1.91-1.8,2.76a22.71,22.71,0,0,1-2.39,3,10.85,10.85,0,0,1-2.46,2,5.27,5.27,0,0,1-2.64.69,3,3,0,0,1-2.33-1.11,4,4,0,0,1-.88-3,8.3,8.3,0,0,1,.78-3q.73-1.64,1.81-3.69,1.27-2.43,2-4a12.25,12.25,0,0,0,.87-2.56,1.7,1.7,0,0,0-.11-1.3,1.08,1.08,0,0,0-1-.3,3.41,3.41,0,0,0-1.47.7,12.58,12.58,0,0,0-2.08,2,33.59,33.59,0,0,0-2.58,3.47,44,44,0,0,0-2.86,5.15L370.3,82.6l-5,0,2.16-5.17a7.94,7.94,0,0,1-.83.58,8.39,8.39,0,0,1-4.77,1.28,10,10,0,0,1-7.49,3.32,6,6,0,0,1-3.46-1,5.79,5.79,0,0,1-2.1-2.57,8.69,8.69,0,0,1-.64-3.31c-.25.37-.5.75-.74,1.1a25.51,25.51,0,0,1-2.39,3,10.2,10.2,0,0,1-2.46,2,5.31,5.31,0,0,1-2.62.69,3,3,0,0,1-2.31-1.09,4,4,0,0,1-.86-3,9.47,9.47,0,0,1,.78-3.16q.68-1.59,1.76-3.64,1.27-2.43,1.93-4a15.27,15.27,0,0,0,.85-2.56,1.65,1.65,0,0,0-.09-1.3,1.08,1.08,0,0,0-1-.3,5.65,5.65,0,0,0-2.67,1.88,28.06,28.06,0,0,0-4,6.09l0,.05v.05l-4.66,10.95-5,0,4.47-10.84L330.4,69a24,24,0,0,0,1.08-2.75,6.72,6.72,0,0,0,.38-2.11q0-.84-.91-.73a3.23,3.23,0,0,0-1.43.67,12.09,12.09,0,0,0-2,2A30.08,30.08,0,0,0,325,69.52a50.72,50.72,0,0,0-2.79,5.2L319,82.43l-5,0,1.59-3.81c-.33.41-.67.79-1,1.14a10.2,10.2,0,0,1-2.46,2,5.31,5.31,0,0,1-2.62.69,3,3,0,0,1-2.31-1.09,4,4,0,0,1-.86-3,9.48,9.48,0,0,1,.78-3.16q.68-1.59,1.76-3.64,1.27-2.43,1.93-4a15.26,15.26,0,0,0,.85-2.56,1.65,1.65,0,0,0-.09-1.3,1.08,1.08,0,0,0-1-.3A5.65,5.65,0,0,0,308,65.23a28.06,28.06,0,0,0-4,6.09l0,.05v.05l-4.66,10.95-5,0,4.47-10.84,1.2-2.62A24,24,0,0,0,301,66.15a6.73,6.73,0,0,0,.38-2.11q0-.84-.91-.73a3.23,3.23,0,0,0-1.43.67,12.09,12.09,0,0,0-2,2,30.09,30.09,0,0,0-2.49,3.47,50.76,50.76,0,0,0-2.79,5.2l-3.24,7.71-5,0L285,79c-.12.14-.24.3-.36.44A10.8,10.8,0,0,1,282,81.56a6.15,6.15,0,0,1-3.13.8,2.94,2.94,0,0,1-2.24-1.11,4.26,4.26,0,0,1-.69-3.43,13.63,13.63,0,0,1,1.16-3.91q1-2.18,2-4.72l3.24-7.44a9.92,9.92,0,0,0,2.66-.15,10.29,10.29,0,0,0,2.71-.86l-5.88,13.59q-2.12,5.12-.39,5.13,1.07,0,2.72-1.66a22.81,22.81,0,0,0,3.5-5.35l4.54-10.88a6.27,6.27,0,0,0,2.5-.07,26.35,26.35,0,0,0,2.83-.72l-1.22,2.86-2,2.69.14.27a15.44,15.44,0,0,1,4.8-4.74,7.14,7.14,0,0,1,4.23-1.12,2.59,2.59,0,0,1,1.89,1,3.87,3.87,0,0,1,.77,2.16L305.05,66l.09.16a14.67,14.67,0,0,1,4.5-4.3,7.52,7.52,0,0,1,4-1.12,2.75,2.75,0,0,1,2.7,2.65,7,7,0,0,1-.36,3.7,45.77,45.77,0,0,1-2,4.39q-.85,1.67-1.55,3.15a21.34,21.34,0,0,0-1.06,2.59A5,5,0,0,0,311.1,79a.6.6,0,0,0,.65.65,2.58,2.58,0,0,0,1.47-.67A11.94,11.94,0,0,0,315,77.21a27.16,27.16,0,0,0,1.78-2.37c.48-.71.91-1.42,1.31-2.12l4.61-11.06a6.28,6.28,0,0,0,2.5-.07,26.36,26.36,0,0,0,2.83-.72l-1.22,2.86-2,2.69.14.27a15.44,15.44,0,0,1,4.8-4.74A7.14,7.14,0,0,1,334,60.83a2.59,2.59,0,0,1,1.89,1,3.87,3.87,0,0,1,.77,2.16l-1.13,2.1.09.16a14.67,14.67,0,0,1,4.5-4.3,7.52,7.52,0,0,1,4-1.12,2.75,2.75,0,0,1,2.7,2.65,7,7,0,0,1-.36,3.7,45.75,45.75,0,0,1-2,4.39q-.85,1.67-1.55,3.15a21.36,21.36,0,0,0-1.06,2.59,5,5,0,0,0-.31,1.75.6.6,0,0,0,.65.65,2.58,2.58,0,0,0,1.47-.67,11.94,11.94,0,0,0,1.76-1.72,27.18,27.18,0,0,0,1.78-2.37c.46-.69.88-1.37,1.27-2a18.19,18.19,0,0,1,.61-2.24,16.81,16.81,0,0,1,1.95-4,14.61,14.61,0,0,1,2.7-3,12.12,12.12,0,0,1,3.18-2A8.91,8.91,0,0,1,360.4,61a6.11,6.11,0,0,1,3.39.91,5.63,5.63,0,0,1,2.07,2.42,8.39,8.39,0,0,1,.69,3.55,14.65,14.65,0,0,1-.71,4.3,24.81,24.81,0,0,1-1.15,3,16.49,16.49,0,0,1-1.43,2.49,5.7,5.7,0,0,0,3.49-1.34,9.6,9.6,0,0,0,2.47-3L374,61.83a6.28,6.28,0,0,0,2.5-.07,26.34,26.34,0,0,0,2.83-.72l-1.22,2.86-2,2.75.14.27a15.58,15.58,0,0,1,5-4.76A7.52,7.52,0,0,1,385.6,61a3,3,0,0,1,2.7,2.6,6.11,6.11,0,0,1-.36,3.56q-.73,1.89-2,4.53-.89,1.78-1.6,3.26a22.57,22.57,0,0,0-1.06,2.56,4.75,4.75,0,0,0-.31,1.7.59.59,0,0,0,.65.62,2.51,2.51,0,0,0,1.5-.67,13.61,13.61,0,0,0,1.76-1.72,21.88,21.88,0,0,0,1.78-2.37q.87-1.32,1.57-2.61h0c.42-.79.84-1.59,1.28-2.38q1-1.72,1.81-3.45A17,17,0,0,1,394.89,64a8.93,8.93,0,0,1,1.9-1.94,7.71,7.71,0,0,1,2.39-1.18,10.72,10.72,0,0,1,3.11-.39,3.65,3.65,0,0,1,1.7.38,3.37,3.37,0,0,1,1.12.89,2,2,0,0,1,.44,1.08A1.23,1.23,0,0,1,405.26,63.82Z" fill="#fff" stroke="#000" stroke-miterlimit="10" stroke-width="0.25"/><path d="M127.78,62.39a6.22,6.22,0,0,0-2.36,1.13A13.58,13.58,0,0,0,123,65.88a21.72,21.72,0,0,0-2.3,3.48,25.1,25.1,0,0,0-1.81,4.07,12.58,12.58,0,0,0-.66,3.1,4.07,4.07,0,0,0,.28,2,1.12,1.12,0,0,0,1,.71q1.4,0,3.33-2.5a32.45,32.45,0,0,0,3.85-6.82l3.15-7.28A3,3,0,0,0,127.78,62.39Z" fill="#fff" stroke="#000" stroke-miterlimit="10" stroke-width="0.25"/><path d="M184.21,119l.68-1.37h1.34l1.27-3-.1-.06A1.28,1.28,0,0,1,187,114a2.22,2.22,0,0,1,0-1,1.2,1.2,0,0,0-1.24,0,3.51,3.51,0,0,0-1.07,1.07,11.69,11.69,0,0,0-1,1.8q-.48,1.06-.94,2.18l-3.19,7.4h3.3l.36-.85,2.37-5.53Z" fill="#fff" stroke="#000" stroke-miterlimit="10" stroke-width="0.25"/><path d="M239.22,123.53a5.18,5.18,0,0,0,.71-2.34q0-.9-.46-1-.67-.25-2,1a15.64,15.64,0,0,0-2.79,4.26,12.07,12.07,0,0,0-1,3,5.5,5.5,0,0,0,3-1.44A11.12,11.12,0,0,0,239.22,123.53Z" fill="#fff" stroke="#000" stroke-miterlimit="10" stroke-width="0.25"/><path d="M170.37,119.88a1.88,1.88,0,0,0-1.13.44,6.45,6.45,0,0,0-1.18,1.21,13.33,13.33,0,0,0-1.16,1.83,22.09,22.09,0,0,0-1.06,2.29,20,20,0,0,0-.83,2.41,9.24,9.24,0,0,0-.34,2,3.25,3.25,0,0,0,.19,1.41.79.79,0,0,0,.78.51,2.26,2.26,0,0,0,1.5-.75,9.42,9.42,0,0,0,1.56-2.06,2.4,2.4,0,0,1-.36-1.27,2.17,2.17,0,0,1,.49-1.41,1.51,1.51,0,0,1,1.22-.6.38.38,0,0,1,.18,0s0,0,0,0,0,0,0,0a18.72,18.72,0,0,0,.75-2.36,9.26,9.26,0,0,0,.28-1.92,2.82,2.82,0,0,0-.21-1.29A.76.76,0,0,0,170.37,119.88Z" fill="#fff" stroke="#000" stroke-miterlimit="10" stroke-width="0.25"/><path d="M215.52,120.51a4.07,4.07,0,0,0-1.54.74,8.87,8.87,0,0,0-1.59,1.55,14.23,14.23,0,0,0-1.5,2.27,16.46,16.46,0,0,0-1.18,2.66,8.22,8.22,0,0,0-.43,2,3.36,3.36,0,0,0,.07,1,1.54,1.54,0,0,0,.11.31.73.73,0,0,0,.69.46c2-.35,6.2-8.44,6.75-10.84A2,2,0,0,0,215.52,120.51Z" fill="#fff" stroke="#000" stroke-miterlimit="10" stroke-width="0.25"/><path d="M352.1,77.58a6.64,6.64,0,0,0,0,.7c0-.07,0-.13,0-.2a14.17,14.17,0,0,1,.52-3.13A10.5,10.5,0,0,0,352.1,77.58Z" fill="#fff" stroke="#000" stroke-miterlimit="10" stroke-width="0.25"/><path d="M360.83,62.43a2.87,2.87,0,0,0-1.73.67A9.87,9.87,0,0,0,357.3,65a20.35,20.35,0,0,0-1.78,2.8c-.58,1.08-1.08,2.27-1.62,3.5a23.46,23.46,0,0,0-1.79,7.46,2.81,2.81,0,0,0,.29,1.52,1.22,1.22,0,0,0,1.19.79,3.46,3.46,0,0,0,2.29-1.15,14.41,14.41,0,0,0,2.39-3.15,3.67,3.67,0,0,1-.56-1.95,3.32,3.32,0,0,1,.75-2.16,2.31,2.31,0,0,1,1.87-.91.58.58,0,0,1,.28.05s0-.05,0-.05,0,0,0-.05a28.52,28.52,0,0,0,1.15-3.61q.12-.48.2-.93a12.38,12.38,0,0,0,.23-2,4.33,4.33,0,0,0-.32-2A1.16,1.16,0,0,0,360.83,62.43Z" fill="#fff" stroke="#000" stroke-miterlimit="10" stroke-width="0.25"/><path d="M289.73,120.95a2.58,2.58,0,0,0-2.86.1,8.93,8.93,0,0,0-2.93,3.66,12.67,12.67,0,0,0-1,2.36,6,6,0,0,0-.28,1.71,1.68,1.68,0,0,0,.32,1.06,1,1,0,0,0,.76.37A2.76,2.76,0,0,0,285.7,129a14.88,14.88,0,0,0,2.13-3.71Z" fill="#fff" stroke="#000" stroke-miterlimit="10" stroke-width="0.25"/><path d="M333.51,123.85a5.18,5.18,0,0,0,.71-2.34q0-.9-.46-1-.67-.25-2,1a15.64,15.64,0,0,0-2.79,4.26,12.07,12.07,0,0,0-1,3,5.5,5.5,0,0,0,3-1.44A11.12,11.12,0,0,0,333.51,123.85Z" fill="#fff" stroke="#000" stroke-miterlimit="10" stroke-width="0.25"/><path d="M321.21,123.81a5.18,5.18,0,0,0,.71-2.34q0-.9-.46-1-.67-.25-2,1a15.64,15.64,0,0,0-2.79,4.26,12.07,12.07,0,0,0-1,3,5.5,5.5,0,0,0,3-1.44A11.12,11.12,0,0,0,321.21,123.81Z" fill="#fff" stroke="#000" stroke-miterlimit="10" stroke-width="0.25"/></svg>